<svg id="svg" version="1.1" xmlns="http://www.w3.org/2000/svg" xmlns:xlink="http://www.w3.org/1999/xlink" width="400" height="400" viewBox="0, 0, 400,400"><g id="svgg"><path id="path0" d="M143.775 44.100 L 142.600 45.400 143.900 44.225 C 145.112 43.130,145.384 42.800,145.075 42.800 C 145.006 42.800,144.421 43.385,143.775 44.100 M86.443 101.623 C 85.917 102.061,85.571 102.505,85.675 102.608 C 85.779 102.712,86.286 102.348,86.801 101.798 C 87.924 100.604,87.762 100.525,86.443 101.623 M76.267 111.467 C 75.884 111.849,75.938 112.400,76.357 112.400 C 76.554 112.400,76.818 112.130,76.945 111.800 C 77.179 111.190,76.753 110.981,76.267 111.467 M69.353 119.021 C 69.490 119.379,69.423 119.538,69.192 119.395 C 68.738 119.114,67.600 120.114,67.600 120.795 C 67.600 121.044,67.465 121.165,67.300 121.066 C 67.135 120.966,66.768 121.135,66.484 121.442 C 65.856 122.121,66.051 122.142,67.381 121.536 C 67.942 121.280,68.400 120.851,68.400 120.582 C 68.400 120.313,68.760 119.999,69.200 119.884 C 70.031 119.667,70.336 118.400,69.557 118.400 C 69.314 118.400,69.222 118.679,69.353 119.021 M64.880 123.020 C 64.593 123.345,64.487 123.833,64.644 124.105 C 64.800 124.377,64.781 124.467,64.601 124.303 C 64.106 123.855,63.201 124.785,63.194 125.749 C 63.189 126.389,63.101 126.463,62.839 126.049 C 62.424 125.395,61.600 125.793,61.600 126.647 C 61.600 126.977,61.446 127.152,61.258 127.036 C 60.758 126.727,59.068 128.663,59.388 129.180 C 59.537 129.422,59.507 129.570,59.322 129.510 C 58.874 129.364,57.982 130.123,55.262 132.961 C 54.018 134.259,52.389 135.879,51.643 136.561 C 47.720 140.144,2.800 185.268,2.800 185.626 C 2.800 185.858,2.592 185.919,2.338 185.762 C 2.064 185.593,1.985 185.651,2.142 185.906 C 2.288 186.142,2.136 186.607,1.804 186.939 C 1.472 187.271,1.200 187.811,1.200 188.138 C 1.200 188.465,0.975 188.808,0.700 188.900 C -0.019 189.140,-0.019 202.460,0.700 202.700 C 0.975 202.792,1.200 203.172,1.200 203.545 C 1.200 203.918,1.550 204.476,1.979 204.785 C 2.407 205.093,2.665 205.494,2.553 205.676 C 2.441 205.857,2.631 206.114,2.975 206.246 C 3.319 206.378,3.600 206.747,3.600 207.066 C 3.600 207.386,3.780 207.536,4.000 207.400 C 4.220 207.264,4.400 207.421,4.400 207.749 C 4.400 208.078,4.760 208.460,5.200 208.600 C 5.640 208.740,6.000 209.022,6.000 209.227 C 6.000 209.432,6.360 209.600,6.800 209.600 C 7.240 209.600,7.600 209.780,7.600 210.000 C 7.600 210.220,7.945 210.400,8.367 210.400 C 8.788 210.400,9.193 210.572,9.267 210.782 C 9.340 210.993,10.075 211.210,10.900 211.264 C 11.725 211.319,12.400 211.507,12.400 211.682 C 12.400 212.149,19.509 212.071,19.800 211.600 C 19.936 211.380,20.587 211.200,21.247 211.200 C 21.945 211.200,22.344 211.033,22.200 210.800 C 22.064 210.580,22.245 210.400,22.603 210.400 C 22.961 210.400,23.843 209.950,24.564 209.400 C 25.286 208.850,25.964 208.400,26.072 208.400 C 26.181 208.400,29.004 205.700,32.347 202.400 C 35.690 199.100,38.510 196.400,38.613 196.400 C 38.716 196.400,38.800 228.350,38.800 267.400 C 38.800 314.467,38.935 338.400,39.200 338.400 C 39.422 338.400,39.600 339.467,39.600 340.800 C 39.600 342.133,39.778 343.200,40.000 343.200 C 40.220 343.200,40.400 343.920,40.400 344.800 C 40.400 345.680,40.580 346.400,40.800 346.400 C 41.020 346.400,41.200 346.940,41.200 347.600 C 41.200 348.260,41.360 348.800,41.555 348.800 C 41.895 348.800,42.367 350.515,42.492 352.200 C 42.524 352.640,42.709 353.108,42.902 353.240 C 43.095 353.372,43.294 353.759,43.344 354.100 C 43.394 354.440,43.667 354.999,43.950 355.340 C 44.233 355.681,44.504 356.223,44.551 356.544 C 44.690 357.496,46.173 360.390,46.524 360.395 C 46.702 360.398,46.736 360.580,46.600 360.800 C 46.464 361.020,46.543 361.200,46.776 361.200 C 47.009 361.200,47.200 361.517,47.200 361.904 C 47.200 362.291,47.560 362.832,48.000 363.107 C 48.440 363.382,48.800 363.847,48.800 364.141 C 48.800 364.435,49.160 365.002,49.600 365.400 C 50.040 365.798,50.400 366.366,50.400 366.662 C 50.400 366.958,50.580 367.200,50.800 367.200 C 51.020 367.200,51.200 367.481,51.200 367.824 C 51.200 368.167,51.364 368.346,51.565 368.221 C 51.766 368.097,52.166 368.526,52.453 369.174 C 52.739 369.822,53.313 370.441,53.727 370.549 C 54.203 370.674,54.368 370.928,54.175 371.241 C 53.960 371.589,54.072 371.658,54.550 371.474 C 55.043 371.285,55.200 371.397,55.116 371.879 C 55.049 372.264,55.542 372.915,56.284 373.422 C 56.990 373.904,57.455 374.411,57.317 374.549 C 57.179 374.687,57.367 374.800,57.733 374.800 C 58.100 374.800,58.400 374.988,58.400 375.218 C 58.400 375.727,60.224 377.600,60.720 377.600 C 60.916 377.600,61.402 377.960,61.800 378.400 C 62.524 379.200,63.242 379.465,63.153 378.900 C 63.015 378.028,63.264 377.650,63.833 377.868 C 64.385 378.080,64.362 378.216,63.654 378.924 L 62.841 379.736 63.862 380.266 C 64.424 380.557,65.072 380.679,65.303 380.536 C 65.549 380.384,65.605 380.468,65.438 380.738 C 65.281 380.992,65.298 381.199,65.476 381.197 C 65.654 381.195,66.015 380.730,66.279 380.162 C 66.650 379.362,66.650 379.172,66.279 379.314 C 65.563 379.589,65.786 125.183,66.501 124.729 C 66.798 124.540,66.825 124.410,66.567 124.406 C 65.999 124.398,65.995 123.085,66.561 122.706 C 66.819 122.533,66.671 122.416,66.200 122.421 C 65.760 122.426,65.166 122.696,64.880 123.020 M141.795 295.000 C 141.795 330.640,141.842 345.161,141.900 327.268 C 141.958 309.376,141.958 280.216,141.900 262.468 C 141.842 244.721,141.795 259.360,141.795 295.000 M70.634 329.861 C 71.029 331.534,71.436 331.780,71.401 330.324 C 71.385 329.627,71.145 328.982,70.868 328.889 C 70.504 328.768,70.439 329.036,70.634 329.861 M71.200 335.520 C 71.200 335.784,71.391 336.000,71.624 336.000 C 71.857 336.000,71.944 336.168,71.817 336.372 C 71.691 336.577,71.754 336.848,71.958 336.974 C 72.484 337.299,72.250 336.090,71.676 335.516 C 71.308 335.148,71.200 335.149,71.200 335.520 M78.000 348.308 C 78.000 348.494,78.240 348.975,78.533 349.376 C 78.921 349.906,79.067 349.950,79.067 349.535 C 79.067 349.222,78.827 348.741,78.533 348.467 C 78.240 348.193,78.000 348.121,78.000 348.308 M105.100 359.898 C 106.915 359.972,109.885 359.972,111.700 359.898 C 113.515 359.823,112.030 359.763,108.400 359.763 C 104.770 359.763,103.285 359.823,105.100 359.898 M66.195 381.557 C 65.879 382.381,66.334 382.633,67.182 382.104 C 67.801 381.717,68.038 381.788,68.575 382.519 C 69.217 383.392,69.218 383.391,68.727 382.400 C 68.453 381.850,68.253 381.310,68.282 381.200 C 68.408 380.713,66.386 381.059,66.195 381.557 " stroke="none" fill="#0fe5fc" fill-rule="evenodd"></path><path id="path1" d="M196.800 8.024 C 196.800 8.257,196.575 8.318,196.300 8.159 C 196.025 8.001,195.940 8.026,196.112 8.214 C 196.520 8.663,197.664 8.827,197.399 8.399 C 197.287 8.217,197.421 7.977,197.698 7.866 C 198.001 7.744,197.922 7.651,197.500 7.632 C 197.115 7.614,196.800 7.791,196.800 8.024 M190.710 8.870 C 190.626 9.121,189.982 9.310,189.279 9.290 C 188.576 9.270,188.000 9.421,188.000 9.627 C 188.000 9.832,187.565 10.000,187.033 10.000 C 186.502 10.000,185.975 10.225,185.864 10.500 C 185.711 10.876,185.556 10.852,185.237 10.400 C 184.925 9.959,184.811 9.939,184.806 10.324 C 184.803 10.612,184.652 10.756,184.471 10.644 C 184.291 10.532,183.678 10.682,183.110 10.977 C 182.542 11.271,181.448 11.720,180.680 11.974 C 179.911 12.227,178.880 12.783,178.389 13.209 C 177.898 13.635,177.320 13.874,177.104 13.740 C 176.887 13.607,176.596 13.667,176.455 13.875 C 176.180 14.282,172.330 16.970,172.000 16.986 C 171.890 16.991,171.103 17.671,170.252 18.497 C 169.400 19.324,168.515 20.000,168.285 20.000 C 168.055 20.000,167.978 20.111,168.114 20.248 C 168.436 20.569,167.405 21.600,166.762 21.600 C 166.490 21.600,166.365 21.698,166.485 21.819 C 166.725 22.059,161.584 27.194,161.100 27.198 C 160.935 27.199,160.800 27.470,160.800 27.800 C 160.800 28.130,160.620 28.400,160.400 28.400 C 159.881 28.400,158.400 29.881,158.400 30.400 C 158.400 30.620,158.100 30.800,157.733 30.800 C 157.367 30.800,157.168 30.901,157.291 31.024 C 157.570 31.304,155.712 33.200,155.158 33.200 C 154.935 33.200,154.864 33.380,155.000 33.600 C 155.136 33.820,154.956 34.000,154.600 34.000 C 154.244 34.000,154.064 34.180,154.200 34.400 C 154.336 34.620,154.179 34.800,153.851 34.800 C 153.522 34.800,153.140 35.160,153.000 35.600 C 152.860 36.040,152.581 36.400,152.380 36.400 C 151.859 36.400,149.200 39.048,149.200 39.567 C 149.200 39.805,149.009 40.000,148.775 40.000 C 148.237 40.000,142.566 45.693,142.700 46.098 C 142.755 46.264,142.648 46.400,142.461 46.400 C 141.930 46.400,140.189 48.047,140.300 48.444 C 140.355 48.640,140.158 48.800,139.862 48.800 C 139.566 48.800,138.981 49.191,138.562 49.669 C 138.086 50.212,138.025 50.408,138.400 50.192 C 138.916 49.895,138.924 49.940,138.455 50.519 C 138.155 50.889,137.750 51.093,137.555 50.972 C 137.360 50.851,137.200 51.044,137.200 51.400 C 137.200 51.756,137.020 51.936,136.800 51.800 C 136.580 51.664,136.400 51.791,136.400 52.082 C 136.400 52.374,135.592 53.395,134.605 54.352 C 133.617 55.309,132.896 56.232,133.002 56.404 C 133.109 56.576,132.938 56.815,132.624 56.936 C 132.309 57.056,131.988 56.965,131.911 56.734 C 131.834 56.502,131.507 56.637,131.185 57.033 C 130.833 57.467,130.799 57.634,131.100 57.453 C 131.416 57.263,131.600 57.386,131.600 57.789 C 131.600 58.139,131.331 58.528,131.002 58.654 C 130.674 58.781,130.492 59.025,130.598 59.196 C 130.704 59.368,130.433 59.603,129.996 59.717 C 128.754 60.042,128.744 102.323,129.985 103.098 C 130.660 103.519,130.735 103.495,130.516 102.925 C 130.321 102.416,130.424 102.324,130.957 102.528 C 131.514 102.742,131.602 102.636,131.399 101.997 C 131.217 101.424,131.329 101.200,131.797 101.200 C 132.180 101.200,132.332 101.386,132.167 101.654 C 132.012 101.904,132.451 101.690,133.143 101.179 C 133.834 100.668,134.400 100.103,134.400 99.925 C 134.400 99.746,134.715 99.597,135.100 99.594 C 135.698 99.589,135.713 99.531,135.200 99.200 C 134.791 98.936,134.761 98.810,135.105 98.806 C 135.569 98.801,145.526 89.279,151.350 83.273 C 156.281 78.187,161.600 72.825,161.600 72.942 C 161.600 73.007,163.638 71.067,166.129 68.630 C 168.621 66.194,170.599 64.124,170.526 64.030 C 170.453 63.937,170.890 63.533,171.497 63.133 C 172.104 62.733,172.464 62.404,172.297 62.403 C 172.131 62.401,173.301 61.138,174.897 59.595 C 178.538 56.078,178.197 56.414,179.552 55.000 C 180.185 54.340,180.950 53.598,181.251 53.351 C 181.553 53.105,182.782 51.800,183.982 50.451 C 185.182 49.103,186.298 48.000,186.463 48.000 C 186.942 48.000,188.739 46.072,188.491 45.824 C 188.368 45.701,188.567 45.600,188.933 45.600 C 189.333 45.600,189.600 45.280,189.600 44.800 C 189.600 44.360,189.825 44.045,190.100 44.100 C 190.375 44.155,190.555 43.975,190.500 43.700 C 190.445 43.425,190.760 43.200,191.200 43.200 C 191.640 43.200,192.000 43.054,192.000 42.875 C 192.000 42.696,192.642 42.297,193.427 41.989 C 194.637 41.515,194.760 41.360,194.232 40.974 C 193.690 40.577,193.596 38.463,193.505 24.569 L 193.400 8.620 192.131 8.518 C 191.433 8.461,190.793 8.620,190.710 8.870 M154.609 217.214 C 154.809 217.538,153.344 217.812,152.300 217.647 C 152.135 217.621,152.000 217.780,152.000 218.000 C 152.000 218.220,151.728 218.400,151.395 218.400 C 150.015 218.400,145.200 222.097,145.200 223.156 C 145.200 223.414,144.946 223.722,144.636 223.841 C 144.196 224.010,143.418 225.789,143.562 226.297 C 143.577 226.350,143.232 227.031,142.795 227.809 C 142.011 229.205,142.000 230.108,142.000 294.512 L 142.000 359.800 128.300 359.757 L 114.600 359.714 124.142 360.038 C 133.101 360.342,137.186 360.697,132.533 360.768 C 128.892 360.824,129.200 359.397,129.200 376.213 C 129.200 390.094,129.151 391.154,128.500 391.324 C 128.115 391.425,129.240 391.565,131.000 391.635 C 133.945 391.752,133.802 391.781,129.200 392.000 C 126.368 392.135,132.220 392.273,142.700 392.319 C 152.959 392.364,161.200 392.245,161.200 392.053 C 161.200 391.862,161.881 391.614,162.713 391.502 C 165.011 391.194,170.400 387.617,170.400 386.400 C 170.400 386.200,170.805 385.613,171.300 385.096 C 172.477 383.866,173.039 382.788,173.017 381.800 C 173.008 381.360,173.175 380.875,173.388 380.722 C 173.947 380.322,173.924 383.024,173.963 313.551 L 174.000 249.702 183.997 249.408 C 189.496 249.246,193.901 248.964,193.787 248.779 C 193.673 248.595,194.440 248.377,195.490 248.294 L 197.400 248.144 195.500 248.072 L 193.600 248.000 193.600 233.220 L 193.600 218.440 191.300 218.296 L 189.000 218.151 191.300 218.076 C 193.056 218.018,193.600 217.856,193.600 217.393 C 193.600 216.859,191.260 216.789,173.985 216.808 C 161.500 216.821,154.457 216.969,154.609 217.214 M269.100 359.900 C 274.435 359.963,283.165 359.963,288.500 359.900 C 293.835 359.837,289.470 359.785,278.800 359.785 C 268.130 359.785,263.765 359.837,269.100 359.900 " stroke="none" fill="#2cccfc" fill-rule="evenodd"></path><path id="path2" d="M197.698 7.894 C 197.421 7.990,197.287 8.217,197.399 8.399 C 197.630 8.772,196.821 8.716,196.181 8.315 C 195.950 8.171,195.525 8.199,195.237 8.377 C 194.948 8.556,194.416 8.625,194.056 8.530 C 192.945 8.240,193.281 40.409,194.397 41.105 C 195.055 41.516,195.307 41.453,196.018 40.696 C 196.480 40.203,196.801 39.980,196.729 40.200 C 196.658 40.420,196.780 40.600,197.000 40.600 C 197.220 40.600,197.361 40.483,197.314 40.341 C 197.266 40.199,197.581 40.175,198.014 40.288 C 198.511 40.418,198.802 40.292,198.806 39.947 C 198.811 39.520,198.897 39.532,199.200 40.000 C 199.505 40.471,199.589 40.482,199.594 40.051 C 199.598 39.641,199.734 39.613,200.130 39.942 C 200.517 40.263,200.801 40.250,201.188 39.890 C 201.573 39.534,201.644 39.530,201.449 39.877 C 201.266 40.203,201.531 40.325,202.291 40.262 C 202.901 40.211,203.648 40.412,203.952 40.708 C 204.255 41.004,204.744 41.154,205.039 41.040 C 205.333 40.927,205.688 41.019,205.828 41.245 C 205.967 41.470,206.340 41.555,206.656 41.434 C 206.972 41.313,207.333 41.480,207.458 41.807 C 207.583 42.133,207.936 42.400,208.243 42.400 C 208.549 42.400,208.800 42.580,208.800 42.800 C 208.800 43.020,209.076 43.200,209.413 43.200 C 209.749 43.200,210.125 43.460,210.246 43.777 C 210.577 44.638,213.904 47.962,214.170 47.697 C 214.297 47.570,214.400 47.687,214.400 47.957 C 214.400 48.227,214.580 48.336,214.800 48.200 C 215.020 48.064,215.200 48.233,215.200 48.576 C 215.200 48.919,215.380 49.200,215.600 49.200 C 215.820 49.200,216.000 49.481,216.000 49.824 C 216.000 50.167,216.180 50.336,216.400 50.200 C 216.620 50.064,216.800 50.203,216.800 50.509 C 216.800 50.815,217.250 51.306,217.799 51.600 C 218.349 51.894,218.725 52.208,218.635 52.298 C 218.342 52.591,220.892 54.790,221.261 54.562 C 221.458 54.440,221.570 54.579,221.510 54.870 C 221.449 55.162,221.625 55.355,221.900 55.300 C 222.175 55.245,222.400 55.481,222.400 55.824 C 222.400 56.167,222.580 56.336,222.800 56.200 C 223.020 56.064,223.200 56.171,223.200 56.438 C 223.200 56.705,223.908 57.598,224.774 58.421 C 225.640 59.245,226.225 60.042,226.074 60.193 C 225.923 60.343,226.055 60.407,226.367 60.333 C 226.679 60.260,227.145 60.604,227.403 61.098 C 227.661 61.591,227.990 61.876,228.136 61.731 C 228.281 61.586,228.400 61.690,228.400 61.962 C 228.400 62.605,229.431 63.636,229.752 63.314 C 229.889 63.178,230.000 63.367,230.000 63.733 C 230.000 64.100,230.258 64.400,230.573 64.400 C 230.888 64.400,231.261 64.763,231.402 65.206 C 231.543 65.649,231.825 65.908,232.029 65.782 C 232.233 65.656,232.400 65.736,232.400 65.961 C 232.400 66.427,235.507 69.600,235.964 69.600 C 236.129 69.600,236.502 70.044,236.793 70.586 C 237.083 71.129,237.473 71.478,237.660 71.363 C 237.847 71.247,238.000 71.444,238.000 71.800 C 238.000 72.156,238.180 72.336,238.400 72.200 C 238.620 72.064,238.800 72.233,238.800 72.576 C 238.800 72.919,238.935 73.201,239.100 73.202 C 239.265 73.203,239.982 73.788,240.692 74.502 C 242.904 76.724,257.545 91.378,257.974 91.800 C 258.197 92.020,262.067 95.890,266.572 100.400 C 271.078 104.910,274.948 108.780,275.173 109.000 C 275.399 109.220,278.809 112.673,282.752 116.673 C 286.695 120.672,290.029 123.837,290.161 123.706 C 290.292 123.574,290.401 123.722,290.401 124.033 C 290.402 124.345,290.941 124.960,291.600 125.400 C 292.259 125.840,292.798 126.394,292.799 126.630 C 292.801 127.251,308.634 143.233,308.942 142.924 C 309.084 142.783,309.200 142.886,309.200 143.154 C 309.200 143.422,310.145 144.635,311.300 145.849 C 315.835 150.618,320.400 155.221,320.400 155.024 C 320.400 154.910,322.015 156.478,323.990 158.508 C 325.964 160.539,327.944 162.566,328.390 163.014 C 329.194 163.822,329.200 164.166,329.200 210.114 C 329.200 240.705,329.336 256.400,329.600 256.400 C 329.820 256.400,330.000 256.672,330.000 257.005 C 330.000 257.625,330.787 259.238,331.268 259.604 C 331.415 259.716,331.595 260.064,331.668 260.378 C 331.870 261.251,335.902 265.200,336.591 265.200 C 336.926 265.200,337.200 265.380,337.200 265.600 C 337.200 265.820,337.549 266.000,337.976 266.000 C 338.403 266.000,338.864 266.180,339.000 266.400 C 339.136 266.620,339.676 266.800,340.200 266.800 C 340.724 266.800,341.264 266.980,341.400 267.200 C 341.718 267.714,349.090 267.726,349.267 267.213 C 349.340 267.000,349.985 266.781,350.700 266.728 C 351.415 266.674,352.000 266.488,352.000 266.315 C 352.000 266.142,352.360 266.000,352.800 266.000 C 353.240 266.000,353.600 265.820,353.600 265.600 C 353.600 265.380,353.825 265.200,354.100 265.200 C 354.702 265.199,356.866 263.400,356.593 263.127 C 356.488 263.021,356.863 262.688,357.427 262.386 C 358.016 262.070,358.548 261.360,358.676 260.718 C 358.799 260.103,359.058 259.600,359.250 259.600 C 359.443 259.600,359.600 259.330,359.600 259.000 C 359.600 258.670,359.780 258.400,360.000 258.400 C 360.220 258.400,360.400 257.950,360.400 257.400 C 360.400 256.850,360.580 256.400,360.800 256.400 C 361.063 256.400,361.200 246.133,361.200 226.400 C 361.200 209.900,361.296 196.400,361.413 196.400 C 361.530 196.400,364.404 199.145,367.800 202.500 C 371.197 205.855,374.215 208.780,374.508 209.000 C 375.596 209.817,376.808 210.400,377.418 210.400 C 377.764 210.400,377.936 210.580,377.800 210.800 C 377.653 211.038,378.121 211.200,378.953 211.200 C 379.723 211.200,380.464 211.380,380.600 211.600 C 380.737 211.821,382.537 212.000,384.624 212.000 C 386.875 212.000,388.400 211.838,388.400 211.600 C 388.400 211.380,388.852 211.200,389.405 211.200 C 390.291 211.200,391.823 210.584,392.400 209.996 C 392.510 209.884,393.275 209.438,394.100 209.005 C 394.925 208.572,395.600 208.119,395.600 207.998 C 395.600 207.877,396.144 207.153,396.809 206.389 C 398.700 204.217,398.800 204.070,398.800 203.450 C 398.800 203.129,399.025 202.792,399.300 202.700 C 399.674 202.575,399.800 200.831,399.800 195.800 C 399.800 190.769,399.674 189.025,399.300 188.900 C 399.025 188.808,398.800 188.388,398.800 187.967 C 398.800 187.545,398.620 187.200,398.400 187.200 C 398.180 187.200,398.000 186.921,398.000 186.581 C 398.000 186.241,389.135 177.061,378.300 166.181 C 356.566 144.358,336.879 124.400,337.086 124.400 C 337.184 124.400,327.214 114.485,324.702 112.085 C 324.538 111.928,320.375 107.705,315.451 102.700 C 310.527 97.695,306.296 93.600,306.049 93.600 C 305.802 93.600,305.645 93.462,305.700 93.294 C 305.755 93.125,290.905 78.094,272.700 59.890 C 254.495 41.687,239.599 26.660,239.599 26.497 C 239.598 26.334,239.059 25.840,238.400 25.400 C 237.741 24.960,237.202 24.482,237.201 24.338 C 237.200 23.980,233.342 20.000,232.997 20.000 C 232.845 20.000,232.217 19.460,231.600 18.800 C 230.983 18.140,230.271 17.600,230.016 17.600 C 229.761 17.600,229.664 17.420,229.800 17.200 C 229.936 16.980,229.743 16.800,229.371 16.800 C 228.998 16.800,228.401 16.462,228.043 16.050 C 227.685 15.637,226.186 14.670,224.711 13.901 C 223.236 13.133,222.143 12.390,222.282 12.252 C 222.420 12.113,222.181 12.000,221.751 12.000 C 221.321 12.000,220.263 11.640,219.400 11.200 C 218.537 10.760,217.520 10.400,217.139 10.400 C 216.759 10.400,216.354 10.249,216.239 10.063 C 216.125 9.878,215.484 9.759,214.816 9.799 C 214.147 9.839,213.600 9.758,213.600 9.619 C 213.600 9.171,210.050 8.400,207.989 8.400 C 206.889 8.400,205.626 8.175,205.182 7.900 C 204.517 7.488,204.309 7.505,203.994 8.000 C 203.726 8.421,203.610 8.447,203.606 8.086 C 203.600 7.589,199.006 7.440,197.698 7.894 M189.694 8.683 C 189.196 8.779,188.881 9.007,188.994 9.191 C 189.252 9.609,190.800 9.233,190.800 8.753 C 190.800 8.559,190.755 8.425,190.700 8.454 C 190.645 8.484,190.192 8.587,189.694 8.683 M186.633 9.547 C 185.520 9.788,184.659 10.800,185.567 10.800 C 185.805 10.800,186.000 10.620,186.000 10.400 C 186.000 10.180,186.450 10.000,187.000 10.000 C 187.550 10.000,188.000 9.820,188.000 9.600 C 188.000 9.380,187.955 9.221,187.900 9.247 C 187.845 9.273,187.275 9.408,186.633 9.547 M190.500 43.700 C 190.555 43.975,190.375 44.155,190.100 44.100 C 189.825 44.045,189.600 44.278,189.600 44.619 C 189.600 45.150,189.740 45.136,190.587 44.519 C 191.716 43.697,191.872 43.200,191.000 43.200 C 190.670 43.200,190.445 43.425,190.500 43.700 M183.912 50.487 C 182.663 51.855,181.722 53.055,181.821 53.154 C 181.919 53.253,182.045 53.254,182.100 53.157 C 182.155 53.060,183.274 51.860,184.587 50.490 C 185.901 49.121,186.797 48.000,186.578 48.000 C 186.360 48.000,185.160 49.119,183.912 50.487 M179.979 54.336 C 179.357 54.840,179.217 55.163,179.535 55.360 C 179.815 55.533,180.000 55.390,180.000 55.000 C 180.000 54.644,180.135 54.435,180.300 54.534 C 180.465 54.634,180.832 54.465,181.116 54.158 C 181.867 53.346,181.043 53.475,179.979 54.336 M193.600 217.375 C 193.600 217.804,192.987 217.999,191.300 218.104 L 189.000 218.249 191.300 218.324 L 193.600 218.400 193.600 233.200 L 193.600 248.000 195.500 248.063 L 197.400 248.126 195.400 248.400 C 194.300 248.551,193.580 248.739,193.800 248.818 C 194.020 248.897,191.950 249.069,189.200 249.200 C 186.450 249.331,193.965 249.474,205.900 249.519 L 227.600 249.600 227.650 314.800 C 227.678 350.660,227.738 380.135,227.785 380.300 C 227.982 381.001,228.485 382.249,228.829 382.895 C 229.033 383.277,229.200 383.862,229.200 384.195 C 229.200 384.528,229.380 384.800,229.600 384.800 C 229.820 384.800,230.000 385.039,230.000 385.332 C 230.000 386.055,233.996 390.050,234.443 389.773 C 234.639 389.652,234.800 389.773,234.800 390.043 C 234.800 390.313,234.911 390.422,235.048 390.286 C 235.184 390.150,235.558 390.301,235.880 390.623 C 236.201 390.944,236.630 391.105,236.832 390.980 C 237.035 390.855,237.200 390.943,237.200 391.176 C 237.200 391.409,237.729 391.600,238.376 391.600 C 239.023 391.600,239.664 391.780,239.800 392.000 C 239.962 392.261,251.412 392.400,272.847 392.400 C 294.612 392.400,305.564 392.265,305.400 392.000 C 305.247 391.752,306.035 391.591,307.476 391.576 C 308.754 391.563,310.700 391.373,311.800 391.154 C 312.900 390.935,314.430 390.654,315.200 390.530 C 315.970 390.407,316.780 390.179,317.000 390.025 C 317.220 389.870,318.210 389.500,319.200 389.202 C 320.190 388.905,321.171 388.512,321.380 388.330 C 321.589 388.149,322.174 388.000,322.680 388.000 C 323.186 388.000,323.600 387.820,323.600 387.600 C 323.600 387.380,323.960 387.200,324.400 387.200 C 324.840 387.200,325.200 387.020,325.200 386.800 C 325.200 386.580,325.560 386.400,326.000 386.400 C 326.440 386.400,326.800 386.220,326.800 386.000 C 326.800 385.780,327.160 385.600,327.600 385.600 C 328.040 385.600,328.400 385.420,328.400 385.200 C 328.400 384.980,328.636 384.800,328.925 384.800 C 329.213 384.800,329.836 384.440,330.308 384.000 C 330.780 383.560,331.444 383.200,331.783 383.200 C 332.122 383.200,332.400 383.020,332.400 382.800 C 332.400 382.580,332.688 382.400,333.040 382.400 C 333.391 382.400,334.183 381.860,334.800 381.200 C 335.417 380.540,336.219 380.000,336.584 380.000 C 336.949 380.000,337.136 379.820,337.000 379.600 C 336.864 379.380,336.952 379.200,337.195 379.200 C 337.438 379.200,338.058 378.795,338.572 378.300 C 339.087 377.805,340.175 376.860,340.990 376.200 C 341.805 375.540,342.951 374.483,343.536 373.850 C 344.121 373.218,345.185 372.111,345.900 371.390 C 346.615 370.670,347.200 369.946,347.200 369.783 C 347.200 369.620,347.740 368.971,348.400 368.340 C 349.060 367.709,349.600 366.964,349.600 366.685 C 349.600 366.405,349.960 365.917,350.400 365.600 C 350.840 365.283,351.200 364.743,351.200 364.400 C 351.200 364.057,351.560 363.517,352.000 363.200 C 352.440 362.883,352.800 362.303,352.800 361.912 C 352.800 361.520,352.945 361.200,353.123 361.200 C 353.505 361.200,355.996 356.309,356.009 355.534 C 356.014 355.240,356.370 354.550,356.800 354.000 C 357.230 353.450,357.586 352.631,357.591 352.180 C 357.596 351.729,357.786 351.174,358.013 350.947 C 358.240 350.720,358.532 349.649,358.662 348.567 C 358.792 347.485,359.056 346.540,359.249 346.467 C 359.442 346.393,359.600 345.628,359.600 344.767 C 359.600 343.905,359.780 343.200,360.000 343.200 C 360.220 343.200,360.400 342.311,360.400 341.224 C 360.400 340.137,360.580 339.136,360.800 339.000 C 361.043 338.850,361.200 335.863,361.200 331.376 C 361.200 326.725,361.052 324.000,360.800 324.000 C 360.580 324.000,360.400 323.640,360.400 323.200 C 360.400 322.760,360.220 322.400,360.000 322.400 C 359.780 322.400,359.600 322.040,359.600 321.600 C 359.600 321.160,359.420 320.800,359.200 320.800 C 358.980 320.800,358.800 320.522,358.800 320.183 C 358.800 319.551,358.439 319.024,356.950 317.481 C 355.514 315.992,354.418 315.200,353.795 315.200 C 353.468 315.200,353.200 315.054,353.200 314.876 C 353.200 313.570,342.561 312.030,341.380 313.165 C 341.171 313.366,340.550 313.591,340.000 313.665 C 339.450 313.739,338.910 313.890,338.800 314.000 C 338.690 314.110,337.790 314.639,336.800 315.175 C 334.837 316.238,331.600 319.406,331.600 320.264 C 331.600 320.559,331.420 320.800,331.200 320.800 C 330.980 320.800,330.800 321.160,330.800 321.600 C 330.800 322.040,330.664 322.400,330.497 322.400 C 329.996 322.400,329.200 325.465,329.200 327.394 C 329.200 328.387,329.020 329.200,328.800 329.200 C 328.567 329.200,328.400 330.533,328.400 332.400 C 328.400 334.267,328.233 335.600,328.000 335.600 C 327.780 335.600,327.600 336.008,327.600 336.506 C 327.600 337.004,327.222 338.399,326.760 339.606 C 326.298 340.813,325.827 342.205,325.713 342.700 C 325.600 343.195,325.348 343.600,325.153 343.600 C 324.959 343.600,324.800 343.870,324.800 344.200 C 324.800 344.530,324.620 344.800,324.400 344.800 C 324.180 344.800,324.000 345.120,324.000 345.512 C 324.000 345.903,323.640 346.483,323.200 346.800 C 322.760 347.117,322.400 347.617,322.400 347.912 C 322.400 348.206,322.247 348.353,322.060 348.237 C 321.873 348.122,321.470 348.516,321.163 349.114 C 320.571 350.266,318.829 351.999,318.260 352.000 C 318.074 352.000,317.444 352.495,316.860 353.100 C 316.277 353.705,315.305 354.455,314.700 354.768 C 314.095 355.080,313.600 355.485,313.600 355.668 C 313.600 355.850,313.240 356.000,312.800 356.000 C 312.360 356.000,312.000 356.180,312.000 356.400 C 312.000 356.620,311.640 356.800,311.200 356.800 C 310.760 356.800,310.400 356.980,310.400 357.200 C 310.400 357.420,309.950 357.600,309.400 357.600 C 308.850 357.600,308.400 357.757,308.400 357.948 C 308.400 358.140,307.455 358.442,306.300 358.618 C 305.145 358.795,303.930 358.993,303.600 359.057 C 300.066 359.752,294.181 359.968,278.300 359.982 L 259.600 360.000 259.600 294.195 C 259.600 254.022,259.454 228.119,259.225 227.695 C 259.019 227.313,258.452 226.154,257.965 225.121 C 256.930 222.925,253.385 219.200,252.329 219.200 C 251.928 219.200,251.600 219.020,251.600 218.800 C 251.600 218.580,251.330 218.400,251.000 218.400 C 250.670 218.400,250.400 218.240,250.400 218.044 C 250.400 217.230,246.127 217.071,220.500 216.934 C 197.084 216.808,193.600 216.865,193.600 217.375 " stroke="none" fill="#40b9fc" fill-rule="evenodd"></path><path id="path3" d="M96.196 92.807 C 96.058 93.030,95.749 93.092,95.511 92.945 C 95.250 92.784,95.192 92.863,95.364 93.141 C 95.524 93.401,95.375 93.711,95.025 93.846 C 94.681 93.978,94.400 94.336,94.400 94.643 C 94.400 94.949,94.255 95.155,94.078 95.100 C 93.900 95.045,93.298 95.492,92.738 96.093 C 92.178 96.695,91.603 97.070,91.460 96.927 C 91.317 96.784,91.200 96.936,91.200 97.266 C 91.200 97.595,90.736 98.113,90.169 98.417 C 89.602 98.720,88.966 99.290,88.755 99.684 C 88.544 100.078,88.108 100.400,87.786 100.400 C 87.464 100.400,87.245 100.625,87.300 100.900 C 87.355 101.175,87.162 101.351,86.870 101.290 C 86.579 101.230,86.440 101.341,86.561 101.537 C 86.853 102.009,85.421 103.288,85.034 102.901 C 84.869 102.735,84.793 102.870,84.867 103.200 C 84.940 103.532,84.764 103.751,84.470 103.690 C 84.179 103.630,84.035 103.733,84.150 103.919 C 84.417 104.352,82.957 105.623,82.600 105.267 C 82.454 105.120,82.393 105.184,82.467 105.408 C 82.540 105.633,81.295 107.102,79.700 108.673 C 78.105 110.243,76.800 111.725,76.800 111.964 C 76.800 112.204,76.622 112.400,76.405 112.400 C 75.790 112.400,74.417 113.704,74.644 114.071 C 74.830 114.371,74.242 114.565,73.500 114.447 C 73.335 114.421,73.200 114.681,73.200 115.024 C 73.200 115.367,73.020 115.536,72.800 115.400 C 72.580 115.264,72.400 115.523,72.400 115.976 C 72.400 116.429,72.248 116.800,72.061 116.800 C 71.414 116.800,70.000 118.298,70.000 118.984 C 70.000 119.364,69.640 119.769,69.200 119.884 C 68.760 119.999,68.400 120.362,68.400 120.689 C 68.400 121.064,68.169 121.197,67.779 121.047 C 67.438 120.916,67.260 120.974,67.385 121.176 C 67.510 121.377,67.225 121.665,66.753 121.815 C 66.079 122.029,66.013 122.163,66.447 122.438 C 66.807 122.666,66.834 122.790,66.525 122.794 C 65.943 122.801,66.003 124.398,66.585 124.406 C 66.813 124.409,66.776 124.555,66.501 124.729 C 65.768 125.195,65.565 379.588,66.298 379.307 C 66.661 379.168,66.638 379.421,66.213 380.240 C 65.656 381.313,65.740 382.200,66.322 381.388 C 66.618 380.975,68.372 380.784,68.324 381.171 C 68.231 381.922,69.480 384.000,70.026 384.000 C 70.383 384.000,71.002 384.360,71.400 384.800 C 71.798 385.240,72.445 385.600,72.838 385.600 C 73.231 385.600,73.664 385.780,73.800 386.000 C 73.936 386.220,74.319 386.400,74.652 386.400 C 74.985 386.400,75.527 386.670,75.857 387.000 C 76.187 387.330,77.164 387.713,78.028 387.851 C 78.893 387.989,79.600 388.259,79.600 388.451 C 79.600 388.643,79.735 388.762,79.900 388.715 C 80.065 388.668,80.581 388.842,81.047 389.101 C 81.513 389.360,82.004 389.463,82.138 389.329 C 82.271 389.195,82.650 389.310,82.980 389.583 C 83.309 389.856,84.213 390.080,84.988 390.080 C 85.763 390.080,86.298 390.242,86.175 390.440 C 86.053 390.638,86.503 390.822,87.176 390.850 C 88.394 390.900,89.109 391.015,89.300 391.193 C 89.612 391.484,93.200 391.447,93.200 391.153 C 93.200 390.959,93.391 390.800,93.624 390.800 C 93.857 390.800,93.949 390.959,93.828 391.154 C 93.505 391.677,95.732 392.012,96.200 391.511 C 96.474 391.217,96.443 391.172,96.100 391.365 C 95.704 391.588,95.590 388.395,95.550 376.024 C 95.523 367.431,95.455 360.220,95.400 360.000 C 95.345 359.780,95.278 359.474,95.250 359.320 C 95.223 359.166,94.984 359.256,94.720 359.520 C 94.038 360.202,93.691 360.118,93.400 359.200 C 93.260 358.760,92.796 358.400,92.368 358.400 C 91.939 358.400,91.277 358.241,90.895 358.047 C 90.513 357.852,89.660 357.448,89.000 357.147 C 88.340 356.847,87.710 356.511,87.600 356.401 C 87.490 356.290,86.719 355.885,85.888 355.501 C 85.056 355.116,84.272 354.531,84.145 354.201 C 84.018 353.870,83.664 353.600,83.357 353.600 C 83.051 353.600,82.800 353.420,82.800 353.200 C 82.800 352.980,82.612 352.800,82.382 352.800 C 82.152 352.800,81.532 352.368,81.005 351.841 C 80.477 351.313,79.900 350.818,79.723 350.741 C 79.062 350.453,77.245 347.687,77.517 347.385 C 77.673 347.213,77.591 347.192,77.335 347.338 C 77.056 347.497,76.655 347.121,76.337 346.402 C 76.044 345.741,75.669 345.200,75.502 345.200 C 75.336 345.200,75.200 344.930,75.200 344.600 C 75.200 344.270,75.065 343.999,74.900 343.997 C 74.541 343.993,73.600 342.056,73.600 341.320 C 73.600 341.034,73.458 340.800,73.285 340.800 C 73.112 340.800,72.941 340.411,72.905 339.936 C 72.869 339.461,72.606 338.924,72.320 338.742 C 71.901 338.476,71.900 338.411,72.314 338.406 C 72.728 338.401,72.731 338.225,72.329 337.500 C 72.055 337.005,71.868 336.465,71.915 336.300 C 71.962 336.135,71.854 336.000,71.676 336.000 C 71.499 336.000,71.342 335.055,71.328 333.900 C 71.314 332.745,71.171 331.485,71.009 331.100 C 70.847 330.715,70.822 330.121,70.953 329.779 C 71.084 329.438,71.058 329.241,70.895 329.341 C 70.733 329.441,70.646 292.157,70.703 246.487 L 70.806 163.451 73.838 160.526 C 75.505 158.917,76.724 157.600,76.546 157.600 C 76.368 157.600,76.667 157.295,77.211 156.921 C 79.289 155.495,86.646 148.222,87.653 146.600 C 88.062 145.940,88.398 145.567,88.399 145.770 C 88.399 145.974,89.660 144.843,91.200 143.256 C 92.740 141.670,94.000 140.187,94.000 139.962 C 94.000 139.737,94.166 139.656,94.369 139.781 C 94.820 140.060,96.400 137.925,96.400 137.038 C 96.400 136.687,96.223 136.400,96.007 136.400 C 95.756 136.400,95.575 128.879,95.507 115.600 C 95.448 104.160,95.546 94.800,95.724 94.800 C 95.902 94.800,95.936 94.620,95.800 94.400 C 95.664 94.180,95.773 94.000,96.043 94.000 C 96.313 94.000,96.415 93.882,96.270 93.737 C 96.125 93.592,96.207 93.232,96.452 92.937 C 96.697 92.642,96.797 92.400,96.673 92.400 C 96.549 92.400,96.334 92.583,96.196 92.807 M98.810 134.188 C 98.501 134.561,98.492 134.809,98.781 134.988 C 99.011 135.131,99.200 134.945,99.200 134.575 C 99.200 134.022,99.307 133.991,99.800 134.400 C 100.146 134.687,100.400 134.726,100.400 134.492 C 100.400 133.820,99.291 133.609,98.810 134.188 M97.792 135.556 C 97.879 136.011,97.754 136.505,97.514 136.653 C 97.261 136.809,97.190 136.740,97.345 136.489 C 97.492 136.251,97.413 135.932,97.168 135.780 C 96.891 135.609,96.775 135.775,96.862 136.219 C 97.058 137.233,97.724 137.334,98.285 136.435 C 98.667 135.823,98.650 135.573,98.198 135.199 C 97.737 134.816,97.662 134.882,97.792 135.556 M63.051 378.212 C 62.750 378.996,63.413 379.308,63.965 378.642 C 64.313 378.223,64.284 378.041,63.843 377.872 C 63.526 377.750,63.169 377.903,63.051 378.212 M67.508 381.825 C 67.360 381.974,67.508 382.365,67.838 382.695 C 68.616 383.473,68.942 383.147,68.285 382.248 C 68.006 381.867,67.657 381.677,67.508 381.825 M98.107 391.786 C 97.977 392.014,98.019 392.067,98.199 391.903 C 98.379 391.740,98.747 391.790,99.016 392.014 C 99.358 392.297,99.568 392.261,99.708 391.896 C 99.949 391.268,98.458 391.165,98.107 391.786 " stroke="none" fill="#1cdcfc" fill-rule="evenodd"></path><path id="path4" d="M134.378 53.961 C 132.435 55.922,131.604 57.327,132.618 56.938 C 132.936 56.816,133.110 56.578,133.006 56.410 C 132.902 56.242,133.658 55.275,134.685 54.262 C 135.713 53.249,136.474 52.353,136.377 52.271 C 136.280 52.189,135.380 52.950,134.378 53.961 M129.526 58.847 C 128.935 59.481,128.575 60.007,128.726 60.016 C 128.876 60.025,128.491 60.308,127.868 60.645 C 127.147 61.036,126.819 61.473,126.964 61.850 C 127.100 62.206,127.021 62.337,126.765 62.178 C 126.311 61.897,124.800 63.285,124.800 63.983 C 124.800 64.212,124.570 64.400,124.289 64.400 C 123.686 64.400,121.602 66.669,121.917 66.984 C 122.036 67.103,121.857 67.200,121.518 67.200 C 121.180 67.200,120.478 67.820,119.959 68.577 C 119.440 69.335,118.699 70.038,118.313 70.139 C 117.926 70.240,117.428 70.801,117.206 71.385 C 116.983 71.970,116.621 72.337,116.401 72.200 C 116.180 72.064,116.000 72.263,116.000 72.643 C 116.000 73.023,115.896 73.229,115.769 73.103 C 115.464 72.798,111.600 76.653,111.600 77.261 C 111.600 77.521,111.501 77.635,111.381 77.514 C 111.130 77.264,105.400 82.854,105.077 83.665 C 104.911 84.081,104.856 84.086,104.832 83.684 C 104.806 83.263,104.698 83.263,104.244 83.684 C 103.939 83.968,103.829 84.290,104.000 84.400 C 104.171 84.510,104.061 84.832,103.756 85.116 C 103.302 85.537,103.199 85.537,103.194 85.116 C 103.191 84.832,102.951 85.050,102.661 85.600 C 102.372 86.150,101.894 86.545,101.600 86.477 C 101.166 86.378,101.160 86.470,101.568 86.961 C 101.994 87.475,101.942 87.543,101.225 87.405 C 100.758 87.315,100.484 87.412,100.613 87.621 C 100.742 87.829,100.646 88.000,100.400 88.000 C 100.154 88.000,100.064 88.180,100.200 88.400 C 100.336 88.620,100.237 88.800,99.981 88.800 C 99.710 88.800,99.617 89.094,99.758 89.500 C 99.979 90.134,99.954 90.139,99.496 89.553 C 99.069 89.008,98.909 88.993,98.479 89.453 C 98.198 89.754,98.085 90.000,98.229 90.000 C 98.372 90.000,98.064 90.360,97.544 90.801 C 96.705 91.513,96.689 91.578,97.400 91.388 C 98.014 91.225,97.983 91.289,97.268 91.663 C 95.689 92.490,93.500 94.691,93.969 94.981 C 94.206 95.127,94.400 95.010,94.400 94.720 C 94.400 94.010,95.888 93.094,96.205 93.608 C 96.338 93.824,96.246 94.000,96.000 94.000 C 95.754 94.000,95.664 94.180,95.800 94.400 C 95.936 94.620,95.902 94.800,95.724 94.800 C 95.546 94.800,95.448 104.160,95.507 115.600 C 95.575 128.879,95.756 136.400,96.007 136.400 C 96.567 136.400,96.494 137.741,95.900 138.367 C 95.487 138.803,95.551 138.803,96.274 138.367 C 97.157 137.835,97.699 136.760,97.706 135.531 C 97.709 134.976,97.838 134.941,98.467 135.331 C 99.303 135.849,100.196 135.033,99.683 134.219 C 99.529 133.975,99.360 134.095,99.279 134.505 C 99.202 134.893,98.964 135.102,98.750 134.969 C 98.098 134.566,99.154 133.663,100.015 133.888 C 100.449 134.001,100.800 133.894,100.800 133.647 C 100.800 133.401,101.067 133.200,101.392 133.200 C 101.718 133.200,102.096 132.756,102.232 132.213 C 102.369 131.671,102.597 131.265,102.740 131.311 C 102.883 131.358,105.028 129.372,107.506 126.898 C 109.984 124.424,112.112 122.400,112.234 122.400 C 112.650 122.400,113.600 121.260,113.600 120.762 C 113.600 120.490,113.708 120.374,113.839 120.506 C 114.068 120.735,118.457 116.296,118.733 115.557 C 118.807 115.361,119.077 115.192,119.333 115.182 C 119.590 115.171,120.430 114.446,121.200 113.569 C 121.970 112.693,123.676 110.856,124.991 109.488 C 126.307 108.119,127.334 106.843,127.275 106.651 C 127.216 106.459,127.401 106.391,127.686 106.501 C 128.440 106.790,129.254 105.814,128.712 105.272 C 128.409 104.969,128.534 104.910,129.142 105.069 C 129.660 105.204,130.000 105.107,130.000 104.823 C 130.000 104.564,129.832 104.456,129.628 104.583 C 129.423 104.709,129.158 104.655,129.038 104.462 C 128.919 104.268,129.213 104.130,129.693 104.155 C 130.660 104.205,132.546 102.559,132.187 101.979 C 132.061 101.775,132.215 101.707,132.528 101.828 C 132.841 101.948,133.208 101.756,133.344 101.402 C 133.515 100.956,133.439 100.854,133.095 101.069 C 132.823 101.240,132.268 101.325,131.863 101.259 C 131.282 101.163,131.182 101.312,131.389 101.966 C 131.602 102.637,131.520 102.744,130.957 102.528 C 130.424 102.324,130.321 102.416,130.516 102.925 C 130.735 103.495,130.660 103.519,129.985 103.098 C 129.221 102.621,129.200 102.040,129.200 81.280 C 129.200 65.261,129.315 60.024,129.662 60.238 C 129.948 60.415,130.015 60.348,129.838 60.062 C 129.667 59.785,129.813 59.600,130.200 59.600 C 130.556 59.600,130.748 59.439,130.626 59.242 C 130.504 59.045,130.674 58.781,131.002 58.654 C 131.331 58.528,131.600 58.239,131.600 58.013 C 131.600 57.276,130.625 57.668,129.526 58.847 M92.300 95.985 C 91.282 96.977,91.440 97.380,92.471 96.420 C 92.950 95.974,93.265 95.540,93.171 95.456 C 93.077 95.372,92.685 95.610,92.300 95.985 M95.405 359.900 C 95.478 360.285,95.553 367.586,95.569 376.124 C 95.592 387.749,95.716 391.576,96.062 391.362 C 96.354 391.182,96.415 391.252,96.228 391.554 C 96.066 391.817,95.588 391.923,95.166 391.789 C 94.738 391.653,94.400 391.734,94.400 391.973 C 94.400 392.229,95.373 392.400,96.824 392.400 C 98.363 392.400,99.156 392.252,98.996 391.993 C 98.858 391.770,98.532 391.709,98.272 391.858 C 98.013 392.006,97.939 391.976,98.108 391.789 C 98.613 391.234,99.944 391.281,99.727 391.847 C 99.572 392.250,101.908 392.352,111.066 392.342 C 123.348 392.329,137.032 391.834,131.000 391.620 C 129.240 391.558,128.115 391.425,128.500 391.324 C 129.151 391.154,129.200 390.094,129.200 376.213 C 129.200 359.401,128.889 360.846,132.533 360.740 C 138.601 360.563,125.186 360.068,112.300 359.993 C 104.108 359.946,97.600 359.751,97.600 359.554 C 97.600 359.359,97.401 359.200,97.157 359.200 C 96.914 359.200,96.807 359.440,96.919 359.733 C 97.032 360.027,96.863 360.267,96.545 360.267 C 96.226 360.267,96.058 360.027,96.170 359.733 C 96.283 359.440,96.126 359.200,95.823 359.200 C 95.513 359.200,95.330 359.507,95.405 359.900 " stroke="none" fill="#22d3fc" fill-rule="evenodd"></path></g></svg>