<?xml version="1.0" encoding="UTF-8" standalone="no"?>
<!-- Created with Inkscape (http://www.inkscape.org/) -->

<svg
   width="210mm"
   height="297mm"
   viewBox="0 0 210 297"
   version="1.1"
   id="svg5"
   inkscape:version="1.1 (c68e22c387, 2021-05-23)"
   sodipodi:docname="logo.svg"
   xmlns:inkscape="http://www.inkscape.org/namespaces/inkscape"
   xmlns:sodipodi="http://sodipodi.sourceforge.net/DTD/sodipodi-0.dtd"
   xmlns="http://www.w3.org/2000/svg"
   xmlns:svg="http://www.w3.org/2000/svg">
  <sodipodi:namedview
     id="namedview7"
     pagecolor="#ffffff"
     bordercolor="#666666"
     borderopacity="1.0"
     inkscape:pageshadow="2"
     inkscape:pageopacity="0.0"
     inkscape:pagecheckerboard="0"
     inkscape:document-units="mm"
     showgrid="false"
     inkscape:zoom="0.74118967"
     inkscape:cx="397.33419"
     inkscape:cy="561.93443"
     inkscape:window-width="1920"
     inkscape:window-height="1017"
     inkscape:window-x="-8"
     inkscape:window-y="-8"
     inkscape:window-maximized="1"
     inkscape:current-layer="layer1" />
  <defs
     id="defs2" />
  <g
     inkscape:label="Layer 1"
     inkscape:groupmode="layer"
     id="layer1">
    <g
       id="svgg"
       transform="matrix(0.0502073,0,0,0.0502073,82.772026,147.73958)">
      <path
         id="path0"
         d="m 143.775,44.1 -1.175,1.3 1.3,-1.175 c 1.212,-1.095 1.484,-1.425 1.175,-1.425 -0.069,0 -0.654,0.585 -1.3,1.3 m -57.332,57.523 c -0.526,0.438 -0.872,0.882 -0.768,0.985 0.104,0.104 0.611,-0.26 1.126,-0.81 1.123,-1.194 0.961,-1.273 -0.358,-0.175 m -10.176,9.844 c -0.383,0.382 -0.329,0.933 0.09,0.933 0.197,0 0.461,-0.27 0.588,-0.6 0.234,-0.61 -0.192,-0.819 -0.678,-0.333 m -6.914,7.554 c 0.137,0.358 0.07,0.517 -0.161,0.374 -0.454,-0.281 -1.592,0.719 -1.592,1.4 0,0.249 -0.135,0.37 -0.3,0.271 -0.165,-0.1 -0.532,0.069 -0.816,0.376 -0.628,0.679 -0.433,0.7 0.897,0.094 0.561,-0.256 1.019,-0.685 1.019,-0.954 0,-0.269 0.36,-0.583 0.8,-0.698 0.831,-0.217 1.136,-1.484 0.357,-1.484 -0.243,0 -0.335,0.279 -0.204,0.621 m -4.473,3.999 c -0.287,0.325 -0.393,0.813 -0.236,1.085 0.156,0.272 0.137,0.362 -0.043,0.198 -0.495,-0.448 -1.4,0.482 -1.407,1.446 -0.005,0.64 -0.093,0.714 -0.355,0.3 -0.415,-0.654 -1.239,-0.256 -1.239,0.598 0,0.33 -0.154,0.505 -0.342,0.389 -0.5,-0.309 -2.19,1.627 -1.87,2.144 0.149,0.242 0.119,0.39 -0.066,0.33 -0.448,-0.146 -1.34,0.613 -4.06,3.451 -1.244,1.298 -2.873,2.918 -3.619,3.6 C 47.72,140.144 2.8,185.268 2.8,185.626 c 0,0.232 -0.208,0.293 -0.462,0.136 -0.274,-0.169 -0.353,-0.111 -0.196,0.144 0.146,0.236 -0.006,0.701 -0.338,1.033 -0.332,0.332 -0.604,0.872 -0.604,1.199 0,0.327 -0.225,0.67 -0.5,0.762 -0.719,0.24 -0.719,13.56 0,13.8 0.275,0.092 0.5,0.472 0.5,0.845 0,0.373 0.35,0.931 0.779,1.24 0.428,0.308 0.686,0.709 0.574,0.891 -0.112,0.181 0.078,0.438 0.422,0.57 0.344,0.132 0.625,0.501 0.625,0.82 0,0.32 0.18,0.47 0.4,0.334 0.22,-0.136 0.4,0.021 0.4,0.349 0,0.329 0.36,0.711 0.8,0.851 0.44,0.14 0.8,0.422 0.8,0.627 0,0.205 0.36,0.373 0.8,0.373 0.44,0 0.8,0.18 0.8,0.4 0,0.22 0.345,0.4 0.767,0.4 0.421,0 0.826,0.172 0.9,0.382 0.073,0.211 0.808,0.428 1.633,0.482 0.825,0.055 1.5,0.243 1.5,0.418 0,0.467 7.109,0.389 7.4,-0.082 0.136,-0.22 0.787,-0.4 1.447,-0.4 0.698,0 1.097,-0.167 0.953,-0.4 -0.136,-0.22 0.045,-0.4 0.403,-0.4 0.358,0 1.24,-0.45 1.961,-1 0.722,-0.55 1.4,-1 1.508,-1 0.109,0 2.932,-2.7 6.275,-6 3.343,-3.3 6.163,-6 6.266,-6 0.103,0 0.187,31.95 0.187,71 0,47.067 0.135,71 0.4,71 0.222,0 0.4,1.067 0.4,2.4 0,1.333 0.178,2.4 0.4,2.4 0.22,0 0.4,0.72 0.4,1.6 0,0.88 0.18,1.6 0.4,1.6 0.22,0 0.4,0.54 0.4,1.2 0,0.66 0.16,1.2 0.355,1.2 0.34,0 0.812,1.715 0.937,3.4 0.032,0.44 0.217,0.908 0.41,1.04 0.193,0.132 0.392,0.519 0.442,0.86 0.05,0.34 0.323,0.899 0.606,1.24 0.283,0.341 0.554,0.883 0.601,1.204 0.139,0.952 1.622,3.846 1.973,3.851 0.178,0.003 0.212,0.185 0.076,0.405 -0.136,0.22 -0.057,0.4 0.176,0.4 0.233,0 0.424,0.317 0.424,0.704 0,0.387 0.36,0.928 0.8,1.203 0.44,0.275 0.8,0.74 0.8,1.034 0,0.294 0.36,0.861 0.8,1.259 0.44,0.398 0.8,0.966 0.8,1.262 0,0.296 0.18,0.538 0.4,0.538 0.22,0 0.4,0.281 0.4,0.624 0,0.343 0.164,0.522 0.365,0.397 0.201,-0.124 0.601,0.305 0.888,0.953 0.286,0.648 0.86,1.267 1.274,1.375 0.476,0.125 0.641,0.379 0.448,0.692 -0.215,0.348 -0.103,0.417 0.375,0.233 0.493,-0.189 0.65,-0.077 0.566,0.405 -0.067,0.385 0.426,1.036 1.168,1.543 0.706,0.482 1.171,0.989 1.033,1.127 -0.138,0.138 0.05,0.251 0.416,0.251 0.367,0 0.667,0.188 0.667,0.418 0,0.509 1.824,2.382 2.32,2.382 0.196,0 0.682,0.36 1.08,0.8 0.724,0.8 1.442,1.065 1.353,0.5 -0.138,-0.872 0.111,-1.25 0.68,-1.032 0.552,0.212 0.529,0.348 -0.179,1.056 l -0.813,0.812 1.021,0.53 c 0.562,0.291 1.21,0.413 1.441,0.27 0.246,-0.152 0.302,-0.068 0.135,0.202 -0.157,0.254 -0.14,0.461 0.038,0.459 0.178,-0.002 0.539,-0.467 0.803,-1.035 0.371,-0.8 0.371,-0.99 0,-0.848 -0.716,0.275 -0.493,-254.131 0.222,-254.585 0.297,-0.189 0.324,-0.319 0.066,-0.323 -0.568,-0.008 -0.572,-1.321 -0.006,-1.7 0.258,-0.173 0.11,-0.29 -0.361,-0.285 -0.44,0.005 -1.034,0.275 -1.32,0.599 M 141.795,295 c 0,35.64 0.047,50.161 0.105,32.268 0.058,-17.892 0.058,-47.052 0,-64.8 -0.058,-17.747 -0.105,-3.108 -0.105,32.532 m -71.161,34.861 c 0.395,1.673 0.802,1.919 0.767,0.463 -0.016,-0.697 -0.256,-1.342 -0.533,-1.435 -0.364,-0.121 -0.429,0.147 -0.234,0.972 m 0.566,5.659 c 0,0.264 0.191,0.48 0.424,0.48 0.233,0 0.32,0.168 0.193,0.372 -0.126,0.205 -0.063,0.476 0.141,0.602 0.526,0.325 0.292,-0.884 -0.282,-1.458 -0.368,-0.368 -0.476,-0.367 -0.476,0.004 m 6.8,12.788 c 0,0.186 0.24,0.667 0.533,1.068 0.388,0.53 0.534,0.574 0.534,0.159 0,-0.313 -0.24,-0.794 -0.534,-1.068 C 78.24,348.193 78,348.121 78,348.308 m 27.1,11.59 c 1.815,0.074 4.785,0.074 6.6,0 1.815,-0.075 0.33,-0.135 -3.3,-0.135 -3.63,0 -5.115,0.06 -3.3,0.135 m -38.905,21.659 c -0.316,0.824 0.139,1.076 0.987,0.547 0.619,-0.387 0.856,-0.316 1.393,0.415 0.642,0.873 0.643,0.872 0.152,-0.119 -0.274,-0.55 -0.474,-1.09 -0.445,-1.2 0.126,-0.487 -1.896,-0.141 -2.087,0.357"
         stroke="none"
         fill="#0fe5fc"
         fill-rule="evenodd" />
      <path
         id="path1"
         d="m 196.8,8.024 c 0,0.233 -0.225,0.294 -0.5,0.135 -0.275,-0.158 -0.36,-0.133 -0.188,0.055 0.408,0.449 1.552,0.613 1.287,0.185 -0.112,-0.182 0.022,-0.422 0.299,-0.533 0.303,-0.122 0.224,-0.215 -0.198,-0.234 -0.385,-0.018 -0.7,0.159 -0.7,0.392 m -6.09,0.846 c -0.084,0.251 -0.728,0.44 -1.431,0.42 C 188.576,9.27 188,9.421 188,9.627 188,9.832 187.565,10 187.033,10 c -0.531,0 -1.058,0.225 -1.169,0.5 -0.153,0.376 -0.308,0.352 -0.627,-0.1 -0.312,-0.441 -0.426,-0.461 -0.431,-0.076 -0.003,0.288 -0.154,0.432 -0.335,0.32 -0.18,-0.112 -0.793,0.038 -1.361,0.333 -0.568,0.294 -1.662,0.743 -2.43,0.997 -0.769,0.253 -1.8,0.809 -2.291,1.235 -0.491,0.426 -1.069,0.665 -1.285,0.531 -0.217,-0.133 -0.508,-0.073 -0.649,0.135 -0.275,0.407 -4.125,3.095 -4.455,3.111 -0.11,0.005 -0.897,0.685 -1.748,1.511 -0.852,0.827 -1.737,1.503 -1.967,1.503 -0.23,0 -0.307,0.111 -0.171,0.248 0.322,0.321 -0.709,1.352 -1.352,1.352 -0.272,0 -0.397,0.098 -0.277,0.219 0.24,0.24 -4.901,5.375 -5.385,5.379 -0.165,0.001 -0.3,0.272 -0.3,0.602 0,0.33 -0.18,0.6 -0.4,0.6 -0.519,0 -2,1.481 -2,2 0,0.22 -0.3,0.4 -0.667,0.4 -0.366,0 -0.565,0.101 -0.442,0.224 0.279,0.28 -1.579,2.176 -2.133,2.176 -0.223,0 -0.294,0.18 -0.158,0.4 0.136,0.22 -0.044,0.4 -0.4,0.4 -0.356,0 -0.536,0.18 -0.4,0.4 0.136,0.22 -0.021,0.4 -0.349,0.4 -0.329,0 -0.711,0.36 -0.851,0.8 -0.14,0.44 -0.419,0.8 -0.62,0.8 -0.521,0 -3.18,2.648 -3.18,3.167 0,0.238 -0.191,0.433 -0.425,0.433 -0.538,0 -6.209,5.693 -6.075,6.098 0.055,0.166 -0.052,0.302 -0.239,0.302 -0.531,0 -2.272,1.647 -2.161,2.044 0.055,0.196 -0.142,0.356 -0.438,0.356 -0.296,0 -0.881,0.391 -1.3,0.869 -0.476,0.543 -0.537,0.739 -0.162,0.523 0.516,-0.297 0.524,-0.252 0.055,0.327 -0.3,0.37 -0.705,0.574 -0.9,0.453 -0.195,-0.121 -0.355,0.072 -0.355,0.428 0,0.356 -0.18,0.536 -0.4,0.4 -0.22,-0.136 -0.4,-0.009 -0.4,0.282 0,0.292 -0.808,1.313 -1.795,2.27 -0.988,0.957 -1.709,1.88 -1.603,2.052 0.107,0.172 -0.064,0.411 -0.378,0.532 -0.315,0.12 -0.636,0.029 -0.713,-0.202 -0.077,-0.232 -0.404,-0.097 -0.726,0.299 -0.352,0.434 -0.386,0.601 -0.085,0.42 0.316,-0.19 0.5,-0.067 0.5,0.336 0,0.35 -0.269,0.739 -0.598,0.865 -0.328,0.127 -0.51,0.371 -0.404,0.542 0.106,0.172 -0.165,0.407 -0.602,0.521 -1.242,0.325 -1.252,42.606 -0.011,43.381 0.675,0.421 0.75,0.397 0.531,-0.173 -0.195,-0.509 -0.092,-0.601 0.441,-0.397 0.557,0.214 0.645,0.108 0.442,-0.531 -0.182,-0.573 -0.07,-0.797 0.398,-0.797 0.383,0 0.535,0.186 0.37,0.454 -0.155,0.25 0.284,0.036 0.976,-0.475 0.691,-0.511 1.257,-1.076 1.257,-1.254 0,-0.179 0.315,-0.328 0.7,-0.331 0.598,-0.005 0.613,-0.063 0.1,-0.394 -0.409,-0.264 -0.439,-0.39 -0.095,-0.394 0.464,-0.005 10.421,-9.527 16.245,-15.533 4.931,-5.086 10.25,-10.448 10.25,-10.331 0,0.065 2.038,-1.875 4.529,-4.312 2.492,-2.436 4.47,-4.506 4.397,-4.6 -0.073,-0.093 0.364,-0.497 0.971,-0.897 0.607,-0.4 0.967,-0.729 0.8,-0.73 -0.166,-0.002 1.004,-1.265 2.6,-2.808 3.641,-3.517 3.3,-3.181 4.655,-4.595 0.633,-0.66 1.398,-1.402 1.699,-1.649 0.302,-0.246 1.531,-1.551 2.731,-2.9 1.2,-1.348 2.316,-2.451 2.481,-2.451 0.479,0 2.276,-1.928 2.028,-2.176 -0.123,-0.123 0.076,-0.224 0.442,-0.224 0.4,0 0.667,-0.32 0.667,-0.8 0,-0.44 0.225,-0.755 0.5,-0.7 0.275,0.055 0.455,-0.125 0.4,-0.4 -0.055,-0.275 0.26,-0.5 0.7,-0.5 0.44,0 0.8,-0.146 0.8,-0.325 0,-0.179 0.642,-0.578 1.427,-0.886 1.21,-0.474 1.333,-0.629 0.805,-1.015 -0.542,-0.397 -0.636,-2.511 -0.727,-16.405 L 193.4,8.62 192.131,8.518 C 191.433,8.461 190.793,8.62 190.71,8.87 m -36.101,208.344 c 0.2,0.324 -1.265,0.598 -2.309,0.433 -0.165,-0.026 -0.3,0.133 -0.3,0.353 0,0.22 -0.272,0.4 -0.605,0.4 -1.38,0 -6.195,3.697 -6.195,4.756 0,0.258 -0.254,0.566 -0.564,0.685 -0.44,0.169 -1.218,1.948 -1.074,2.456 0.015,0.053 -0.33,0.734 -0.767,1.512 -0.784,1.396 -0.795,2.299 -0.795,66.703 V 359.8 l -13.7,-0.043 -13.7,-0.043 9.542,0.324 c 8.959,0.304 13.044,0.659 8.391,0.73 -3.641,0.056 -3.333,-1.371 -3.333,15.445 0,13.881 -0.049,14.941 -0.7,15.111 -0.385,0.101 0.74,0.241 2.5,0.311 2.945,0.117 2.802,0.146 -1.8,0.365 -2.832,0.135 3.02,0.273 13.5,0.319 10.259,0.045 18.5,-0.074 18.5,-0.266 0,-0.191 0.681,-0.439 1.513,-0.551 2.298,-0.308 7.687,-3.885 7.687,-5.102 0,-0.2 0.405,-0.787 0.9,-1.304 1.177,-1.23 1.739,-2.308 1.717,-3.296 -0.009,-0.44 0.158,-0.925 0.371,-1.078 0.559,-0.4 0.536,2.302 0.575,-67.171 l 0.037,-63.849 9.997,-0.294 c 5.499,-0.162 9.904,-0.444 9.79,-0.629 -0.114,-0.184 0.653,-0.402 1.703,-0.485 l 1.91,-0.15 -1.9,-0.072 -1.9,-0.072 v -14.78 -14.78 l -2.3,-0.144 -2.3,-0.145 2.3,-0.075 c 1.756,-0.058 2.3,-0.22 2.3,-0.683 0,-0.534 -2.34,-0.604 -19.615,-0.585 -12.485,0.013 -19.528,0.161 -19.376,0.406 M 269.1,359.9 c 5.335,0.063 14.065,0.063 19.4,0 5.335,-0.063 0.97,-0.115 -9.7,-0.115 -10.67,0 -15.035,0.052 -9.7,0.115"
         stroke="none"
         fill="#2cccfc"
         fill-rule="evenodd" />
      <path
         id="path2"
         d="m 197.698,7.894 c -0.277,0.096 -0.411,0.323 -0.299,0.505 0.231,0.373 -0.578,0.317 -1.218,-0.084 -0.231,-0.144 -0.656,-0.116 -0.944,0.062 -0.289,0.179 -0.821,0.248 -1.181,0.153 -1.111,-0.29 -0.775,31.879 0.341,32.575 0.658,0.411 0.91,0.348 1.621,-0.409 0.462,-0.493 0.783,-0.716 0.711,-0.496 -0.071,0.22 0.051,0.4 0.271,0.4 0.22,0 0.361,-0.117 0.314,-0.259 -0.048,-0.142 0.267,-0.166 0.7,-0.053 0.497,0.13 0.788,0.004 0.792,-0.341 0.005,-0.427 0.091,-0.415 0.394,0.053 0.305,0.471 0.389,0.482 0.394,0.051 0.004,-0.41 0.14,-0.438 0.536,-0.109 0.387,0.321 0.671,0.308 1.058,-0.052 0.385,-0.356 0.456,-0.36 0.261,-0.013 -0.183,0.326 0.082,0.448 0.842,0.385 0.61,-0.051 1.357,0.15 1.661,0.446 0.303,0.296 0.792,0.446 1.087,0.332 0.294,-0.113 0.649,-0.021 0.789,0.205 0.139,0.225 0.512,0.31 0.828,0.189 0.316,-0.121 0.677,0.046 0.802,0.373 0.125,0.326 0.478,0.593 0.785,0.593 0.306,0 0.557,0.18 0.557,0.4 0,0.22 0.276,0.4 0.613,0.4 0.336,0 0.712,0.26 0.833,0.577 0.331,0.861 3.658,4.185 3.924,3.92 0.127,-0.127 0.23,-0.01 0.23,0.26 0,0.27 0.18,0.379 0.4,0.243 0.22,-0.136 0.4,0.033 0.4,0.376 0,0.343 0.18,0.624 0.4,0.624 0.22,0 0.4,0.281 0.4,0.624 0,0.343 0.18,0.512 0.4,0.376 0.22,-0.136 0.4,0.003 0.4,0.309 0,0.306 0.45,0.797 0.999,1.091 0.55,0.294 0.926,0.608 0.836,0.698 -0.293,0.293 2.257,2.492 2.626,2.264 0.197,-0.122 0.309,0.017 0.249,0.308 -0.061,0.292 0.115,0.485 0.39,0.43 0.275,-0.055 0.5,0.181 0.5,0.524 0,0.343 0.18,0.512 0.4,0.376 0.22,-0.136 0.4,-0.029 0.4,0.238 0,0.267 0.708,1.16 1.574,1.983 0.866,0.824 1.451,1.621 1.3,1.772 -0.151,0.15 -0.019,0.214 0.293,0.14 0.312,-0.073 0.778,0.271 1.036,0.765 0.258,0.493 0.587,0.778 0.733,0.633 0.145,-0.145 0.264,-0.041 0.264,0.231 0,0.643 1.031,1.674 1.352,1.352 0.137,-0.136 0.248,0.053 0.248,0.419 0,0.367 0.258,0.667 0.573,0.667 0.315,0 0.688,0.363 0.829,0.806 0.141,0.443 0.423,0.702 0.627,0.576 0.204,-0.126 0.371,-0.046 0.371,0.179 0,0.466 3.107,3.639 3.564,3.639 0.165,0 0.538,0.444 0.829,0.986 0.29,0.543 0.68,0.892 0.867,0.777 0.187,-0.116 0.34,0.081 0.34,0.437 0,0.356 0.18,0.536 0.4,0.4 0.22,-0.136 0.4,0.033 0.4,0.376 0,0.343 0.135,0.625 0.3,0.626 0.165,0.001 0.882,0.586 1.592,1.3 2.212,2.222 16.853,16.876 17.282,17.298 0.223,0.22 4.093,4.09 8.598,8.6 4.506,4.51 8.376,8.38 8.601,8.6 0.226,0.22 3.636,3.673 7.579,7.673 3.943,3.999 7.277,7.164 7.409,7.033 0.131,-0.132 0.24,0.016 0.24,0.327 10e-4,0.312 0.54,0.927 1.199,1.367 0.659,0.44 1.198,0.994 1.199,1.23 0.002,0.621 15.835,16.603 16.143,16.294 0.142,-0.141 0.258,-0.038 0.258,0.23 0,0.268 0.945,1.481 2.1,2.695 4.535,4.769 9.1,9.372 9.1,9.175 0,-0.114 1.615,1.454 3.59,3.484 1.974,2.031 3.954,4.058 4.4,4.506 0.804,0.808 0.81,1.152 0.81,47.1 0,30.591 0.136,46.286 0.4,46.286 0.22,0 0.4,0.272 0.4,0.605 0,0.62 0.787,2.233 1.268,2.599 0.147,0.112 0.327,0.46 0.4,0.774 0.202,0.873 4.234,4.822 4.923,4.822 0.335,0 0.609,0.18 0.609,0.4 0,0.22 0.349,0.4 0.776,0.4 0.427,0 0.888,0.18 1.024,0.4 0.136,0.22 0.676,0.4 1.2,0.4 0.524,0 1.064,0.18 1.2,0.4 0.318,0.514 7.69,0.526 7.867,0.013 0.073,-0.213 0.718,-0.432 1.433,-0.485 0.715,-0.054 1.3,-0.24 1.3,-0.413 0,-0.173 0.36,-0.315 0.8,-0.315 0.44,0 0.8,-0.18 0.8,-0.4 0,-0.22 0.225,-0.4 0.5,-0.4 0.602,-10e-4 2.766,-1.8 2.493,-2.073 -0.105,-0.106 0.27,-0.439 0.834,-0.741 0.589,-0.316 1.121,-1.026 1.249,-1.668 0.123,-0.615 0.382,-1.118 0.574,-1.118 0.193,0 0.35,-0.27 0.35,-0.6 0,-0.33 0.18,-0.6 0.4,-0.6 0.22,0 0.4,-0.45 0.4,-1 0,-0.55 0.18,-1 0.4,-1 0.263,0 0.4,-10.267 0.4,-30 0,-16.5 0.096,-30 0.213,-30 0.117,0 2.991,2.745 6.387,6.1 3.397,3.355 6.415,6.28 6.708,6.5 1.088,0.817 2.3,1.4 2.91,1.4 0.346,0 0.518,0.18 0.382,0.4 -0.147,0.238 0.321,0.4 1.153,0.4 0.77,0 1.511,0.18 1.647,0.4 0.137,0.221 1.937,0.4 4.024,0.4 2.251,0 3.776,-0.162 3.776,-0.4 0,-0.22 0.452,-0.4 1.005,-0.4 0.886,0 2.418,-0.616 2.995,-1.204 0.11,-0.112 0.875,-0.558 1.7,-0.991 0.825,-0.433 1.5,-0.886 1.5,-1.007 0,-0.121 0.544,-0.845 1.209,-1.609 1.891,-2.172 1.991,-2.319 1.991,-2.939 0,-0.321 0.225,-0.658 0.5,-0.75 0.374,-0.125 0.5,-1.869 0.5,-6.9 0,-5.031 -0.126,-6.775 -0.5,-6.9 -0.275,-0.092 -0.5,-0.512 -0.5,-0.933 0,-0.422 -0.18,-0.767 -0.4,-0.767 -0.22,0 -0.4,-0.279 -0.4,-0.619 0,-0.34 -8.865,-9.52 -19.7,-20.4 -21.734,-21.823 -41.421,-41.781 -41.214,-41.781 0.098,0 -9.872,-9.915 -12.384,-12.315 -0.164,-0.157 -4.327,-4.38 -9.251,-9.385 -4.924,-5.005 -9.155,-9.1 -9.402,-9.1 -0.247,0 -0.404,-0.138 -0.349,-0.306 0.055,-0.169 -14.795,-15.2 -33,-33.404 C 254.495,41.687 239.599,26.66 239.599,26.497 239.598,26.334 239.059,25.84 238.4,25.4 237.741,24.96 237.202,24.482 237.201,24.338 237.2,23.98 233.342,20 232.997,20 c -0.152,0 -0.78,-0.54 -1.397,-1.2 -0.617,-0.66 -1.329,-1.2 -1.584,-1.2 -0.255,0 -0.352,-0.18 -0.216,-0.4 0.136,-0.22 -0.057,-0.4 -0.429,-0.4 -0.373,0 -0.97,-0.338 -1.328,-0.75 -0.358,-0.413 -1.857,-1.38 -3.332,-2.149 -1.475,-0.768 -2.568,-1.511 -2.429,-1.649 C 222.42,12.113 222.181,12 221.751,12 c -0.43,0 -1.488,-0.36 -2.351,-0.8 -0.863,-0.44 -1.88,-0.8 -2.261,-0.8 -0.38,0 -0.785,-0.151 -0.9,-0.337 -0.114,-0.185 -0.755,-0.304 -1.423,-0.264 -0.669,0.04 -1.216,-0.041 -1.216,-0.18 0,-0.448 -3.55,-1.219 -5.611,-1.219 -1.1,0 -2.363,-0.225 -2.807,-0.5 -0.665,-0.412 -0.873,-0.395 -1.188,0.1 -0.268,0.421 -0.384,0.447 -0.388,0.086 -0.006,-0.497 -4.6,-0.646 -5.908,-0.192 m -8.004,0.789 c -0.498,0.096 -0.813,0.324 -0.7,0.508 0.258,0.418 1.806,0.042 1.806,-0.438 0,-0.194 -0.045,-0.328 -0.1,-0.299 -0.055,0.03 -0.508,0.133 -1.006,0.229 m -3.061,0.864 c -1.113,0.241 -1.974,1.253 -1.066,1.253 0.238,0 0.433,-0.18 0.433,-0.4 0,-0.22 0.45,-0.4 1,-0.4 0.55,0 1,-0.18 1,-0.4 0,-0.22 -0.045,-0.379 -0.1,-0.353 -0.055,0.026 -0.625,0.161 -1.267,0.3 M 190.5,43.7 c 0.055,0.275 -0.125,0.455 -0.4,0.4 -0.275,-0.055 -0.5,0.178 -0.5,0.519 0,0.531 0.14,0.517 0.987,-0.1 1.129,-0.822 1.285,-1.319 0.413,-1.319 -0.33,0 -0.555,0.225 -0.5,0.5 m -6.588,6.787 c -1.249,1.368 -2.19,2.568 -2.091,2.667 0.098,0.099 0.224,0.1 0.279,0.003 0.055,-0.097 1.174,-1.297 2.487,-2.667 1.314,-1.369 2.21,-2.49 1.991,-2.49 -0.218,0 -1.418,1.119 -2.666,2.487 m -3.933,3.849 c -0.622,0.504 -0.762,0.827 -0.444,1.024 0.28,0.173 0.465,0.03 0.465,-0.36 0,-0.356 0.135,-0.565 0.3,-0.466 0.165,0.1 0.532,-0.069 0.816,-0.376 0.751,-0.812 -0.073,-0.683 -1.137,0.178 M 193.6,217.375 c 0,0.429 -0.613,0.624 -2.3,0.729 l -2.3,0.145 2.3,0.075 2.3,0.076 v 14.8 14.8 l 1.9,0.063 1.9,0.063 -2,0.274 c -1.1,0.151 -1.82,0.339 -1.6,0.418 0.22,0.079 -1.85,0.251 -4.6,0.382 -2.75,0.131 4.765,0.274 16.7,0.319 l 21.7,0.081 0.05,65.2 c 0.028,35.86 0.088,65.335 0.135,65.5 0.197,0.701 0.7,1.949 1.044,2.595 0.204,0.382 0.371,0.967 0.371,1.3 0,0.333 0.18,0.605 0.4,0.605 0.22,0 0.4,0.239 0.4,0.532 0,0.723 3.996,4.718 4.443,4.441 0.196,-0.121 0.357,0 0.357,0.27 0,0.27 0.111,0.379 0.248,0.243 0.136,-0.136 0.51,0.015 0.832,0.337 0.321,0.321 0.75,0.482 0.952,0.357 0.203,-0.125 0.368,-0.037 0.368,0.196 0,0.233 0.529,0.424 1.176,0.424 0.647,0 1.288,0.18 1.424,0.4 0.162,0.261 11.612,0.4 33.047,0.4 21.765,0 32.717,-0.135 32.553,-0.4 -0.153,-0.248 0.635,-0.409 2.076,-0.424 1.278,-0.013 3.224,-0.203 4.324,-0.422 1.1,-0.219 2.63,-0.5 3.4,-0.624 0.77,-0.123 1.58,-0.351 1.8,-0.505 0.22,-0.155 1.21,-0.525 2.2,-0.823 0.99,-0.297 1.971,-0.69 2.18,-0.872 0.209,-0.181 0.794,-0.33 1.3,-0.33 0.506,0 0.92,-0.18 0.92,-0.4 0,-0.22 0.36,-0.4 0.8,-0.4 0.44,0 0.8,-0.18 0.8,-0.4 0,-0.22 0.36,-0.4 0.8,-0.4 0.44,0 0.8,-0.18 0.8,-0.4 0,-0.22 0.36,-0.4 0.8,-0.4 0.44,0 0.8,-0.18 0.8,-0.4 0,-0.22 0.236,-0.4 0.525,-0.4 0.288,0 0.911,-0.36 1.383,-0.8 0.472,-0.44 1.136,-0.8 1.475,-0.8 0.339,0 0.617,-0.18 0.617,-0.4 0,-0.22 0.288,-0.4 0.64,-0.4 0.351,0 1.143,-0.54 1.76,-1.2 0.617,-0.66 1.419,-1.2 1.784,-1.2 0.365,0 0.552,-0.18 0.416,-0.4 -0.136,-0.22 -0.048,-0.4 0.195,-0.4 0.243,0 0.863,-0.405 1.377,-0.9 0.515,-0.495 1.603,-1.44 2.418,-2.1 0.815,-0.66 1.961,-1.717 2.546,-2.35 0.585,-0.632 1.649,-1.739 2.364,-2.46 0.715,-0.72 1.3,-1.444 1.3,-1.607 0,-0.163 0.54,-0.812 1.2,-1.443 0.66,-0.631 1.2,-1.376 1.2,-1.655 0,-0.28 0.36,-0.768 0.8,-1.085 0.44,-0.317 0.8,-0.857 0.8,-1.2 0,-0.343 0.36,-0.883 0.8,-1.2 0.44,-0.317 0.8,-0.897 0.8,-1.288 0,-0.392 0.145,-0.712 0.323,-0.712 0.382,0 2.873,-4.891 2.886,-5.666 0.005,-0.294 0.361,-0.984 0.791,-1.534 0.43,-0.55 0.786,-1.369 0.791,-1.82 0.005,-0.451 0.195,-1.006 0.422,-1.233 0.227,-0.227 0.519,-1.298 0.649,-2.38 0.13,-1.082 0.394,-2.027 0.587,-2.1 0.193,-0.074 0.351,-0.839 0.351,-1.7 0,-0.862 0.18,-1.567 0.4,-1.567 0.22,0 0.4,-0.889 0.4,-1.976 0,-1.087 0.18,-2.088 0.4,-2.224 0.243,-0.15 0.4,-3.137 0.4,-7.624 0,-4.651 -0.148,-7.376 -0.4,-7.376 -0.22,0 -0.4,-0.36 -0.4,-0.8 0,-0.44 -0.18,-0.8 -0.4,-0.8 -0.22,0 -0.4,-0.36 -0.4,-0.8 0,-0.44 -0.18,-0.8 -0.4,-0.8 -0.22,0 -0.4,-0.278 -0.4,-0.617 0,-0.632 -0.361,-1.159 -1.85,-2.702 -1.436,-1.489 -2.532,-2.281 -3.155,-2.281 -0.327,0 -0.595,-0.146 -0.595,-0.324 0,-1.306 -10.639,-2.846 -11.82,-1.711 -0.209,0.201 -0.83,0.426 -1.38,0.5 -0.55,0.074 -1.09,0.225 -1.2,0.335 -0.11,0.11 -1.01,0.639 -2,1.175 -1.963,1.063 -5.2,4.231 -5.2,5.089 0,0.295 -0.18,0.536 -0.4,0.536 -0.22,0 -0.4,0.36 -0.4,0.8 0,0.44 -0.136,0.8 -0.303,0.8 -0.501,0 -1.297,3.065 -1.297,4.994 0,0.993 -0.18,1.806 -0.4,1.806 -0.233,0 -0.4,1.333 -0.4,3.2 0,1.867 -0.167,3.2 -0.4,3.2 -0.22,0 -0.4,0.408 -0.4,0.906 0,0.498 -0.378,1.893 -0.84,3.1 -0.462,1.207 -0.933,2.599 -1.047,3.094 -0.113,0.495 -0.365,0.9 -0.56,0.9 -0.194,0 -0.353,0.27 -0.353,0.6 0,0.33 -0.18,0.6 -0.4,0.6 -0.22,0 -0.4,0.32 -0.4,0.712 0,0.391 -0.36,0.971 -0.8,1.288 -0.44,0.317 -0.8,0.817 -0.8,1.112 0,0.294 -0.153,0.441 -0.34,0.325 -0.187,-0.115 -0.59,0.279 -0.897,0.877 -0.592,1.152 -2.334,2.885 -2.903,2.886 -0.186,0 -0.816,0.495 -1.4,1.1 -0.583,0.605 -1.555,1.355 -2.16,1.668 -0.605,0.312 -1.1,0.717 -1.1,0.9 0,0.182 -0.36,0.332 -0.8,0.332 -0.44,0 -0.8,0.18 -0.8,0.4 0,0.22 -0.36,0.4 -0.8,0.4 -0.44,0 -0.8,0.18 -0.8,0.4 0,0.22 -0.45,0.4 -1,0.4 -0.55,0 -1,0.157 -1,0.348 0,0.192 -0.945,0.494 -2.1,0.67 -1.155,0.177 -2.37,0.375 -2.7,0.439 -3.534,0.695 -9.419,0.911 -25.3,0.925 L 259.6,360 v -65.805 c 0,-40.173 -0.146,-66.076 -0.375,-66.5 -0.206,-0.382 -0.773,-1.541 -1.26,-2.574 -1.035,-2.196 -4.58,-5.921 -5.636,-5.921 -0.401,0 -0.729,-0.18 -0.729,-0.4 0,-0.22 -0.27,-0.4 -0.6,-0.4 -0.33,0 -0.6,-0.16 -0.6,-0.356 0,-0.814 -4.273,-0.973 -29.9,-1.11 -23.416,-0.126 -26.9,-0.069 -26.9,0.441"
         stroke="none"
         fill="#40b9fc"
         fill-rule="evenodd" />
      <path
         id="path3"
         d="m 96.196,92.807 c -0.138,0.223 -0.447,0.285 -0.685,0.138 -0.261,-0.161 -0.319,-0.082 -0.147,0.196 0.16,0.26 0.011,0.57 -0.339,0.705 -0.344,0.132 -0.625,0.49 -0.625,0.797 0,0.306 -0.145,0.512 -0.322,0.457 -0.178,-0.055 -0.78,0.392 -1.34,0.993 -0.56,0.602 -1.135,0.977 -1.278,0.834 -0.143,-0.143 -0.26,0.009 -0.26,0.339 0,0.329 -0.464,0.847 -1.031,1.151 -0.567,0.303 -1.203,0.873 -1.414,1.267 -0.211,0.394 -0.647,0.716 -0.969,0.716 -0.322,0 -0.541,0.225 -0.486,0.5 0.055,0.275 -0.138,0.451 -0.43,0.39 -0.291,-0.06 -0.43,0.051 -0.309,0.247 0.292,0.472 -1.14,1.751 -1.527,1.364 -0.165,-0.166 -0.241,-0.031 -0.167,0.299 0.073,0.332 -0.103,0.551 -0.397,0.49 -0.291,-0.06 -0.435,0.043 -0.32,0.229 0.267,0.433 -1.193,1.704 -1.55,1.348 -0.146,-0.147 -0.207,-0.083 -0.133,0.141 0.073,0.225 -1.172,1.694 -2.767,3.265 -1.595,1.57 -2.9,3.052 -2.9,3.291 0,0.24 -0.178,0.436 -0.395,0.436 -0.615,0 -1.988,1.304 -1.761,1.671 0.186,0.3 -0.402,0.494 -1.144,0.376 -0.165,-0.026 -0.3,0.234 -0.3,0.577 0,0.343 -0.18,0.512 -0.4,0.376 -0.22,-0.136 -0.4,0.123 -0.4,0.576 0,0.453 -0.152,0.824 -0.339,0.824 -0.647,0 -2.061,1.498 -2.061,2.184 0,0.38 -0.36,0.785 -0.8,0.9 -0.44,0.115 -0.8,0.478 -0.8,0.805 0,0.375 -0.231,0.508 -0.621,0.358 -0.341,-0.131 -0.519,-0.073 -0.394,0.129 0.125,0.201 -0.16,0.489 -0.632,0.639 -0.674,0.214 -0.74,0.348 -0.306,0.623 0.36,0.228 0.387,0.352 0.078,0.356 -0.582,0.007 -0.522,1.604 0.06,1.612 0.228,0.003 0.191,0.149 -0.084,0.323 -0.733,0.466 -0.936,254.859 -0.203,254.578 0.363,-0.139 0.34,0.114 -0.085,0.933 -0.557,1.073 -0.473,1.96 0.109,1.148 0.296,-0.413 2.05,-0.604 2.002,-0.217 -0.093,0.751 1.156,2.829 1.702,2.829 0.357,0 0.976,0.36 1.374,0.8 0.398,0.44 1.045,0.8 1.438,0.8 0.393,0 0.826,0.18 0.962,0.4 0.136,0.22 0.519,0.4 0.852,0.4 0.333,0 0.875,0.27 1.205,0.6 0.33,0.33 1.307,0.713 2.171,0.851 0.865,0.138 1.572,0.408 1.572,0.6 0,0.192 0.135,0.311 0.3,0.264 0.165,-0.047 0.681,0.127 1.147,0.386 0.466,0.259 0.957,0.362 1.091,0.228 0.133,-0.134 0.512,-0.019 0.842,0.254 0.329,0.273 1.233,0.497 2.008,0.497 0.775,0 1.31,0.162 1.187,0.36 -0.122,0.198 0.328,0.382 1.001,0.41 1.218,0.05 1.933,0.165 2.124,0.343 0.312,0.291 3.9,0.254 3.9,-0.04 0,-0.194 0.191,-0.353 0.424,-0.353 0.233,0 0.325,0.159 0.204,0.354 -0.323,0.523 1.904,0.858 2.372,0.357 0.274,-0.294 0.243,-0.339 -0.1,-0.146 -0.396,0.223 -0.51,-2.97 -0.55,-15.341 C 95.523,367.431 95.455,360.22 95.4,360 c -0.055,-0.22 -0.122,-0.526 -0.15,-0.68 -0.027,-0.154 -0.266,-0.064 -0.53,0.2 -0.682,0.682 -1.029,0.598 -1.32,-0.32 -0.14,-0.44 -0.604,-0.8 -1.032,-0.8 -0.429,0 -1.091,-0.159 -1.473,-0.353 -0.382,-0.195 -1.235,-0.599 -1.895,-0.9 -0.66,-0.3 -1.29,-0.636 -1.4,-0.746 -0.11,-0.111 -0.881,-0.516 -1.712,-0.9 -0.832,-0.385 -1.616,-0.97 -1.743,-1.3 -0.127,-0.331 -0.481,-0.601 -0.788,-0.601 -0.306,0 -0.557,-0.18 -0.557,-0.4 0,-0.22 -0.188,-0.4 -0.418,-0.4 -0.23,0 -0.85,-0.432 -1.377,-0.959 -0.528,-0.528 -1.105,-1.023 -1.282,-1.1 -0.661,-0.288 -2.478,-3.054 -2.206,-3.356 0.156,-0.172 0.074,-0.193 -0.182,-0.047 -0.279,0.159 -0.68,-0.217 -0.998,-0.936 -0.293,-0.661 -0.668,-1.202 -0.835,-1.202 -0.166,0 -0.302,-0.27 -0.302,-0.6 0,-0.33 -0.135,-0.601 -0.3,-0.603 -0.359,-0.004 -1.3,-1.941 -1.3,-2.677 0,-0.286 -0.142,-0.52 -0.315,-0.52 -0.173,0 -0.344,-0.389 -0.38,-0.864 -0.036,-0.475 -0.299,-1.012 -0.585,-1.194 -0.419,-0.266 -0.42,-0.331 -0.006,-0.336 0.414,-0.005 0.417,-0.181 0.015,-0.906 -0.274,-0.495 -0.461,-1.035 -0.414,-1.2 0.047,-0.165 -0.061,-0.3 -0.239,-0.3 -0.177,0 -0.334,-0.945 -0.348,-2.1 -0.014,-1.155 -0.157,-2.415 -0.319,-2.8 -0.162,-0.385 -0.187,-0.979 -0.056,-1.321 0.131,-0.341 0.105,-0.538 -0.058,-0.438 -0.162,0.1 -0.249,-37.184 -0.192,-82.854 l 0.103,-83.036 3.032,-2.925 c 1.667,-1.609 2.886,-2.926 2.708,-2.926 -0.178,0 0.121,-0.305 0.665,-0.679 2.078,-1.426 9.435,-8.699 10.442,-10.321 0.409,-0.66 0.745,-1.033 0.746,-0.83 0,0.204 1.261,-0.927 2.801,-2.514 1.54,-1.586 2.8,-3.069 2.8,-3.294 0,-0.225 0.166,-0.306 0.369,-0.181 0.451,0.279 2.031,-1.856 2.031,-2.743 0,-0.351 -0.177,-0.638 -0.393,-0.638 -0.251,0 -0.432,-7.521 -0.5,-20.8 -0.059,-11.44 0.039,-20.8 0.217,-20.8 0.178,0 0.212,-0.18 0.076,-0.4 -0.136,-0.22 -0.027,-0.4 0.243,-0.4 0.27,0 0.372,-0.118 0.227,-0.263 -0.145,-0.145 -0.063,-0.505 0.182,-0.8 0.245,-0.295 0.345,-0.537 0.221,-0.537 -0.124,0 -0.339,0.183 -0.477,0.407 m 2.614,41.381 c -0.309,0.373 -0.318,0.621 -0.029,0.8 0.23,0.143 0.419,-0.043 0.419,-0.413 0,-0.553 0.107,-0.584 0.6,-0.175 0.346,0.287 0.6,0.326 0.6,0.092 0,-0.672 -1.109,-0.883 -1.59,-0.304 m -1.018,1.368 c 0.087,0.455 -0.038,0.949 -0.278,1.097 -0.253,0.156 -0.324,0.087 -0.169,-0.164 0.147,-0.238 0.068,-0.557 -0.177,-0.709 -0.277,-0.171 -0.393,-0.005 -0.306,0.439 0.196,1.014 0.862,1.115 1.423,0.216 0.382,-0.612 0.365,-0.862 -0.087,-1.236 -0.461,-0.383 -0.536,-0.317 -0.406,0.357 M 63.051,378.212 c -0.301,0.784 0.362,1.096 0.914,0.43 0.348,-0.419 0.319,-0.601 -0.122,-0.77 -0.317,-0.122 -0.674,0.031 -0.792,0.34 m 4.457,3.613 c -0.148,0.149 0,0.54 0.33,0.87 0.778,0.778 1.104,0.452 0.447,-0.447 -0.279,-0.381 -0.628,-0.571 -0.777,-0.423 m 30.599,9.961 c -0.13,0.228 -0.088,0.281 0.092,0.117 0.18,-0.163 0.548,-0.113 0.817,0.111 0.342,0.283 0.552,0.247 0.692,-0.118 0.241,-0.628 -1.25,-0.731 -1.601,-0.11"
         stroke="none"
         fill="#1cdcfc"
         fill-rule="evenodd" />
      <path
         id="path4"
         d="m 134.378,53.961 c -1.943,1.961 -2.774,3.366 -1.76,2.977 0.318,-0.122 0.492,-0.36 0.388,-0.528 -0.104,-0.168 0.652,-1.135 1.679,-2.148 1.028,-1.013 1.789,-1.909 1.692,-1.991 -0.097,-0.082 -0.997,0.679 -1.999,1.69 m -4.852,4.886 c -0.591,0.634 -0.951,1.16 -0.8,1.169 0.15,0.009 -0.235,0.292 -0.858,0.629 -0.721,0.391 -1.049,0.828 -0.904,1.205 0.136,0.356 0.057,0.487 -0.199,0.328 -0.454,-0.281 -1.965,1.107 -1.965,1.805 0,0.229 -0.23,0.417 -0.511,0.417 -0.603,0 -2.687,2.269 -2.372,2.584 0.119,0.119 -0.06,0.216 -0.399,0.216 -0.338,0 -1.04,0.62 -1.559,1.377 -0.519,0.758 -1.26,1.461 -1.646,1.562 -0.387,0.101 -0.885,0.662 -1.107,1.246 -0.223,0.585 -0.585,0.952 -0.805,0.815 -0.221,-0.136 -0.401,0.063 -0.401,0.443 0,0.38 -0.104,0.586 -0.231,0.46 -0.305,-0.305 -4.169,3.55 -4.169,4.158 0,0.26 -0.099,0.374 -0.219,0.253 -0.251,-0.25 -5.981,5.34 -6.304,6.151 -0.166,0.416 -0.221,0.421 -0.245,0.019 -0.026,-0.421 -0.134,-0.421 -0.588,0 -0.305,0.284 -0.415,0.606 -0.244,0.716 0.171,0.11 0.061,0.432 -0.244,0.716 -0.454,0.421 -0.557,0.421 -0.562,0 -0.003,-0.284 -0.243,-0.066 -0.533,0.484 -0.289,0.55 -0.767,0.945 -1.061,0.877 -0.434,-0.099 -0.44,-0.007 -0.032,0.484 0.426,0.514 0.374,0.582 -0.343,0.444 -0.467,-0.09 -0.741,0.007 -0.612,0.216 0.129,0.208 0.033,0.379 -0.213,0.379 -0.246,0 -0.336,0.18 -0.2,0.4 0.136,0.22 0.037,0.4 -0.219,0.4 -0.271,0 -0.364,0.294 -0.223,0.7 0.221,0.634 0.196,0.639 -0.262,0.053 -0.427,-0.545 -0.587,-0.56 -1.017,-0.1 -0.281,0.301 -0.394,0.547 -0.25,0.547 0.143,0 -0.165,0.36 -0.685,0.801 -0.839,0.712 -0.855,0.777 -0.144,0.587 0.614,-0.163 0.583,-0.099 -0.132,0.275 -1.579,0.827 -3.768,3.028 -3.299,3.318 0.237,0.146 0.431,0.029 0.431,-0.261 0,-0.71 1.488,-1.626 1.805,-1.112 C 96.338,93.824 96.246,94 96,94 c -0.246,0 -0.336,0.18 -0.2,0.4 0.136,0.22 0.102,0.4 -0.076,0.4 -0.178,0 -0.276,9.36 -0.217,20.8 0.068,13.279 0.249,20.8 0.5,20.8 0.56,0 0.487,1.341 -0.107,1.967 -0.413,0.436 -0.349,0.436 0.374,0 0.883,-0.532 1.425,-1.607 1.432,-2.836 0.003,-0.555 0.132,-0.59 0.761,-0.2 0.836,0.518 1.729,-0.298 1.216,-1.112 -0.154,-0.244 -0.323,-0.124 -0.404,0.286 -0.077,0.388 -0.315,0.597 -0.529,0.464 -0.652,-0.403 0.404,-1.306 1.265,-1.081 0.434,0.113 0.785,0.006 0.785,-0.241 0,-0.246 0.267,-0.447 0.592,-0.447 0.326,0 0.704,-0.444 0.84,-0.987 0.137,-0.542 0.365,-0.948 0.508,-0.902 0.143,0.047 2.288,-1.939 4.766,-4.413 2.478,-2.474 4.606,-4.498 4.728,-4.498 0.416,0 1.366,-1.14 1.366,-1.638 0,-0.272 0.108,-0.388 0.239,-0.256 0.229,0.229 4.618,-4.21 4.894,-4.949 0.074,-0.196 0.344,-0.365 0.6,-0.375 0.257,-0.011 1.097,-0.736 1.867,-1.613 0.77,-0.876 2.476,-2.713 3.791,-4.081 1.316,-1.369 2.343,-2.645 2.284,-2.837 -0.059,-0.192 0.126,-0.26 0.411,-0.15 0.754,0.289 1.568,-0.687 1.026,-1.229 -0.303,-0.303 -0.178,-0.362 0.43,-0.203 0.518,0.135 0.858,0.038 0.858,-0.246 0,-0.259 -0.168,-0.367 -0.372,-0.24 -0.205,0.126 -0.47,0.072 -0.59,-0.121 -0.119,-0.194 0.175,-0.332 0.655,-0.307 0.967,0.05 2.853,-1.596 2.494,-2.176 -0.126,-0.204 0.028,-0.272 0.341,-0.151 0.313,0.12 0.68,-0.072 0.816,-0.426 0.171,-0.446 0.095,-0.548 -0.249,-0.333 -0.272,0.171 -0.827,0.256 -1.232,0.19 -0.581,-0.096 -0.681,0.053 -0.474,0.707 0.213,0.671 0.131,0.778 -0.432,0.562 -0.533,-0.204 -0.636,-0.112 -0.441,0.397 0.219,0.57 0.144,0.594 -0.531,0.173 -0.764,-0.477 -0.785,-1.058 -0.785,-21.818 0,-16.019 0.115,-21.256 0.462,-21.042 0.286,0.177 0.353,0.11 0.176,-0.176 -0.171,-0.277 -0.025,-0.462 0.362,-0.462 0.356,0 0.548,-0.161 0.426,-0.358 -0.122,-0.197 0.048,-0.461 0.376,-0.588 0.329,-0.126 0.598,-0.415 0.598,-0.641 0,-0.737 -0.975,-0.345 -2.074,0.834 M 92.3,95.985 c -1.018,0.992 -0.86,1.395 0.171,0.435 0.479,-0.446 0.794,-0.88 0.7,-0.964 -0.094,-0.084 -0.486,0.154 -0.871,0.529 M 95.405,359.9 c 0.073,0.385 0.148,7.686 0.164,16.224 0.023,11.625 0.147,15.452 0.493,15.238 0.292,-0.18 0.353,-0.11 0.166,0.192 -0.162,0.263 -0.64,0.369 -1.062,0.235 -0.428,-0.136 -0.766,-0.055 -0.766,0.184 0,0.256 0.973,0.427 2.424,0.427 1.539,0 2.332,-0.148 2.172,-0.407 -0.138,-0.223 -0.464,-0.284 -0.724,-0.135 -0.259,0.148 -0.333,0.118 -0.164,-0.069 0.505,-0.555 1.836,-0.508 1.619,0.058 -0.155,0.403 2.181,0.505 11.339,0.495 12.282,-0.013 25.966,-0.508 19.934,-0.722 -1.76,-0.062 -2.885,-0.195 -2.5,-0.296 0.651,-0.17 0.7,-1.23 0.7,-15.111 0,-16.812 -0.311,-15.367 3.333,-15.473 6.068,-0.177 -7.347,-0.672 -20.233,-0.747 -8.192,-0.047 -14.7,-0.242 -14.7,-0.439 0,-0.195 -0.199,-0.354 -0.443,-0.354 -0.243,0 -0.35,0.24 -0.238,0.533 0.113,0.294 -0.056,0.534 -0.374,0.534 -0.319,0 -0.487,-0.24 -0.375,-0.534 0.113,-0.293 -0.044,-0.533 -0.347,-0.533 -0.31,0 -0.493,0.307 -0.418,0.7"
         stroke="none"
         fill="#22d3fc"
         fill-rule="evenodd" />
    </g>
  </g>
</svg>
