<svg id="svg" version="1.1" xmlns="http://www.w3.org/2000/svg" xmlns:xlink="http://www.w3.org/1999/xlink" width="400" height="400" viewBox="0, 0, 400,400"><g id="svgg"><path id="path0" d="M0.000 200.000 L 0.000 400.000 200.000 400.000 L 400.000 400.000 400.000 200.000 L 400.000 0.000 200.000 0.000 L 0.000 0.000 0.000 200.000 M202.800 46.387 C 202.800 46.601,203.068 46.672,203.395 46.546 C 204.307 46.197,207.887 47.156,211.000 48.585 C 213.907 49.919,213.168 49.322,252.000 81.740 L 266.200 93.594 266.400 72.497 C 266.628 48.497,266.485 49.478,269.994 47.700 L 271.770 46.800 293.358 46.800 C 314.053 46.800,315.015 46.833,316.582 47.592 C 319.912 49.203,319.659 45.263,319.614 94.807 C 319.587 124.641,319.706 138.800,319.985 138.800 C 320.399 138.800,327.272 144.378,342.628 157.178 C 347.233 161.015,354.567 167.123,358.927 170.750 C 366.256 176.846,368.382 179.058,367.810 179.984 C 367.687 180.182,367.770 180.458,367.993 180.596 C 368.217 180.734,368.400 181.276,368.400 181.800 C 368.400 182.324,368.217 182.866,367.993 183.004 C 367.770 183.142,367.688 183.419,367.812 183.619 C 368.188 184.227,367.537 185.099,360.213 193.801 C 352.716 202.710,351.777 203.564,349.226 203.798 C 346.086 204.085,344.298 202.795,324.226 185.767 C 321.352 183.329,316.283 179.099,312.963 176.367 C 309.642 173.635,288.060 155.650,265.004 136.400 C 241.947 117.150,219.271 98.250,214.612 94.400 C 209.953 90.550,204.839 86.275,203.248 84.900 C 201.657 83.525,200.230 82.401,200.077 82.403 C 199.806 82.405,188.220 91.954,174.600 103.398 C 170.860 106.541,163.300 112.858,157.800 117.436 C 124.765 144.935,84.010 178.913,78.000 183.966 C 74.150 187.203,68.390 191.994,65.200 194.611 C 62.010 197.228,58.590 200.074,57.600 200.935 C 54.239 203.856,50.808 204.566,48.077 202.906 C 45.870 201.563,31.702 184.406,32.172 183.645 C 32.305 183.431,32.211 183.130,31.963 182.977 C 31.419 182.641,31.776 179.992,32.572 178.458 C 32.874 177.876,36.694 174.404,41.061 170.742 C 54.012 159.879,65.722 150.127,72.158 144.843 C 75.479 142.116,81.098 137.436,84.646 134.443 C 129.847 96.300,185.490 50.426,188.308 48.979 C 191.625 47.276,195.403 46.196,196.532 46.629 C 196.908 46.774,197.200 46.692,197.200 46.443 C 197.200 46.161,198.220 46.000,200.000 46.000 C 201.540 46.000,202.800 46.174,202.800 46.387 M204.727 103.886 C 207.077 105.803,211.700 109.633,215.000 112.397 C 218.300 115.161,223.430 119.396,226.400 121.807 C 229.370 124.219,236.040 129.704,241.223 133.996 C 246.406 138.288,257.645 147.560,266.200 154.600 C 274.754 161.640,285.994 170.916,291.177 175.212 C 296.360 179.509,302.406 184.481,304.613 186.261 C 306.820 188.041,311.094 191.571,314.112 194.104 L 319.598 198.711 319.699 271.117 C 319.755 310.941,319.667 343.441,319.505 343.341 C 319.342 343.241,319.315 343.434,319.444 343.771 C 320.172 345.666,316.181 350.667,312.492 352.483 L 309.817 353.800 268.109 353.909 L 226.400 354.018 226.400 294.009 L 226.400 234.000 200.000 234.000 L 173.600 234.000 173.600 294.009 L 173.600 354.018 131.891 353.909 L 90.183 353.800 87.508 352.483 C 83.819 350.667,79.828 345.666,80.556 343.771 C 80.685 343.434,80.658 343.241,80.495 343.341 C 80.333 343.441,80.243 310.939,80.295 271.114 L 80.389 198.705 86.495 193.621 C 89.853 190.825,95.334 186.302,98.676 183.569 C 102.017 180.836,111.624 172.930,120.025 166.000 C 142.185 147.719,157.721 134.922,169.044 125.623 C 174.520 121.126,181.070 115.714,183.600 113.596 C 192.400 106.229,199.672 100.400,200.062 100.400 C 200.278 100.400,202.377 101.969,204.727 103.886 " stroke="none" fill="#040404" fill-rule="evenodd"></path><path id="path1" d="M282.472 47.500 C 288.341 47.562,298.061 47.562,304.072 47.500 C 310.082 47.438,305.280 47.387,293.400 47.386 C 281.520 47.386,276.602 47.437,282.472 47.500 M269.287 48.700 C 268.668 49.305,268.530 49.510,268.981 49.155 C 269.431 48.800,270.160 48.310,270.600 48.067 C 271.040 47.823,271.178 47.619,270.906 47.612 C 270.635 47.605,269.906 48.095,269.287 48.700 M316.200 48.337 C 316.860 48.740,317.647 49.370,317.949 49.735 C 318.784 50.746,319.303 50.529,318.604 49.462 C 317.998 48.537,316.422 47.599,315.481 47.601 C 315.217 47.602,315.540 47.933,316.200 48.337 M212.576 50.213 C 213.004 50.536,213.533 50.800,213.753 50.800 C 213.973 50.800,213.804 50.536,213.376 50.213 C 212.949 49.890,212.420 49.625,212.200 49.625 C 211.980 49.625,212.149 49.890,212.576 50.213 M184.284 51.863 C 183.230 52.654,182.450 53.384,182.552 53.485 C 182.653 53.586,183.667 52.934,184.804 52.035 C 187.351 50.021,186.925 49.880,184.284 51.863 M319.467 52.267 C 319.052 52.682,319.153 54.000,319.600 54.000 C 319.820 54.000,320.000 53.550,320.000 53.000 C 320.000 51.953,319.908 51.826,319.467 52.267 M216.600 53.200 C 216.998 53.640,217.504 54.000,217.724 54.000 C 217.944 54.000,217.798 53.640,217.400 53.200 C 217.002 52.760,216.496 52.400,216.276 52.400 C 216.056 52.400,216.202 52.760,216.600 53.200 M180.744 54.787 C 180.225 55.219,179.997 55.579,180.238 55.587 C 180.479 55.594,181.002 55.240,181.400 54.800 C 182.326 53.776,181.966 53.769,180.744 54.787 M218.818 55.022 C 219.102 55.364,219.709 55.838,220.167 56.076 C 220.910 56.462,220.896 56.395,220.030 55.454 C 219.006 54.341,217.936 53.959,218.818 55.022 M224.241 59.262 C 225.447 60.834,232.809 66.924,233.123 66.610 C 233.272 66.462,233.055 66.151,232.642 65.919 C 232.229 65.688,231.240 64.921,230.445 64.214 C 229.650 63.507,228.473 62.495,227.828 61.964 C 227.184 61.434,225.930 60.370,225.041 59.600 C 223.739 58.472,223.584 58.406,224.241 59.262 M173.400 60.800 C 172.999 61.243,172.762 61.695,172.872 61.805 C 172.982 61.915,173.399 61.643,173.800 61.200 C 174.201 60.757,174.438 60.305,174.328 60.195 C 174.218 60.085,173.801 60.357,173.400 60.800 M170.600 63.200 C 170.202 63.640,170.056 64.000,170.276 64.000 C 170.496 64.000,171.002 63.640,171.400 63.200 C 171.798 62.760,171.944 62.400,171.724 62.400 C 171.504 62.400,170.998 62.760,170.600 63.200 M168.200 65.200 C 167.802 65.640,167.656 66.000,167.876 66.000 C 168.096 66.000,168.602 65.640,169.000 65.200 C 169.398 64.760,169.544 64.400,169.324 64.400 C 169.104 64.400,168.598 64.760,168.200 65.200 M165.944 67.187 C 165.425 67.619,165.197 67.979,165.438 67.987 C 165.679 67.994,166.202 67.640,166.600 67.200 C 167.526 66.176,167.166 66.169,165.944 67.187 M234.200 68.000 C 234.598 68.440,235.104 68.800,235.324 68.800 C 235.544 68.800,235.398 68.440,235.000 68.000 C 234.602 67.560,234.096 67.200,233.876 67.200 C 233.656 67.200,233.802 67.560,234.200 68.000 M163.544 69.187 C 163.025 69.619,162.797 69.979,163.038 69.987 C 163.279 69.994,163.802 69.640,164.200 69.200 C 165.126 68.176,164.766 68.169,163.544 69.187 M236.600 70.000 C 236.998 70.440,237.504 70.800,237.724 70.800 C 237.944 70.800,237.798 70.440,237.400 70.000 C 237.002 69.560,236.496 69.200,236.276 69.200 C 236.056 69.200,236.202 69.560,236.600 70.000 M161.144 71.187 C 160.625 71.619,160.397 71.979,160.638 71.987 C 160.879 71.994,161.402 71.640,161.800 71.200 C 162.726 70.176,162.366 70.169,161.144 71.187 M239.000 72.000 C 239.398 72.440,239.904 72.800,240.124 72.800 C 240.344 72.800,240.198 72.440,239.800 72.000 C 239.402 71.560,238.896 71.200,238.676 71.200 C 238.456 71.200,238.602 71.560,239.000 72.000 M151.300 79.177 C 150.388 79.938,150.154 80.410,150.700 80.387 C 150.865 80.381,151.323 79.931,151.719 79.387 C 152.573 78.214,152.499 78.177,151.300 79.177 M248.610 79.681 C 248.951 80.570,255.196 85.738,255.528 85.406 C 255.677 85.257,255.439 84.872,254.999 84.552 C 253.902 83.751,251.648 81.927,250.855 81.197 C 248.928 79.424,248.365 79.044,248.610 79.681 M148.843 81.244 C 148.317 81.671,148.007 82.141,148.154 82.288 C 148.302 82.435,148.812 82.166,149.289 81.689 C 150.412 80.565,150.084 80.238,148.843 81.244 M198.600 82.400 C 197.743 83.347,198.231 83.477,199.235 82.569 C 199.872 81.992,200.031 82.000,201.066 82.653 L 202.200 83.369 201.438 82.484 C 200.492 81.387,199.543 81.358,198.600 82.400 M146.229 83.409 C 145.805 83.729,145.585 84.119,145.740 84.274 C 145.895 84.429,146.417 84.161,146.900 83.678 C 147.883 82.695,147.419 82.509,146.229 83.409 M196.162 84.458 C 195.405 85.310,195.406 85.313,196.278 84.856 C 197.250 84.346,197.849 83.600,197.286 83.600 C 197.087 83.600,196.581 83.986,196.162 84.458 M202.599 83.998 C 202.734 84.217,203.240 84.603,203.722 84.856 C 204.594 85.313,204.595 85.310,203.838 84.458 C 203.075 83.598,202.136 83.250,202.599 83.998 M143.829 85.409 C 143.405 85.729,143.185 86.119,143.340 86.274 C 143.495 86.429,144.017 86.161,144.500 85.678 C 145.483 84.695,145.019 84.509,143.829 85.409 M193.762 86.458 C 193.005 87.310,193.006 87.313,193.878 86.856 C 194.850 86.346,195.449 85.600,194.886 85.600 C 194.687 85.600,194.181 85.986,193.762 86.458 M204.999 85.998 C 205.134 86.217,205.640 86.603,206.122 86.856 C 206.994 87.313,206.995 87.310,206.238 86.458 C 205.475 85.598,204.536 85.250,204.999 85.998 M257.800 87.793 C 259.842 89.606,260.400 89.908,260.400 89.200 C 260.400 88.980,260.253 88.800,260.073 88.800 C 259.893 88.800,259.038 88.170,258.173 87.400 C 257.308 86.630,256.420 86.004,256.200 86.009 C 255.980 86.013,256.700 86.816,257.800 87.793 M141.400 87.600 C 141.002 88.040,140.856 88.400,141.076 88.400 C 141.296 88.400,141.802 88.040,142.200 87.600 C 142.598 87.160,142.744 86.800,142.524 86.800 C 142.304 86.800,141.798 87.160,141.400 87.600 M191.362 88.458 C 190.605 89.310,190.606 89.313,191.478 88.856 C 192.450 88.346,193.049 87.600,192.486 87.600 C 192.287 87.600,191.781 87.986,191.362 88.458 M207.200 87.754 C 207.200 87.839,207.695 88.227,208.300 88.616 L 209.400 89.324 208.638 88.462 C 207.964 87.699,207.200 87.323,207.200 87.754 M188.962 90.458 C 188.205 91.310,188.206 91.313,189.078 90.856 C 190.050 90.346,190.649 89.600,190.086 89.600 C 189.887 89.600,189.381 89.986,188.962 90.458 M209.799 89.998 C 209.934 90.217,210.440 90.603,210.922 90.856 C 211.794 91.313,211.795 91.310,211.038 90.458 C 210.275 89.598,209.336 89.250,209.799 89.998 M186.562 92.458 C 185.805 93.310,185.806 93.313,186.678 92.856 C 187.650 92.346,188.249 91.600,187.686 91.600 C 187.487 91.600,186.981 91.986,186.562 92.458 M212.400 91.986 C 212.400 92.198,212.805 92.584,213.300 92.844 C 214.195 93.314,214.196 93.312,213.438 92.458 C 212.591 91.505,212.400 91.418,212.400 91.986 M184.202 94.398 C 183.803 94.839,183.662 95.200,183.889 95.200 C 184.392 95.200,185.390 94.057,185.121 93.788 C 185.015 93.682,184.602 93.956,184.202 94.398 M214.800 93.889 C 214.800 94.392,215.943 95.390,216.212 95.121 C 216.318 95.015,216.044 94.602,215.602 94.202 C 215.161 93.803,214.800 93.662,214.800 93.889 M181.800 96.400 C 181.399 96.843,181.162 97.295,181.272 97.405 C 181.382 97.515,181.799 97.243,182.200 96.800 C 182.601 96.357,182.838 95.905,182.728 95.795 C 182.618 95.685,182.201 95.957,181.800 96.400 M217.200 95.889 C 217.200 96.392,218.343 97.390,218.612 97.121 C 218.718 97.015,218.444 96.602,218.002 96.202 C 217.561 95.803,217.200 95.662,217.200 95.889 M178.020 99.420 C 176.902 100.466,176.096 101.429,176.228 101.561 C 176.360 101.692,176.894 101.305,177.415 100.700 C 177.936 100.095,178.522 99.600,178.719 99.600 C 179.239 99.600,180.571 98.038,180.290 97.757 C 180.159 97.626,179.138 98.374,178.020 99.420 M219.600 97.924 C 219.600 98.440,221.164 99.769,221.443 99.491 C 221.573 99.360,221.562 99.062,221.418 98.829 C 221.043 98.222,219.600 97.504,219.600 97.924 M126.900 99.470 C 125.990 100.105,125.704 100.800,126.354 100.800 C 126.549 100.800,127.003 100.350,127.363 99.800 C 128.121 98.644,128.103 98.631,126.900 99.470 M222.089 100.066 C 222.174 100.322,222.684 100.809,223.222 101.148 L 224.200 101.763 223.230 100.682 C 222.183 99.514,221.844 99.331,222.089 100.066 M199.280 100.880 C 198.586 101.574,198.689 102.190,199.400 101.600 C 199.879 101.203,200.121 101.203,200.600 101.600 C 200.930 101.874,201.200 101.932,201.200 101.729 C 201.200 101.317,200.372 100.400,200.000 100.400 C 199.868 100.400,199.544 100.616,199.280 100.880 M124.400 101.600 C 123.857 102.010,123.549 102.483,123.717 102.650 C 123.885 102.818,124.412 102.566,124.889 102.089 C 126.010 100.968,125.678 100.636,124.400 101.600 M174.162 102.858 C 173.405 103.710,173.406 103.713,174.278 103.256 C 175.250 102.746,175.849 102.000,175.286 102.000 C 175.087 102.000,174.581 102.386,174.162 102.858 M197.000 102.800 C 196.599 103.243,196.362 103.695,196.472 103.805 C 196.582 103.915,196.999 103.643,197.400 103.200 C 197.801 102.757,198.038 102.305,197.928 102.195 C 197.818 102.085,197.401 102.357,197.000 102.800 M202.000 102.276 C 202.000 102.496,202.360 103.002,202.800 103.400 C 203.240 103.798,203.600 103.944,203.600 103.724 C 203.600 103.504,203.240 102.998,202.800 102.600 C 202.360 102.202,202.000 102.056,202.000 102.276 M224.599 102.398 C 224.734 102.617,225.240 103.003,225.722 103.256 C 226.594 103.713,226.595 103.710,225.838 102.858 C 225.075 101.998,224.136 101.650,224.599 102.398 M121.777 103.767 C 121.350 104.079,121.141 104.474,121.312 104.645 C 121.483 104.816,122.017 104.561,122.500 104.078 C 123.478 103.099,122.982 102.886,121.777 103.767 M171.762 104.858 C 171.005 105.710,171.006 105.713,171.878 105.256 C 172.850 104.746,173.449 104.000,172.886 104.000 C 172.687 104.000,172.181 104.386,171.762 104.858 M204.562 104.742 C 205.409 105.695,205.600 105.782,205.600 105.214 C 205.600 105.002,205.195 104.616,204.700 104.356 C 203.805 103.886,203.804 103.888,204.562 104.742 M226.800 104.154 C 226.800 104.239,227.295 104.627,227.900 105.016 L 229.000 105.724 228.238 104.862 C 227.564 104.099,226.800 103.723,226.800 104.154 M193.433 105.817 C 192.572 106.578,191.942 107.275,192.034 107.367 C 192.126 107.459,193.011 106.834,194.000 105.979 C 194.990 105.124,195.620 104.426,195.400 104.429 C 195.180 104.431,194.295 105.056,193.433 105.817 M119.371 105.771 C 118.948 106.081,118.691 106.425,118.801 106.535 C 118.911 106.645,119.348 106.481,119.771 106.171 C 120.195 105.862,120.452 105.518,120.342 105.408 C 120.232 105.298,119.795 105.462,119.371 105.771 M169.362 106.862 L 168.600 107.724 169.700 107.016 C 170.834 106.286,171.049 106.000,170.462 106.000 C 170.276 106.000,169.781 106.388,169.362 106.862 M206.962 106.742 C 207.381 107.214,207.887 107.600,208.086 107.600 C 208.649 107.600,208.050 106.854,207.078 106.344 C 206.206 105.887,206.205 105.890,206.962 106.742 M229.200 106.154 C 229.200 106.239,229.695 106.627,230.300 107.016 L 231.400 107.724 230.638 106.862 C 229.964 106.099,229.200 105.723,229.200 106.154 M166.962 108.862 L 166.200 109.724 167.300 109.016 C 168.434 108.286,168.649 108.000,168.062 108.000 C 167.876 108.000,167.381 108.388,166.962 108.862 M189.944 108.787 C 189.425 109.219,189.197 109.579,189.438 109.587 C 189.679 109.594,190.202 109.240,190.600 108.800 C 191.526 107.776,191.166 107.769,189.944 108.787 M208.800 108.126 C 208.800 108.442,214.843 113.290,215.018 113.115 C 215.115 113.018,213.990 111.963,212.518 110.770 C 209.722 108.503,208.800 107.848,208.800 108.126 M164.562 110.858 C 163.804 111.712,163.805 111.714,164.700 111.244 C 165.195 110.984,165.600 110.598,165.600 110.386 C 165.600 109.818,165.409 109.905,164.562 110.858 M186.658 111.459 C 185.628 112.262,184.869 113.002,184.971 113.104 C 185.148 113.281,188.800 110.466,188.800 110.152 C 188.800 109.843,188.490 110.032,186.658 111.459 M162.162 112.858 C 161.404 113.712,161.405 113.714,162.300 113.244 C 162.795 112.984,163.200 112.598,163.200 112.386 C 163.200 111.818,163.009 111.905,162.162 112.858 M236.800 112.386 C 236.800 112.598,237.205 112.984,237.700 113.244 C 238.595 113.714,238.596 113.712,237.838 112.858 C 236.991 111.905,236.800 111.818,236.800 112.386 M109.600 114.000 C 109.050 114.430,108.797 114.786,109.038 114.791 C 109.279 114.796,109.802 114.440,110.200 114.000 C 111.112 112.992,110.888 112.992,109.600 114.000 M183.144 114.387 C 182.625 114.819,182.397 115.179,182.638 115.187 C 182.879 115.194,183.402 114.840,183.800 114.400 C 184.726 113.376,184.366 113.369,183.144 114.387 M217.400 115.355 C 218.500 116.353,219.580 117.169,219.800 117.170 C 220.279 117.170,217.338 114.544,216.200 113.955 C 215.760 113.727,216.300 114.358,217.400 115.355 M159.557 114.777 C 158.817 115.393,158.747 115.576,159.251 115.587 C 159.936 115.601,161.057 114.523,160.714 114.180 C 160.603 114.070,160.083 114.339,159.557 114.777 M239.200 114.306 C 239.200 114.825,240.100 115.600,240.704 115.600 C 241.003 115.600,241.137 115.421,241.001 115.202 C 240.648 114.630,239.200 113.910,239.200 114.306 M107.200 116.000 C 106.650 116.430,106.397 116.786,106.638 116.791 C 106.879 116.796,107.402 116.440,107.800 116.000 C 108.712 114.992,108.488 114.992,107.200 116.000 M180.600 116.400 C 180.202 116.840,180.056 117.200,180.276 117.200 C 180.496 117.200,181.002 116.840,181.400 116.400 C 181.798 115.960,181.944 115.600,181.724 115.600 C 181.504 115.600,180.998 115.960,180.600 116.400 M156.998 116.802 C 156.598 117.244,156.389 117.723,156.533 117.867 C 156.825 118.158,158.400 116.869,158.400 116.338 C 158.400 115.754,157.752 115.969,156.998 116.802 M241.600 116.377 C 241.600 116.835,243.275 118.058,243.540 117.793 C 243.779 117.554,242.390 116.000,241.938 116.000 C 241.752 116.000,241.600 116.170,241.600 116.377 M104.744 117.987 C 104.225 118.419,103.997 118.779,104.238 118.787 C 104.479 118.794,105.002 118.440,105.400 118.000 C 106.326 116.976,105.966 116.969,104.744 117.987 M154.475 119.000 C 153.997 119.550,153.744 120.000,153.914 120.000 C 154.430 120.000,156.000 118.779,156.000 118.377 C 156.000 117.714,155.370 117.971,154.475 119.000 M244.000 118.377 C 244.000 118.779,245.570 120.000,246.086 120.000 C 246.256 120.000,246.003 119.550,245.525 119.000 C 244.630 117.971,244.000 117.714,244.000 118.377 M102.000 120.400 C 101.383 121.060,100.703 121.600,100.488 121.600 C 100.004 121.600,99.016 122.749,99.277 123.010 C 99.545 123.279,103.090 120.464,103.356 119.771 C 103.700 118.873,103.217 119.097,102.000 120.400 M176.262 119.931 C 175.533 120.737,175.372 121.388,175.998 121.001 C 176.415 120.743,177.339 119.200,177.076 119.200 C 176.992 119.200,176.626 119.529,176.262 119.931 M223.144 119.878 C 223.654 120.850,224.400 121.449,224.400 120.886 C 224.400 120.687,224.014 120.181,223.542 119.762 C 222.690 119.005,222.687 119.006,223.144 119.878 M152.162 121.258 C 151.405 122.110,151.406 122.113,152.278 121.656 C 153.250 121.146,153.849 120.400,153.286 120.400 C 153.087 120.400,152.581 120.786,152.162 121.258 M246.400 120.554 C 246.400 120.639,246.895 121.027,247.500 121.416 L 248.600 122.124 247.838 121.262 C 247.164 120.499,246.400 120.123,246.400 120.554 M173.800 122.000 C 173.399 122.443,173.162 122.895,173.272 123.005 C 173.382 123.115,173.799 122.843,174.200 122.400 C 174.601 121.957,174.838 121.505,174.728 121.395 C 174.618 121.285,174.201 121.557,173.800 122.000 M225.200 121.528 C 225.200 121.989,228.773 124.961,229.024 124.709 C 229.123 124.610,228.303 123.769,227.202 122.841 C 226.101 121.912,225.200 121.321,225.200 121.528 M149.762 123.262 L 149.000 124.124 150.100 123.416 C 151.234 122.686,151.449 122.400,150.862 122.400 C 150.676 122.400,150.181 122.788,149.762 123.262 M248.800 122.554 C 248.800 122.639,249.295 123.027,249.900 123.416 L 251.000 124.124 250.238 123.262 C 249.564 122.499,248.800 122.123,248.800 122.554 M171.592 123.810 C 170.819 124.741,171.371 124.917,172.198 124.002 C 172.597 123.561,172.738 123.200,172.511 123.200 C 172.284 123.200,171.870 123.474,171.592 123.810 M97.192 124.210 C 96.419 125.141,96.971 125.317,97.798 124.402 C 98.197 123.961,98.338 123.600,98.111 123.600 C 97.884 123.600,97.470 123.874,97.192 124.210 M146.000 126.455 C 144.208 128.107,144.124 128.235,145.544 127.142 C 148.544 124.834,149.012 124.418,148.600 124.422 C 148.380 124.424,147.210 125.339,146.000 126.455 M169.144 125.987 C 168.625 126.419,168.397 126.779,168.638 126.787 C 168.879 126.794,169.402 126.440,169.800 126.000 C 170.726 124.976,170.366 124.969,169.144 125.987 M230.200 126.000 C 230.598 126.440,231.104 126.800,231.324 126.800 C 231.544 126.800,231.398 126.440,231.000 126.000 C 230.602 125.560,230.096 125.200,229.876 125.200 C 229.656 125.200,229.802 125.560,230.200 126.000 M94.977 126.167 C 94.550 126.479,94.307 126.840,94.436 126.970 C 94.566 127.099,94.998 126.844,95.398 126.402 C 96.248 125.463,96.073 125.366,94.977 126.167 M164.514 129.706 C 162.926 131.056,161.702 132.235,161.793 132.326 C 161.953 132.487,168.000 127.636,168.000 127.346 C 168.000 126.897,167.101 127.506,164.514 129.706 M233.600 128.800 C 234.590 129.667,235.580 130.381,235.800 130.387 C 236.020 130.393,235.390 129.686,234.400 128.816 C 233.410 127.946,232.420 127.232,232.200 127.229 C 231.980 127.226,232.610 127.933,233.600 128.800 M92.577 128.167 C 92.150 128.479,91.907 128.840,92.036 128.970 C 92.166 129.099,92.598 128.844,92.998 128.402 C 93.848 127.463,93.673 127.366,92.577 128.167 M142.370 129.468 L 141.400 130.536 142.487 129.768 C 143.086 129.346,143.581 128.865,143.587 128.700 C 143.608 128.207,143.389 128.346,142.370 129.468 M90.000 130.400 C 89.450 130.830,89.197 131.186,89.438 131.191 C 89.679 131.196,90.202 130.840,90.600 130.400 C 91.512 129.392,91.288 129.392,90.000 130.400 M140.000 131.200 C 139.457 131.610,139.102 132.035,139.212 132.145 C 139.322 132.255,139.857 132.010,140.400 131.600 C 140.943 131.190,141.298 130.765,141.188 130.655 C 141.078 130.545,140.543 130.790,140.000 131.200 M258.800 130.777 C 258.800 131.220,260.370 132.164,260.647 131.887 C 260.745 131.789,260.369 131.410,259.812 131.045 C 259.256 130.680,258.800 130.559,258.800 130.777 M237.000 131.600 C 237.398 132.040,237.904 132.400,238.124 132.400 C 238.344 132.400,238.198 132.040,237.800 131.600 C 237.402 131.160,236.896 130.800,236.676 130.800 C 236.456 130.800,236.602 131.160,237.000 131.600 M87.600 132.400 C 87.050 132.830,86.797 133.186,87.038 133.191 C 87.279 133.196,87.802 132.840,88.200 132.400 C 89.112 131.392,88.888 131.392,87.600 132.400 M136.206 134.188 C 135.109 135.154,134.316 136.049,134.443 136.176 C 134.570 136.304,135.198 135.912,135.837 135.307 C 136.477 134.701,137.346 134.024,137.768 133.803 C 138.567 133.384,139.116 132.389,138.533 132.415 C 138.350 132.424,137.303 133.221,136.206 134.188 M261.200 132.786 C 261.200 133.164,262.465 134.000,263.036 134.000 C 263.194 134.000,262.998 133.640,262.600 133.200 C 261.824 132.343,261.200 132.158,261.200 132.786 M159.762 133.658 C 159.005 134.510,159.006 134.513,159.878 134.056 C 160.850 133.546,161.449 132.800,160.886 132.800 C 160.687 132.800,160.181 133.186,159.762 133.658 M238.999 133.198 C 239.134 133.417,239.640 133.803,240.122 134.056 C 240.994 134.513,240.995 134.510,240.238 133.658 C 239.475 132.798,238.536 132.450,238.999 133.198 M85.144 134.387 C 84.625 134.819,84.397 135.179,84.638 135.187 C 84.879 135.194,85.402 134.840,85.800 134.400 C 86.726 133.376,86.366 133.369,85.144 134.387 M263.600 134.786 C 263.600 134.998,264.005 135.383,264.500 135.640 C 264.995 135.898,265.689 136.399,266.043 136.754 C 266.396 137.109,267.206 137.831,267.843 138.357 C 268.479 138.883,269.315 139.586,269.700 139.919 C 270.085 140.252,270.400 140.345,270.400 140.126 C 270.400 139.741,264.260 134.400,263.818 134.400 C 263.698 134.400,263.600 134.574,263.600 134.786 M82.744 136.387 C 82.225 136.819,81.997 137.179,82.238 137.187 C 82.479 137.194,83.002 136.840,83.400 136.400 C 84.326 135.376,83.966 135.369,82.744 136.387 M132.598 137.202 C 132.198 137.644,131.956 138.090,132.060 138.193 C 132.325 138.458,134.000 137.235,134.000 136.777 C 134.000 136.157,133.371 136.348,132.598 137.202 M80.200 138.400 C 79.802 138.840,79.656 139.200,79.876 139.200 C 80.096 139.200,80.602 138.840,81.000 138.400 C 81.398 137.960,81.544 137.600,81.324 137.600 C 81.104 137.600,80.598 137.960,80.200 138.400 M129.768 139.700 C 129.119 140.415,127.601 141.869,126.394 142.930 C 125.187 143.992,125.820 143.564,127.800 141.978 C 129.780 140.393,131.460 138.939,131.533 138.748 C 131.834 137.964,130.872 138.483,129.768 139.700 M246.624 139.311 C 247.377 140.344,248.013 140.711,247.987 140.100 C 247.981 139.935,247.496 139.451,246.911 139.024 L 245.848 138.248 246.624 139.311 M77.800 140.400 C 77.399 140.843,77.162 141.295,77.272 141.405 C 77.382 141.515,77.799 141.243,78.200 140.800 C 78.601 140.357,78.838 139.905,78.728 139.795 C 78.618 139.685,78.201 139.957,77.800 140.400 M149.388 142.210 C 148.294 143.183,147.580 143.978,147.800 143.977 C 148.358 143.976,151.847 140.914,151.587 140.654 C 151.471 140.537,150.481 141.238,149.388 142.210 M248.400 140.690 C 248.400 141.282,251.989 144.144,252.319 143.815 C 252.470 143.664,252.289 143.370,251.916 143.161 C 251.544 142.953,251.000 142.561,250.707 142.291 C 249.092 140.801,248.400 140.320,248.400 140.690 M322.000 140.676 C 322.000 140.896,322.360 141.402,322.800 141.800 C 323.240 142.198,323.600 142.344,323.600 142.124 C 323.600 141.904,323.240 141.398,322.800 141.000 C 322.360 140.602,322.000 140.456,322.000 140.676 M75.400 142.400 C 74.999 142.843,74.762 143.295,74.872 143.405 C 74.982 143.515,75.399 143.243,75.800 142.800 C 76.201 142.357,76.438 141.905,76.328 141.795 C 76.218 141.685,75.801 141.957,75.400 142.400 M325.000 143.600 C 325.398 144.040,325.904 144.400,326.124 144.400 C 326.344 144.400,326.198 144.040,325.800 143.600 C 325.402 143.160,324.896 142.800,324.676 142.800 C 324.456 142.800,324.602 143.160,325.000 143.600 M72.600 144.800 C 72.202 145.240,72.056 145.600,72.276 145.600 C 72.496 145.600,73.002 145.240,73.400 144.800 C 73.798 144.360,73.944 144.000,73.724 144.000 C 73.504 144.000,72.998 144.360,72.600 144.800 M145.800 145.200 C 145.402 145.640,145.256 146.000,145.476 146.000 C 145.696 146.000,146.202 145.640,146.600 145.200 C 146.998 144.760,147.144 144.400,146.924 144.400 C 146.704 144.400,146.198 144.760,145.800 145.200 M252.800 144.546 C 252.800 144.870,258.857 149.677,259.037 149.496 C 259.145 149.389,258.481 148.693,257.563 147.951 C 256.645 147.208,255.338 146.105,254.658 145.500 C 253.554 144.518,252.800 144.131,252.800 144.546 M327.400 145.600 C 327.798 146.040,328.304 146.400,328.524 146.400 C 328.744 146.400,328.598 146.040,328.200 145.600 C 327.802 145.160,327.296 144.800,327.076 144.800 C 326.856 144.800,327.002 145.160,327.400 145.600 M70.200 146.800 C 69.802 147.240,69.656 147.600,69.876 147.600 C 70.096 147.600,70.602 147.240,71.000 146.800 C 71.398 146.360,71.544 146.000,71.324 146.000 C 71.104 146.000,70.598 146.360,70.200 146.800 M142.400 148.000 C 141.410 148.879,140.780 149.594,141.000 149.588 C 141.540 149.572,145.107 146.427,144.600 146.412 C 144.380 146.406,143.390 147.121,142.400 148.000 M120.443 147.623 C 119.917 148.061,119.571 148.505,119.675 148.608 C 119.779 148.712,120.286 148.348,120.801 147.798 C 121.924 146.604,121.762 146.525,120.443 147.623 M329.200 146.918 C 329.200 147.104,339.530 155.699,340.300 156.153 C 341.772 157.020,340.246 155.609,335.500 151.715 C 330.218 147.380,329.200 146.605,329.200 146.918 M67.944 148.787 C 67.425 149.219,67.197 149.579,67.438 149.587 C 67.679 149.594,68.202 149.240,68.600 148.800 C 69.526 147.776,69.166 147.769,67.944 148.787 M112.400 154.127 C 108.990 157.027,105.300 160.280,104.200 161.356 L 102.200 163.311 104.800 161.204 C 106.230 160.044,108.273 158.354,109.340 157.448 C 111.994 155.193,112.951 154.384,114.485 153.096 C 115.208 152.489,116.417 151.454,117.172 150.796 C 117.927 150.138,118.692 149.600,118.872 149.600 C 119.052 149.600,119.200 149.420,119.200 149.200 C 119.200 148.427,118.547 148.900,112.400 154.127 M280.800 149.200 C 280.800 149.420,280.947 149.600,281.127 149.600 C 281.307 149.600,282.162 150.230,283.027 151.000 C 283.892 151.770,284.780 152.396,285.000 152.391 C 285.443 152.383,281.579 148.840,281.100 148.815 C 280.935 148.807,280.800 148.980,280.800 149.200 M65.544 150.787 C 65.025 151.219,64.797 151.579,65.038 151.587 C 65.279 151.594,65.802 151.240,66.200 150.800 C 67.126 149.776,66.766 149.769,65.544 150.787 M63.144 152.787 C 62.625 153.219,62.397 153.579,62.638 153.587 C 62.879 153.594,63.402 153.240,63.800 152.800 C 64.726 151.776,64.366 151.769,63.144 152.787 M262.400 152.118 C 262.400 152.220,263.247 152.997,264.281 153.845 C 265.316 154.693,266.034 155.178,265.876 154.923 C 265.540 154.379,262.400 151.845,262.400 152.118 M285.600 153.056 C 285.600 153.391,286.897 154.371,287.362 154.387 C 287.561 154.394,287.398 154.040,287.000 153.600 C 286.291 152.816,285.600 152.548,285.600 153.056 M60.600 154.800 C 60.202 155.240,60.056 155.600,60.276 155.600 C 60.496 155.600,61.002 155.240,61.400 154.800 C 61.798 154.360,61.944 154.000,61.724 154.000 C 61.504 154.000,60.998 154.360,60.600 154.800 M288.000 155.104 C 288.000 155.271,288.329 155.613,288.732 155.865 C 289.134 156.116,290.796 157.464,292.425 158.861 C 294.055 160.257,295.030 160.922,294.594 160.339 C 293.127 158.378,288.000 154.307,288.000 155.104 M270.914 159.383 C 271.966 160.441,272.953 161.180,273.108 161.026 C 273.381 160.753,272.652 160.074,270.200 158.318 C 269.457 157.786,269.729 158.192,270.914 159.383 M127.050 160.589 C 126.458 161.137,125.620 161.775,125.187 162.007 C 124.423 162.416,124.095 163.212,124.700 163.188 C 125.234 163.167,128.607 160.073,128.362 159.829 C 128.232 159.699,127.641 160.041,127.050 160.589 M53.400 160.800 C 52.999 161.243,52.762 161.695,52.872 161.805 C 52.982 161.915,53.399 161.643,53.800 161.200 C 54.201 160.757,54.438 160.305,54.328 160.195 C 54.218 160.085,53.801 160.357,53.400 160.800 M346.000 160.676 C 346.000 160.896,346.360 161.402,346.800 161.800 C 347.240 162.198,347.600 162.344,347.600 162.124 C 347.600 161.904,347.240 161.398,346.800 161.000 C 346.360 160.602,346.000 160.456,346.000 160.676 M274.300 162.478 C 274.783 162.961,275.317 163.216,275.488 163.045 C 275.659 162.874,275.450 162.479,275.023 162.167 C 273.818 161.286,273.322 161.499,274.300 162.478 M49.600 164.013 C 48.390 165.101,47.580 165.987,47.800 165.983 C 48.020 165.978,49.190 165.086,50.400 164.000 C 51.610 162.914,52.420 162.028,52.200 162.030 C 51.980 162.033,50.810 162.925,49.600 164.013 M349.000 163.600 C 349.398 164.040,349.904 164.400,350.124 164.400 C 350.344 164.400,350.198 164.040,349.800 163.600 C 349.402 163.160,348.896 162.800,348.676 162.800 C 348.456 162.800,348.602 163.160,349.000 163.600 M122.281 164.539 C 121.796 165.056,120.995 165.692,120.500 165.953 C 119.649 166.402,119.252 167.218,119.900 167.185 C 120.461 167.156,124.203 163.616,123.681 163.608 C 123.395 163.604,122.765 164.023,122.281 164.539 M277.800 165.393 C 278.900 166.370,279.950 167.176,280.133 167.185 C 280.721 167.212,280.164 166.214,279.361 165.800 C 278.934 165.580,278.184 164.995,277.693 164.500 C 277.202 164.005,276.575 163.604,276.300 163.608 C 276.025 163.613,276.700 164.416,277.800 165.393 M351.400 165.600 C 351.798 166.040,352.304 166.400,352.524 166.400 C 352.744 166.400,352.598 166.040,352.200 165.600 C 351.802 165.160,351.296 164.800,351.076 164.800 C 350.856 164.800,351.002 165.160,351.400 165.600 M96.200 167.642 C 90.932 172.150,91.161 172.489,96.500 168.085 C 98.205 166.679,99.600 165.454,99.600 165.364 C 99.600 164.893,98.736 165.471,96.200 167.642 M300.814 165.759 C 302.740 167.597,314.511 177.222,314.656 177.077 C 314.859 176.874,300.971 165.200,300.526 165.200 C 300.362 165.200,300.492 165.452,300.814 165.759 M45.800 167.200 C 45.402 167.640,45.256 168.000,45.476 168.000 C 45.696 168.000,46.202 167.640,46.600 167.200 C 46.998 166.760,47.144 166.400,46.924 166.400 C 46.704 166.400,46.198 166.760,45.800 167.200 M353.800 167.600 C 354.198 168.040,354.704 168.400,354.924 168.400 C 355.144 168.400,354.998 168.040,354.600 167.600 C 354.202 167.160,353.696 166.800,353.476 166.800 C 353.256 166.800,353.402 167.160,353.800 167.600 M43.400 169.200 C 43.002 169.640,42.856 170.000,43.076 170.000 C 43.296 170.000,43.802 169.640,44.200 169.200 C 44.598 168.760,44.744 168.400,44.524 168.400 C 44.304 168.400,43.798 168.760,43.400 169.200 M356.200 169.600 C 356.598 170.040,357.104 170.400,357.324 170.400 C 357.544 170.400,357.398 170.040,357.000 169.600 C 356.602 169.160,356.096 168.800,355.876 168.800 C 355.656 168.800,355.802 169.160,356.200 169.600 M41.000 171.200 C 40.602 171.640,40.456 172.000,40.676 172.000 C 40.896 172.000,41.402 171.640,41.800 171.200 C 42.198 170.760,42.344 170.400,42.124 170.400 C 41.904 170.400,41.398 170.760,41.000 171.200 M285.200 170.939 C 285.200 171.260,289.223 174.510,289.400 174.333 C 289.493 174.241,288.586 173.397,287.384 172.459 C 286.183 171.521,285.200 170.837,285.200 170.939 M358.600 171.600 C 358.998 172.040,359.504 172.400,359.724 172.400 C 359.944 172.400,359.798 172.040,359.400 171.600 C 359.002 171.160,358.496 170.800,358.276 170.800 C 358.056 170.800,358.202 171.160,358.600 171.600 M112.351 172.834 L 110.600 174.468 112.500 172.986 C 114.236 171.632,114.659 171.200,114.251 171.200 C 114.170 171.200,113.315 171.935,112.351 172.834 M90.562 172.458 C 89.805 173.310,89.806 173.313,90.678 172.856 C 91.650 172.346,92.249 171.600,91.686 171.600 C 91.487 171.600,90.981 171.986,90.562 172.458 M88.200 174.400 C 87.802 174.840,87.656 175.200,87.876 175.200 C 88.096 175.200,88.602 174.840,89.000 174.400 C 89.398 173.960,89.544 173.600,89.324 173.600 C 89.104 173.600,88.598 173.960,88.200 174.400 M108.800 175.600 C 108.250 176.030,107.997 176.386,108.238 176.391 C 108.479 176.396,109.002 176.040,109.400 175.600 C 110.312 174.592,110.088 174.592,108.800 175.600 M290.689 175.630 C 291.178 176.139,291.678 176.455,291.801 176.332 C 291.924 176.209,291.524 175.792,290.912 175.406 L 289.800 174.704 290.689 175.630 M85.802 176.398 C 85.403 176.839,85.262 177.200,85.489 177.200 C 85.992 177.200,86.990 176.057,86.721 175.788 C 86.615 175.682,86.202 175.956,85.802 176.398 M105.538 178.244 C 103.977 179.542,103.244 180.400,103.697 180.400 C 103.788 180.400,104.744 179.590,105.822 178.600 C 108.169 176.445,107.983 176.212,105.538 178.244 M294.400 178.725 C 295.610 179.835,297.000 181.152,297.488 181.651 C 297.976 182.149,298.516 182.417,298.688 182.244 C 298.860 182.072,298.550 181.578,298.000 181.146 C 297.450 180.713,296.221 179.694,295.269 178.880 C 292.582 176.583,291.941 176.469,294.400 178.725 M315.200 177.461 C 315.200 177.681,315.650 178.283,316.200 178.800 C 316.750 179.317,317.200 179.559,317.200 179.339 C 317.200 179.119,316.750 178.517,316.200 178.000 C 315.650 177.483,315.200 177.241,315.200 177.461 M83.400 178.400 C 82.999 178.843,82.762 179.295,82.872 179.405 C 82.982 179.515,83.399 179.243,83.800 178.800 C 84.201 178.357,84.438 177.905,84.328 177.795 C 84.218 177.685,83.801 177.957,83.400 178.400 M101.592 181.410 C 100.768 182.403,101.545 182.632,102.500 181.678 C 103.205 180.972,103.252 180.800,102.738 180.800 C 102.386 180.800,101.870 181.074,101.592 181.410 M78.200 182.800 C 77.802 183.240,77.656 183.600,77.876 183.600 C 78.096 183.600,78.602 183.240,79.000 182.800 C 79.398 182.360,79.544 182.000,79.324 182.000 C 79.104 182.000,78.598 182.360,78.200 182.800 M320.599 182.398 C 320.734 182.617,321.240 183.003,321.722 183.256 C 322.594 183.713,322.595 183.710,321.838 182.858 C 321.075 181.998,320.136 181.650,320.599 182.398 M99.192 183.410 C 98.420 184.339,98.891 184.439,100.006 183.582 C 100.747 183.012,100.834 182.816,100.349 182.809 C 99.991 182.804,99.470 183.074,99.192 183.410 M299.994 183.582 C 300.541 184.002,301.061 184.272,301.151 184.182 C 301.464 183.869,300.297 182.800,299.651 182.809 C 299.166 182.816,299.253 183.012,299.994 183.582 M75.762 184.858 C 75.005 185.710,75.006 185.713,75.878 185.256 C 76.850 184.746,77.449 184.000,76.886 184.000 C 76.687 184.000,76.181 184.386,75.762 184.858 M322.999 184.398 C 323.134 184.617,323.640 185.003,324.122 185.256 C 324.994 185.713,324.995 185.710,324.238 184.858 C 323.475 183.998,322.536 183.650,322.999 184.398 M97.144 185.166 C 96.625 185.587,96.304 186.036,96.432 186.164 C 96.559 186.292,97.086 185.948,97.601 185.398 C 98.715 184.213,98.472 184.090,97.144 185.166 M303.394 186.151 C 304.491 187.138,305.470 187.863,305.569 187.764 C 305.787 187.547,303.324 185.362,302.200 184.775 C 301.760 184.546,302.297 185.165,303.394 186.151 M73.362 186.858 C 72.605 187.710,72.606 187.713,73.478 187.256 C 74.450 186.746,75.049 186.000,74.486 186.000 C 74.287 186.000,73.781 186.386,73.362 186.858 M325.399 186.398 C 325.534 186.617,326.040 187.003,326.522 187.256 C 327.394 187.713,327.395 187.710,326.638 186.858 C 325.875 185.998,324.936 185.650,325.399 186.398 M94.977 186.967 C 94.550 187.279,94.307 187.640,94.436 187.770 C 94.566 187.899,94.998 187.644,95.398 187.202 C 96.248 186.263,96.073 186.166,94.977 186.967 M70.962 188.858 C 70.205 189.710,70.206 189.713,71.078 189.256 C 72.050 188.746,72.649 188.000,72.086 188.000 C 71.887 188.000,71.381 188.386,70.962 188.858 M327.600 188.154 C 327.600 188.239,328.095 188.627,328.700 189.016 L 329.800 189.724 329.038 188.862 C 328.364 188.099,327.600 187.723,327.600 188.154 M92.400 189.200 C 91.850 189.630,91.597 189.986,91.838 189.991 C 92.079 189.996,92.602 189.640,93.000 189.200 C 93.912 188.192,93.688 188.192,92.400 189.200 M306.400 188.526 C 306.400 188.815,312.435 193.698,312.595 193.539 C 312.678 193.455,311.558 192.400,310.105 191.193 C 307.414 188.959,306.400 188.229,306.400 188.526 M38.589 191.900 C 40.281 194.092,41.200 194.896,41.200 194.183 C 41.200 194.063,40.178 192.938,38.930 191.683 L 36.659 189.400 38.589 191.900 M360.900 191.795 C 359.745 192.996,358.800 194.073,358.800 194.189 C 358.800 194.883,359.716 194.103,361.368 192.000 C 363.696 189.036,363.596 188.992,360.900 191.795 M68.562 190.858 C 67.805 191.710,67.806 191.713,68.678 191.256 C 69.650 190.746,70.249 190.000,69.686 190.000 C 69.487 190.000,68.981 190.386,68.562 190.858 M330.000 190.154 C 330.000 190.239,330.495 190.627,331.100 191.016 L 332.200 191.724 331.438 190.862 C 330.764 190.099,330.000 189.723,330.000 190.154 M89.138 191.843 C 86.926 193.681,87.003 193.602,87.433 193.588 C 87.861 193.574,91.528 190.430,91.138 190.412 C 90.994 190.405,90.094 191.050,89.138 191.843 M66.162 192.858 C 65.404 193.712,65.405 193.714,66.300 193.244 C 66.795 192.984,67.200 192.598,67.200 192.386 C 67.200 191.818,67.009 191.905,66.162 192.858 M332.800 192.386 C 332.800 192.598,333.205 192.984,333.700 193.244 C 334.595 193.714,334.596 193.712,333.838 192.858 C 332.991 191.905,332.800 191.818,332.800 192.386 M63.802 194.798 C 63.403 195.239,63.262 195.600,63.489 195.600 C 63.992 195.600,64.990 194.457,64.721 194.188 C 64.615 194.082,64.202 194.356,63.802 194.798 M85.544 194.787 C 85.025 195.219,84.797 195.579,85.038 195.587 C 85.279 195.594,85.802 195.240,86.200 194.800 C 87.126 193.776,86.766 193.769,85.544 194.787 M313.200 194.113 C 313.200 194.447,319.666 199.667,319.851 199.483 C 319.958 199.376,318.730 198.221,317.123 196.916 C 314.155 194.507,313.200 193.825,313.200 194.113 M335.200 194.289 C 335.200 194.792,336.343 195.790,336.612 195.521 C 336.718 195.415,336.444 195.002,336.002 194.602 C 335.561 194.203,335.200 194.062,335.200 194.289 M41.588 195.578 C 42.079 196.495,42.757 196.976,43.091 196.643 C 43.369 196.364,42.040 194.800,41.524 194.800 C 41.330 194.800,41.359 195.150,41.588 195.578 M357.398 195.602 C 356.666 196.411,356.784 197.104,357.571 196.618 C 358.178 196.243,358.896 194.800,358.476 194.800 C 358.282 194.800,357.797 195.161,357.398 195.602 M61.400 196.800 C 60.999 197.243,60.762 197.695,60.872 197.805 C 60.982 197.915,61.399 197.643,61.800 197.200 C 62.201 196.757,62.438 196.305,62.328 196.195 C 62.218 196.085,61.801 196.357,61.400 196.800 M82.052 197.634 C 80.171 199.132,79.413 200.400,80.400 200.400 C 80.620 200.400,80.800 200.149,80.800 199.842 C 80.800 199.535,81.655 198.551,82.700 197.656 C 85.171 195.539,84.703 195.523,82.052 197.634 M337.600 196.276 C 337.600 196.496,337.960 197.002,338.400 197.400 C 338.840 197.798,339.200 197.944,339.200 197.724 C 339.200 197.504,338.840 196.998,338.400 196.600 C 337.960 196.202,337.600 196.056,337.600 196.276 M43.600 197.435 C 43.600 198.137,44.717 199.416,45.045 199.088 C 45.216 198.917,44.961 198.383,44.478 197.900 C 43.995 197.417,43.600 197.208,43.600 197.435 M355.398 198.002 C 354.666 198.811,354.784 199.504,355.571 199.018 C 356.178 198.643,356.896 197.200,356.476 197.200 C 356.282 197.200,355.797 197.561,355.398 198.002 M58.598 198.802 C 58.198 199.244,57.989 199.723,58.133 199.867 C 58.425 200.158,60.000 198.869,60.000 198.338 C 60.000 197.754,59.352 197.969,58.598 198.802 M340.000 198.377 C 340.000 198.835,341.675 200.058,341.940 199.793 C 342.179 199.554,340.790 198.000,340.338 198.000 C 340.152 198.000,340.000 198.170,340.000 198.377 M45.600 199.971 C 45.600 200.501,47.485 202.647,47.733 202.400 C 47.843 202.290,47.409 201.612,46.767 200.893 C 46.125 200.175,45.600 199.760,45.600 199.971 M353.061 201.078 C 352.434 201.805,352.088 202.400,352.291 202.400 C 352.829 202.400,354.511 200.519,354.343 200.106 C 354.264 199.913,353.687 200.350,353.061 201.078 M56.377 201.027 C 56.091 201.372,55.214 201.994,54.429 202.409 C 53.643 202.825,53.190 203.173,53.422 203.182 C 53.904 203.203,57.600 200.926,57.600 200.609 C 57.600 200.177,56.879 200.423,56.377 201.027 M342.599 200.798 C 342.734 201.017,343.240 201.403,343.722 201.656 C 344.594 202.113,344.595 202.110,343.838 201.258 C 343.075 200.398,342.136 200.050,342.599 200.798 M347.500 203.482 C 347.995 203.578,348.805 203.578,349.300 203.482 C 349.795 203.387,349.390 203.309,348.400 203.309 C 347.410 203.309,347.005 203.387,347.500 203.482 M172.896 293.300 C 172.948 326.355,173.038 345.840,173.095 336.600 C 173.366 292.783,173.369 233.200,173.100 233.200 C 172.935 233.200,172.843 260.245,172.896 293.300 M226.701 276.500 C 226.756 300.315,226.848 327.360,226.905 336.600 C 226.962 345.840,227.052 326.355,227.104 293.300 C 227.157 260.245,227.065 233.200,226.900 233.200 C 226.735 233.200,226.645 252.685,226.701 276.500 M80.000 341.800 C 80.000 342.130,80.180 342.400,80.400 342.400 C 80.620 342.400,80.800 342.130,80.800 341.800 C 80.800 341.470,80.620 341.200,80.400 341.200 C 80.180 341.200,80.000 341.470,80.000 341.800 M319.200 341.800 C 319.200 342.130,319.380 342.400,319.600 342.400 C 319.820 342.400,320.000 342.130,320.000 341.800 C 320.000 341.470,319.820 341.200,319.600 341.200 C 319.380 341.200,319.200 341.470,319.200 341.800 M81.452 346.100 C 82.760 348.629,86.774 352.559,87.406 351.928 C 87.492 351.841,86.716 351.145,85.681 350.381 C 84.634 349.608,83.268 348.068,82.600 346.909 C 81.296 344.645,80.358 343.985,81.452 346.100 M317.698 346.468 C 317.202 347.382,316.871 348.204,316.962 348.296 C 317.154 348.487,319.200 345.571,319.200 345.107 C 319.200 344.336,318.522 344.951,317.698 346.468 M314.600 350.209 C 313.720 350.968,313.180 351.588,313.400 351.588 C 313.620 351.588,314.520 350.968,315.400 350.209 C 316.280 349.451,316.820 348.830,316.600 348.830 C 316.380 348.830,315.480 349.451,314.600 350.209 " stroke="none" fill="#c5c5c5" fill-rule="evenodd"></path><path id="path2" d="M197.200 46.408 C 197.200 46.650,197.647 46.708,198.300 46.551 C 199.870 46.175,199.923 46.000,198.467 46.000 C 197.770 46.000,197.200 46.183,197.200 46.408 M200.433 46.144 C 200.911 46.556,202.800 46.766,202.800 46.408 C 202.800 46.183,202.230 46.000,201.533 46.000 C 200.837 46.000,200.342 46.065,200.433 46.144 M210.000 48.196 C 210.000 48.470,212.449 49.684,212.632 49.501 C 212.719 49.414,212.162 49.044,211.395 48.678 C 210.628 48.312,210.000 48.095,210.000 48.196 M268.323 48.700 C 267.618 49.521,267.090 50.400,267.301 50.400 C 267.383 50.400,267.849 49.860,268.337 49.200 C 269.301 47.896,269.292 47.572,268.323 48.700 M186.100 50.046 C 184.737 50.919,184.295 51.506,185.500 50.843 C 186.418 50.339,187.856 49.227,187.600 49.219 C 187.490 49.216,186.815 49.588,186.100 50.046 M213.200 49.725 C 213.200 49.824,213.861 50.409,214.668 51.025 C 215.476 51.641,216.011 51.941,215.856 51.691 C 215.540 51.179,213.200 49.447,213.200 49.725 M266.667 52.267 C 266.520 52.413,266.400 61.795,266.400 73.116 C 266.400 92.660,266.365 93.670,265.700 93.149 C 265.062 92.649,265.050 92.663,265.563 93.317 C 265.873 93.711,266.274 93.886,266.456 93.704 C 266.694 93.466,267.202 51.999,266.967 52.000 C 266.948 52.000,266.813 52.120,266.667 52.267 M33.451 177.212 C 32.000 178.936,31.095 182.441,31.963 182.977 C 32.162 183.100,32.238 182.867,32.131 182.459 C 31.826 181.292,32.722 178.554,33.846 177.218 C 34.410 176.548,34.781 176.000,34.671 176.000 C 34.561 176.000,34.012 176.546,33.451 177.212 M367.800 181.800 C 367.800 182.528,367.935 183.040,368.100 182.938 C 368.265 182.836,368.400 182.324,368.400 181.800 C 368.400 181.276,368.265 180.764,368.100 180.662 C 367.935 180.560,367.800 181.072,367.800 181.800 M324.897 186.233 C 325.042 186.468,326.557 187.815,328.264 189.226 C 329.970 190.638,331.248 191.601,331.103 191.367 C 330.958 191.132,329.443 189.785,327.736 188.374 C 326.030 186.962,324.752 185.999,324.897 186.233 M186.700 233.900 C 194.015 233.961,205.985 233.961,213.300 233.900 C 220.615 233.839,214.630 233.789,200.000 233.789 C 185.370 233.789,179.385 233.839,186.700 233.900 M82.800 348.925 C 82.800 348.994,83.385 349.579,84.100 350.225 L 85.400 351.400 84.225 350.100 C 83.130 348.888,82.800 348.616,82.800 348.925 M315.775 350.100 L 314.600 351.400 315.900 350.225 C 316.615 349.579,317.200 348.994,317.200 348.925 C 317.200 348.616,316.870 348.888,315.775 350.100 " stroke="none" fill="#585858" fill-rule="evenodd"></path><path id="path3" d="M199.100 46.682 C 199.595 46.778,200.405 46.778,200.900 46.682 C 201.395 46.587,200.990 46.509,200.000 46.509 C 199.010 46.509,198.605 46.587,199.100 46.682 M282.928 47.100 C 288.829 47.162,298.369 47.162,304.128 47.100 C 309.888 47.037,305.060 46.986,293.400 46.986 C 281.740 46.986,277.028 47.037,282.928 47.100 M266.986 73.400 C 266.986 84.840,267.037 89.462,267.100 83.672 C 267.162 77.882,267.162 68.522,267.100 62.872 C 267.037 57.222,266.986 61.960,266.986 73.400 M255.603 85.486 C 255.605 85.659,256.055 86.008,256.604 86.263 C 257.152 86.517,257.501 86.563,257.378 86.365 C 257.052 85.837,255.599 85.118,255.603 85.486 M186.700 233.500 C 194.015 233.561,205.985 233.561,213.300 233.500 C 220.615 233.439,214.630 233.389,200.000 233.389 C 185.370 233.389,179.385 233.439,186.700 233.500 M173.299 293.498 L 173.200 353.196 132.700 353.300 L 92.200 353.404 132.713 353.502 C 164.827 353.580,173.265 353.496,173.415 353.100 C 173.520 352.825,173.559 325.870,173.501 293.200 L 173.397 233.800 173.299 293.498 M84.767 350.545 C 85.300 351.201,86.800 352.193,86.800 351.889 C 86.800 351.813,86.215 351.322,85.500 350.799 C 84.696 350.210,84.416 350.113,84.767 350.545 M246.900 353.500 C 258.065 353.559,276.335 353.559,287.500 353.500 C 298.665 353.441,289.530 353.393,267.200 353.393 C 244.870 353.393,235.735 353.441,246.900 353.500 " stroke="none" fill="#7c7c7c" fill-rule="evenodd"></path><path id="path4" d="M226.595 293.600 C 226.595 326.490,226.642 339.945,226.700 323.500 C 226.758 307.055,226.758 280.145,226.700 263.700 C 226.642 247.255,226.595 260.710,226.595 293.600 M133.000 353.600 L 92.600 353.806 132.876 353.903 C 159.401 353.967,173.237 353.863,173.400 353.600 C 173.536 353.380,173.592 353.244,173.524 353.297 C 173.456 353.351,155.220 353.487,133.000 353.600 M247.100 353.900 C 258.155 353.959,276.245 353.959,287.300 353.900 C 298.355 353.841,289.310 353.792,267.200 353.792 C 245.090 353.792,236.045 353.841,247.100 353.900 " stroke="none" fill="#747474" fill-rule="evenodd"></path></g></svg>