<?xml version="1.0" encoding="utf-8" standalone="no"?>
<!DOCTYPE svg PUBLIC "-//W3C//DTD SVG 1.1//EN"
  "http://www.w3.org/Graphics/SVG/1.1/DTD/svg11.dtd">
<!-- Created with matplotlib (https://matplotlib.org/) -->
<svg height="244.8pt" version="1.1" viewBox="0 0 432 244.8" width="432pt" xmlns="http://www.w3.org/2000/svg" xmlns:xlink="http://www.w3.org/1999/xlink">
 <defs>
  <style type="text/css">
*{stroke-linecap:butt;stroke-linejoin:round;}
  </style>
 </defs>
 <g id="figure_1">
  <g id="patch_1">
   <path d="M 0 244.8 
L 432 244.8 
L 432 0 
L 0 0 
z
" style="fill:none;"/>
  </g>
  <g id="axes_1">
   <g id="patch_2">
    <path d="M 54 214.2 
L 388.8 214.2 
L 388.8 29.376 
L 54 29.376 
z
" style="fill:none;"/>
   </g>
   <g id="matplotlib.axis_1">
    <g id="xtick_1">
     <g id="line2d_1">
      <defs>
       <path d="M 0 0 
L 0 3.5 
" id="mace1b14657" style="stroke:#000000;stroke-width:0.8;"/>
      </defs>
      <g>
       <use style="stroke:#000000;stroke-width:0.8;" x="69.218182" xlink:href="#mace1b14657" y="214.2"/>
      </g>
     </g>
     <g id="text_1">
      <!-- −2.0 -->
      <defs>
       <path d="M 10.59375 35.5 
L 73.1875 35.5 
L 73.1875 27.203125 
L 10.59375 27.203125 
z
" id="DejaVuSans-8722"/>
       <path d="M 19.1875 8.296875 
L 53.609375 8.296875 
L 53.609375 0 
L 7.328125 0 
L 7.328125 8.296875 
Q 12.9375 14.109375 22.625 23.890625 
Q 32.328125 33.6875 34.8125 36.53125 
Q 39.546875 41.84375 41.421875 45.53125 
Q 43.3125 49.21875 43.3125 52.78125 
Q 43.3125 58.59375 39.234375 62.25 
Q 35.15625 65.921875 28.609375 65.921875 
Q 23.96875 65.921875 18.8125 64.3125 
Q 13.671875 62.703125 7.8125 59.421875 
L 7.8125 69.390625 
Q 13.765625 71.78125 18.9375 73 
Q 24.125 74.21875 28.421875 74.21875 
Q 39.75 74.21875 46.484375 68.546875 
Q 53.21875 62.890625 53.21875 53.421875 
Q 53.21875 48.921875 51.53125 44.890625 
Q 49.859375 40.875 45.40625 35.40625 
Q 44.1875 33.984375 37.640625 27.21875 
Q 31.109375 20.453125 19.1875 8.296875 
z
" id="DejaVuSans-50"/>
       <path d="M 10.6875 12.40625 
L 21 12.40625 
L 21 0 
L 10.6875 0 
z
" id="DejaVuSans-46"/>
       <path d="M 31.78125 66.40625 
Q 24.171875 66.40625 20.328125 58.90625 
Q 16.5 51.421875 16.5 36.375 
Q 16.5 21.390625 20.328125 13.890625 
Q 24.171875 6.390625 31.78125 6.390625 
Q 39.453125 6.390625 43.28125 13.890625 
Q 47.125 21.390625 47.125 36.375 
Q 47.125 51.421875 43.28125 58.90625 
Q 39.453125 66.40625 31.78125 66.40625 
z
M 31.78125 74.21875 
Q 44.046875 74.21875 50.515625 64.515625 
Q 56.984375 54.828125 56.984375 36.375 
Q 56.984375 17.96875 50.515625 8.265625 
Q 44.046875 -1.421875 31.78125 -1.421875 
Q 19.53125 -1.421875 13.0625 8.265625 
Q 6.59375 17.96875 6.59375 36.375 
Q 6.59375 54.828125 13.0625 64.515625 
Q 19.53125 74.21875 31.78125 74.21875 
z
" id="DejaVuSans-48"/>
      </defs>
      <g transform="translate(57.076776 228.798437)scale(0.1 -0.1)">
       <use xlink:href="#DejaVuSans-8722"/>
       <use x="83.789062" xlink:href="#DejaVuSans-50"/>
       <use x="147.412109" xlink:href="#DejaVuSans-46"/>
       <use x="179.199219" xlink:href="#DejaVuSans-48"/>
      </g>
     </g>
    </g>
    <g id="xtick_2">
     <g id="line2d_2">
      <g>
       <use style="stroke:#000000;stroke-width:0.8;" x="107.263636" xlink:href="#mace1b14657" y="214.2"/>
      </g>
     </g>
     <g id="text_2">
      <!-- −1.5 -->
      <defs>
       <path d="M 12.40625 8.296875 
L 28.515625 8.296875 
L 28.515625 63.921875 
L 10.984375 60.40625 
L 10.984375 69.390625 
L 28.421875 72.90625 
L 38.28125 72.90625 
L 38.28125 8.296875 
L 54.390625 8.296875 
L 54.390625 0 
L 12.40625 0 
z
" id="DejaVuSans-49"/>
       <path d="M 10.796875 72.90625 
L 49.515625 72.90625 
L 49.515625 64.59375 
L 19.828125 64.59375 
L 19.828125 46.734375 
Q 21.96875 47.46875 24.109375 47.828125 
Q 26.265625 48.1875 28.421875 48.1875 
Q 40.625 48.1875 47.75 41.5 
Q 54.890625 34.8125 54.890625 23.390625 
Q 54.890625 11.625 47.5625 5.09375 
Q 40.234375 -1.421875 26.90625 -1.421875 
Q 22.3125 -1.421875 17.546875 -0.640625 
Q 12.796875 0.140625 7.71875 1.703125 
L 7.71875 11.625 
Q 12.109375 9.234375 16.796875 8.0625 
Q 21.484375 6.890625 26.703125 6.890625 
Q 35.15625 6.890625 40.078125 11.328125 
Q 45.015625 15.765625 45.015625 23.390625 
Q 45.015625 31 40.078125 35.4375 
Q 35.15625 39.890625 26.703125 39.890625 
Q 22.75 39.890625 18.8125 39.015625 
Q 14.890625 38.140625 10.796875 36.28125 
z
" id="DejaVuSans-53"/>
      </defs>
      <g transform="translate(95.12223 228.798437)scale(0.1 -0.1)">
       <use xlink:href="#DejaVuSans-8722"/>
       <use x="83.789062" xlink:href="#DejaVuSans-49"/>
       <use x="147.412109" xlink:href="#DejaVuSans-46"/>
       <use x="179.199219" xlink:href="#DejaVuSans-53"/>
      </g>
     </g>
    </g>
    <g id="xtick_3">
     <g id="line2d_3">
      <g>
       <use style="stroke:#000000;stroke-width:0.8;" x="145.309091" xlink:href="#mace1b14657" y="214.2"/>
      </g>
     </g>
     <g id="text_3">
      <!-- −1.0 -->
      <g transform="translate(133.167685 228.798437)scale(0.1 -0.1)">
       <use xlink:href="#DejaVuSans-8722"/>
       <use x="83.789062" xlink:href="#DejaVuSans-49"/>
       <use x="147.412109" xlink:href="#DejaVuSans-46"/>
       <use x="179.199219" xlink:href="#DejaVuSans-48"/>
      </g>
     </g>
    </g>
    <g id="xtick_4">
     <g id="line2d_4">
      <g>
       <use style="stroke:#000000;stroke-width:0.8;" x="183.354545" xlink:href="#mace1b14657" y="214.2"/>
      </g>
     </g>
     <g id="text_4">
      <!-- −0.5 -->
      <g transform="translate(171.213139 228.798437)scale(0.1 -0.1)">
       <use xlink:href="#DejaVuSans-8722"/>
       <use x="83.789062" xlink:href="#DejaVuSans-48"/>
       <use x="147.412109" xlink:href="#DejaVuSans-46"/>
       <use x="179.199219" xlink:href="#DejaVuSans-53"/>
      </g>
     </g>
    </g>
    <g id="xtick_5">
     <g id="line2d_5">
      <g>
       <use style="stroke:#000000;stroke-width:0.8;" x="221.4" xlink:href="#mace1b14657" y="214.2"/>
      </g>
     </g>
     <g id="text_5">
      <!-- 0.0 -->
      <g transform="translate(213.448438 228.798437)scale(0.1 -0.1)">
       <use xlink:href="#DejaVuSans-48"/>
       <use x="63.623047" xlink:href="#DejaVuSans-46"/>
       <use x="95.410156" xlink:href="#DejaVuSans-48"/>
      </g>
     </g>
    </g>
    <g id="xtick_6">
     <g id="line2d_6">
      <g>
       <use style="stroke:#000000;stroke-width:0.8;" x="259.445455" xlink:href="#mace1b14657" y="214.2"/>
      </g>
     </g>
     <g id="text_6">
      <!-- 0.5 -->
      <g transform="translate(251.493892 228.798437)scale(0.1 -0.1)">
       <use xlink:href="#DejaVuSans-48"/>
       <use x="63.623047" xlink:href="#DejaVuSans-46"/>
       <use x="95.410156" xlink:href="#DejaVuSans-53"/>
      </g>
     </g>
    </g>
    <g id="xtick_7">
     <g id="line2d_7">
      <g>
       <use style="stroke:#000000;stroke-width:0.8;" x="297.490909" xlink:href="#mace1b14657" y="214.2"/>
      </g>
     </g>
     <g id="text_7">
      <!-- 1.0 -->
      <g transform="translate(289.539347 228.798437)scale(0.1 -0.1)">
       <use xlink:href="#DejaVuSans-49"/>
       <use x="63.623047" xlink:href="#DejaVuSans-46"/>
       <use x="95.410156" xlink:href="#DejaVuSans-48"/>
      </g>
     </g>
    </g>
    <g id="xtick_8">
     <g id="line2d_8">
      <g>
       <use style="stroke:#000000;stroke-width:0.8;" x="335.536364" xlink:href="#mace1b14657" y="214.2"/>
      </g>
     </g>
     <g id="text_8">
      <!-- 1.5 -->
      <g transform="translate(327.584801 228.798437)scale(0.1 -0.1)">
       <use xlink:href="#DejaVuSans-49"/>
       <use x="63.623047" xlink:href="#DejaVuSans-46"/>
       <use x="95.410156" xlink:href="#DejaVuSans-53"/>
      </g>
     </g>
    </g>
    <g id="xtick_9">
     <g id="line2d_9">
      <g>
       <use style="stroke:#000000;stroke-width:0.8;" x="373.581818" xlink:href="#mace1b14657" y="214.2"/>
      </g>
     </g>
     <g id="text_9">
      <!-- 2.0 -->
      <g transform="translate(365.630256 228.798437)scale(0.1 -0.1)">
       <use xlink:href="#DejaVuSans-50"/>
       <use x="63.623047" xlink:href="#DejaVuSans-46"/>
       <use x="95.410156" xlink:href="#DejaVuSans-48"/>
      </g>
     </g>
    </g>
    <g id="text_10">
     <!-- $x$ -->
     <defs>
      <path d="M 60.015625 54.6875 
L 34.90625 27.875 
L 50.296875 0 
L 39.984375 0 
L 28.421875 21.6875 
L 8.296875 0 
L -2.59375 0 
L 24.3125 28.8125 
L 10.015625 54.6875 
L 20.3125 54.6875 
L 30.8125 34.90625 
L 49.125 54.6875 
z
" id="DejaVuSans-Oblique-120"/>
     </defs>
     <g transform="translate(218.4 242.476562)scale(0.1 -0.1)">
      <use transform="translate(0 0.3125)" xlink:href="#DejaVuSans-Oblique-120"/>
     </g>
    </g>
   </g>
   <g id="matplotlib.axis_2">
    <g id="ytick_1">
     <g id="line2d_10">
      <defs>
       <path d="M 0 0 
L -3.5 0 
" id="mb641276abf" style="stroke:#000000;stroke-width:0.8;"/>
      </defs>
      <g>
       <use style="stroke:#000000;stroke-width:0.8;" x="54" xlink:href="#mb641276abf" y="209.415606"/>
      </g>
     </g>
     <g id="text_11">
      <!-- −3.0 -->
      <defs>
       <path d="M 40.578125 39.3125 
Q 47.65625 37.796875 51.625 33 
Q 55.609375 28.21875 55.609375 21.1875 
Q 55.609375 10.40625 48.1875 4.484375 
Q 40.765625 -1.421875 27.09375 -1.421875 
Q 22.515625 -1.421875 17.65625 -0.515625 
Q 12.796875 0.390625 7.625 2.203125 
L 7.625 11.71875 
Q 11.71875 9.328125 16.59375 8.109375 
Q 21.484375 6.890625 26.8125 6.890625 
Q 36.078125 6.890625 40.9375 10.546875 
Q 45.796875 14.203125 45.796875 21.1875 
Q 45.796875 27.640625 41.28125 31.265625 
Q 36.765625 34.90625 28.71875 34.90625 
L 20.21875 34.90625 
L 20.21875 43.015625 
L 29.109375 43.015625 
Q 36.375 43.015625 40.234375 45.921875 
Q 44.09375 48.828125 44.09375 54.296875 
Q 44.09375 59.90625 40.109375 62.90625 
Q 36.140625 65.921875 28.71875 65.921875 
Q 24.65625 65.921875 20.015625 65.03125 
Q 15.375 64.15625 9.8125 62.3125 
L 9.8125 71.09375 
Q 15.4375 72.65625 20.34375 73.4375 
Q 25.25 74.21875 29.59375 74.21875 
Q 40.828125 74.21875 47.359375 69.109375 
Q 53.90625 64.015625 53.90625 55.328125 
Q 53.90625 49.265625 50.4375 45.09375 
Q 46.96875 40.921875 40.578125 39.3125 
z
" id="DejaVuSans-51"/>
      </defs>
      <g transform="translate(22.717187 213.214824)scale(0.1 -0.1)">
       <use xlink:href="#DejaVuSans-8722"/>
       <use x="83.789062" xlink:href="#DejaVuSans-51"/>
       <use x="147.412109" xlink:href="#DejaVuSans-46"/>
       <use x="179.199219" xlink:href="#DejaVuSans-48"/>
      </g>
     </g>
    </g>
    <g id="ytick_2">
     <g id="line2d_11">
      <g>
       <use style="stroke:#000000;stroke-width:0.8;" x="54" xlink:href="#mb641276abf" y="186.854702"/>
      </g>
     </g>
     <g id="text_12">
      <!-- −2.5 -->
      <g transform="translate(22.717187 190.653921)scale(0.1 -0.1)">
       <use xlink:href="#DejaVuSans-8722"/>
       <use x="83.789062" xlink:href="#DejaVuSans-50"/>
       <use x="147.412109" xlink:href="#DejaVuSans-46"/>
       <use x="179.199219" xlink:href="#DejaVuSans-53"/>
      </g>
     </g>
    </g>
    <g id="ytick_3">
     <g id="line2d_12">
      <g>
       <use style="stroke:#000000;stroke-width:0.8;" x="54" xlink:href="#mb641276abf" y="164.293798"/>
      </g>
     </g>
     <g id="text_13">
      <!-- −2.0 -->
      <g transform="translate(22.717187 168.093017)scale(0.1 -0.1)">
       <use xlink:href="#DejaVuSans-8722"/>
       <use x="83.789062" xlink:href="#DejaVuSans-50"/>
       <use x="147.412109" xlink:href="#DejaVuSans-46"/>
       <use x="179.199219" xlink:href="#DejaVuSans-48"/>
      </g>
     </g>
    </g>
    <g id="ytick_4">
     <g id="line2d_13">
      <g>
       <use style="stroke:#000000;stroke-width:0.8;" x="54" xlink:href="#mb641276abf" y="141.732894"/>
      </g>
     </g>
     <g id="text_14">
      <!-- −1.5 -->
      <g transform="translate(22.717187 145.532113)scale(0.1 -0.1)">
       <use xlink:href="#DejaVuSans-8722"/>
       <use x="83.789062" xlink:href="#DejaVuSans-49"/>
       <use x="147.412109" xlink:href="#DejaVuSans-46"/>
       <use x="179.199219" xlink:href="#DejaVuSans-53"/>
      </g>
     </g>
    </g>
    <g id="ytick_5">
     <g id="line2d_14">
      <g>
       <use style="stroke:#000000;stroke-width:0.8;" x="54" xlink:href="#mb641276abf" y="119.17199"/>
      </g>
     </g>
     <g id="text_15">
      <!-- −1.0 -->
      <g transform="translate(22.717187 122.971209)scale(0.1 -0.1)">
       <use xlink:href="#DejaVuSans-8722"/>
       <use x="83.789062" xlink:href="#DejaVuSans-49"/>
       <use x="147.412109" xlink:href="#DejaVuSans-46"/>
       <use x="179.199219" xlink:href="#DejaVuSans-48"/>
      </g>
     </g>
    </g>
    <g id="ytick_6">
     <g id="line2d_15">
      <g>
       <use style="stroke:#000000;stroke-width:0.8;" x="54" xlink:href="#mb641276abf" y="96.611086"/>
      </g>
     </g>
     <g id="text_16">
      <!-- −0.5 -->
      <g transform="translate(22.717187 100.410305)scale(0.1 -0.1)">
       <use xlink:href="#DejaVuSans-8722"/>
       <use x="83.789062" xlink:href="#DejaVuSans-48"/>
       <use x="147.412109" xlink:href="#DejaVuSans-46"/>
       <use x="179.199219" xlink:href="#DejaVuSans-53"/>
      </g>
     </g>
    </g>
    <g id="ytick_7">
     <g id="line2d_16">
      <g>
       <use style="stroke:#000000;stroke-width:0.8;" x="54" xlink:href="#mb641276abf" y="74.050182"/>
      </g>
     </g>
     <g id="text_17">
      <!-- 0.0 -->
      <g transform="translate(31.096875 77.849401)scale(0.1 -0.1)">
       <use xlink:href="#DejaVuSans-48"/>
       <use x="63.623047" xlink:href="#DejaVuSans-46"/>
       <use x="95.410156" xlink:href="#DejaVuSans-48"/>
      </g>
     </g>
    </g>
    <g id="ytick_8">
     <g id="line2d_17">
      <g>
       <use style="stroke:#000000;stroke-width:0.8;" x="54" xlink:href="#mb641276abf" y="51.489278"/>
      </g>
     </g>
     <g id="text_18">
      <!-- 0.5 -->
      <g transform="translate(31.096875 55.288497)scale(0.1 -0.1)">
       <use xlink:href="#DejaVuSans-48"/>
       <use x="63.623047" xlink:href="#DejaVuSans-46"/>
       <use x="95.410156" xlink:href="#DejaVuSans-53"/>
      </g>
     </g>
    </g>
    <g id="text_19">
     <!-- $f(x)$ -->
     <defs>
      <path d="M 47.796875 75.984375 
L 46.390625 68.5 
L 37.796875 68.5 
Q 32.90625 68.5 30.6875 66.578125 
Q 28.46875 64.65625 27.390625 59.515625 
L 26.421875 54.6875 
L 41.21875 54.6875 
L 39.890625 47.703125 
L 25.09375 47.703125 
L 15.828125 0 
L 6.78125 0 
L 16.109375 47.703125 
L 7.515625 47.703125 
L 8.796875 54.6875 
L 17.390625 54.6875 
L 18.109375 58.5 
Q 19.96875 68.171875 24.625 72.078125 
Q 29.296875 75.984375 39.3125 75.984375 
z
" id="DejaVuSans-Oblique-102"/>
      <path d="M 31 75.875 
Q 24.46875 64.65625 21.28125 53.65625 
Q 18.109375 42.671875 18.109375 31.390625 
Q 18.109375 20.125 21.3125 9.0625 
Q 24.515625 -2 31 -13.1875 
L 23.1875 -13.1875 
Q 15.875 -1.703125 12.234375 9.375 
Q 8.59375 20.453125 8.59375 31.390625 
Q 8.59375 42.28125 12.203125 53.3125 
Q 15.828125 64.359375 23.1875 75.875 
z
" id="DejaVuSans-40"/>
      <path d="M 8.015625 75.875 
L 15.828125 75.875 
Q 23.140625 64.359375 26.78125 53.3125 
Q 30.421875 42.28125 30.421875 31.390625 
Q 30.421875 20.453125 26.78125 9.375 
Q 23.140625 -1.703125 15.828125 -13.1875 
L 8.015625 -13.1875 
Q 14.5 -2 17.703125 9.0625 
Q 20.90625 20.125 20.90625 31.390625 
Q 20.90625 42.671875 17.703125 53.65625 
Q 14.5 64.65625 8.015625 75.875 
z
" id="DejaVuSans-41"/>
     </defs>
     <g transform="translate(16.6375 130.438)rotate(-90)scale(0.1 -0.1)">
      <use transform="translate(0 0.015625)" xlink:href="#DejaVuSans-Oblique-102"/>
      <use transform="translate(35.205078 0.015625)" xlink:href="#DejaVuSans-40"/>
      <use transform="translate(74.21875 0.015625)" xlink:href="#DejaVuSans-Oblique-120"/>
      <use transform="translate(133.398438 0.015625)" xlink:href="#DejaVuSans-41"/>
     </g>
    </g>
   </g>
   <g id="line2d_18">
    <path clip-path="url(#p139db90248)" d="M 69.218182 37.777091 
L 70.132187 38.357408 
L 71.046192 39.201184 
L 71.960197 40.311526 
L 73.17887 42.148623 
L 75.00688 45.007307 
L 75.920885 45.99578 
L 76.530221 46.389265 
L 77.444226 46.667175 
L 78.662899 46.991124 
L 79.272236 47.426087 
L 79.881572 48.225344 
L 80.490909 49.533811 
L 81.100246 51.506872 
L 81.709582 54.28767 
L 82.623587 60.035473 
L 84.146929 70.43918 
L 84.451597 71.687764 
L 84.756265 72.407962 
L 85.060934 72.5585 
L 85.365602 72.151395 
L 85.67027 71.249443 
L 86.279607 68.39185 
L 87.802948 60.502202 
L 88.412285 58.555224 
L 89.021622 57.530554 
L 89.32629 57.350156 
L 89.630958 57.379641 
L 89.935627 57.610874 
L 90.544963 58.650164 
L 91.1543 60.411787 
L 92.068305 64.221276 
L 94.810319 77.413142 
L 95.419656 79.114532 
L 96.028993 80.142043 
L 96.638329 80.594085 
L 97.247666 80.626179 
L 98.161671 80.249921 
L 99.380344 79.659032 
L 99.989681 79.526428 
L 100.599017 79.570774 
L 101.208354 79.820277 
L 101.81769 80.292228 
L 102.427027 80.99683 
L 103.341032 82.497563 
L 104.255037 84.508596 
L 105.778378 88.65022 
L 106.997052 91.74592 
L 107.606388 92.718388 
L 107.911057 92.960229 
L 108.215725 93.003431 
L 108.520393 92.826798 
L 108.825061 92.416266 
L 109.434398 90.884409 
L 110.043735 88.499274 
L 111.262408 82.327892 
L 112.176413 77.998121 
L 112.785749 75.88636 
L 113.395086 74.644788 
L 113.699754 74.395104 
L 114.004423 74.413074 
L 114.309091 74.714106 
L 114.613759 75.314777 
L 115.223096 77.485609 
L 115.832432 81.047945 
L 116.441769 85.995721 
L 118.269779 102.897609 
L 118.574447 104.321058 
L 118.879115 104.901472 
L 119.183784 104.581319 
L 119.488452 103.387413 
L 120.097789 98.865261 
L 122.230467 79.139909 
L 122.839803 75.850434 
L 123.44914 73.756893 
L 124.058477 72.620437 
L 124.667813 72.197623 
L 125.27715 72.261577 
L 126.191155 72.797269 
L 127.10516 73.253285 
L 127.714496 73.251443 
L 128.323833 72.924967 
L 128.93317 72.300344 
L 130.151843 70.544002 
L 131.370516 68.831654 
L 132.284521 67.905 
L 133.198526 67.359566 
L 134.112531 67.179603 
L 135.026536 67.326856 
L 135.940541 67.762976 
L 136.854545 68.450766 
L 138.073219 69.670984 
L 140.205897 71.902617 
L 140.815233 72.284222 
L 141.42457 72.422036 
L 142.033907 72.263871 
L 142.643243 71.795953 
L 143.557248 70.610357 
L 145.689926 67.418545 
L 146.603931 66.58903 
L 147.213268 66.274588 
L 148.127273 66.104472 
L 149.041278 66.225636 
L 149.955283 66.592785 
L 150.869287 67.182027 
L 153.001966 68.787552 
L 153.611302 69.013111 
L 154.525307 69.05629 
L 156.657985 68.866033 
L 157.57199 69.075213 
L 158.485995 69.561128 
L 159.4 70.35686 
L 160.314005 71.456715 
L 162.751351 74.725064 
L 163.665356 75.423417 
L 164.274693 75.643362 
L 165.188698 75.680373 
L 166.407371 75.436033 
L 168.235381 75.064145 
L 169.454054 75.03481 
L 170.672727 75.237889 
L 171.8914 75.68614 
L 173.110074 76.374364 
L 176.461425 78.597037 
L 177.070762 78.727737 
L 177.680098 78.673526 
L 178.289435 78.433303 
L 179.20344 77.811636 
L 180.726781 76.708257 
L 181.336118 76.470016 
L 181.945455 76.438406 
L 182.554791 76.664054 
L 183.164128 77.203585 
L 183.773464 78.124198 
L 184.382801 79.491033 
L 185.296806 82.39265 
L 186.820147 87.714496 
L 187.429484 88.78137 
L 187.734152 88.918863 
L 188.038821 88.795727 
L 188.343489 88.444056 
L 188.952826 87.262749 
L 190.171499 84.57725 
L 190.780835 83.730885 
L 191.085504 83.506132 
L 191.390172 83.426252 
L 191.69484 83.49793 
L 191.999509 83.727446 
L 192.608845 84.687825 
L 193.218182 86.369694 
L 193.827518 88.832017 
L 194.436855 92.092227 
L 195.35086 98.280381 
L 197.483538 113.63709 
L 198.092875 116.665347 
L 198.702211 118.713322 
L 199.311548 119.802522 
L 199.616216 120.0224 
L 199.920885 120.0518 
L 200.225553 119.912122 
L 200.834889 119.210441 
L 201.444226 118.075391 
L 202.358231 115.839589 
L 204.186241 110.509289 
L 206.318919 104.418101 
L 207.84226 100.772893 
L 211.802948 92.07987 
L 213.935627 86.760547 
L 214.544963 85.643805 
L 215.1543 84.883626 
L 215.763636 84.559774 
L 216.068305 84.586555 
L 216.372973 84.754403 
L 216.677641 85.076834 
L 217.286978 86.24892 
L 217.896314 88.239803 
L 218.505651 91.157414 
L 219.419656 97.083216 
L 220.333661 103.18315 
L 220.942998 105.600632 
L 221.247666 105.926846 
L 221.552334 105.586749 
L 221.857002 104.601749 
L 222.466339 101.07862 
L 224.294349 88.03163 
L 224.903686 85.176668 
L 225.513022 83.232618 
L 226.122359 82.02326 
L 226.731695 81.37434 
L 227.341032 81.148834 
L 227.950369 81.244701 
L 228.559705 81.580692 
L 229.47371 82.374929 
L 231.911057 84.694881 
L 233.434398 85.710349 
L 235.262408 86.911295 
L 236.481081 87.98029 
L 237.699754 89.337227 
L 239.223096 91.387739 
L 242.574447 96.107965 
L 243.183784 96.605738 
L 243.79312 96.793653 
L 244.097789 96.738941 
L 244.707125 96.275694 
L 245.316462 95.29668 
L 245.925799 93.810238 
L 246.839803 90.854666 
L 248.667813 84.690841 
L 249.27715 83.214791 
L 249.886486 82.192116 
L 250.495823 81.657751 
L 250.800491 81.581794 
L 251.10516 81.638665 
L 251.409828 81.833637 
L 252.019165 82.662503 
L 252.628501 84.109857 
L 253.237838 86.157982 
L 255.065848 93.089385 
L 255.370516 93.660955 
L 255.675184 93.898449 
L 255.979853 93.786931 
L 256.284521 93.343909 
L 256.893857 91.670583 
L 258.721867 85.445374 
L 259.331204 84.277423 
L 259.635872 83.948806 
L 259.940541 83.794769 
L 260.245209 83.81714 
L 260.549877 84.018087 
L 260.854545 84.400587 
L 261.463882 85.725194 
L 262.073219 87.816081 
L 262.682555 90.662994 
L 263.59656 96.127163 
L 265.729238 109.908778 
L 266.643243 114.091642 
L 267.25258 116.093366 
L 268.166585 118.237985 
L 269.994595 121.813865 
L 270.603931 123.437906 
L 271.213268 125.509718 
L 271.822604 128.142579 
L 272.736609 133.373012 
L 273.650614 140.438296 
L 274.564619 149.622048 
L 275.478624 161.024079 
L 277.306634 188.073987 
L 278.220639 199.813262 
L 278.829975 204.658595 
L 279.134644 205.751299 
L 279.439312 205.798909 
L 279.74398 204.724618 
L 280.048649 202.498007 
L 280.657985 194.73698 
L 281.267322 183.354325 
L 283.4 137.982734 
L 284.009337 128.978388 
L 284.618673 122.78513 
L 285.22801 119.359806 
L 285.532678 118.628989 
L 285.837346 118.510998 
L 286.142015 118.965758 
L 286.446683 119.941778 
L 287.05602 123.159734 
L 288.274693 131.030416 
L 288.579361 132.231087 
L 288.884029 132.731127 
L 289.188698 132.388326 
L 289.493366 131.130513 
L 289.798034 128.969662 
L 290.407371 122.394653 
L 292.235381 98.834116 
L 292.844717 93.631049 
L 293.454054 90.317482 
L 293.758722 89.330615 
L 294.063391 88.764429 
L 294.368059 88.603436 
L 294.672727 88.837348 
L 294.977396 89.461042 
L 295.282064 90.473324 
L 295.8914 93.663951 
L 296.500737 98.37061 
L 297.414742 107.771075 
L 298.938084 124.177727 
L 299.54742 128.243264 
L 299.852088 129.338161 
L 300.156757 129.749426 
L 300.461425 129.474938 
L 300.766093 128.544078 
L 301.37543 124.958652 
L 301.984767 119.645684 
L 305.03145 89.654295 
L 305.945455 83.523319 
L 306.859459 78.970737 
L 307.773464 75.719399 
L 308.687469 73.483177 
L 309.601474 72.016017 
L 310.515479 71.110838 
L 311.429484 70.572431 
L 313.257494 69.698576 
L 314.171499 68.885641 
L 315.085504 67.645436 
L 318.132187 62.865489 
L 318.741523 62.348815 
L 319.35086 62.070896 
L 319.960197 62.041795 
L 320.569533 62.258943 
L 321.483538 62.960092 
L 322.397543 63.742801 
L 323.00688 63.952793 
L 323.311548 63.879395 
L 323.616216 63.664778 
L 324.225553 62.819511 
L 325.139558 60.843179 
L 326.358231 58.16665 
L 327.272236 56.729159 
L 328.186241 55.790897 
L 329.100246 55.215161 
L 330.014251 54.888631 
L 331.232924 54.696232 
L 333.365602 54.429488 
L 334.584275 54.008895 
L 336.107617 53.207129 
L 339.458968 51.341519 
L 341.591646 50.455392 
L 343.419656 49.934101 
L 345.857002 49.520959 
L 347.380344 49.176385 
L 348.294349 48.785434 
L 349.513022 47.985383 
L 352.255037 45.971327 
L 353.169042 45.670126 
L 353.778378 45.681753 
L 354.387715 45.923081 
L 354.997052 46.453563 
L 355.606388 47.31662 
L 356.520393 49.153294 
L 357.434398 51.021324 
L 358.043735 51.713082 
L 358.348403 51.782479 
L 358.653071 51.651394 
L 358.95774 51.330925 
L 359.567076 50.242286 
L 361.699754 45.703458 
L 362.309091 44.942764 
L 362.918428 44.490788 
L 363.527764 44.321784 
L 364.137101 44.397267 
L 365.051106 44.843199 
L 366.574447 45.729849 
L 367.183784 45.846208 
L 367.79312 45.733328 
L 368.402457 45.395326 
L 369.316462 44.577653 
L 371.44914 42.458423 
L 372.363145 41.894878 
L 372.972482 41.709884 
L 373.581818 41.69856 
L 373.581818 41.69856 
" style="fill:none;stroke:#0000ff;stroke-linecap:square;stroke-opacity:0.3;stroke-width:1.5;"/>
   </g>
   <g id="line2d_19">
    <defs>
     <path d="M -2.5 2.5 
L 2.5 -2.5 
M -2.5 -2.5 
L 2.5 2.5 
" id="mfed58670df" style="stroke:#0000ff;stroke-opacity:0.5;"/>
    </defs>
    <g clip-path="url(#p139db90248)">
     <use style="fill:#0000ff;fill-opacity:0.5;stroke:#0000ff;stroke-opacity:0.5;" x="196.144516" xlink:href="#mfed58670df" y="104.346786"/>
     <use style="fill:#0000ff;fill-opacity:0.5;stroke:#0000ff;stroke-opacity:0.5;" x="288.458764" xlink:href="#mfed58670df" y="131.829854"/>
     <use style="fill:#0000ff;fill-opacity:0.5;stroke:#0000ff;stroke-opacity:0.5;" x="69.252993" xlink:href="#mfed58670df" y="37.794483"/>
     <use style="fill:#0000ff;fill-opacity:0.5;stroke:#0000ff;stroke-opacity:0.5;" x="161.237223" xlink:href="#mfed58670df" y="72.768559"/>
     <use style="fill:#0000ff;fill-opacity:0.5;stroke:#0000ff;stroke-opacity:0.5;" x="113.885338" xlink:href="#mfed58670df" y="74.373225"/>
     <use style="fill:#0000ff;fill-opacity:0.5;stroke:#0000ff;stroke-opacity:0.5;" x="97.322692" xlink:href="#mfed58670df" y="80.609421"/>
     <use style="fill:#0000ff;fill-opacity:0.5;stroke:#0000ff;stroke-opacity:0.5;" x="125.909017" xlink:href="#mfed58670df" y="72.610132"/>
     <use style="fill:#0000ff;fill-opacity:0.5;stroke:#0000ff;stroke-opacity:0.5;" x="174.394301" xlink:href="#mfed58670df" y="77.29612"/>
     <use style="fill:#0000ff;fill-opacity:0.5;stroke:#0000ff;stroke-opacity:0.5;" x="189.979773" xlink:href="#mfed58670df" y="84.938379"/>
     <use style="fill:#0000ff;fill-opacity:0.5;stroke:#0000ff;stroke-opacity:0.5;" x="233.214402" xlink:href="#mfed58670df" y="85.57672"/>
     <use style="fill:#0000ff;fill-opacity:0.5;stroke:#0000ff;stroke-opacity:0.5;" x="196.805749" xlink:href="#mfed58670df" y="109.268312"/>
     <use style="fill:#0000ff;fill-opacity:0.5;stroke:#0000ff;stroke-opacity:0.5;" x="277.774081" xlink:href="#mfed58670df" y="194.554575"/>
     <use style="fill:#0000ff;fill-opacity:0.5;stroke:#0000ff;stroke-opacity:0.5;" x="131.446012" xlink:href="#mfed58670df" y="68.741311"/>
     <use style="fill:#0000ff;fill-opacity:0.5;stroke:#0000ff;stroke-opacity:0.5;" x="336.485198" xlink:href="#mfed58670df" y="52.985642"/>
     <use style="fill:#0000ff;fill-opacity:0.5;stroke:#0000ff;stroke-opacity:0.5;" x="77.553969" xlink:href="#mfed58670df" y="46.687248"/>
     <use style="fill:#0000ff;fill-opacity:0.5;stroke:#0000ff;stroke-opacity:0.5;" x="273.284111" xlink:href="#mfed58670df" y="137.364608"/>
     <use style="fill:#0000ff;fill-opacity:0.5;stroke:#0000ff;stroke-opacity:0.5;" x="196.230589" xlink:href="#mfed58670df" y="105.007385"/>
     <use style="fill:#0000ff;fill-opacity:0.5;stroke:#0000ff;stroke-opacity:0.5;" x="239.26305" xlink:href="#mfed58670df" y="91.445614"/>
     <use style="fill:#0000ff;fill-opacity:0.5;stroke:#0000ff;stroke-opacity:0.5;" x="111.946861" xlink:href="#mfed58670df" y="78.980598"/>
     <use style="fill:#0000ff;fill-opacity:0.5;stroke:#0000ff;stroke-opacity:0.5;" x="129.513071" xlink:href="#mfed58670df" y="71.510988"/>
     <use style="fill:#0000ff;fill-opacity:0.5;stroke:#0000ff;stroke-opacity:0.5;" x="312.935711" xlink:href="#mfed58670df" y="69.896566"/>
     <use style="fill:#0000ff;fill-opacity:0.5;stroke:#0000ff;stroke-opacity:0.5;" x="363.921796" xlink:href="#mfed58670df" y="44.345664"/>
     <use style="fill:#0000ff;fill-opacity:0.5;stroke:#0000ff;stroke-opacity:0.5;" x="164.613104" xlink:href="#mfed58670df" y="75.691837"/>
     <use style="fill:#0000ff;fill-opacity:0.5;stroke:#0000ff;stroke-opacity:0.5;" x="279.936011" xlink:href="#mfed58670df" y="203.455206"/>
     <use style="fill:#0000ff;fill-opacity:0.5;stroke:#0000ff;stroke-opacity:0.5;" x="335.959171" xlink:href="#mfed58670df" y="53.292997"/>
     <use style="fill:#0000ff;fill-opacity:0.5;stroke:#0000ff;stroke-opacity:0.5;" x="341.503919" xlink:href="#mfed58670df" y="50.486075"/>
     <use style="fill:#0000ff;fill-opacity:0.5;stroke:#0000ff;stroke-opacity:0.5;" x="95.102547" xlink:href="#mfed58670df" y="78.315776"/>
     <use style="fill:#0000ff;fill-opacity:0.5;stroke:#0000ff;stroke-opacity:0.5;" x="81.105038" xlink:href="#mfed58670df" y="51.525431"/>
     <use style="fill:#0000ff;fill-opacity:0.5;stroke:#0000ff;stroke-opacity:0.5;" x="120.908386" xlink:href="#mfed58670df" y="90.649706"/>
     <use style="fill:#0000ff;fill-opacity:0.5;stroke:#0000ff;stroke-opacity:0.5;" x="336.492827" xlink:href="#mfed58670df" y="52.981137"/>
     <use style="fill:#0000ff;fill-opacity:0.5;stroke:#0000ff;stroke-opacity:0.5;" x="99.151382" xlink:href="#mfed58670df" y="79.746047"/>
     <use style="fill:#0000ff;fill-opacity:0.5;stroke:#0000ff;stroke-opacity:0.5;" x="197.38803" xlink:href="#mfed58670df" y="113.079225"/>
     <use style="fill:#0000ff;fill-opacity:0.5;stroke:#0000ff;stroke-opacity:0.5;" x="360.764922" xlink:href="#mfed58670df" y="47.462157"/>
     <use style="fill:#0000ff;fill-opacity:0.5;stroke:#0000ff;stroke-opacity:0.5;" x="231.494307" xlink:href="#mfed58670df" y="84.356362"/>
     <use style="fill:#0000ff;fill-opacity:0.5;stroke:#0000ff;stroke-opacity:0.5;" x="279.800416" xlink:href="#mfed58670df" y="204.399188"/>
     <use style="fill:#0000ff;fill-opacity:0.5;stroke:#0000ff;stroke-opacity:0.5;" x="165.249667" xlink:href="#mfed58670df" y="75.673646"/>
     <use style="fill:#0000ff;fill-opacity:0.5;stroke:#0000ff;stroke-opacity:0.5;" x="278.164101" xlink:href="#mfed58670df" y="199.214268"/>
     <use style="fill:#0000ff;fill-opacity:0.5;stroke:#0000ff;stroke-opacity:0.5;" x="323.247886" xlink:href="#mfed58670df" y="63.906106"/>
     <use style="fill:#0000ff;fill-opacity:0.5;stroke:#0000ff;stroke-opacity:0.5;" x="74.784468" xlink:href="#mfed58670df" y="44.702291"/>
     <use style="fill:#0000ff;fill-opacity:0.5;stroke:#0000ff;stroke-opacity:0.5;" x="297.534833" xlink:href="#mfed58670df" y="109.141243"/>
     <use style="fill:#0000ff;fill-opacity:0.5;stroke:#0000ff;stroke-opacity:0.5;" x="370.191539" xlink:href="#mfed58670df" y="43.648237"/>
     <use style="fill:#0000ff;fill-opacity:0.5;stroke:#0000ff;stroke-opacity:0.5;" x="296.932601" xlink:href="#mfed58670df" y="102.527641"/>
     <use style="fill:#0000ff;fill-opacity:0.5;stroke:#0000ff;stroke-opacity:0.5;" x="154.575135" xlink:href="#mfed58670df" y="69.051257"/>
     <use style="fill:#0000ff;fill-opacity:0.5;stroke:#0000ff;stroke-opacity:0.5;" x="309.446108" xlink:href="#mfed58670df" y="72.220406"/>
     <use style="fill:#0000ff;fill-opacity:0.5;stroke:#0000ff;stroke-opacity:0.5;" x="100.636425" xlink:href="#mfed58670df" y="79.579961"/>
     <use style="fill:#0000ff;fill-opacity:0.5;stroke:#0000ff;stroke-opacity:0.5;" x="205.540684" xlink:href="#mfed58670df" y="106.534952"/>
     <use style="fill:#0000ff;fill-opacity:0.5;stroke:#0000ff;stroke-opacity:0.5;" x="345.761613" xlink:href="#mfed58670df" y="49.535785"/>
     <use style="fill:#0000ff;fill-opacity:0.5;stroke:#0000ff;stroke-opacity:0.5;" x="158.583652" xlink:href="#mfed58670df" y="69.630953"/>
     <use style="fill:#0000ff;fill-opacity:0.5;stroke:#0000ff;stroke-opacity:0.5;" x="156.80653" xlink:href="#mfed58670df" y="68.882939"/>
     <use style="fill:#0000ff;fill-opacity:0.5;stroke:#0000ff;stroke-opacity:0.5;" x="108.794151" xlink:href="#mfed58670df" y="92.468801"/>
     <use style="fill:#0000ff;fill-opacity:0.5;stroke:#0000ff;stroke-opacity:0.5;" x="75.11278" xlink:href="#mfed58670df" y="45.144719"/>
     <use style="fill:#0000ff;fill-opacity:0.5;stroke:#0000ff;stroke-opacity:0.5;" x="275.831033" xlink:href="#mfed58670df" y="165.958457"/>
     <use style="fill:#0000ff;fill-opacity:0.5;stroke:#0000ff;stroke-opacity:0.5;" x="133.630085" xlink:href="#mfed58670df" y="67.231249"/>
     <use style="fill:#0000ff;fill-opacity:0.5;stroke:#0000ff;stroke-opacity:0.5;" x="150.040929" xlink:href="#mfed58670df" y="66.639041"/>
     <use style="fill:#0000ff;fill-opacity:0.5;stroke:#0000ff;stroke-opacity:0.5;" x="218.835176" xlink:href="#mfed58670df" y="93.116738"/>
     <use style="fill:#0000ff;fill-opacity:0.5;stroke:#0000ff;stroke-opacity:0.5;" x="85.4598" xlink:href="#mfed58670df" y="71.921249"/>
     <use style="fill:#0000ff;fill-opacity:0.5;stroke:#0000ff;stroke-opacity:0.5;" x="243.958704" xlink:href="#mfed58670df" y="96.777516"/>
     <use style="fill:#0000ff;fill-opacity:0.5;stroke:#0000ff;stroke-opacity:0.5;" x="113.877024" xlink:href="#mfed58670df" y="74.372033"/>
     <use style="fill:#0000ff;fill-opacity:0.5;stroke:#0000ff;stroke-opacity:0.5;" x="248.581358" xlink:href="#mfed58670df" y="84.93358"/>
     <use style="fill:#0000ff;fill-opacity:0.5;stroke:#0000ff;stroke-opacity:0.5;" x="282.199181" xlink:href="#mfed58670df" y="162.495997"/>
     <use style="fill:#0000ff;fill-opacity:0.5;stroke:#0000ff;stroke-opacity:0.5;" x="100.365061" xlink:href="#mfed58670df" y="79.530728"/>
     <use style="fill:#0000ff;fill-opacity:0.5;stroke:#0000ff;stroke-opacity:0.5;" x="195.241768" xlink:href="#mfed58670df" y="97.478084"/>
     <use style="fill:#0000ff;fill-opacity:0.5;stroke:#0000ff;stroke-opacity:0.5;" x="280.568339" xlink:href="#mfed58670df" y="196.135298"/>
     <use style="fill:#0000ff;fill-opacity:0.5;stroke:#0000ff;stroke-opacity:0.5;" x="195.27929" xlink:href="#mfed58670df" y="97.752556"/>
     <use style="fill:#0000ff;fill-opacity:0.5;stroke:#0000ff;stroke-opacity:0.5;" x="84.422198" xlink:href="#mfed58670df" y="71.589236"/>
     <use style="fill:#0000ff;fill-opacity:0.5;stroke:#0000ff;stroke-opacity:0.5;" x="232.325561" xlink:href="#mfed58670df" y="85.000141"/>
     <use style="fill:#0000ff;fill-opacity:0.5;stroke:#0000ff;stroke-opacity:0.5;" x="271.253134" xlink:href="#mfed58670df" y="125.663648"/>
     <use style="fill:#0000ff;fill-opacity:0.5;stroke:#0000ff;stroke-opacity:0.5;" x="225.931704" xlink:href="#mfed58670df" y="82.333847"/>
     <use style="fill:#0000ff;fill-opacity:0.5;stroke:#0000ff;stroke-opacity:0.5;" x="356.718477" xlink:href="#mfed58670df" y="49.591675"/>
     <use style="fill:#0000ff;fill-opacity:0.5;stroke:#0000ff;stroke-opacity:0.5;" x="247.744207" xlink:href="#mfed58670df" y="87.61982"/>
     <use style="fill:#0000ff;fill-opacity:0.5;stroke:#0000ff;stroke-opacity:0.5;" x="344.180874" xlink:href="#mfed58670df" y="49.781296"/>
     <use style="fill:#0000ff;fill-opacity:0.5;stroke:#0000ff;stroke-opacity:0.5;" x="111.060483" xlink:href="#mfed58670df" y="83.384831"/>
     <use style="fill:#0000ff;fill-opacity:0.5;stroke:#0000ff;stroke-opacity:0.5;" x="111.608837" xlink:href="#mfed58670df" y="80.571119"/>
     <use style="fill:#0000ff;fill-opacity:0.5;stroke:#0000ff;stroke-opacity:0.5;" x="314.95873" xlink:href="#mfed58670df" y="67.841001"/>
     <use style="fill:#0000ff;fill-opacity:0.5;stroke:#0000ff;stroke-opacity:0.5;" x="190.25655" xlink:href="#mfed58670df" y="84.430217"/>
     <use style="fill:#0000ff;fill-opacity:0.5;stroke:#0000ff;stroke-opacity:0.5;" x="119.545987" xlink:href="#mfed58670df" y="103.071433"/>
     <use style="fill:#0000ff;fill-opacity:0.5;stroke:#0000ff;stroke-opacity:0.5;" x="351.518066" xlink:href="#mfed58670df" y="46.412773"/>
     <use style="fill:#0000ff;fill-opacity:0.5;stroke:#0000ff;stroke-opacity:0.5;" x="175.065463" xlink:href="#mfed58670df" y="77.796389"/>
     <use style="fill:#0000ff;fill-opacity:0.5;stroke:#0000ff;stroke-opacity:0.5;" x="297.738084" xlink:href="#mfed58670df" y="111.487351"/>
     <use style="fill:#0000ff;fill-opacity:0.5;stroke:#0000ff;stroke-opacity:0.5;" x="290.185569" xlink:href="#mfed58670df" y="125.076041"/>
     <use style="fill:#0000ff;fill-opacity:0.5;stroke:#0000ff;stroke-opacity:0.5;" x="338.064436" xlink:href="#mfed58670df" y="52.067963"/>
     <use style="fill:#0000ff;fill-opacity:0.5;stroke:#0000ff;stroke-opacity:0.5;" x="259.041323" xlink:href="#mfed58670df" y="84.749806"/>
     <use style="fill:#0000ff;fill-opacity:0.5;stroke:#0000ff;stroke-opacity:0.5;" x="297.777752" xlink:href="#mfed58670df" y="111.946893"/>
     <use style="fill:#0000ff;fill-opacity:0.5;stroke:#0000ff;stroke-opacity:0.5;" x="175.41015" xlink:href="#mfed58670df" y="78.037302"/>
     <use style="fill:#0000ff;fill-opacity:0.5;stroke:#0000ff;stroke-opacity:0.5;" x="151.374417" xlink:href="#mfed58670df" y="67.581101"/>
     <use style="fill:#0000ff;fill-opacity:0.5;stroke:#0000ff;stroke-opacity:0.5;" x="341.893369" xlink:href="#mfed58670df" y="50.353783"/>
     <use style="fill:#0000ff;fill-opacity:0.5;stroke:#0000ff;stroke-opacity:0.5;" x="199.513573" xlink:href="#mfed58670df" y="119.970642"/>
     <use style="fill:#0000ff;fill-opacity:0.5;stroke:#0000ff;stroke-opacity:0.5;" x="362.880407" xlink:href="#mfed58670df" y="44.510379"/>
     <use style="fill:#0000ff;fill-opacity:0.5;stroke:#0000ff;stroke-opacity:0.5;" x="271.145649" xlink:href="#mfed58670df" y="125.254109"/>
     <use style="fill:#0000ff;fill-opacity:0.5;stroke:#0000ff;stroke-opacity:0.5;" x="258.439752" xlink:href="#mfed58670df" y="86.203255"/>
     <use style="fill:#0000ff;fill-opacity:0.5;stroke:#0000ff;stroke-opacity:0.5;" x="104.142683" xlink:href="#mfed58670df" y="84.236223"/>
     <use style="fill:#0000ff;fill-opacity:0.5;stroke:#0000ff;stroke-opacity:0.5;" x="358.208185" xlink:href="#mfed58670df" y="51.775424"/>
     <use style="fill:#0000ff;fill-opacity:0.5;stroke:#0000ff;stroke-opacity:0.5;" x="206.155075" xlink:href="#mfed58670df" y="104.850218"/>
     <use style="fill:#0000ff;fill-opacity:0.5;stroke:#0000ff;stroke-opacity:0.5;" x="245.258948" xlink:href="#mfed58670df" y="95.41151"/>
     <use style="fill:#0000ff;fill-opacity:0.5;stroke:#0000ff;stroke-opacity:0.5;" x="193.440183" xlink:href="#mfed58670df" y="87.174111"/>
     <use style="fill:#0000ff;fill-opacity:0.5;stroke:#0000ff;stroke-opacity:0.5;" x="141.360575" xlink:href="#mfed58670df" y="72.420821"/>
     <use style="fill:#0000ff;fill-opacity:0.5;stroke:#0000ff;stroke-opacity:0.5;" x="344.174058" xlink:href="#mfed58670df" y="49.782519"/>
     <use style="fill:#0000ff;fill-opacity:0.5;stroke:#0000ff;stroke-opacity:0.5;" x="243.825356" xlink:href="#mfed58670df" y="96.792968"/>
     <use style="fill:#0000ff;fill-opacity:0.5;stroke:#0000ff;stroke-opacity:0.5;" x="70.091805" xlink:href="#mfed58670df" y="38.326275"/>
     <use style="fill:#0000ff;fill-opacity:0.5;stroke:#0000ff;stroke-opacity:0.5;" x="257.054652" xlink:href="#mfed58670df" y="91.110383"/>
     <use style="fill:#0000ff;fill-opacity:0.5;stroke:#0000ff;stroke-opacity:0.5;" x="168.637012" xlink:href="#mfed58670df" y="75.03034"/>
     <use style="fill:#0000ff;fill-opacity:0.5;stroke:#0000ff;stroke-opacity:0.5;" x="229.635502" xlink:href="#mfed58670df" y="82.536416"/>
     <use style="fill:#0000ff;fill-opacity:0.5;stroke:#0000ff;stroke-opacity:0.5;" x="338.866741" xlink:href="#mfed58670df" y="51.637064"/>
     <use style="fill:#0000ff;fill-opacity:0.5;stroke:#0000ff;stroke-opacity:0.5;" x="177.958105" xlink:href="#mfed58670df" y="78.585702"/>
     <use style="fill:#0000ff;fill-opacity:0.5;stroke:#0000ff;stroke-opacity:0.5;" x="345.743244" xlink:href="#mfed58670df" y="49.538602"/>
     <use style="fill:#0000ff;fill-opacity:0.5;stroke:#0000ff;stroke-opacity:0.5;" x="258.946333" xlink:href="#mfed58670df" y="84.937824"/>
     <use style="fill:#0000ff;fill-opacity:0.5;stroke:#0000ff;stroke-opacity:0.5;" x="74.033593" xlink:href="#mfed58670df" y="43.549909"/>
     <use style="fill:#0000ff;fill-opacity:0.5;stroke:#0000ff;stroke-opacity:0.5;" x="352.105078" xlink:href="#mfed58670df" y="46.049186"/>
     <use style="fill:#0000ff;fill-opacity:0.5;stroke:#0000ff;stroke-opacity:0.5;" x="279.50208" xlink:href="#mfed58670df" y="205.671084"/>
     <use style="fill:#0000ff;fill-opacity:0.5;stroke:#0000ff;stroke-opacity:0.5;" x="372.766991" xlink:href="#mfed58670df" y="41.753688"/>
     <use style="fill:#0000ff;fill-opacity:0.5;stroke:#0000ff;stroke-opacity:0.5;" x="121.672366" xlink:href="#mfed58670df" y="83.327496"/>
     <use style="fill:#0000ff;fill-opacity:0.5;stroke:#0000ff;stroke-opacity:0.5;" x="110.957317" xlink:href="#mfed58670df" y="83.928262"/>
     <use style="fill:#0000ff;fill-opacity:0.5;stroke:#0000ff;stroke-opacity:0.5;" x="353.066328" xlink:href="#mfed58670df" y="45.686867"/>
     <use style="fill:#0000ff;fill-opacity:0.5;stroke:#0000ff;stroke-opacity:0.5;" x="281.304291" xlink:href="#mfed58670df" y="182.578508"/>
     <use style="fill:#0000ff;fill-opacity:0.5;stroke:#0000ff;stroke-opacity:0.5;" x="89.306234" xlink:href="#mfed58670df" y="57.355485"/>
     <use style="fill:#0000ff;fill-opacity:0.5;stroke:#0000ff;stroke-opacity:0.5;" x="299.153664" xlink:href="#mfed58670df" y="125.877412"/>
     <use style="fill:#0000ff;fill-opacity:0.5;stroke:#0000ff;stroke-opacity:0.5;" x="298.67068" xlink:href="#mfed58670df" y="121.736847"/>
     <use style="fill:#0000ff;fill-opacity:0.5;stroke:#0000ff;stroke-opacity:0.5;" x="350.153286" xlink:href="#mfed58670df" y="47.475721"/>
     <use style="fill:#0000ff;fill-opacity:0.5;stroke:#0000ff;stroke-opacity:0.5;" x="285.780445" xlink:href="#mfed58670df" y="118.488209"/>
     <use style="fill:#0000ff;fill-opacity:0.5;stroke:#0000ff;stroke-opacity:0.5;" x="107.041744" xlink:href="#mfed58670df" y="91.835634"/>
     <use style="fill:#0000ff;fill-opacity:0.5;stroke:#0000ff;stroke-opacity:0.5;" x="75.268972" xlink:href="#mfed58670df" y="45.33729"/>
     <use style="fill:#0000ff;fill-opacity:0.5;stroke:#0000ff;stroke-opacity:0.5;" x="77.195853" xlink:href="#mfed58670df" y="46.616008"/>
     <use style="fill:#0000ff;fill-opacity:0.5;stroke:#0000ff;stroke-opacity:0.5;" x="77.833647" xlink:href="#mfed58670df" y="46.737751"/>
     <use style="fill:#0000ff;fill-opacity:0.5;stroke:#0000ff;stroke-opacity:0.5;" x="144.155878" xlink:href="#mfed58670df" y="69.656366"/>
     <use style="fill:#0000ff;fill-opacity:0.5;stroke:#0000ff;stroke-opacity:0.5;" x="330.979416" xlink:href="#mfed58670df" y="54.721672"/>
     <use style="fill:#0000ff;fill-opacity:0.5;stroke:#0000ff;stroke-opacity:0.5;" x="233.218764" xlink:href="#mfed58670df" y="85.579386"/>
     <use style="fill:#0000ff;fill-opacity:0.5;stroke:#0000ff;stroke-opacity:0.5;" x="237.47709" xlink:href="#mfed58670df" y="89.068372"/>
     <use style="fill:#0000ff;fill-opacity:0.5;stroke:#0000ff;stroke-opacity:0.5;" x="325.501766" xlink:href="#mfed58670df" y="59.990349"/>
     <use style="fill:#0000ff;fill-opacity:0.5;stroke:#0000ff;stroke-opacity:0.5;" x="107.012024" xlink:href="#mfed58670df" y="91.776253"/>
     <use style="fill:#0000ff;fill-opacity:0.5;stroke:#0000ff;stroke-opacity:0.5;" x="154.191542" xlink:href="#mfed58670df" y="69.074166"/>
     <use style="fill:#0000ff;fill-opacity:0.5;stroke:#0000ff;stroke-opacity:0.5;" x="247.502004" xlink:href="#mfed58670df" y="88.476605"/>
     <use style="fill:#0000ff;fill-opacity:0.5;stroke:#0000ff;stroke-opacity:0.5;" x="364.32787" xlink:href="#mfed58670df" y="44.463066"/>
     <use style="fill:#0000ff;fill-opacity:0.5;stroke:#0000ff;stroke-opacity:0.5;" x="239.975379" xlink:href="#mfed58670df" y="92.500228"/>
     <use style="fill:#0000ff;fill-opacity:0.5;stroke:#0000ff;stroke-opacity:0.5;" x="74.893739" xlink:href="#mfed58670df" y="44.854796"/>
     <use style="fill:#0000ff;fill-opacity:0.5;stroke:#0000ff;stroke-opacity:0.5;" x="312.901653" xlink:href="#mfed58670df" y="69.915451"/>
     <use style="fill:#0000ff;fill-opacity:0.5;stroke:#0000ff;stroke-opacity:0.5;" x="140.127079" xlink:href="#mfed58670df" y="71.83907"/>
     <use style="fill:#0000ff;fill-opacity:0.5;stroke:#0000ff;stroke-opacity:0.5;" x="314.871654" xlink:href="#mfed58670df" y="67.971389"/>
     <use style="fill:#0000ff;fill-opacity:0.5;stroke:#0000ff;stroke-opacity:0.5;" x="187.268858" xlink:href="#mfed58670df" y="88.599939"/>
     <use style="fill:#0000ff;fill-opacity:0.5;stroke:#0000ff;stroke-opacity:0.5;" x="332.048921" xlink:href="#mfed58670df" y="54.629398"/>
     <use style="fill:#0000ff;fill-opacity:0.5;stroke:#0000ff;stroke-opacity:0.5;" x="296.614842" xlink:href="#mfed58670df" y="99.408662"/>
     <use style="fill:#0000ff;fill-opacity:0.5;stroke:#0000ff;stroke-opacity:0.5;" x="238.517482" xlink:href="#mfed58670df" y="90.396415"/>
     <use style="fill:#0000ff;fill-opacity:0.5;stroke:#0000ff;stroke-opacity:0.5;" x="110.750191" xlink:href="#mfed58670df" y="85.016374"/>
     <use style="fill:#0000ff;fill-opacity:0.5;stroke:#0000ff;stroke-opacity:0.5;" x="87.454948" xlink:href="#mfed58670df" y="62.014618"/>
     <use style="fill:#0000ff;fill-opacity:0.5;stroke:#0000ff;stroke-opacity:0.5;" x="106.150717" xlink:href="#mfed58670df" y="89.685378"/>
     <use style="fill:#0000ff;fill-opacity:0.5;stroke:#0000ff;stroke-opacity:0.5;" x="82.778154" xlink:href="#mfed58670df" y="61.154873"/>
     <use style="fill:#0000ff;fill-opacity:0.5;stroke:#0000ff;stroke-opacity:0.5;" x="101.935486" xlink:href="#mfed58670df" y="80.410082"/>
     <use style="fill:#0000ff;fill-opacity:0.5;stroke:#0000ff;stroke-opacity:0.5;" x="137.915897" xlink:href="#mfed58670df" y="69.499399"/>
     <use style="fill:#0000ff;fill-opacity:0.5;stroke:#0000ff;stroke-opacity:0.5;" x="286.226101" xlink:href="#mfed58670df" y="119.1856"/>
     <use style="fill:#0000ff;fill-opacity:0.5;stroke:#0000ff;stroke-opacity:0.5;" x="239.575678" xlink:href="#mfed58670df" y="91.903706"/>
     <use style="fill:#0000ff;fill-opacity:0.5;stroke:#0000ff;stroke-opacity:0.5;" x="73.039766" xlink:href="#mfed58670df" y="41.923975"/>
     <use style="fill:#0000ff;fill-opacity:0.5;stroke:#0000ff;stroke-opacity:0.5;" x="91.124535" xlink:href="#mfed58670df" y="60.309968"/>
     <use style="fill:#0000ff;fill-opacity:0.5;stroke:#0000ff;stroke-opacity:0.5;" x="363.621923" xlink:href="#mfed58670df" y="44.318627"/>
     <use style="fill:#0000ff;fill-opacity:0.5;stroke:#0000ff;stroke-opacity:0.5;" x="242.127304" xlink:href="#mfed58670df" y="95.603816"/>
     <use style="fill:#0000ff;fill-opacity:0.5;stroke:#0000ff;stroke-opacity:0.5;" x="131.09325" xlink:href="#mfed58670df" y="69.182619"/>
     <use style="fill:#0000ff;fill-opacity:0.5;stroke:#0000ff;stroke-opacity:0.5;" x="146.016963" xlink:href="#mfed58670df" y="67.070487"/>
     <use style="fill:#0000ff;fill-opacity:0.5;stroke:#0000ff;stroke-opacity:0.5;" x="295.611724" xlink:href="#mfed58670df" y="92.006859"/>
     <use style="fill:#0000ff;fill-opacity:0.5;stroke:#0000ff;stroke-opacity:0.5;" x="128.699809" xlink:href="#mfed58670df" y="72.570049"/>
     <use style="fill:#0000ff;fill-opacity:0.5;stroke:#0000ff;stroke-opacity:0.5;" x="246.162699" xlink:href="#mfed58670df" y="93.112565"/>
     <use style="fill:#0000ff;fill-opacity:0.5;stroke:#0000ff;stroke-opacity:0.5;" x="364.456993" xlink:href="#mfed58670df" y="44.517204"/>
     <use style="fill:#0000ff;fill-opacity:0.5;stroke:#0000ff;stroke-opacity:0.5;" x="326.962075" xlink:href="#mfed58670df" y="57.15512"/>
     <use style="fill:#0000ff;fill-opacity:0.5;stroke:#0000ff;stroke-opacity:0.5;" x="142.219118" xlink:href="#mfed58670df" y="72.153737"/>
     <use style="fill:#0000ff;fill-opacity:0.5;stroke:#0000ff;stroke-opacity:0.5;" x="219.503728" xlink:href="#mfed58670df" y="97.681747"/>
     <use style="fill:#0000ff;fill-opacity:0.5;stroke:#0000ff;stroke-opacity:0.5;" x="257.910159" xlink:href="#mfed58670df" y="87.933097"/>
     <use style="fill:#0000ff;fill-opacity:0.5;stroke:#0000ff;stroke-opacity:0.5;" x="321.529823" xlink:href="#mfed58670df" y="63.002789"/>
     <use style="fill:#0000ff;fill-opacity:0.5;stroke:#0000ff;stroke-opacity:0.5;" x="116.939781" xlink:href="#mfed58670df" y="90.842692"/>
     <use style="fill:#0000ff;fill-opacity:0.5;stroke:#0000ff;stroke-opacity:0.5;" x="74.872102" xlink:href="#mfed58670df" y="44.824992"/>
     <use style="fill:#0000ff;fill-opacity:0.5;stroke:#0000ff;stroke-opacity:0.5;" x="90.530376" xlink:href="#mfed58670df" y="58.616606"/>
     <use style="fill:#0000ff;fill-opacity:0.5;stroke:#0000ff;stroke-opacity:0.5;" x="217.243948" xlink:href="#mfed58670df" y="86.140912"/>
     <use style="fill:#0000ff;fill-opacity:0.5;stroke:#0000ff;stroke-opacity:0.5;" x="253.762822" xlink:href="#mfed58670df" y="88.280661"/>
     <use style="fill:#0000ff;fill-opacity:0.5;stroke:#0000ff;stroke-opacity:0.5;" x="242.355874" xlink:href="#mfed58670df" y="95.873392"/>
     <use style="fill:#0000ff;fill-opacity:0.5;stroke:#0000ff;stroke-opacity:0.5;" x="165.811759" xlink:href="#mfed58670df" y="75.577408"/>
     <use style="fill:#0000ff;fill-opacity:0.5;stroke:#0000ff;stroke-opacity:0.5;" x="370.11699" xlink:href="#mfed58670df" y="43.727501"/>
     <use style="fill:#0000ff;fill-opacity:0.5;stroke:#0000ff;stroke-opacity:0.5;" x="245.671545" xlink:href="#mfed58670df" y="94.488173"/>
     <use style="fill:#0000ff;fill-opacity:0.5;stroke:#0000ff;stroke-opacity:0.5;" x="184.919331" xlink:href="#mfed58670df" y="81.082685"/>
     <use style="fill:#0000ff;fill-opacity:0.5;stroke:#0000ff;stroke-opacity:0.5;" x="236.906785" xlink:href="#mfed58670df" y="88.421795"/>
     <use style="fill:#0000ff;fill-opacity:0.5;stroke:#0000ff;stroke-opacity:0.5;" x="296.07088" xlink:href="#mfed58670df" y="94.897342"/>
     <use style="fill:#0000ff;fill-opacity:0.5;stroke:#0000ff;stroke-opacity:0.5;" x="272.908339" xlink:href="#mfed58670df" y="134.550787"/>
     <use style="fill:#0000ff;fill-opacity:0.5;stroke:#0000ff;stroke-opacity:0.5;" x="149.850062" xlink:href="#mfed58670df" y="66.538672"/>
     <use style="fill:#0000ff;fill-opacity:0.5;stroke:#0000ff;stroke-opacity:0.5;" x="89.408093" xlink:href="#mfed58670df" y="57.337815"/>
     <use style="fill:#0000ff;fill-opacity:0.5;stroke:#0000ff;stroke-opacity:0.5;" x="181.858354" xlink:href="#mfed58670df" y="76.428367"/>
     <use style="fill:#0000ff;fill-opacity:0.5;stroke:#0000ff;stroke-opacity:0.5;" x="260.881292" xlink:href="#mfed58670df" y="84.442955"/>
     <use style="fill:#0000ff;fill-opacity:0.5;stroke:#0000ff;stroke-opacity:0.5;" x="133.187508" xlink:href="#mfed58670df" y="67.363897"/>
     <use style="fill:#0000ff;fill-opacity:0.5;stroke:#0000ff;stroke-opacity:0.5;" x="298.329599" xlink:href="#mfed58670df" y="118.207894"/>
     <use style="fill:#0000ff;fill-opacity:0.5;stroke:#0000ff;stroke-opacity:0.5;" x="89.469467" xlink:href="#mfed58670df" y="57.338389"/>
     <use style="fill:#0000ff;fill-opacity:0.5;stroke:#0000ff;stroke-opacity:0.5;" x="148.448632" xlink:href="#mfed58670df" y="66.117068"/>
     <use style="fill:#0000ff;fill-opacity:0.5;stroke:#0000ff;stroke-opacity:0.5;" x="314.156207" xlink:href="#mfed58670df" y="68.902757"/>
     <use style="fill:#0000ff;fill-opacity:0.5;stroke:#0000ff;stroke-opacity:0.5;" x="128.092543" xlink:href="#mfed58670df" y="73.087159"/>
     <use style="fill:#0000ff;fill-opacity:0.5;stroke:#0000ff;stroke-opacity:0.5;" x="263.846821" xlink:href="#mfed58670df" y="97.794252"/>
     <use style="fill:#0000ff;fill-opacity:0.5;stroke:#0000ff;stroke-opacity:0.5;" x="228.908745" xlink:href="#mfed58670df" y="81.852883"/>
     <use style="fill:#0000ff;fill-opacity:0.5;stroke:#0000ff;stroke-opacity:0.5;" x="350.696099" xlink:href="#mfed58670df" y="47.033697"/>
     <use style="fill:#0000ff;fill-opacity:0.5;stroke:#0000ff;stroke-opacity:0.5;" x="149.356144" xlink:href="#mfed58670df" y="66.325533"/>
     <use style="fill:#0000ff;fill-opacity:0.5;stroke:#0000ff;stroke-opacity:0.5;" x="89.294339" xlink:href="#mfed58670df" y="57.359075"/>
     <use style="fill:#0000ff;fill-opacity:0.5;stroke:#0000ff;stroke-opacity:0.5;" x="292.945531" xlink:href="#mfed58670df" y="92.954707"/>
     <use style="fill:#0000ff;fill-opacity:0.5;stroke:#0000ff;stroke-opacity:0.5;" x="304.241095" xlink:href="#mfed58670df" y="96.34"/>
     <use style="fill:#0000ff;fill-opacity:0.5;stroke:#0000ff;stroke-opacity:0.5;" x="345.524316" xlink:href="#mfed58670df" y="49.571475"/>
     <use style="fill:#0000ff;fill-opacity:0.5;stroke:#0000ff;stroke-opacity:0.5;" x="352.87659" xlink:href="#mfed58670df" y="45.730221"/>
     <use style="fill:#0000ff;fill-opacity:0.5;stroke:#0000ff;stroke-opacity:0.5;" x="73.464533" xlink:href="#mfed58670df" y="42.616092"/>
     <use style="fill:#0000ff;fill-opacity:0.5;stroke:#0000ff;stroke-opacity:0.5;" x="140.549479" xlink:href="#mfed58670df" y="72.143788"/>
     <use style="fill:#0000ff;fill-opacity:0.5;stroke:#0000ff;stroke-opacity:0.5;" x="256.943085" xlink:href="#mfed58670df" y="91.502653"/>
     <use style="fill:#0000ff;fill-opacity:0.5;stroke:#0000ff;stroke-opacity:0.5;" x="358.06424" xlink:href="#mfed58670df" y="51.723993"/>
    </g>
   </g>
   <g id="line2d_20">
    <path clip-path="url(#p139db90248)" d="M 69.218182 46.161566 
L 69.827518 46.553445 
L 70.436855 47.17203 
L 71.35086 48.537649 
L 72.264865 50.419736 
L 73.788206 54.326195 
L 74.702211 56.535792 
L 75.311548 57.636815 
L 75.920885 58.308101 
L 76.530221 58.538151 
L 77.139558 58.426616 
L 78.358231 57.973676 
L 78.967568 58.095166 
L 79.272236 58.340677 
L 79.576904 58.744751 
L 80.186241 60.135908 
L 80.795577 62.489146 
L 81.404914 66.014014 
L 82.014251 70.817367 
L 84.146929 89.950379 
L 84.451597 90.885774 
L 84.756265 90.915016 
L 85.060934 90.030314 
L 85.365602 88.312528 
L 85.974939 83.046734 
L 87.49828 68.343474 
L 88.107617 64.396704 
L 88.716953 61.837285 
L 89.32629 60.472849 
L 89.630958 60.172664 
L 89.935627 60.098205 
L 90.240295 60.23301 
L 90.544963 60.564402 
L 91.1543 61.779219 
L 91.763636 63.674596 
L 92.677641 67.583459 
L 95.114988 79.17997 
L 95.724324 80.991834 
L 96.333661 82.11751 
L 96.942998 82.620321 
L 97.552334 82.633321 
L 98.161671 82.315448 
L 99.380344 81.263851 
L 100.599017 80.32461 
L 101.513022 79.949711 
L 102.122359 79.891616 
L 103.036364 80.084776 
L 103.950369 80.55247 
L 105.778378 81.639943 
L 106.387715 81.731186 
L 106.997052 81.495298 
L 107.606388 80.821032 
L 108.215725 79.637739 
L 108.825061 77.947504 
L 109.739066 74.691417 
L 111.262408 69.023254 
L 112.176413 66.55882 
L 112.785749 65.534502 
L 113.395086 65.044344 
L 113.699754 65.005788 
L 114.004423 65.110188 
L 114.309091 65.364079 
L 114.918428 66.359228 
L 115.527764 68.089436 
L 116.137101 70.651365 
L 117.051106 75.975225 
L 118.269779 83.417249 
L 118.574447 84.611015 
L 118.879115 85.315198 
L 119.183784 85.473818 
L 119.488452 85.083303 
L 119.79312 84.192825 
L 120.402457 81.308009 
L 121.925799 72.964779 
L 122.535135 70.655612 
L 123.144472 69.107575 
L 123.753808 68.206307 
L 124.363145 67.809758 
L 124.972482 67.783752 
L 125.581818 68.003652 
L 127.409828 68.919863 
L 128.019165 68.961409 
L 128.628501 68.787231 
L 129.542506 68.193931 
L 131.675184 66.499673 
L 132.589189 66.068277 
L 133.503194 65.893552 
L 134.417199 65.964436 
L 135.331204 66.264684 
L 136.245209 66.784259 
L 137.463882 67.799059 
L 140.510565 70.8202 
L 141.119902 71.062538 
L 141.729238 71.029341 
L 142.338575 70.706952 
L 143.25258 69.7872 
L 145.08059 67.640259 
L 145.994595 66.966735 
L 146.9086 66.636455 
L 147.822604 66.573021 
L 148.736609 66.705474 
L 149.955283 67.145448 
L 150.869287 67.691178 
L 153.611302 69.695552 
L 154.220639 69.845104 
L 155.134644 69.826235 
L 156.657985 69.712375 
L 157.57199 69.858682 
L 158.485995 70.251393 
L 159.4 70.928415 
L 160.314005 71.899519 
L 163.360688 75.531617 
L 163.970025 75.865526 
L 164.579361 76.01301 
L 165.493366 75.968676 
L 169.149386 75.328212 
L 170.368059 75.510314 
L 171.586732 75.967732 
L 172.805405 76.689844 
L 176.156757 78.957402 
L 176.766093 79.054585 
L 177.37543 78.952504 
L 177.984767 78.655661 
L 178.898771 77.947671 
L 180.422113 76.729088 
L 181.03145 76.452562 
L 181.640786 76.382059 
L 182.250123 76.566363 
L 182.859459 77.065485 
L 183.468796 77.961064 
L 184.078133 79.352511 
L 184.687469 81.322032 
L 185.601474 85.265473 
L 186.515479 89.384711 
L 187.124816 91.21609 
L 187.429484 91.646017 
L 187.734152 91.714653 
L 188.038821 91.437157 
L 188.648157 90.054039 
L 190.476167 84.526605 
L 191.085504 83.547039 
L 191.390172 83.302228 
L 191.69484 83.225951 
L 191.999509 83.322132 
L 192.304177 83.596566 
L 192.913514 84.717278 
L 193.52285 86.691417 
L 194.132187 89.655488 
L 194.741523 93.73866 
L 195.655528 102.053419 
L 196.874201 116.35123 
L 198.397543 134.775311 
L 199.311548 143.555576 
L 199.920885 147.984107 
L 200.530221 151.234926 
L 201.139558 153.36297 
L 201.748894 154.453498 
L 202.053563 154.637608 
L 202.358231 154.595022 
L 202.662899 154.335633 
L 203.272236 153.204376 
L 203.881572 151.319937 
L 204.490909 148.764344 
L 205.404914 143.879704 
L 206.623587 135.966901 
L 209.365602 116.002386 
L 211.49828 101.160898 
L 212.716953 94.1886 
L 213.630958 90.270817 
L 214.240295 88.416807 
L 214.849631 87.218544 
L 215.1543 86.877878 
L 215.458968 86.71921 
L 215.763636 86.753606 
L 216.068305 86.996557 
L 216.372973 87.469085 
L 216.677641 88.198657 
L 217.286978 90.573223 
L 217.896314 94.463914 
L 218.505651 100.214328 
L 219.419656 112.29258 
L 220.333661 125.261225 
L 220.942998 130.556075 
L 221.247666 131.300281 
L 221.552334 130.59345 
L 221.857002 128.489272 
L 222.466339 121.000636 
L 223.989681 98.195948 
L 224.599017 91.846944 
L 225.208354 87.489857 
L 225.81769 84.700845 
L 226.427027 83.041278 
L 227.036364 82.179533 
L 227.6457 81.898162 
L 228.255037 82.063212 
L 228.864373 82.59004 
L 229.47371 83.416221 
L 230.387715 85.089901 
L 231.911057 88.532855 
L 234.95774 95.537159 
L 236.785749 99.228255 
L 238.004423 101.232666 
L 238.918428 102.355788 
L 239.832432 103.066708 
L 240.441769 103.27677 
L 241.051106 103.248207 
L 241.660442 102.950324 
L 242.269779 102.344142 
L 242.879115 101.385099 
L 243.488452 100.032134 
L 244.402457 97.226859 
L 245.316462 93.604846 
L 247.753808 83.430302 
L 248.667813 80.84783 
L 249.27715 79.674971 
L 249.886486 78.923948 
L 250.495823 78.573571 
L 251.10516 78.620068 
L 251.714496 79.086974 
L 252.323833 80.018702 
L 252.93317 81.447387 
L 253.847174 84.36778 
L 254.761179 87.310649 
L 255.370516 88.445886 
L 255.675184 88.599531 
L 255.979853 88.452061 
L 256.284521 88.020415 
L 256.893857 86.492771 
L 258.721867 80.98759 
L 259.331204 79.883112 
L 259.940541 79.277652 
L 260.549877 79.154138 
L 261.159214 79.503754 
L 261.76855 80.337482 
L 262.377887 81.675335 
L 262.987224 83.520692 
L 263.901229 87.122652 
L 266.338575 97.611916 
L 267.25258 100.205442 
L 268.166585 101.897833 
L 269.385258 103.4346 
L 270.299263 104.666043 
L 270.9086 105.76721 
L 271.517936 107.224752 
L 272.127273 109.14444 
L 272.736609 111.630568 
L 273.345946 114.788209 
L 274.259951 121.006807 
L 275.173956 129.240168 
L 276.087961 139.491073 
L 278.525307 168.396652 
L 279.134644 171.940321 
L 279.439312 172.531184 
L 279.74398 172.238187 
L 280.048649 171.035677 
L 280.353317 168.942533 
L 280.962654 162.386163 
L 281.876658 148.69463 
L 283.095332 130.211336 
L 283.704668 123.210187 
L 284.314005 118.384828 
L 284.618673 116.838255 
L 284.923342 115.873694 
L 285.22801 115.486192 
L 285.532678 115.665173 
L 285.837346 116.392945 
L 286.142015 117.640956 
L 286.751351 121.492491 
L 288.274693 133.332124 
L 288.579361 134.507201 
L 288.884029 134.776459 
L 289.188698 134.004821 
L 289.493366 132.149284 
L 290.102703 125.526026 
L 292.540049 92.056337 
L 293.149386 87.735912 
L 293.758722 85.274421 
L 294.063391 84.663714 
L 294.368059 84.438137 
L 294.672727 84.588654 
L 294.977396 85.116536 
L 295.282064 86.032722 
L 295.8914 89.112085 
L 296.500737 94.025582 
L 297.110074 100.9218 
L 298.024079 114.642178 
L 299.54742 139.111566 
L 300.156757 145.27829 
L 300.461425 146.945607 
L 300.766093 147.576166 
L 301.070762 147.169746 
L 301.37543 145.778908 
L 301.984767 140.466801 
L 302.898771 128.369798 
L 304.726781 102.748901 
L 305.640786 93.201597 
L 306.554791 86.279862 
L 307.468796 81.551223 
L 308.078133 79.357462 
L 308.687469 77.767674 
L 309.296806 76.665781 
L 309.906143 75.953218 
L 310.515479 75.541035 
L 311.429484 75.289029 
L 312.648157 75.089393 
L 313.257494 74.786643 
L 313.86683 74.213706 
L 314.476167 73.325867 
L 315.390172 71.482288 
L 317.218182 67.427365 
L 318.132187 66.00186 
L 318.741523 65.404387 
L 319.35086 65.100488 
L 319.960197 65.085362 
L 320.569533 65.337848 
L 321.483538 66.069307 
L 322.397543 66.731944 
L 322.702211 66.793439 
L 323.00688 66.723468 
L 323.311548 66.502379 
L 323.920885 65.597974 
L 324.834889 63.419714 
L 326.053563 60.459921 
L 326.967568 58.914925 
L 327.881572 57.92932 
L 328.795577 57.309115 
L 330.014251 56.811608 
L 331.537592 56.484305 
L 334.279607 55.978123 
L 335.802948 55.421447 
L 343.114988 52.34713 
L 347.075676 50.957063 
L 348.903686 50.011021 
L 351.950369 48.329888 
L 353.169042 47.885949 
L 354.083047 47.731384 
L 354.997052 47.827022 
L 355.606388 48.084967 
L 356.520393 48.781096 
L 357.739066 49.829002 
L 358.348403 50.027858 
L 358.95774 49.847812 
L 359.567076 49.326323 
L 362.004423 46.613045 
L 362.918428 46.086205 
L 363.832432 45.905769 
L 364.746437 46.030673 
L 367.488452 46.854975 
L 368.097789 46.767828 
L 369.011794 46.364856 
L 372.363145 44.398465 
L 372.972482 44.329119 
L 373.581818 44.428757 
L 373.581818 44.428757 
" style="fill:none;stroke:#ff0000;stroke-linecap:square;stroke-opacity:0.6;stroke-width:1.5;"/>
   </g>
   <g id="line2d_21">
    <defs>
     <path d="M 0 2.5 
C 0.663008 2.5 1.29895 2.236584 1.767767 1.767767 
C 2.236584 1.29895 2.5 0.663008 2.5 0 
C 2.5 -0.663008 2.236584 -1.29895 1.767767 -1.767767 
C 1.29895 -2.236584 0.663008 -2.5 0 -2.5 
C -0.663008 -2.5 -1.29895 -2.236584 -1.767767 -1.767767 
C -2.236584 -1.29895 -2.5 -0.663008 -2.5 0 
C -2.5 0.663008 -2.236584 1.29895 -1.767767 1.767767 
C -1.29895 2.236584 -0.663008 2.5 0 2.5 
z
" id="md0ec9d5840" style="stroke:#ff0000;stroke-opacity:0.8;"/>
    </defs>
    <g clip-path="url(#p139db90248)">
     <use style="fill:#ff0000;fill-opacity:0.8;stroke:#ff0000;stroke-opacity:0.8;" x="358.417241" xlink:href="#md0ec9d5840" y="50.027061"/>
     <use style="fill:#ff0000;fill-opacity:0.8;stroke:#ff0000;stroke-opacity:0.8;" x="347.89546" xlink:href="#md0ec9d5840" y="50.564936"/>
     <use style="fill:#ff0000;fill-opacity:0.8;stroke:#ff0000;stroke-opacity:0.8;" x="187.922348" xlink:href="#md0ec9d5840" y="91.581742"/>
     <use style="fill:#ff0000;fill-opacity:0.8;stroke:#ff0000;stroke-opacity:0.8;" x="253.148318" xlink:href="#md0ec9d5840" y="82.065594"/>
     <use style="fill:#ff0000;fill-opacity:0.8;stroke:#ff0000;stroke-opacity:0.8;" x="351.114129" xlink:href="#md0ec9d5840" y="48.738"/>
     <use style="fill:#ff0000;fill-opacity:0.8;stroke:#ff0000;stroke-opacity:0.8;" x="189.403959" xlink:href="#md0ec9d5840" y="87.5816"/>
     <use style="fill:#ff0000;fill-opacity:0.8;stroke:#ff0000;stroke-opacity:0.8;" x="122.163961" xlink:href="#md0ec9d5840" y="71.967848"/>
     <use style="fill:#ff0000;fill-opacity:0.8;stroke:#ff0000;stroke-opacity:0.8;" x="110.331366" xlink:href="#md0ec9d5840" y="72.386279"/>
     <use style="fill:#ff0000;fill-opacity:0.8;stroke:#ff0000;stroke-opacity:0.8;" x="75.76955" xlink:href="#md0ec9d5840" y="58.184024"/>
     <use style="fill:#ff0000;fill-opacity:0.8;stroke:#ff0000;stroke-opacity:0.8;" x="320.962054" xlink:href="#md0ec9d5840" y="65.617023"/>
     <use style="fill:#ff0000;fill-opacity:0.8;stroke:#ff0000;stroke-opacity:0.8;" x="122.845915" xlink:href="#md0ec9d5840" y="69.776738"/>
     <use style="fill:#ff0000;fill-opacity:0.8;stroke:#ff0000;stroke-opacity:0.8;" x="109.088858" xlink:href="#md0ec9d5840" y="77.078891"/>
     <use style="fill:#ff0000;fill-opacity:0.8;stroke:#ff0000;stroke-opacity:0.8;" x="174.143483" xlink:href="#md0ec9d5840" y="77.698438"/>
     <use style="fill:#ff0000;fill-opacity:0.8;stroke:#ff0000;stroke-opacity:0.8;" x="246.362134" xlink:href="#md0ec9d5840" y="88.972184"/>
     <use style="fill:#ff0000;fill-opacity:0.8;stroke:#ff0000;stroke-opacity:0.8;" x="326.324629" xlink:href="#md0ec9d5840" y="59.933727"/>
     <use style="fill:#ff0000;fill-opacity:0.8;stroke:#ff0000;stroke-opacity:0.8;" x="209.189012" xlink:href="#md0ec9d5840" y="117.295732"/>
     <use style="fill:#ff0000;fill-opacity:0.8;stroke:#ff0000;stroke-opacity:0.8;" x="312.284075" xlink:href="#md0ec9d5840" y="75.179641"/>
     <use style="fill:#ff0000;fill-opacity:0.8;stroke:#ff0000;stroke-opacity:0.8;" x="218.433527" xlink:href="#md0ec9d5840" y="99.42964"/>
     <use style="fill:#ff0000;fill-opacity:0.8;stroke:#ff0000;stroke-opacity:0.8;" x="73.945946" xlink:href="#md0ec9d5840" y="54.736694"/>
     <use style="fill:#ff0000;fill-opacity:0.8;stroke:#ff0000;stroke-opacity:0.8;" x="201.213492" xlink:href="#md0ec9d5840" y="153.548794"/>
    </g>
   </g>
   <g id="patch_3">
    <path d="M 54 214.2 
L 54 29.376 
" style="fill:none;stroke:#000000;stroke-linecap:square;stroke-linejoin:miter;stroke-width:0.8;"/>
   </g>
   <g id="patch_4">
    <path d="M 388.8 214.2 
L 388.8 29.376 
" style="fill:none;stroke:#000000;stroke-linecap:square;stroke-linejoin:miter;stroke-width:0.8;"/>
   </g>
   <g id="patch_5">
    <path d="M 54 214.2 
L 388.8 214.2 
" style="fill:none;stroke:#000000;stroke-linecap:square;stroke-linejoin:miter;stroke-width:0.8;"/>
   </g>
   <g id="patch_6">
    <path d="M 54 29.376 
L 388.8 29.376 
" style="fill:none;stroke:#000000;stroke-linecap:square;stroke-linejoin:miter;stroke-width:0.8;"/>
   </g>
   <g id="text_20">
    <!-- low and high fidelity toy model -->
    <defs>
     <path d="M 9.421875 75.984375 
L 18.40625 75.984375 
L 18.40625 0 
L 9.421875 0 
z
" id="DejaVuSans-108"/>
     <path d="M 30.609375 48.390625 
Q 23.390625 48.390625 19.1875 42.75 
Q 14.984375 37.109375 14.984375 27.296875 
Q 14.984375 17.484375 19.15625 11.84375 
Q 23.34375 6.203125 30.609375 6.203125 
Q 37.796875 6.203125 41.984375 11.859375 
Q 46.1875 17.53125 46.1875 27.296875 
Q 46.1875 37.015625 41.984375 42.703125 
Q 37.796875 48.390625 30.609375 48.390625 
z
M 30.609375 56 
Q 42.328125 56 49.015625 48.375 
Q 55.71875 40.765625 55.71875 27.296875 
Q 55.71875 13.875 49.015625 6.21875 
Q 42.328125 -1.421875 30.609375 -1.421875 
Q 18.84375 -1.421875 12.171875 6.21875 
Q 5.515625 13.875 5.515625 27.296875 
Q 5.515625 40.765625 12.171875 48.375 
Q 18.84375 56 30.609375 56 
z
" id="DejaVuSans-111"/>
     <path d="M 4.203125 54.6875 
L 13.1875 54.6875 
L 24.421875 12.015625 
L 35.59375 54.6875 
L 46.1875 54.6875 
L 57.421875 12.015625 
L 68.609375 54.6875 
L 77.59375 54.6875 
L 63.28125 0 
L 52.6875 0 
L 40.921875 44.828125 
L 29.109375 0 
L 18.5 0 
z
" id="DejaVuSans-119"/>
     <path id="DejaVuSans-32"/>
     <path d="M 34.28125 27.484375 
Q 23.390625 27.484375 19.1875 25 
Q 14.984375 22.515625 14.984375 16.5 
Q 14.984375 11.71875 18.140625 8.90625 
Q 21.296875 6.109375 26.703125 6.109375 
Q 34.1875 6.109375 38.703125 11.40625 
Q 43.21875 16.703125 43.21875 25.484375 
L 43.21875 27.484375 
z
M 52.203125 31.203125 
L 52.203125 0 
L 43.21875 0 
L 43.21875 8.296875 
Q 40.140625 3.328125 35.546875 0.953125 
Q 30.953125 -1.421875 24.3125 -1.421875 
Q 15.921875 -1.421875 10.953125 3.296875 
Q 6 8.015625 6 15.921875 
Q 6 25.140625 12.171875 29.828125 
Q 18.359375 34.515625 30.609375 34.515625 
L 43.21875 34.515625 
L 43.21875 35.40625 
Q 43.21875 41.609375 39.140625 45 
Q 35.0625 48.390625 27.6875 48.390625 
Q 23 48.390625 18.546875 47.265625 
Q 14.109375 46.140625 10.015625 43.890625 
L 10.015625 52.203125 
Q 14.9375 54.109375 19.578125 55.046875 
Q 24.21875 56 28.609375 56 
Q 40.484375 56 46.34375 49.84375 
Q 52.203125 43.703125 52.203125 31.203125 
z
" id="DejaVuSans-97"/>
     <path d="M 54.890625 33.015625 
L 54.890625 0 
L 45.90625 0 
L 45.90625 32.71875 
Q 45.90625 40.484375 42.875 44.328125 
Q 39.84375 48.1875 33.796875 48.1875 
Q 26.515625 48.1875 22.3125 43.546875 
Q 18.109375 38.921875 18.109375 30.90625 
L 18.109375 0 
L 9.078125 0 
L 9.078125 54.6875 
L 18.109375 54.6875 
L 18.109375 46.1875 
Q 21.34375 51.125 25.703125 53.5625 
Q 30.078125 56 35.796875 56 
Q 45.21875 56 50.046875 50.171875 
Q 54.890625 44.34375 54.890625 33.015625 
z
" id="DejaVuSans-110"/>
     <path d="M 45.40625 46.390625 
L 45.40625 75.984375 
L 54.390625 75.984375 
L 54.390625 0 
L 45.40625 0 
L 45.40625 8.203125 
Q 42.578125 3.328125 38.25 0.953125 
Q 33.9375 -1.421875 27.875 -1.421875 
Q 17.96875 -1.421875 11.734375 6.484375 
Q 5.515625 14.40625 5.515625 27.296875 
Q 5.515625 40.1875 11.734375 48.09375 
Q 17.96875 56 27.875 56 
Q 33.9375 56 38.25 53.625 
Q 42.578125 51.265625 45.40625 46.390625 
z
M 14.796875 27.296875 
Q 14.796875 17.390625 18.875 11.75 
Q 22.953125 6.109375 30.078125 6.109375 
Q 37.203125 6.109375 41.296875 11.75 
Q 45.40625 17.390625 45.40625 27.296875 
Q 45.40625 37.203125 41.296875 42.84375 
Q 37.203125 48.484375 30.078125 48.484375 
Q 22.953125 48.484375 18.875 42.84375 
Q 14.796875 37.203125 14.796875 27.296875 
z
" id="DejaVuSans-100"/>
     <path d="M 54.890625 33.015625 
L 54.890625 0 
L 45.90625 0 
L 45.90625 32.71875 
Q 45.90625 40.484375 42.875 44.328125 
Q 39.84375 48.1875 33.796875 48.1875 
Q 26.515625 48.1875 22.3125 43.546875 
Q 18.109375 38.921875 18.109375 30.90625 
L 18.109375 0 
L 9.078125 0 
L 9.078125 75.984375 
L 18.109375 75.984375 
L 18.109375 46.1875 
Q 21.34375 51.125 25.703125 53.5625 
Q 30.078125 56 35.796875 56 
Q 45.21875 56 50.046875 50.171875 
Q 54.890625 44.34375 54.890625 33.015625 
z
" id="DejaVuSans-104"/>
     <path d="M 9.421875 54.6875 
L 18.40625 54.6875 
L 18.40625 0 
L 9.421875 0 
z
M 9.421875 75.984375 
L 18.40625 75.984375 
L 18.40625 64.59375 
L 9.421875 64.59375 
z
" id="DejaVuSans-105"/>
     <path d="M 45.40625 27.984375 
Q 45.40625 37.75 41.375 43.109375 
Q 37.359375 48.484375 30.078125 48.484375 
Q 22.859375 48.484375 18.828125 43.109375 
Q 14.796875 37.75 14.796875 27.984375 
Q 14.796875 18.265625 18.828125 12.890625 
Q 22.859375 7.515625 30.078125 7.515625 
Q 37.359375 7.515625 41.375 12.890625 
Q 45.40625 18.265625 45.40625 27.984375 
z
M 54.390625 6.78125 
Q 54.390625 -7.171875 48.1875 -13.984375 
Q 42 -20.796875 29.203125 -20.796875 
Q 24.46875 -20.796875 20.265625 -20.09375 
Q 16.0625 -19.390625 12.109375 -17.921875 
L 12.109375 -9.1875 
Q 16.0625 -11.328125 19.921875 -12.34375 
Q 23.78125 -13.375 27.78125 -13.375 
Q 36.625 -13.375 41.015625 -8.765625 
Q 45.40625 -4.15625 45.40625 5.171875 
L 45.40625 9.625 
Q 42.625 4.78125 38.28125 2.390625 
Q 33.9375 0 27.875 0 
Q 17.828125 0 11.671875 7.65625 
Q 5.515625 15.328125 5.515625 27.984375 
Q 5.515625 40.671875 11.671875 48.328125 
Q 17.828125 56 27.875 56 
Q 33.9375 56 38.28125 53.609375 
Q 42.625 51.21875 45.40625 46.390625 
L 45.40625 54.6875 
L 54.390625 54.6875 
z
" id="DejaVuSans-103"/>
     <path d="M 37.109375 75.984375 
L 37.109375 68.5 
L 28.515625 68.5 
Q 23.6875 68.5 21.796875 66.546875 
Q 19.921875 64.59375 19.921875 59.515625 
L 19.921875 54.6875 
L 34.71875 54.6875 
L 34.71875 47.703125 
L 19.921875 47.703125 
L 19.921875 0 
L 10.890625 0 
L 10.890625 47.703125 
L 2.296875 47.703125 
L 2.296875 54.6875 
L 10.890625 54.6875 
L 10.890625 58.5 
Q 10.890625 67.625 15.140625 71.796875 
Q 19.390625 75.984375 28.609375 75.984375 
z
" id="DejaVuSans-102"/>
     <path d="M 56.203125 29.59375 
L 56.203125 25.203125 
L 14.890625 25.203125 
Q 15.484375 15.921875 20.484375 11.0625 
Q 25.484375 6.203125 34.421875 6.203125 
Q 39.59375 6.203125 44.453125 7.46875 
Q 49.3125 8.734375 54.109375 11.28125 
L 54.109375 2.78125 
Q 49.265625 0.734375 44.1875 -0.34375 
Q 39.109375 -1.421875 33.890625 -1.421875 
Q 20.796875 -1.421875 13.15625 6.1875 
Q 5.515625 13.8125 5.515625 26.8125 
Q 5.515625 40.234375 12.765625 48.109375 
Q 20.015625 56 32.328125 56 
Q 43.359375 56 49.78125 48.890625 
Q 56.203125 41.796875 56.203125 29.59375 
z
M 47.21875 32.234375 
Q 47.125 39.59375 43.09375 43.984375 
Q 39.0625 48.390625 32.421875 48.390625 
Q 24.90625 48.390625 20.390625 44.140625 
Q 15.875 39.890625 15.1875 32.171875 
z
" id="DejaVuSans-101"/>
     <path d="M 18.3125 70.21875 
L 18.3125 54.6875 
L 36.8125 54.6875 
L 36.8125 47.703125 
L 18.3125 47.703125 
L 18.3125 18.015625 
Q 18.3125 11.328125 20.140625 9.421875 
Q 21.96875 7.515625 27.59375 7.515625 
L 36.8125 7.515625 
L 36.8125 0 
L 27.59375 0 
Q 17.1875 0 13.234375 3.875 
Q 9.28125 7.765625 9.28125 18.015625 
L 9.28125 47.703125 
L 2.6875 47.703125 
L 2.6875 54.6875 
L 9.28125 54.6875 
L 9.28125 70.21875 
z
" id="DejaVuSans-116"/>
     <path d="M 32.171875 -5.078125 
Q 28.375 -14.84375 24.75 -17.8125 
Q 21.140625 -20.796875 15.09375 -20.796875 
L 7.90625 -20.796875 
L 7.90625 -13.28125 
L 13.1875 -13.28125 
Q 16.890625 -13.28125 18.9375 -11.515625 
Q 21 -9.765625 23.484375 -3.21875 
L 25.09375 0.875 
L 2.984375 54.6875 
L 12.5 54.6875 
L 29.59375 11.921875 
L 46.6875 54.6875 
L 56.203125 54.6875 
z
" id="DejaVuSans-121"/>
     <path d="M 52 44.1875 
Q 55.375 50.25 60.0625 53.125 
Q 64.75 56 71.09375 56 
Q 79.640625 56 84.28125 50.015625 
Q 88.921875 44.046875 88.921875 33.015625 
L 88.921875 0 
L 79.890625 0 
L 79.890625 32.71875 
Q 79.890625 40.578125 77.09375 44.375 
Q 74.3125 48.1875 68.609375 48.1875 
Q 61.625 48.1875 57.5625 43.546875 
Q 53.515625 38.921875 53.515625 30.90625 
L 53.515625 0 
L 44.484375 0 
L 44.484375 32.71875 
Q 44.484375 40.625 41.703125 44.40625 
Q 38.921875 48.1875 33.109375 48.1875 
Q 26.21875 48.1875 22.15625 43.53125 
Q 18.109375 38.875 18.109375 30.90625 
L 18.109375 0 
L 9.078125 0 
L 9.078125 54.6875 
L 18.109375 54.6875 
L 18.109375 46.1875 
Q 21.1875 51.21875 25.484375 53.609375 
Q 29.78125 56 35.6875 56 
Q 41.65625 56 45.828125 52.96875 
Q 50 49.953125 52 44.1875 
z
" id="DejaVuSans-109"/>
    </defs>
    <g transform="translate(128.475938 23.376)scale(0.12 -0.12)">
     <use xlink:href="#DejaVuSans-108"/>
     <use x="27.783203" xlink:href="#DejaVuSans-111"/>
     <use x="88.964844" xlink:href="#DejaVuSans-119"/>
     <use x="170.751953" xlink:href="#DejaVuSans-32"/>
     <use x="202.539062" xlink:href="#DejaVuSans-97"/>
     <use x="263.818359" xlink:href="#DejaVuSans-110"/>
     <use x="327.197266" xlink:href="#DejaVuSans-100"/>
     <use x="390.673828" xlink:href="#DejaVuSans-32"/>
     <use x="422.460938" xlink:href="#DejaVuSans-104"/>
     <use x="485.839844" xlink:href="#DejaVuSans-105"/>
     <use x="513.623047" xlink:href="#DejaVuSans-103"/>
     <use x="577.099609" xlink:href="#DejaVuSans-104"/>
     <use x="640.478516" xlink:href="#DejaVuSans-32"/>
     <use x="672.265625" xlink:href="#DejaVuSans-102"/>
     <use x="707.470703" xlink:href="#DejaVuSans-105"/>
     <use x="735.253906" xlink:href="#DejaVuSans-100"/>
     <use x="798.730469" xlink:href="#DejaVuSans-101"/>
     <use x="860.253906" xlink:href="#DejaVuSans-108"/>
     <use x="888.037109" xlink:href="#DejaVuSans-105"/>
     <use x="915.820312" xlink:href="#DejaVuSans-116"/>
     <use x="955.029297" xlink:href="#DejaVuSans-121"/>
     <use x="1014.208984" xlink:href="#DejaVuSans-32"/>
     <use x="1045.996094" xlink:href="#DejaVuSans-116"/>
     <use x="1085.205078" xlink:href="#DejaVuSans-111"/>
     <use x="1146.386719" xlink:href="#DejaVuSans-121"/>
     <use x="1205.566406" xlink:href="#DejaVuSans-32"/>
     <use x="1237.353516" xlink:href="#DejaVuSans-109"/>
     <use x="1334.765625" xlink:href="#DejaVuSans-111"/>
     <use x="1395.947266" xlink:href="#DejaVuSans-100"/>
     <use x="1459.423828" xlink:href="#DejaVuSans-101"/>
     <use x="1520.947266" xlink:href="#DejaVuSans-108"/>
    </g>
   </g>
  </g>
 </g>
 <defs>
  <clipPath id="p139db90248">
   <rect height="184.824" width="334.8" x="54" y="29.376"/>
  </clipPath>
 </defs>
</svg>
