<?xml version="1.0" encoding="utf-8" standalone="no"?>
<!DOCTYPE svg PUBLIC "-//W3C//DTD SVG 1.1//EN"
  "http://www.w3.org/Graphics/SVG/1.1/DTD/svg11.dtd">
<!-- Created with matplotlib (https://matplotlib.org/) -->
<svg height="244.8pt" version="1.1" viewBox="0 0 432 244.8" width="432pt" xmlns="http://www.w3.org/2000/svg" xmlns:xlink="http://www.w3.org/1999/xlink">
 <defs>
  <style type="text/css">
*{stroke-linecap:butt;stroke-linejoin:round;}
  </style>
 </defs>
 <g id="figure_1">
  <g id="patch_1">
   <path d="M 0 244.8 
L 432 244.8 
L 432 0 
L 0 0 
z
" style="fill:none;"/>
  </g>
  <g id="axes_1">
   <g id="patch_2">
    <path d="M 54 214.2 
L 388.8 214.2 
L 388.8 29.376 
L 54 29.376 
z
" style="fill:none;"/>
   </g>
   <g id="matplotlib.axis_1">
    <g id="xtick_1">
     <g id="line2d_1">
      <path clip-path="url(#p9e29769c23)" d="M 69.218182 214.2 
L 69.218182 29.376 
" style="fill:none;stroke:#b2b2b2;stroke-dasharray:1.85,0.8;stroke-dashoffset:0;stroke-width:0.5;"/>
     </g>
     <g id="line2d_2">
      <defs>
       <path d="M 0 0 
L 0 -3.5 
" id="m2853fa8ffc" style="stroke:#000000;stroke-width:0.8;"/>
      </defs>
      <g>
       <use style="stroke:#000000;stroke-width:0.8;" x="69.218182" xlink:href="#m2853fa8ffc" y="214.2"/>
      </g>
     </g>
     <g id="text_1">
      <!-- −1.00 -->
      <defs>
       <path d="M 10.59375 35.5 
L 73.1875 35.5 
L 73.1875 27.203125 
L 10.59375 27.203125 
z
" id="DejaVuSans-8722"/>
       <path d="M 12.40625 8.296875 
L 28.515625 8.296875 
L 28.515625 63.921875 
L 10.984375 60.40625 
L 10.984375 69.390625 
L 28.421875 72.90625 
L 38.28125 72.90625 
L 38.28125 8.296875 
L 54.390625 8.296875 
L 54.390625 0 
L 12.40625 0 
z
" id="DejaVuSans-49"/>
       <path d="M 10.6875 12.40625 
L 21 12.40625 
L 21 0 
L 10.6875 0 
z
" id="DejaVuSans-46"/>
       <path d="M 31.78125 66.40625 
Q 24.171875 66.40625 20.328125 58.90625 
Q 16.5 51.421875 16.5 36.375 
Q 16.5 21.390625 20.328125 13.890625 
Q 24.171875 6.390625 31.78125 6.390625 
Q 39.453125 6.390625 43.28125 13.890625 
Q 47.125 21.390625 47.125 36.375 
Q 47.125 51.421875 43.28125 58.90625 
Q 39.453125 66.40625 31.78125 66.40625 
z
M 31.78125 74.21875 
Q 44.046875 74.21875 50.515625 64.515625 
Q 56.984375 54.828125 56.984375 36.375 
Q 56.984375 17.96875 50.515625 8.265625 
Q 44.046875 -1.421875 31.78125 -1.421875 
Q 19.53125 -1.421875 13.0625 8.265625 
Q 6.59375 17.96875 6.59375 36.375 
Q 6.59375 54.828125 13.0625 64.515625 
Q 19.53125 74.21875 31.78125 74.21875 
z
" id="DejaVuSans-48"/>
      </defs>
      <g transform="translate(53.895526 225.298437)scale(0.1 -0.1)">
       <use xlink:href="#DejaVuSans-8722"/>
       <use x="83.789062" xlink:href="#DejaVuSans-49"/>
       <use x="147.412109" xlink:href="#DejaVuSans-46"/>
       <use x="179.199219" xlink:href="#DejaVuSans-48"/>
       <use x="242.822266" xlink:href="#DejaVuSans-48"/>
      </g>
     </g>
    </g>
    <g id="xtick_2">
     <g id="line2d_3">
      <path clip-path="url(#p9e29769c23)" d="M 107.263636 214.2 
L 107.263636 29.376 
" style="fill:none;stroke:#b2b2b2;stroke-dasharray:1.85,0.8;stroke-dashoffset:0;stroke-width:0.5;"/>
     </g>
     <g id="line2d_4">
      <g>
       <use style="stroke:#000000;stroke-width:0.8;" x="107.263636" xlink:href="#m2853fa8ffc" y="214.2"/>
      </g>
     </g>
     <g id="text_2">
      <!-- −0.75 -->
      <defs>
       <path d="M 8.203125 72.90625 
L 55.078125 72.90625 
L 55.078125 68.703125 
L 28.609375 0 
L 18.3125 0 
L 43.21875 64.59375 
L 8.203125 64.59375 
z
" id="DejaVuSans-55"/>
       <path d="M 10.796875 72.90625 
L 49.515625 72.90625 
L 49.515625 64.59375 
L 19.828125 64.59375 
L 19.828125 46.734375 
Q 21.96875 47.46875 24.109375 47.828125 
Q 26.265625 48.1875 28.421875 48.1875 
Q 40.625 48.1875 47.75 41.5 
Q 54.890625 34.8125 54.890625 23.390625 
Q 54.890625 11.625 47.5625 5.09375 
Q 40.234375 -1.421875 26.90625 -1.421875 
Q 22.3125 -1.421875 17.546875 -0.640625 
Q 12.796875 0.140625 7.71875 1.703125 
L 7.71875 11.625 
Q 12.109375 9.234375 16.796875 8.0625 
Q 21.484375 6.890625 26.703125 6.890625 
Q 35.15625 6.890625 40.078125 11.328125 
Q 45.015625 15.765625 45.015625 23.390625 
Q 45.015625 31 40.078125 35.4375 
Q 35.15625 39.890625 26.703125 39.890625 
Q 22.75 39.890625 18.8125 39.015625 
Q 14.890625 38.140625 10.796875 36.28125 
z
" id="DejaVuSans-53"/>
      </defs>
      <g transform="translate(91.94098 225.298437)scale(0.1 -0.1)">
       <use xlink:href="#DejaVuSans-8722"/>
       <use x="83.789062" xlink:href="#DejaVuSans-48"/>
       <use x="147.412109" xlink:href="#DejaVuSans-46"/>
       <use x="179.199219" xlink:href="#DejaVuSans-55"/>
       <use x="242.822266" xlink:href="#DejaVuSans-53"/>
      </g>
     </g>
    </g>
    <g id="xtick_3">
     <g id="line2d_5">
      <path clip-path="url(#p9e29769c23)" d="M 145.309091 214.2 
L 145.309091 29.376 
" style="fill:none;stroke:#b2b2b2;stroke-dasharray:1.85,0.8;stroke-dashoffset:0;stroke-width:0.5;"/>
     </g>
     <g id="line2d_6">
      <g>
       <use style="stroke:#000000;stroke-width:0.8;" x="145.309091" xlink:href="#m2853fa8ffc" y="214.2"/>
      </g>
     </g>
     <g id="text_3">
      <!-- −0.50 -->
      <g transform="translate(129.986435 225.298437)scale(0.1 -0.1)">
       <use xlink:href="#DejaVuSans-8722"/>
       <use x="83.789062" xlink:href="#DejaVuSans-48"/>
       <use x="147.412109" xlink:href="#DejaVuSans-46"/>
       <use x="179.199219" xlink:href="#DejaVuSans-53"/>
       <use x="242.822266" xlink:href="#DejaVuSans-48"/>
      </g>
     </g>
    </g>
    <g id="xtick_4">
     <g id="line2d_7">
      <path clip-path="url(#p9e29769c23)" d="M 183.354545 214.2 
L 183.354545 29.376 
" style="fill:none;stroke:#b2b2b2;stroke-dasharray:1.85,0.8;stroke-dashoffset:0;stroke-width:0.5;"/>
     </g>
     <g id="line2d_8">
      <g>
       <use style="stroke:#000000;stroke-width:0.8;" x="183.354545" xlink:href="#m2853fa8ffc" y="214.2"/>
      </g>
     </g>
     <g id="text_4">
      <!-- −0.25 -->
      <defs>
       <path d="M 19.1875 8.296875 
L 53.609375 8.296875 
L 53.609375 0 
L 7.328125 0 
L 7.328125 8.296875 
Q 12.9375 14.109375 22.625 23.890625 
Q 32.328125 33.6875 34.8125 36.53125 
Q 39.546875 41.84375 41.421875 45.53125 
Q 43.3125 49.21875 43.3125 52.78125 
Q 43.3125 58.59375 39.234375 62.25 
Q 35.15625 65.921875 28.609375 65.921875 
Q 23.96875 65.921875 18.8125 64.3125 
Q 13.671875 62.703125 7.8125 59.421875 
L 7.8125 69.390625 
Q 13.765625 71.78125 18.9375 73 
Q 24.125 74.21875 28.421875 74.21875 
Q 39.75 74.21875 46.484375 68.546875 
Q 53.21875 62.890625 53.21875 53.421875 
Q 53.21875 48.921875 51.53125 44.890625 
Q 49.859375 40.875 45.40625 35.40625 
Q 44.1875 33.984375 37.640625 27.21875 
Q 31.109375 20.453125 19.1875 8.296875 
z
" id="DejaVuSans-50"/>
      </defs>
      <g transform="translate(168.031889 225.298437)scale(0.1 -0.1)">
       <use xlink:href="#DejaVuSans-8722"/>
       <use x="83.789062" xlink:href="#DejaVuSans-48"/>
       <use x="147.412109" xlink:href="#DejaVuSans-46"/>
       <use x="179.199219" xlink:href="#DejaVuSans-50"/>
       <use x="242.822266" xlink:href="#DejaVuSans-53"/>
      </g>
     </g>
    </g>
    <g id="xtick_5">
     <g id="line2d_9">
      <path clip-path="url(#p9e29769c23)" d="M 221.4 214.2 
L 221.4 29.376 
" style="fill:none;stroke:#b2b2b2;stroke-dasharray:1.85,0.8;stroke-dashoffset:0;stroke-width:0.5;"/>
     </g>
     <g id="line2d_10">
      <g>
       <use style="stroke:#000000;stroke-width:0.8;" x="221.4" xlink:href="#m2853fa8ffc" y="214.2"/>
      </g>
     </g>
     <g id="text_5">
      <!-- 0.00 -->
      <g transform="translate(210.267188 225.298437)scale(0.1 -0.1)">
       <use xlink:href="#DejaVuSans-48"/>
       <use x="63.623047" xlink:href="#DejaVuSans-46"/>
       <use x="95.410156" xlink:href="#DejaVuSans-48"/>
       <use x="159.033203" xlink:href="#DejaVuSans-48"/>
      </g>
     </g>
    </g>
    <g id="xtick_6">
     <g id="line2d_11">
      <path clip-path="url(#p9e29769c23)" d="M 259.445455 214.2 
L 259.445455 29.376 
" style="fill:none;stroke:#b2b2b2;stroke-dasharray:1.85,0.8;stroke-dashoffset:0;stroke-width:0.5;"/>
     </g>
     <g id="line2d_12">
      <g>
       <use style="stroke:#000000;stroke-width:0.8;" x="259.445455" xlink:href="#m2853fa8ffc" y="214.2"/>
      </g>
     </g>
     <g id="text_6">
      <!-- 0.25 -->
      <g transform="translate(248.312642 225.298437)scale(0.1 -0.1)">
       <use xlink:href="#DejaVuSans-48"/>
       <use x="63.623047" xlink:href="#DejaVuSans-46"/>
       <use x="95.410156" xlink:href="#DejaVuSans-50"/>
       <use x="159.033203" xlink:href="#DejaVuSans-53"/>
      </g>
     </g>
    </g>
    <g id="xtick_7">
     <g id="line2d_13">
      <path clip-path="url(#p9e29769c23)" d="M 297.490909 214.2 
L 297.490909 29.376 
" style="fill:none;stroke:#b2b2b2;stroke-dasharray:1.85,0.8;stroke-dashoffset:0;stroke-width:0.5;"/>
     </g>
     <g id="line2d_14">
      <g>
       <use style="stroke:#000000;stroke-width:0.8;" x="297.490909" xlink:href="#m2853fa8ffc" y="214.2"/>
      </g>
     </g>
     <g id="text_7">
      <!-- 0.50 -->
      <g transform="translate(286.358097 225.298437)scale(0.1 -0.1)">
       <use xlink:href="#DejaVuSans-48"/>
       <use x="63.623047" xlink:href="#DejaVuSans-46"/>
       <use x="95.410156" xlink:href="#DejaVuSans-53"/>
       <use x="159.033203" xlink:href="#DejaVuSans-48"/>
      </g>
     </g>
    </g>
    <g id="xtick_8">
     <g id="line2d_15">
      <path clip-path="url(#p9e29769c23)" d="M 335.536364 214.2 
L 335.536364 29.376 
" style="fill:none;stroke:#b2b2b2;stroke-dasharray:1.85,0.8;stroke-dashoffset:0;stroke-width:0.5;"/>
     </g>
     <g id="line2d_16">
      <g>
       <use style="stroke:#000000;stroke-width:0.8;" x="335.536364" xlink:href="#m2853fa8ffc" y="214.2"/>
      </g>
     </g>
     <g id="text_8">
      <!-- 0.75 -->
      <g transform="translate(324.403551 225.298437)scale(0.1 -0.1)">
       <use xlink:href="#DejaVuSans-48"/>
       <use x="63.623047" xlink:href="#DejaVuSans-46"/>
       <use x="95.410156" xlink:href="#DejaVuSans-55"/>
       <use x="159.033203" xlink:href="#DejaVuSans-53"/>
      </g>
     </g>
    </g>
    <g id="xtick_9">
     <g id="line2d_17">
      <path clip-path="url(#p9e29769c23)" d="M 373.581818 214.2 
L 373.581818 29.376 
" style="fill:none;stroke:#b2b2b2;stroke-dasharray:1.85,0.8;stroke-dashoffset:0;stroke-width:0.5;"/>
     </g>
     <g id="line2d_18">
      <g>
       <use style="stroke:#000000;stroke-width:0.8;" x="373.581818" xlink:href="#m2853fa8ffc" y="214.2"/>
      </g>
     </g>
     <g id="text_9">
      <!-- 1.00 -->
      <g transform="translate(362.449006 225.298437)scale(0.1 -0.1)">
       <use xlink:href="#DejaVuSans-49"/>
       <use x="63.623047" xlink:href="#DejaVuSans-46"/>
       <use x="95.410156" xlink:href="#DejaVuSans-48"/>
       <use x="159.033203" xlink:href="#DejaVuSans-48"/>
      </g>
     </g>
    </g>
    <g id="text_10">
     <!-- $x$ -->
     <defs>
      <path d="M 7.8125 2.875 
Q 9.578125 1.515625 12.796875 1.515625 
Q 15.921875 1.515625 18.3125 4.515625 
Q 20.703125 7.515625 21.578125 11.078125 
L 26.125 28.8125 
Q 27.203125 33.640625 27.203125 35.40625 
Q 27.203125 37.890625 25.8125 39.75 
Q 24.421875 41.609375 21.921875 41.609375 
Q 18.75 41.609375 15.96875 39.625 
Q 13.1875 37.640625 11.28125 34.59375 
Q 9.375 31.546875 8.59375 28.421875 
Q 8.40625 27.78125 7.8125 27.78125 
L 6.59375 27.78125 
Q 5.8125 27.78125 5.8125 28.71875 
L 5.8125 29 
Q 6.78125 32.71875 9.125 36.25 
Q 11.46875 39.796875 14.859375 41.984375 
Q 18.265625 44.1875 22.125 44.1875 
Q 25.78125 44.1875 28.734375 42.234375 
Q 31.6875 40.28125 32.90625 36.921875 
Q 34.625 39.984375 37.28125 42.078125 
Q 39.9375 44.1875 43.109375 44.1875 
Q 45.265625 44.1875 47.5 43.421875 
Q 49.75 42.671875 51.171875 41.109375 
Q 52.59375 39.546875 52.59375 37.203125 
Q 52.59375 34.671875 50.953125 32.828125 
Q 49.3125 31 46.78125 31 
Q 45.171875 31 44.09375 32.03125 
Q 43.015625 33.0625 43.015625 34.625 
Q 43.015625 36.71875 44.453125 38.296875 
Q 45.90625 39.890625 47.90625 40.1875 
Q 46.09375 41.609375 42.921875 41.609375 
Q 39.703125 41.609375 37.328125 38.625 
Q 34.96875 35.640625 33.984375 31.984375 
L 29.59375 14.3125 
Q 28.515625 10.296875 28.515625 7.71875 
Q 28.515625 5.171875 29.953125 3.34375 
Q 31.390625 1.515625 33.796875 1.515625 
Q 38.484375 1.515625 42.15625 5.640625 
Q 45.84375 9.765625 47.015625 14.703125 
Q 47.21875 15.28125 47.796875 15.28125 
L 49.03125 15.28125 
Q 49.421875 15.28125 49.65625 15.015625 
Q 49.90625 14.75 49.90625 14.40625 
Q 49.90625 14.3125 49.8125 14.109375 
Q 48.390625 8.15625 43.84375 3.515625 
Q 39.3125 -1.125 33.59375 -1.125 
Q 29.9375 -1.125 26.984375 0.84375 
Q 24.03125 2.828125 22.796875 6.203125 
Q 21.234375 3.265625 18.46875 1.0625 
Q 15.71875 -1.125 12.59375 -1.125 
Q 10.453125 -1.125 8.171875 -0.359375 
Q 5.90625 0.390625 4.484375 1.953125 
Q 3.078125 3.515625 3.078125 5.90625 
Q 3.078125 8.25 4.703125 10.171875 
Q 6.34375 12.109375 8.796875 12.109375 
Q 10.453125 12.109375 11.578125 11.109375 
Q 12.703125 10.109375 12.703125 8.5 
Q 12.703125 6.390625 11.296875 4.828125 
Q 9.90625 3.265625 7.8125 2.875 
z
" id="Cmmi10-120"/>
     </defs>
     <g transform="translate(217.92 240.49625)scale(0.12 -0.12)">
      <use transform="translate(0 0.8125)" xlink:href="#Cmmi10-120"/>
     </g>
    </g>
   </g>
   <g id="matplotlib.axis_2">
    <g id="ytick_1">
     <g id="line2d_19">
      <path clip-path="url(#p9e29769c23)" d="M 54 200.010923 
L 388.8 200.010923 
" style="fill:none;stroke:#b2b2b2;stroke-dasharray:1.85,0.8;stroke-dashoffset:0;stroke-width:0.5;"/>
     </g>
     <g id="line2d_20">
      <defs>
       <path d="M 0 0 
L 3.5 0 
" id="mda7b0f6f5f" style="stroke:#000000;stroke-width:0.8;"/>
      </defs>
      <g>
       <use style="stroke:#000000;stroke-width:0.8;" x="54" xlink:href="#mda7b0f6f5f" y="200.010923"/>
      </g>
     </g>
     <g id="text_11">
      <!-- −0.75 -->
      <g transform="translate(19.854687 203.810142)scale(0.1 -0.1)">
       <use xlink:href="#DejaVuSans-8722"/>
       <use x="83.789062" xlink:href="#DejaVuSans-48"/>
       <use x="147.412109" xlink:href="#DejaVuSans-46"/>
       <use x="179.199219" xlink:href="#DejaVuSans-55"/>
       <use x="242.822266" xlink:href="#DejaVuSans-53"/>
      </g>
     </g>
    </g>
    <g id="ytick_2">
     <g id="line2d_21">
      <path clip-path="url(#p9e29769c23)" d="M 54 175.706083 
L 388.8 175.706083 
" style="fill:none;stroke:#b2b2b2;stroke-dasharray:1.85,0.8;stroke-dashoffset:0;stroke-width:0.5;"/>
     </g>
     <g id="line2d_22">
      <g>
       <use style="stroke:#000000;stroke-width:0.8;" x="54" xlink:href="#mda7b0f6f5f" y="175.706083"/>
      </g>
     </g>
     <g id="text_12">
      <!-- −0.50 -->
      <g transform="translate(19.854687 179.505302)scale(0.1 -0.1)">
       <use xlink:href="#DejaVuSans-8722"/>
       <use x="83.789062" xlink:href="#DejaVuSans-48"/>
       <use x="147.412109" xlink:href="#DejaVuSans-46"/>
       <use x="179.199219" xlink:href="#DejaVuSans-53"/>
       <use x="242.822266" xlink:href="#DejaVuSans-48"/>
      </g>
     </g>
    </g>
    <g id="ytick_3">
     <g id="line2d_23">
      <path clip-path="url(#p9e29769c23)" d="M 54 151.401243 
L 388.8 151.401243 
" style="fill:none;stroke:#b2b2b2;stroke-dasharray:1.85,0.8;stroke-dashoffset:0;stroke-width:0.5;"/>
     </g>
     <g id="line2d_24">
      <g>
       <use style="stroke:#000000;stroke-width:0.8;" x="54" xlink:href="#mda7b0f6f5f" y="151.401243"/>
      </g>
     </g>
     <g id="text_13">
      <!-- −0.25 -->
      <g transform="translate(19.854687 155.200462)scale(0.1 -0.1)">
       <use xlink:href="#DejaVuSans-8722"/>
       <use x="83.789062" xlink:href="#DejaVuSans-48"/>
       <use x="147.412109" xlink:href="#DejaVuSans-46"/>
       <use x="179.199219" xlink:href="#DejaVuSans-50"/>
       <use x="242.822266" xlink:href="#DejaVuSans-53"/>
      </g>
     </g>
    </g>
    <g id="ytick_4">
     <g id="line2d_25">
      <path clip-path="url(#p9e29769c23)" d="M 54 127.096403 
L 388.8 127.096403 
" style="fill:none;stroke:#b2b2b2;stroke-dasharray:1.85,0.8;stroke-dashoffset:0;stroke-width:0.5;"/>
     </g>
     <g id="line2d_26">
      <g>
       <use style="stroke:#000000;stroke-width:0.8;" x="54" xlink:href="#mda7b0f6f5f" y="127.096403"/>
      </g>
     </g>
     <g id="text_14">
      <!-- 0.00 -->
      <g transform="translate(28.234375 130.895622)scale(0.1 -0.1)">
       <use xlink:href="#DejaVuSans-48"/>
       <use x="63.623047" xlink:href="#DejaVuSans-46"/>
       <use x="95.410156" xlink:href="#DejaVuSans-48"/>
       <use x="159.033203" xlink:href="#DejaVuSans-48"/>
      </g>
     </g>
    </g>
    <g id="ytick_5">
     <g id="line2d_27">
      <path clip-path="url(#p9e29769c23)" d="M 54 102.791563 
L 388.8 102.791563 
" style="fill:none;stroke:#b2b2b2;stroke-dasharray:1.85,0.8;stroke-dashoffset:0;stroke-width:0.5;"/>
     </g>
     <g id="line2d_28">
      <g>
       <use style="stroke:#000000;stroke-width:0.8;" x="54" xlink:href="#mda7b0f6f5f" y="102.791563"/>
      </g>
     </g>
     <g id="text_15">
      <!-- 0.25 -->
      <g transform="translate(28.234375 106.590782)scale(0.1 -0.1)">
       <use xlink:href="#DejaVuSans-48"/>
       <use x="63.623047" xlink:href="#DejaVuSans-46"/>
       <use x="95.410156" xlink:href="#DejaVuSans-50"/>
       <use x="159.033203" xlink:href="#DejaVuSans-53"/>
      </g>
     </g>
    </g>
    <g id="ytick_6">
     <g id="line2d_29">
      <path clip-path="url(#p9e29769c23)" d="M 54 78.486723 
L 388.8 78.486723 
" style="fill:none;stroke:#b2b2b2;stroke-dasharray:1.85,0.8;stroke-dashoffset:0;stroke-width:0.5;"/>
     </g>
     <g id="line2d_30">
      <g>
       <use style="stroke:#000000;stroke-width:0.8;" x="54" xlink:href="#mda7b0f6f5f" y="78.486723"/>
      </g>
     </g>
     <g id="text_16">
      <!-- 0.50 -->
      <g transform="translate(28.234375 82.285942)scale(0.1 -0.1)">
       <use xlink:href="#DejaVuSans-48"/>
       <use x="63.623047" xlink:href="#DejaVuSans-46"/>
       <use x="95.410156" xlink:href="#DejaVuSans-53"/>
       <use x="159.033203" xlink:href="#DejaVuSans-48"/>
      </g>
     </g>
    </g>
    <g id="ytick_7">
     <g id="line2d_31">
      <path clip-path="url(#p9e29769c23)" d="M 54 54.181883 
L 388.8 54.181883 
" style="fill:none;stroke:#b2b2b2;stroke-dasharray:1.85,0.8;stroke-dashoffset:0;stroke-width:0.5;"/>
     </g>
     <g id="line2d_32">
      <g>
       <use style="stroke:#000000;stroke-width:0.8;" x="54" xlink:href="#mda7b0f6f5f" y="54.181883"/>
      </g>
     </g>
     <g id="text_17">
      <!-- 0.75 -->
      <g transform="translate(28.234375 57.981102)scale(0.1 -0.1)">
       <use xlink:href="#DejaVuSans-48"/>
       <use x="63.623047" xlink:href="#DejaVuSans-46"/>
       <use x="95.410156" xlink:href="#DejaVuSans-55"/>
       <use x="159.033203" xlink:href="#DejaVuSans-53"/>
      </g>
     </g>
    </g>
    <g id="ytick_8">
     <g id="line2d_33">
      <path clip-path="url(#p9e29769c23)" d="M 54 29.877043 
L 388.8 29.877043 
" style="fill:none;stroke:#b2b2b2;stroke-dasharray:1.85,0.8;stroke-dashoffset:0;stroke-width:0.5;"/>
     </g>
     <g id="line2d_34">
      <g>
       <use style="stroke:#000000;stroke-width:0.8;" x="54" xlink:href="#mda7b0f6f5f" y="29.877043"/>
      </g>
     </g>
     <g id="text_18">
      <!-- 1.00 -->
      <g transform="translate(28.234375 33.676262)scale(0.1 -0.1)">
       <use xlink:href="#DejaVuSans-49"/>
       <use x="63.623047" xlink:href="#DejaVuSans-46"/>
       <use x="95.410156" xlink:href="#DejaVuSans-48"/>
       <use x="159.033203" xlink:href="#DejaVuSans-48"/>
      </g>
     </g>
    </g>
    <g id="text_19">
     <!-- $f(x)$ -->
     <defs>
      <path d="M 9.71875 -16.5 
Q 11.578125 -17.921875 14.203125 -17.921875 
Q 17.78125 -17.921875 20.015625 -10.015625 
Q 20.953125 -6.203125 25.09375 15.09375 
L 29.6875 39.59375 
L 21.09375 39.59375 
Q 20.125 39.59375 20.125 40.921875 
Q 20.515625 43.109375 21.390625 43.109375 
L 30.328125 43.109375 
L 31.5 49.609375 
Q 32.078125 52.640625 32.5625 54.8125 
Q 33.0625 56.984375 33.625 58.828125 
Q 34.1875 60.6875 35.296875 62.984375 
Q 37.015625 66.265625 39.921875 68.390625 
Q 42.828125 70.515625 46.1875 70.515625 
Q 48.390625 70.515625 50.46875 69.703125 
Q 52.546875 68.890625 53.859375 67.28125 
Q 55.171875 65.671875 55.171875 63.484375 
Q 55.171875 60.9375 53.484375 59.046875 
Q 51.8125 57.171875 49.421875 57.171875 
Q 47.796875 57.171875 46.65625 58.171875 
Q 45.515625 59.1875 45.515625 60.796875 
Q 45.515625 62.984375 47 64.625 
Q 48.484375 66.265625 50.6875 66.5 
Q 48.828125 67.921875 46.09375 67.921875 
Q 44.578125 67.921875 43.234375 66.5 
Q 41.890625 65.09375 41.5 63.484375 
Q 40.875 60.9375 38.71875 49.703125 
L 37.5 43.109375 
L 47.796875 43.109375 
Q 48.78125 43.109375 48.78125 41.796875 
Q 48.734375 41.546875 48.578125 40.9375 
Q 48.4375 40.328125 48.171875 39.953125 
Q 47.90625 39.59375 47.515625 39.59375 
L 36.8125 39.59375 
L 32.171875 15.1875 
Q 31.296875 9.859375 30.140625 4.359375 
Q 29 -1.125 26.921875 -6.90625 
Q 24.859375 -12.703125 21.625 -16.609375 
Q 18.40625 -20.515625 14.015625 -20.515625 
Q 10.640625 -20.515625 7.984375 -18.578125 
Q 5.328125 -16.65625 5.328125 -13.484375 
Q 5.328125 -10.9375 6.953125 -9.046875 
Q 8.59375 -7.171875 11.078125 -7.171875 
Q 12.75 -7.171875 13.859375 -8.171875 
Q 14.984375 -9.1875 14.984375 -10.796875 
Q 14.984375 -12.9375 13.390625 -14.71875 
Q 11.8125 -16.5 9.71875 -16.5 
z
" id="Cmmi10-102"/>
      <path d="M 31 -24.8125 
Q 25.4375 -20.40625 21.40625 -14.71875 
Q 17.390625 -9.03125 14.8125 -2.578125 
Q 12.25 3.859375 10.984375 10.890625 
Q 9.71875 17.921875 9.71875 25 
Q 9.71875 32.171875 10.984375 39.203125 
Q 12.25 46.234375 14.859375 52.734375 
Q 17.484375 59.234375 21.53125 64.890625 
Q 25.59375 70.5625 31 74.8125 
Q 31 75 31.5 75 
L 32.421875 75 
Q 32.71875 75 32.953125 74.734375 
Q 33.203125 74.46875 33.203125 74.125 
Q 33.203125 73.6875 33.015625 73.484375 
Q 28.125 68.703125 24.875 63.234375 
Q 21.625 57.765625 19.640625 51.578125 
Q 17.671875 45.40625 16.796875 38.78125 
Q 15.921875 32.171875 15.921875 25 
Q 15.921875 -6.78125 32.90625 -23.296875 
Q 33.203125 -23.578125 33.203125 -24.125 
Q 33.203125 -24.359375 32.9375 -24.671875 
Q 32.671875 -25 32.421875 -25 
L 31.5 -25 
Q 31 -25 31 -24.8125 
z
" id="Cmr10-40"/>
      <path d="M 6.5 -25 
Q 5.609375 -25 5.609375 -24.125 
Q 5.609375 -23.6875 5.8125 -23.484375 
Q 22.90625 -6.78125 22.90625 25 
Q 22.90625 56.78125 6 73.296875 
Q 5.609375 73.53125 5.609375 74.125 
Q 5.609375 74.46875 5.875 74.734375 
Q 6.15625 75 6.5 75 
L 7.421875 75 
Q 7.71875 75 7.90625 74.8125 
Q 15.09375 69.140625 19.875 61.03125 
Q 24.65625 52.9375 26.875 43.75 
Q 29.109375 34.578125 29.109375 25 
Q 29.109375 17.921875 27.90625 11.0625 
Q 26.703125 4.203125 24.09375 -2.453125 
Q 21.484375 -9.125 17.484375 -14.765625 
Q 13.484375 -20.40625 7.90625 -24.8125 
Q 7.71875 -25 7.421875 -25 
z
" id="Cmr10-41"/>
     </defs>
     <g transform="translate(12.854687 132.828)rotate(-90)scale(0.12 -0.12)">
      <use xlink:href="#Cmmi10-102"/>
      <use transform="translate(48.876953 0)" xlink:href="#Cmr10-40"/>
      <use transform="translate(87.695312 0)" xlink:href="#Cmmi10-120"/>
      <use transform="translate(144.775391 0)" xlink:href="#Cmr10-41"/>
     </g>
    </g>
   </g>
   <g id="line2d_35">
    <path clip-path="url(#p9e29769c23)" d="M 69.218182 43.127834 
L 70.132187 50.499138 
L 71.960197 68.168201 
L 73.17887 79.110154 
L 74.092875 85.430934 
L 74.702211 88.394236 
L 75.311548 90.210985 
L 75.616216 90.668858 
L 75.920885 90.824629 
L 76.225553 90.683432 
L 76.530221 90.255814 
L 77.139558 88.609954 
L 77.748894 86.070943 
L 78.662899 81.121496 
L 81.100246 66.936778 
L 82.318919 61.396106 
L 83.537592 56.965823 
L 85.365602 51.347825 
L 86.584275 48.186077 
L 87.193612 46.992632 
L 87.802948 46.205778 
L 88.107617 45.999604 
L 88.412285 45.93615 
L 88.716953 46.028702 
L 89.021622 46.290774 
L 89.32629 46.736309 
L 89.935627 48.234876 
L 90.544963 50.629009 
L 91.1543 53.959526 
L 92.372973 62.54352 
L 92.98231 66.481174 
L 93.591646 68.880904 
L 93.896314 69.256671 
L 94.200983 69.035452 
L 94.505651 68.24886 
L 95.114988 65.337949 
L 96.942998 54.480966 
L 97.552334 52.193832 
L 98.161671 50.776184 
L 98.771007 50.093845 
L 99.075676 49.976612 
L 99.685012 50.083951 
L 100.294349 50.50655 
L 102.122359 52.05473 
L 102.731695 52.245125 
L 103.341032 52.184238 
L 103.950369 51.90274 
L 104.864373 51.214856 
L 106.692383 49.738778 
L 107.606388 49.230783 
L 108.520393 48.929081 
L 109.434398 48.818703 
L 110.653071 48.919584 
L 112.176413 49.339627 
L 115.832432 50.600142 
L 117.051106 50.698075 
L 119.79312 50.691308 
L 120.707125 50.935673 
L 121.62113 51.399676 
L 122.535135 52.112564 
L 123.753808 53.44432 
L 125.27715 55.206062 
L 125.886486 55.644449 
L 126.495823 55.841028 
L 127.409828 55.788388 
L 128.93317 55.564773 
L 129.847174 55.676247 
L 130.761179 56.006903 
L 131.979853 56.693006 
L 134.112531 57.957923 
L 135.331204 58.39286 
L 137.159214 58.732824 
L 138.987224 59.130029 
L 140.510565 59.68015 
L 142.033907 60.473847 
L 143.557248 61.561706 
L 145.08059 62.988186 
L 147.517936 65.442619 
L 148.431941 65.963623 
L 149.041278 66.083693 
L 149.955283 65.961142 
L 152.392629 65.295597 
L 153.306634 65.37169 
L 154.220639 65.695676 
L 155.134644 66.252114 
L 158.181327 68.425465 
L 159.095332 68.637104 
L 160.618673 68.894134 
L 161.532678 69.320921 
L 162.142015 69.811191 
L 162.751351 70.510524 
L 163.360688 71.455316 
L 164.274693 73.381634 
L 165.493366 76.77002 
L 167.016708 81.159236 
L 167.930713 83.103054 
L 168.540049 83.978194 
L 169.149386 84.539753 
L 169.758722 84.849348 
L 170.672727 85.006272 
L 173.414742 85.148803 
L 174.328747 85.475835 
L 175.242752 86.022035 
L 176.461425 87.071162 
L 178.594103 89.126193 
L 179.20344 89.459952 
L 179.812776 89.532755 
L 180.422113 89.289599 
L 181.03145 88.726329 
L 181.945455 87.431586 
L 183.164128 85.587324 
L 183.773464 84.96777 
L 184.382801 84.730534 
L 184.687469 84.789917 
L 184.992138 84.98488 
L 185.601474 85.830446 
L 186.210811 87.358747 
L 186.820147 89.625395 
L 187.734152 94.241186 
L 188.952826 100.611477 
L 189.562162 102.45401 
L 189.86683 102.817716 
L 190.171499 102.798946 
L 190.476167 102.432777 
L 191.085504 100.929751 
L 192.304177 97.185881 
L 192.913514 96.025089 
L 193.218182 95.761121 
L 193.52285 95.734445 
L 193.827518 95.958166 
L 194.132187 96.442433 
L 194.741523 98.223857 
L 195.35086 101.120324 
L 195.960197 105.115297 
L 196.874201 112.853348 
L 199.00688 132.400343 
L 199.616216 136.331352 
L 200.225553 139.023382 
L 200.834889 140.478002 
L 201.139558 140.777243 
L 201.444226 140.820125 
L 201.748894 140.63129 
L 202.358231 139.658595 
L 202.967568 138.050018 
L 203.881572 134.800944 
L 205.404914 128.195986 
L 207.84226 117.598213 
L 209.365602 112.177653 
L 211.193612 106.70525 
L 213.935627 98.968468 
L 214.849631 97.128101 
L 215.458968 96.476631 
L 215.763636 96.381335 
L 216.068305 96.466835 
L 216.372973 96.754977 
L 216.677641 97.269184 
L 217.286978 99.076975 
L 217.896314 102.093275 
L 218.505651 106.458114 
L 219.419656 115.203678 
L 220.333661 124.138326 
L 220.942998 127.737169 
L 221.247666 128.283828 
L 221.552334 127.881486 
L 221.857002 126.554102 
L 222.466339 121.631964 
L 224.599017 100.285646 
L 225.208354 96.656186 
L 225.81769 94.26236 
L 226.427027 92.853517 
L 227.036364 92.193457 
L 227.6457 92.08683 
L 228.255037 92.373289 
L 229.169042 93.247969 
L 235.262408 100.445276 
L 237.090418 103.430515 
L 238.918428 106.394799 
L 239.832432 107.567689 
L 240.441769 108.123223 
L 241.051106 108.419962 
L 241.660442 108.377905 
L 242.269779 107.912777 
L 242.879115 106.952816 
L 243.488452 105.463903 
L 244.402457 102.326583 
L 247.144472 91.647354 
L 247.753808 90.17392 
L 248.363145 89.225392 
L 248.972482 88.810048 
L 249.27715 88.800641 
L 249.581818 88.921202 
L 250.191155 89.537411 
L 250.800491 90.596752 
L 252.628501 94.322162 
L 252.93317 94.571791 
L 253.237838 94.611099 
L 253.542506 94.430425 
L 253.847174 94.040115 
L 254.456511 92.758909 
L 256.284521 88.189751 
L 256.893857 87.293098 
L 257.503194 86.859141 
L 257.807862 86.814858 
L 258.417199 87.060712 
L 259.026536 87.731916 
L 259.635872 88.791204 
L 260.549877 90.957536 
L 262.987224 97.265178 
L 263.901229 98.861872 
L 264.815233 100.011648 
L 266.947912 102.420321 
L 267.861916 103.939106 
L 268.775921 106.012545 
L 269.689926 108.756937 
L 270.603931 112.231663 
L 271.822604 117.897891 
L 273.650614 126.757939 
L 274.259951 128.794737 
L 274.564619 129.436234 
L 274.869287 129.76425 
L 275.173956 129.739564 
L 275.478624 129.333417 
L 275.783292 128.531076 
L 276.392629 125.764738 
L 277.001966 121.676994 
L 279.439312 102.886409 
L 280.048649 99.964244 
L 280.657985 98.183971 
L 280.962654 97.727114 
L 281.267322 97.555472 
L 281.57199 97.663464 
L 281.876658 98.042592 
L 282.485995 99.555424 
L 283.095332 101.890936 
L 284.618673 108.266667 
L 284.923342 109.001606 
L 285.22801 109.405297 
L 285.532678 109.460926 
L 285.837346 109.184897 
L 286.446683 107.85047 
L 287.665356 104.365338 
L 287.970025 103.806395 
L 288.274693 103.50375 
L 288.579361 103.50597 
L 288.884029 103.85484 
L 289.188698 104.587629 
L 289.493366 105.738683 
L 290.102703 109.419759 
L 290.712039 115.096598 
L 291.321376 122.802349 
L 292.235381 137.382145 
L 293.454054 157.168843 
L 294.063391 164.0507 
L 294.368059 166.21247 
L 294.672727 167.423428 
L 294.977396 167.673384 
L 295.282064 167.000788 
L 295.586732 165.485647 
L 296.196069 160.393466 
L 297.110074 149.644964 
L 298.633415 131.144102 
L 299.54742 122.547971 
L 300.461425 116.468718 
L 301.070762 113.785221 
L 301.680098 112.131958 
L 301.984767 111.673613 
L 302.289435 111.452164 
L 302.594103 111.461784 
L 302.898771 111.696891 
L 303.20344 112.151729 
L 303.812776 113.692985 
L 304.422113 116.009397 
L 305.336118 120.622066 
L 306.859459 128.838932 
L 307.468796 130.966069 
L 307.773464 131.529254 
L 308.078133 131.697301 
L 308.382801 131.445642 
L 308.687469 130.771525 
L 309.296806 128.262138 
L 310.210811 122.527382 
L 311.429484 114.806394 
L 312.038821 112.313897 
L 312.343489 111.592479 
L 312.648157 111.260051 
L 312.952826 111.332335 
L 313.257494 111.813439 
L 313.562162 112.693794 
L 314.171499 115.523665 
L 315.69484 124.571662 
L 315.999509 125.508855 
L 316.304177 125.753999 
L 316.608845 125.191735 
L 316.913514 123.773683 
L 317.52285 118.561659 
L 318.436855 107.104678 
L 319.35086 95.739266 
L 319.960197 89.809151 
L 320.569533 85.463867 
L 321.17887 82.545144 
L 321.788206 80.787275 
L 322.397543 79.923235 
L 322.702211 79.749759 
L 323.311548 79.775826 
L 324.225553 80.320641 
L 325.139558 80.812804 
L 325.748894 80.814623 
L 326.358231 80.446673 
L 326.967568 79.708886 
L 327.881572 78.064218 
L 331.232924 71.166661 
L 332.451597 69.361822 
L 333.67027 67.998014 
L 334.888943 66.995355 
L 336.412285 66.072318 
L 337.935627 65.158554 
L 338.849631 64.387957 
L 339.763636 63.329567 
L 340.98231 61.506226 
L 342.810319 58.708943 
L 343.724324 57.698679 
L 344.638329 57.084236 
L 345.247666 56.904994 
L 346.161671 56.945009 
L 347.685012 57.236097 
L 348.294349 57.036271 
L 348.903686 56.473395 
L 349.513022 55.564103 
L 351.950369 51.328157 
L 352.864373 50.282747 
L 354.083047 49.301379 
L 355.606388 48.43828 
L 360.481081 46.194726 
L 366.879115 43.259563 
L 368.707125 41.957662 
L 371.144472 39.87609 
L 373.581818 37.777091 
L 373.581818 37.777091 
" style="fill:none;stroke:#0000ff;stroke-linecap:square;stroke-opacity:0.3;stroke-width:2;"/>
   </g>
   <g id="line2d_36">
    <defs>
     <path d="M -2.5 2.5 
L 2.5 -2.5 
M -2.5 -2.5 
L 2.5 2.5 
" id="me6af19f202" style="stroke:#0000ff;stroke-opacity:0.5;"/>
    </defs>
    <g clip-path="url(#p9e29769c23)">
     <use style="fill:#0000ff;fill-opacity:0.5;stroke:#0000ff;stroke-opacity:0.5;" x="196.144516" xlink:href="#me6af19f202" y="106.525001"/>
     <use style="fill:#0000ff;fill-opacity:0.5;stroke:#0000ff;stroke-opacity:0.5;" x="288.458764" xlink:href="#me6af19f202" y="103.465843"/>
     <use style="fill:#0000ff;fill-opacity:0.5;stroke:#0000ff;stroke-opacity:0.5;" x="69.252993" xlink:href="#me6af19f202" y="43.376656"/>
     <use style="fill:#0000ff;fill-opacity:0.5;stroke:#0000ff;stroke-opacity:0.5;" x="161.237223" xlink:href="#me6af19f202" y="69.147122"/>
     <use style="fill:#0000ff;fill-opacity:0.5;stroke:#0000ff;stroke-opacity:0.5;" x="113.885338" xlink:href="#me6af19f202" y="50.004327"/>
     <use style="fill:#0000ff;fill-opacity:0.5;stroke:#0000ff;stroke-opacity:0.5;" x="97.322692" xlink:href="#me6af19f202" y="52.948893"/>
     <use style="fill:#0000ff;fill-opacity:0.5;stroke:#0000ff;stroke-opacity:0.5;" x="125.909017" xlink:href="#me6af19f202" y="55.656013"/>
     <use style="fill:#0000ff;fill-opacity:0.5;stroke:#0000ff;stroke-opacity:0.5;" x="174.394301" xlink:href="#me6af19f202" y="85.507575"/>
     <use style="fill:#0000ff;fill-opacity:0.5;stroke:#0000ff;stroke-opacity:0.5;" x="189.979773" xlink:href="#me6af19f202" y="102.854207"/>
     <use style="fill:#0000ff;fill-opacity:0.5;stroke:#0000ff;stroke-opacity:0.5;" x="233.214402" xlink:href="#me6af19f202" y="97.784838"/>
     <use style="fill:#0000ff;fill-opacity:0.5;stroke:#0000ff;stroke-opacity:0.5;" x="196.805749" xlink:href="#me6af19f202" y="112.218075"/>
     <use style="fill:#0000ff;fill-opacity:0.5;stroke:#0000ff;stroke-opacity:0.5;" x="277.774081" xlink:href="#me6af19f202" y="115.37999"/>
     <use style="fill:#0000ff;fill-opacity:0.5;stroke:#0000ff;stroke-opacity:0.5;" x="131.446012" xlink:href="#me6af19f202" y="56.367817"/>
     <use style="fill:#0000ff;fill-opacity:0.5;stroke:#0000ff;stroke-opacity:0.5;" x="336.485198" xlink:href="#me6af19f202" y="66.032263"/>
     <use style="fill:#0000ff;fill-opacity:0.5;stroke:#0000ff;stroke-opacity:0.5;" x="77.553969" xlink:href="#me6af19f202" y="86.966483"/>
     <use style="fill:#0000ff;fill-opacity:0.5;stroke:#0000ff;stroke-opacity:0.5;" x="273.284111" xlink:href="#me6af19f202" y="125.180807"/>
     <use style="fill:#0000ff;fill-opacity:0.5;stroke:#0000ff;stroke-opacity:0.5;" x="196.230589" xlink:href="#me6af19f202" y="107.212541"/>
     <use style="fill:#0000ff;fill-opacity:0.5;stroke:#0000ff;stroke-opacity:0.5;" x="239.26305" xlink:href="#me6af19f202" y="106.875152"/>
     <use style="fill:#0000ff;fill-opacity:0.5;stroke:#0000ff;stroke-opacity:0.5;" x="111.946861" xlink:href="#me6af19f202" y="49.260791"/>
     <use style="fill:#0000ff;fill-opacity:0.5;stroke:#0000ff;stroke-opacity:0.5;" x="129.513071" xlink:href="#me6af19f202" y="55.608568"/>
     <use style="fill:#0000ff;fill-opacity:0.5;stroke:#0000ff;stroke-opacity:0.5;" x="312.935711" xlink:href="#me6af19f202" y="111.317418"/>
     <use style="fill:#0000ff;fill-opacity:0.5;stroke:#0000ff;stroke-opacity:0.5;" x="363.921796" xlink:href="#me6af19f202" y="44.751558"/>
     <use style="fill:#0000ff;fill-opacity:0.5;stroke:#0000ff;stroke-opacity:0.5;" x="164.613104" xlink:href="#me6af19f202" y="74.245336"/>
     <use style="fill:#0000ff;fill-opacity:0.5;stroke:#0000ff;stroke-opacity:0.5;" x="279.936011" xlink:href="#me6af19f202" y="100.419733"/>
     <use style="fill:#0000ff;fill-opacity:0.5;stroke:#0000ff;stroke-opacity:0.5;" x="335.959171" xlink:href="#me6af19f202" y="66.32475"/>
     <use style="fill:#0000ff;fill-opacity:0.5;stroke:#0000ff;stroke-opacity:0.5;" x="341.503919" xlink:href="#me6af19f202" y="60.659636"/>
     <use style="fill:#0000ff;fill-opacity:0.5;stroke:#0000ff;stroke-opacity:0.5;" x="95.102547" xlink:href="#me6af19f202" y="65.410437"/>
     <use style="fill:#0000ff;fill-opacity:0.5;stroke:#0000ff;stroke-opacity:0.5;" x="81.105038" xlink:href="#me6af19f202" y="66.912383"/>
     <use style="fill:#0000ff;fill-opacity:0.5;stroke:#0000ff;stroke-opacity:0.5;" x="120.908386" xlink:href="#me6af19f202" y="51.017836"/>
     <use style="fill:#0000ff;fill-opacity:0.5;stroke:#0000ff;stroke-opacity:0.5;" x="336.492827" xlink:href="#me6af19f202" y="66.028073"/>
     <use style="fill:#0000ff;fill-opacity:0.5;stroke:#0000ff;stroke-opacity:0.5;" x="99.151382" xlink:href="#me6af19f202" y="49.967069"/>
     <use style="fill:#0000ff;fill-opacity:0.5;stroke:#0000ff;stroke-opacity:0.5;" x="197.38803" xlink:href="#me6af19f202" y="117.783827"/>
     <use style="fill:#0000ff;fill-opacity:0.5;stroke:#0000ff;stroke-opacity:0.5;" x="360.764922" xlink:href="#me6af19f202" y="46.067912"/>
     <use style="fill:#0000ff;fill-opacity:0.5;stroke:#0000ff;stroke-opacity:0.5;" x="231.494307" xlink:href="#me6af19f202" y="95.957739"/>
     <use style="fill:#0000ff;fill-opacity:0.5;stroke:#0000ff;stroke-opacity:0.5;" x="279.800416" xlink:href="#me6af19f202" y="101.019695"/>
     <use style="fill:#0000ff;fill-opacity:0.5;stroke:#0000ff;stroke-opacity:0.5;" x="165.249667" xlink:href="#me6af19f202" y="76.042219"/>
     <use style="fill:#0000ff;fill-opacity:0.5;stroke:#0000ff;stroke-opacity:0.5;" x="278.164101" xlink:href="#me6af19f202" y="112.090258"/>
     <use style="fill:#0000ff;fill-opacity:0.5;stroke:#0000ff;stroke-opacity:0.5;" x="323.247886" xlink:href="#me6af19f202" y="79.754783"/>
     <use style="fill:#0000ff;fill-opacity:0.5;stroke:#0000ff;stroke-opacity:0.5;" x="74.784468" xlink:href="#me6af19f202" y="88.708392"/>
     <use style="fill:#0000ff;fill-opacity:0.5;stroke:#0000ff;stroke-opacity:0.5;" x="297.534833" xlink:href="#me6af19f202" y="144.221212"/>
     <use style="fill:#0000ff;fill-opacity:0.5;stroke:#0000ff;stroke-opacity:0.5;" x="370.191539" xlink:href="#me6af19f202" y="40.717992"/>
     <use style="fill:#0000ff;fill-opacity:0.5;stroke:#0000ff;stroke-opacity:0.5;" x="296.932601" xlink:href="#me6af19f202" y="151.884439"/>
     <use style="fill:#0000ff;fill-opacity:0.5;stroke:#0000ff;stroke-opacity:0.5;" x="154.575135" xlink:href="#me6af19f202" y="65.885717"/>
     <use style="fill:#0000ff;fill-opacity:0.5;stroke:#0000ff;stroke-opacity:0.5;" x="309.446108" xlink:href="#me6af19f202" y="127.447721"/>
     <use style="fill:#0000ff;fill-opacity:0.5;stroke:#0000ff;stroke-opacity:0.5;" x="100.636425" xlink:href="#me6af19f202" y="50.819216"/>
     <use style="fill:#0000ff;fill-opacity:0.5;stroke:#0000ff;stroke-opacity:0.5;" x="205.540684" xlink:href="#me6af19f202" y="127.578052"/>
     <use style="fill:#0000ff;fill-opacity:0.5;stroke:#0000ff;stroke-opacity:0.5;" x="345.761613" xlink:href="#me6af19f202" y="56.887939"/>
     <use style="fill:#0000ff;fill-opacity:0.5;stroke:#0000ff;stroke-opacity:0.5;" x="158.583652" xlink:href="#me6af19f202" y="68.544223"/>
     <use style="fill:#0000ff;fill-opacity:0.5;stroke:#0000ff;stroke-opacity:0.5;" x="156.80653" xlink:href="#me6af19f202" y="67.611223"/>
     <use style="fill:#0000ff;fill-opacity:0.5;stroke:#0000ff;stroke-opacity:0.5;" x="108.794151" xlink:href="#me6af19f202" y="48.877123"/>
     <use style="fill:#0000ff;fill-opacity:0.5;stroke:#0000ff;stroke-opacity:0.5;" x="75.11278" xlink:href="#me6af19f202" y="89.749267"/>
     <use style="fill:#0000ff;fill-opacity:0.5;stroke:#0000ff;stroke-opacity:0.5;" x="275.831033" xlink:href="#me6af19f202" y="128.369334"/>
     <use style="fill:#0000ff;fill-opacity:0.5;stroke:#0000ff;stroke-opacity:0.5;" x="133.630085" xlink:href="#me6af19f202" y="57.713874"/>
     <use style="fill:#0000ff;fill-opacity:0.5;stroke:#0000ff;stroke-opacity:0.5;" x="150.040929" xlink:href="#me6af19f202" y="65.936309"/>
     <use style="fill:#0000ff;fill-opacity:0.5;stroke:#0000ff;stroke-opacity:0.5;" x="218.835176" xlink:href="#me6af19f202" y="109.363969"/>
     <use style="fill:#0000ff;fill-opacity:0.5;stroke:#0000ff;stroke-opacity:0.5;" x="85.4598" xlink:href="#me6af19f202" y="51.080009"/>
     <use style="fill:#0000ff;fill-opacity:0.5;stroke:#0000ff;stroke-opacity:0.5;" x="243.958704" xlink:href="#me6af19f202" y="103.969406"/>
     <use style="fill:#0000ff;fill-opacity:0.5;stroke:#0000ff;stroke-opacity:0.5;" x="113.877024" xlink:href="#me6af19f202" y="50.001062"/>
     <use style="fill:#0000ff;fill-opacity:0.5;stroke:#0000ff;stroke-opacity:0.5;" x="248.581358" xlink:href="#me6af19f202" y="89.015504"/>
     <use style="fill:#0000ff;fill-opacity:0.5;stroke:#0000ff;stroke-opacity:0.5;" x="282.199181" xlink:href="#me6af19f202" y="98.724835"/>
     <use style="fill:#0000ff;fill-opacity:0.5;stroke:#0000ff;stroke-opacity:0.5;" x="100.365061" xlink:href="#me6af19f202" y="50.568333"/>
     <use style="fill:#0000ff;fill-opacity:0.5;stroke:#0000ff;stroke-opacity:0.5;" x="195.241768" xlink:href="#me6af19f202" y="100.519438"/>
     <use style="fill:#0000ff;fill-opacity:0.5;stroke:#0000ff;stroke-opacity:0.5;" x="280.568339" xlink:href="#me6af19f202" y="98.373251"/>
     <use style="fill:#0000ff;fill-opacity:0.5;stroke:#0000ff;stroke-opacity:0.5;" x="195.27929" xlink:href="#me6af19f202" y="100.72209"/>
     <use style="fill:#0000ff;fill-opacity:0.5;stroke:#0000ff;stroke-opacity:0.5;" x="84.422198" xlink:href="#me6af19f202" y="54.150203"/>
     <use style="fill:#0000ff;fill-opacity:0.5;stroke:#0000ff;stroke-opacity:0.5;" x="232.325561" xlink:href="#me6af19f202" y="96.833377"/>
     <use style="fill:#0000ff;fill-opacity:0.5;stroke:#0000ff;stroke-opacity:0.5;" x="271.253134" xlink:href="#me6af19f202" y="115.125666"/>
     <use style="fill:#0000ff;fill-opacity:0.5;stroke:#0000ff;stroke-opacity:0.5;" x="225.931704" xlink:href="#me6af19f202" y="93.931453"/>
     <use style="fill:#0000ff;fill-opacity:0.5;stroke:#0000ff;stroke-opacity:0.5;" x="356.718477" xlink:href="#me6af19f202" y="47.916994"/>
     <use style="fill:#0000ff;fill-opacity:0.5;stroke:#0000ff;stroke-opacity:0.5;" x="247.744207" xlink:href="#me6af19f202" y="90.19312"/>
     <use style="fill:#0000ff;fill-opacity:0.5;stroke:#0000ff;stroke-opacity:0.5;" x="344.180874" xlink:href="#me6af19f202" y="57.339902"/>
     <use style="fill:#0000ff;fill-opacity:0.5;stroke:#0000ff;stroke-opacity:0.5;" x="111.060483" xlink:href="#me6af19f202" y="49.005111"/>
     <use style="fill:#0000ff;fill-opacity:0.5;stroke:#0000ff;stroke-opacity:0.5;" x="111.608837" xlink:href="#me6af19f202" y="49.153331"/>
     <use style="fill:#0000ff;fill-opacity:0.5;stroke:#0000ff;stroke-opacity:0.5;" x="314.95873" xlink:href="#me6af19f202" y="120.480287"/>
     <use style="fill:#0000ff;fill-opacity:0.5;stroke:#0000ff;stroke-opacity:0.5;" x="190.25655" xlink:href="#me6af19f202" y="102.729411"/>
     <use style="fill:#0000ff;fill-opacity:0.5;stroke:#0000ff;stroke-opacity:0.5;" x="119.545987" xlink:href="#me6af19f202" y="50.657967"/>
     <use style="fill:#0000ff;fill-opacity:0.5;stroke:#0000ff;stroke-opacity:0.5;" x="351.518066" xlink:href="#me6af19f202" y="51.947303"/>
     <use style="fill:#0000ff;fill-opacity:0.5;stroke:#0000ff;stroke-opacity:0.5;" x="175.065463" xlink:href="#me6af19f202" y="85.898717"/>
     <use style="fill:#0000ff;fill-opacity:0.5;stroke:#0000ff;stroke-opacity:0.5;" x="297.738084" xlink:href="#me6af19f202" y="141.651455"/>
     <use style="fill:#0000ff;fill-opacity:0.5;stroke:#0000ff;stroke-opacity:0.5;" x="290.185569" xlink:href="#me6af19f202" y="110.071427"/>
     <use style="fill:#0000ff;fill-opacity:0.5;stroke:#0000ff;stroke-opacity:0.5;" x="338.064436" xlink:href="#me6af19f202" y="65.064561"/>
     <use style="fill:#0000ff;fill-opacity:0.5;stroke:#0000ff;stroke-opacity:0.5;" x="259.041323" xlink:href="#me6af19f202" y="87.753221"/>
     <use style="fill:#0000ff;fill-opacity:0.5;stroke:#0000ff;stroke-opacity:0.5;" x="297.777752" xlink:href="#me6af19f202" y="141.154959"/>
     <use style="fill:#0000ff;fill-opacity:0.5;stroke:#0000ff;stroke-opacity:0.5;" x="175.41015" xlink:href="#me6af19f202" y="86.145927"/>
     <use style="fill:#0000ff;fill-opacity:0.5;stroke:#0000ff;stroke-opacity:0.5;" x="151.374417" xlink:href="#me6af19f202" y="65.482424"/>
     <use style="fill:#0000ff;fill-opacity:0.5;stroke:#0000ff;stroke-opacity:0.5;" x="341.893369" xlink:href="#me6af19f202" y="60.037711"/>
     <use style="fill:#0000ff;fill-opacity:0.5;stroke:#0000ff;stroke-opacity:0.5;" x="199.513573" xlink:href="#me6af19f202" y="135.753604"/>
     <use style="fill:#0000ff;fill-opacity:0.5;stroke:#0000ff;stroke-opacity:0.5;" x="362.880407" xlink:href="#me6af19f202" y="45.176784"/>
     <use style="fill:#0000ff;fill-opacity:0.5;stroke:#0000ff;stroke-opacity:0.5;" x="271.145649" xlink:href="#me6af19f202" y="114.624566"/>
     <use style="fill:#0000ff;fill-opacity:0.5;stroke:#0000ff;stroke-opacity:0.5;" x="258.439752" xlink:href="#me6af19f202" y="87.078149"/>
     <use style="fill:#0000ff;fill-opacity:0.5;stroke:#0000ff;stroke-opacity:0.5;" x="104.142683" xlink:href="#me6af19f202" y="51.778154"/>
     <use style="fill:#0000ff;fill-opacity:0.5;stroke:#0000ff;stroke-opacity:0.5;" x="358.208185" xlink:href="#me6af19f202" y="47.240886"/>
     <use style="fill:#0000ff;fill-opacity:0.5;stroke:#0000ff;stroke-opacity:0.5;" x="206.155075" xlink:href="#me6af19f202" y="124.786392"/>
     <use style="fill:#0000ff;fill-opacity:0.5;stroke:#0000ff;stroke-opacity:0.5;" x="245.258948" xlink:href="#me6af19f202" y="98.763586"/>
     <use style="fill:#0000ff;fill-opacity:0.5;stroke:#0000ff;stroke-opacity:0.5;" x="193.440183" xlink:href="#me6af19f202" y="95.717413"/>
     <use style="fill:#0000ff;fill-opacity:0.5;stroke:#0000ff;stroke-opacity:0.5;" x="141.360575" xlink:href="#me6af19f202" y="60.090436"/>
     <use style="fill:#0000ff;fill-opacity:0.5;stroke:#0000ff;stroke-opacity:0.5;" x="344.174058" xlink:href="#me6af19f202" y="57.344503"/>
     <use style="fill:#0000ff;fill-opacity:0.5;stroke:#0000ff;stroke-opacity:0.5;" x="243.825356" xlink:href="#me6af19f202" y="104.421393"/>
     <use style="fill:#0000ff;fill-opacity:0.5;stroke:#0000ff;stroke-opacity:0.5;" x="70.091805" xlink:href="#me6af19f202" y="50.14069"/>
     <use style="fill:#0000ff;fill-opacity:0.5;stroke:#0000ff;stroke-opacity:0.5;" x="257.054652" xlink:href="#me6af19f202" y="87.133404"/>
     <use style="fill:#0000ff;fill-opacity:0.5;stroke:#0000ff;stroke-opacity:0.5;" x="168.637012" xlink:href="#me6af19f202" y="84.087245"/>
     <use style="fill:#0000ff;fill-opacity:0.5;stroke:#0000ff;stroke-opacity:0.5;" x="229.635502" xlink:href="#me6af19f202" y="93.795194"/>
     <use style="fill:#0000ff;fill-opacity:0.5;stroke:#0000ff;stroke-opacity:0.5;" x="338.866741" xlink:href="#me6af19f202" y="64.370958"/>
     <use style="fill:#0000ff;fill-opacity:0.5;stroke:#0000ff;stroke-opacity:0.5;" x="177.958105" xlink:href="#me6af19f202" y="88.587798"/>
     <use style="fill:#0000ff;fill-opacity:0.5;stroke:#0000ff;stroke-opacity:0.5;" x="345.743244" xlink:href="#me6af19f202" y="56.886651"/>
     <use style="fill:#0000ff;fill-opacity:0.5;stroke:#0000ff;stroke-opacity:0.5;" x="258.946333" xlink:href="#me6af19f202" y="87.620379"/>
     <use style="fill:#0000ff;fill-opacity:0.5;stroke:#0000ff;stroke-opacity:0.5;" x="74.033593" xlink:href="#me6af19f202" y="85.085432"/>
     <use style="fill:#0000ff;fill-opacity:0.5;stroke:#0000ff;stroke-opacity:0.5;" x="352.105078" xlink:href="#me6af19f202" y="51.127196"/>
     <use style="fill:#0000ff;fill-opacity:0.5;stroke:#0000ff;stroke-opacity:0.5;" x="279.50208" xlink:href="#me6af19f202" y="102.534474"/>
     <use style="fill:#0000ff;fill-opacity:0.5;stroke:#0000ff;stroke-opacity:0.5;" x="372.766991" xlink:href="#me6af19f202" y="38.450984"/>
     <use style="fill:#0000ff;fill-opacity:0.5;stroke:#0000ff;stroke-opacity:0.5;" x="121.672366" xlink:href="#me6af19f202" y="51.432826"/>
     <use style="fill:#0000ff;fill-opacity:0.5;stroke:#0000ff;stroke-opacity:0.5;" x="110.957317" xlink:href="#me6af19f202" y="48.981327"/>
     <use style="fill:#0000ff;fill-opacity:0.5;stroke:#0000ff;stroke-opacity:0.5;" x="353.066328" xlink:href="#me6af19f202" y="50.092852"/>
     <use style="fill:#0000ff;fill-opacity:0.5;stroke:#0000ff;stroke-opacity:0.5;" x="281.304291" xlink:href="#me6af19f202" y="97.553807"/>
     <use style="fill:#0000ff;fill-opacity:0.5;stroke:#0000ff;stroke-opacity:0.5;" x="89.306234" xlink:href="#me6af19f202" y="46.701057"/>
     <use style="fill:#0000ff;fill-opacity:0.5;stroke:#0000ff;stroke-opacity:0.5;" x="299.153664" xlink:href="#me6af19f202" y="125.949166"/>
     <use style="fill:#0000ff;fill-opacity:0.5;stroke:#0000ff;stroke-opacity:0.5;" x="298.67068" xlink:href="#me6af19f202" y="130.746769"/>
     <use style="fill:#0000ff;fill-opacity:0.5;stroke:#0000ff;stroke-opacity:0.5;" x="350.153286" xlink:href="#me6af19f202" y="54.383129"/>
     <use style="fill:#0000ff;fill-opacity:0.5;stroke:#0000ff;stroke-opacity:0.5;" x="285.780445" xlink:href="#me6af19f202" y="109.259849"/>
     <use style="fill:#0000ff;fill-opacity:0.5;stroke:#0000ff;stroke-opacity:0.5;" x="107.041744" xlink:href="#me6af19f202" y="49.520471"/>
     <use style="fill:#0000ff;fill-opacity:0.5;stroke:#0000ff;stroke-opacity:0.5;" x="75.268972" xlink:href="#me6af19f202" y="90.122884"/>
     <use style="fill:#0000ff;fill-opacity:0.5;stroke:#0000ff;stroke-opacity:0.5;" x="77.195853" xlink:href="#me6af19f202" y="88.409478"/>
     <use style="fill:#0000ff;fill-opacity:0.5;stroke:#0000ff;stroke-opacity:0.5;" x="77.833647" xlink:href="#me6af19f202" y="85.660171"/>
     <use style="fill:#0000ff;fill-opacity:0.5;stroke:#0000ff;stroke-opacity:0.5;" x="144.155878" xlink:href="#me6af19f202" y="62.082555"/>
     <use style="fill:#0000ff;fill-opacity:0.5;stroke:#0000ff;stroke-opacity:0.5;" x="330.979416" xlink:href="#me6af19f202" y="71.602158"/>
     <use style="fill:#0000ff;fill-opacity:0.5;stroke:#0000ff;stroke-opacity:0.5;" x="233.218764" xlink:href="#me6af19f202" y="97.789696"/>
     <use style="fill:#0000ff;fill-opacity:0.5;stroke:#0000ff;stroke-opacity:0.5;" x="237.47709" xlink:href="#me6af19f202" y="104.08794"/>
     <use style="fill:#0000ff;fill-opacity:0.5;stroke:#0000ff;stroke-opacity:0.5;" x="325.501766" xlink:href="#me6af19f202" y="80.855668"/>
     <use style="fill:#0000ff;fill-opacity:0.5;stroke:#0000ff;stroke-opacity:0.5;" x="107.012024" xlink:href="#me6af19f202" y="49.537907"/>
     <use style="fill:#0000ff;fill-opacity:0.5;stroke:#0000ff;stroke-opacity:0.5;" x="154.191542" xlink:href="#me6af19f202" y="65.681628"/>
     <use style="fill:#0000ff;fill-opacity:0.5;stroke:#0000ff;stroke-opacity:0.5;" x="247.502004" xlink:href="#me6af19f202" y="90.720522"/>
     <use style="fill:#0000ff;fill-opacity:0.5;stroke:#0000ff;stroke-opacity:0.5;" x="364.32787" xlink:href="#me6af19f202" y="44.579559"/>
     <use style="fill:#0000ff;fill-opacity:0.5;stroke:#0000ff;stroke-opacity:0.5;" x="239.975379" xlink:href="#me6af19f202" y="107.71743"/>
     <use style="fill:#0000ff;fill-opacity:0.5;stroke:#0000ff;stroke-opacity:0.5;" x="74.893739" xlink:href="#me6af19f202" y="89.092892"/>
     <use style="fill:#0000ff;fill-opacity:0.5;stroke:#0000ff;stroke-opacity:0.5;" x="312.901653" xlink:href="#me6af19f202" y="111.291584"/>
     <use style="fill:#0000ff;fill-opacity:0.5;stroke:#0000ff;stroke-opacity:0.5;" x="140.127079" xlink:href="#me6af19f202" y="59.520068"/>
     <use style="fill:#0000ff;fill-opacity:0.5;stroke:#0000ff;stroke-opacity:0.5;" x="314.871654" xlink:href="#me6af19f202" y="119.913197"/>
     <use style="fill:#0000ff;fill-opacity:0.5;stroke:#0000ff;stroke-opacity:0.5;" x="187.268858" xlink:href="#me6af19f202" y="91.743357"/>
     <use style="fill:#0000ff;fill-opacity:0.5;stroke:#0000ff;stroke-opacity:0.5;" x="332.048921" xlink:href="#me6af19f202" y="69.906319"/>
     <use style="fill:#0000ff;fill-opacity:0.5;stroke:#0000ff;stroke-opacity:0.5;" x="296.614842" xlink:href="#me6af19f202" y="155.760171"/>
     <use style="fill:#0000ff;fill-opacity:0.5;stroke:#0000ff;stroke-opacity:0.5;" x="238.517482" xlink:href="#me6af19f202" y="105.791919"/>
     <use style="fill:#0000ff;fill-opacity:0.5;stroke:#0000ff;stroke-opacity:0.5;" x="110.750191" xlink:href="#me6af19f202" y="48.937887"/>
     <use style="fill:#0000ff;fill-opacity:0.5;stroke:#0000ff;stroke-opacity:0.5;" x="87.454948" xlink:href="#me6af19f202" y="46.598781"/>
     <use style="fill:#0000ff;fill-opacity:0.5;stroke:#0000ff;stroke-opacity:0.5;" x="106.150717" xlink:href="#me6af19f202" y="50.130754"/>
     <use style="fill:#0000ff;fill-opacity:0.5;stroke:#0000ff;stroke-opacity:0.5;" x="82.778154" xlink:href="#me6af19f202" y="59.622524"/>
     <use style="fill:#0000ff;fill-opacity:0.5;stroke:#0000ff;stroke-opacity:0.5;" x="101.935486" xlink:href="#me6af19f202" y="51.948083"/>
     <use style="fill:#0000ff;fill-opacity:0.5;stroke:#0000ff;stroke-opacity:0.5;" x="137.915897" xlink:href="#me6af19f202" y="58.869805"/>
     <use style="fill:#0000ff;fill-opacity:0.5;stroke:#0000ff;stroke-opacity:0.5;" x="286.226101" xlink:href="#me6af19f202" y="108.428641"/>
     <use style="fill:#0000ff;fill-opacity:0.5;stroke:#0000ff;stroke-opacity:0.5;" x="239.575678" xlink:href="#me6af19f202" y="107.273048"/>
     <use style="fill:#0000ff;fill-opacity:0.5;stroke:#0000ff;stroke-opacity:0.5;" x="73.039766" xlink:href="#me6af19f202" y="77.981357"/>
     <use style="fill:#0000ff;fill-opacity:0.5;stroke:#0000ff;stroke-opacity:0.5;" x="91.124535" xlink:href="#me6af19f202" y="53.776124"/>
     <use style="fill:#0000ff;fill-opacity:0.5;stroke:#0000ff;stroke-opacity:0.5;" x="363.621923" xlink:href="#me6af19f202" y="44.875494"/>
     <use style="fill:#0000ff;fill-opacity:0.5;stroke:#0000ff;stroke-opacity:0.5;" x="242.127304" xlink:href="#me6af19f202" y="108.063623"/>
     <use style="fill:#0000ff;fill-opacity:0.5;stroke:#0000ff;stroke-opacity:0.5;" x="131.09325" xlink:href="#me6af19f202" y="56.172044"/>
     <use style="fill:#0000ff;fill-opacity:0.5;stroke:#0000ff;stroke-opacity:0.5;" x="146.016963" xlink:href="#me6af19f202" y="63.987288"/>
     <use style="fill:#0000ff;fill-opacity:0.5;stroke:#0000ff;stroke-opacity:0.5;" x="295.611724" xlink:href="#me6af19f202" y="165.327231"/>
     <use style="fill:#0000ff;fill-opacity:0.5;stroke:#0000ff;stroke-opacity:0.5;" x="128.699809" xlink:href="#me6af19f202" y="55.572937"/>
     <use style="fill:#0000ff;fill-opacity:0.5;stroke:#0000ff;stroke-opacity:0.5;" x="246.162699" xlink:href="#me6af19f202" y="94.999808"/>
     <use style="fill:#0000ff;fill-opacity:0.5;stroke:#0000ff;stroke-opacity:0.5;" x="364.456993" xlink:href="#me6af19f202" y="44.52353"/>
     <use style="fill:#0000ff;fill-opacity:0.5;stroke:#0000ff;stroke-opacity:0.5;" x="326.962075" xlink:href="#me6af19f202" y="79.717028"/>
     <use style="fill:#0000ff;fill-opacity:0.5;stroke:#0000ff;stroke-opacity:0.5;" x="142.219118" xlink:href="#me6af19f202" y="60.589104"/>
     <use style="fill:#0000ff;fill-opacity:0.5;stroke:#0000ff;stroke-opacity:0.5;" x="219.503728" xlink:href="#me6af19f202" y="116.081285"/>
     <use style="fill:#0000ff;fill-opacity:0.5;stroke:#0000ff;stroke-opacity:0.5;" x="257.910159" xlink:href="#me6af19f202" y="86.825312"/>
     <use style="fill:#0000ff;fill-opacity:0.5;stroke:#0000ff;stroke-opacity:0.5;" x="321.529823" xlink:href="#me6af19f202" y="81.408594"/>
     <use style="fill:#0000ff;fill-opacity:0.5;stroke:#0000ff;stroke-opacity:0.5;" x="116.939781" xlink:href="#me6af19f202" y="50.69803"/>
     <use style="fill:#0000ff;fill-opacity:0.5;stroke:#0000ff;stroke-opacity:0.5;" x="74.872102" xlink:href="#me6af19f202" y="89.019751"/>
     <use style="fill:#0000ff;fill-opacity:0.5;stroke:#0000ff;stroke-opacity:0.5;" x="90.530376" xlink:href="#me6af19f202" y="50.56068"/>
     <use style="fill:#0000ff;fill-opacity:0.5;stroke:#0000ff;stroke-opacity:0.5;" x="217.243948" xlink:href="#me6af19f202" y="98.911946"/>
     <use style="fill:#0000ff;fill-opacity:0.5;stroke:#0000ff;stroke-opacity:0.5;" x="253.762822" xlink:href="#me6af19f202" y="94.167816"/>
     <use style="fill:#0000ff;fill-opacity:0.5;stroke:#0000ff;stroke-opacity:0.5;" x="242.355874" xlink:href="#me6af19f202" y="107.808481"/>
     <use style="fill:#0000ff;fill-opacity:0.5;stroke:#0000ff;stroke-opacity:0.5;" x="165.811759" xlink:href="#me6af19f202" y="77.733591"/>
     <use style="fill:#0000ff;fill-opacity:0.5;stroke:#0000ff;stroke-opacity:0.5;" x="370.11699" xlink:href="#me6af19f202" y="40.782858"/>
     <use style="fill:#0000ff;fill-opacity:0.5;stroke:#0000ff;stroke-opacity:0.5;" x="245.671545" xlink:href="#me6af19f202" y="97.003903"/>
     <use style="fill:#0000ff;fill-opacity:0.5;stroke:#0000ff;stroke-opacity:0.5;" x="184.919331" xlink:href="#me6af19f202" y="84.925302"/>
     <use style="fill:#0000ff;fill-opacity:0.5;stroke:#0000ff;stroke-opacity:0.5;" x="236.906785" xlink:href="#me6af19f202" y="103.11789"/>
     <use style="fill:#0000ff;fill-opacity:0.5;stroke:#0000ff;stroke-opacity:0.5;" x="296.07088" xlink:href="#me6af19f202" y="161.626544"/>
     <use style="fill:#0000ff;fill-opacity:0.5;stroke:#0000ff;stroke-opacity:0.5;" x="272.908339" xlink:href="#me6af19f202" y="123.392772"/>
     <use style="fill:#0000ff;fill-opacity:0.5;stroke:#0000ff;stroke-opacity:0.5;" x="149.850062" xlink:href="#me6af19f202" y="65.989319"/>
     <use style="fill:#0000ff;fill-opacity:0.5;stroke:#0000ff;stroke-opacity:0.5;" x="89.408093" xlink:href="#me6af19f202" y="46.889018"/>
     <use style="fill:#0000ff;fill-opacity:0.5;stroke:#0000ff;stroke-opacity:0.5;" x="181.858354" xlink:href="#me6af19f202" y="87.569121"/>
     <use style="fill:#0000ff;fill-opacity:0.5;stroke:#0000ff;stroke-opacity:0.5;" x="260.881292" xlink:href="#me6af19f202" y="91.854735"/>
     <use style="fill:#0000ff;fill-opacity:0.5;stroke:#0000ff;stroke-opacity:0.5;" x="133.187508" xlink:href="#me6af19f202" y="57.459134"/>
     <use style="fill:#0000ff;fill-opacity:0.5;stroke:#0000ff;stroke-opacity:0.5;" x="298.329599" xlink:href="#me6af19f202" y="134.516739"/>
     <use style="fill:#0000ff;fill-opacity:0.5;stroke:#0000ff;stroke-opacity:0.5;" x="89.469467" xlink:href="#me6af19f202" y="47.01312"/>
     <use style="fill:#0000ff;fill-opacity:0.5;stroke:#0000ff;stroke-opacity:0.5;" x="148.448632" xlink:href="#me6af19f202" y="65.969392"/>
     <use style="fill:#0000ff;fill-opacity:0.5;stroke:#0000ff;stroke-opacity:0.5;" x="314.156207" xlink:href="#me6af19f202" y="115.437836"/>
     <use style="fill:#0000ff;fill-opacity:0.5;stroke:#0000ff;stroke-opacity:0.5;" x="128.092543" xlink:href="#me6af19f202" y="55.651903"/>
     <use style="fill:#0000ff;fill-opacity:0.5;stroke:#0000ff;stroke-opacity:0.5;" x="263.846821" xlink:href="#me6af19f202" y="98.781322"/>
     <use style="fill:#0000ff;fill-opacity:0.5;stroke:#0000ff;stroke-opacity:0.5;" x="228.908745" xlink:href="#me6af19f202" y="92.963168"/>
     <use style="fill:#0000ff;fill-opacity:0.5;stroke:#0000ff;stroke-opacity:0.5;" x="350.696099" xlink:href="#me6af19f202" y="53.35035"/>
     <use style="fill:#0000ff;fill-opacity:0.5;stroke:#0000ff;stroke-opacity:0.5;" x="149.356144" xlink:href="#me6af19f202" y="66.07687"/>
     <use style="fill:#0000ff;fill-opacity:0.5;stroke:#0000ff;stroke-opacity:0.5;" x="89.294339" xlink:href="#me6af19f202" y="46.680552"/>
     <use style="fill:#0000ff;fill-opacity:0.5;stroke:#0000ff;stroke-opacity:0.5;" x="292.945531" xlink:href="#me6af19f202" y="149.460989"/>
     <use style="fill:#0000ff;fill-opacity:0.5;stroke:#0000ff;stroke-opacity:0.5;" x="304.241095" xlink:href="#me6af19f202" y="115.246735"/>
     <use style="fill:#0000ff;fill-opacity:0.5;stroke:#0000ff;stroke-opacity:0.5;" x="345.524316" xlink:href="#me6af19f202" y="56.881693"/>
     <use style="fill:#0000ff;fill-opacity:0.5;stroke:#0000ff;stroke-opacity:0.5;" x="352.87659" xlink:href="#me6af19f202" y="50.270889"/>
     <use style="fill:#0000ff;fill-opacity:0.5;stroke:#0000ff;stroke-opacity:0.5;" x="73.464533" xlink:href="#me6af19f202" y="81.300828"/>
     <use style="fill:#0000ff;fill-opacity:0.5;stroke:#0000ff;stroke-opacity:0.5;" x="140.549479" xlink:href="#me6af19f202" y="59.697241"/>
     <use style="fill:#0000ff;fill-opacity:0.5;stroke:#0000ff;stroke-opacity:0.5;" x="256.943085" xlink:href="#me6af19f202" y="87.240757"/>
     <use style="fill:#0000ff;fill-opacity:0.5;stroke:#0000ff;stroke-opacity:0.5;" x="358.06424" xlink:href="#me6af19f202" y="47.306858"/>
    </g>
   </g>
   <g id="line2d_37">
    <path clip-path="url(#p9e29769c23)" d="M 69.218182 42.433468 
L 69.827518 42.940074 
L 70.436855 43.739755 
L 71.046192 44.840547 
L 71.960197 47.05759 
L 73.17887 50.899346 
L 74.702211 55.84484 
L 75.311548 57.268198 
L 75.920885 58.136008 
L 76.530221 58.433408 
L 77.139558 58.28922 
L 78.358231 57.703678 
L 78.662899 57.714142 
L 78.967568 57.860734 
L 79.272236 58.178122 
L 79.576904 58.700492 
L 80.186241 60.498923 
L 80.795577 63.541091 
L 81.404914 68.097896 
L 82.014251 74.307473 
L 84.146929 99.041844 
L 84.451597 100.251083 
L 84.756265 100.288887 
L 85.060934 99.14518 
L 85.365602 96.924497 
L 85.974939 90.117095 
L 87.49828 71.109326 
L 88.107617 66.007104 
L 88.716953 62.698393 
L 89.32629 60.934506 
L 89.630958 60.546439 
L 89.935627 60.450181 
L 90.240295 60.624452 
L 90.544963 61.052862 
L 91.1543 62.623327 
L 91.763636 65.073593 
L 92.677641 70.12681 
L 95.114988 85.118301 
L 95.724324 87.460606 
L 96.333661 88.915832 
L 96.942998 89.565847 
L 97.247666 89.640736 
L 97.857002 89.417837 
L 98.466339 88.86801 
L 100.599017 86.598045 
L 101.208354 86.226404 
L 101.81769 86.050689 
L 102.427027 86.075195 
L 103.036364 86.287998 
L 103.950369 86.892613 
L 105.778378 88.298454 
L 106.387715 88.416409 
L 106.692383 88.326508 
L 106.997052 88.111463 
L 107.606388 87.239799 
L 108.215725 85.710087 
L 108.825061 83.52502 
L 109.739066 79.315685 
L 111.262408 71.988117 
L 112.176413 68.802198 
L 112.785749 67.478003 
L 113.395086 66.844346 
L 113.699754 66.794503 
L 114.004423 66.929467 
L 114.309091 67.257686 
L 114.918428 68.544174 
L 115.527764 70.780916 
L 116.137101 74.092872 
L 117.051106 80.975339 
L 118.269779 90.596082 
L 118.574447 92.139334 
L 118.879115 93.049672 
L 119.183784 93.254729 
L 119.488452 92.749888 
L 119.79312 91.598714 
L 120.402457 87.869343 
L 121.925799 77.083558 
L 122.535135 74.098363 
L 123.144472 72.097124 
L 123.753808 70.932002 
L 124.363145 70.41936 
L 124.972482 70.385741 
L 125.581818 70.670018 
L 127.409828 71.854458 
L 128.019165 71.908167 
L 128.628501 71.682997 
L 129.237838 71.215154 
L 132.284521 68.317216 
L 133.198526 67.981057 
L 134.112531 67.969405 
L 135.026536 68.260591 
L 135.940541 68.838806 
L 136.854545 69.693418 
L 138.073219 71.210936 
L 140.205897 74.042408 
L 140.815233 74.508713 
L 141.42457 74.650183 
L 142.033907 74.418184 
L 142.643243 73.830354 
L 143.557248 72.490814 
L 145.08059 70.200239 
L 145.994595 69.329534 
L 146.603931 69.000972 
L 147.517936 68.81619 
L 148.431941 68.910057 
L 149.345946 69.226569 
L 150.259951 69.767667 
L 151.173956 70.555767 
L 153.306634 72.678194 
L 153.915971 72.980585 
L 154.525307 73.074239 
L 155.74398 72.932113 
L 156.657985 72.878985 
L 157.57199 73.068124 
L 158.485995 73.575805 
L 159.4 74.451032 
L 160.314005 75.706435 
L 163.05602 80.090369 
L 163.665356 80.649555 
L 164.274693 80.956666 
L 164.884029 81.043001 
L 165.798034 80.888748 
L 168.540049 80.149252 
L 169.454054 80.165018 
L 170.368059 80.374322 
L 171.282064 80.784413 
L 172.500737 81.636659 
L 174.024079 83.081795 
L 175.54742 84.484637 
L 176.156757 84.830575 
L 176.766093 84.95621 
L 177.37543 84.824243 
L 177.984767 84.440497 
L 178.898771 83.525237 
L 180.422113 81.949902 
L 181.03145 81.592422 
L 181.640786 81.501277 
L 182.250123 81.739538 
L 182.859459 82.384782 
L 183.468796 83.54255 
L 184.078133 85.341356 
L 184.687469 87.887471 
L 185.601474 92.98539 
L 186.515479 98.310571 
L 187.124816 100.678102 
L 187.429484 101.233894 
L 187.734152 101.322625 
L 188.038821 100.963889 
L 188.343489 100.218271 
L 188.952826 97.941188 
L 190.171499 92.960976 
L 190.780835 91.293703 
L 191.390172 90.447387 
L 191.69484 90.348779 
L 191.999509 90.473119 
L 192.304177 90.827895 
L 192.608845 91.42411 
L 193.218182 93.404377 
L 193.827518 96.573227 
L 194.436855 101.111106 
L 195.046192 107.150694 
L 195.960197 118.960787 
L 197.788206 147.909371 
L 199.00688 164.908805 
L 199.920885 174.065459 
L 200.530221 178.267983 
L 201.139558 181.019032 
L 201.748894 182.428821 
L 202.053563 182.666831 
L 202.358231 182.611778 
L 202.662899 182.27645 
L 202.967568 181.673152 
L 203.576904 179.711316 
L 204.186241 176.827299 
L 205.100246 171.023251 
L 206.318919 161.228246 
L 208.451597 141.414068 
L 211.193612 116.086813 
L 212.412285 106.560936 
L 213.32629 100.956856 
L 213.935627 98.154668 
L 214.544963 96.175839 
L 215.1543 95.069841 
L 215.458968 94.864721 
L 215.763636 94.909186 
L 216.068305 95.223263 
L 216.372973 95.834129 
L 216.677641 96.777289 
L 217.286978 99.84703 
L 217.896314 104.876756 
L 218.505651 112.310654 
L 219.419656 127.924922 
L 220.333661 144.690252 
L 220.942998 151.535216 
L 221.247666 152.497295 
L 221.552334 151.583533 
L 221.857002 148.863338 
L 222.466339 139.182337 
L 223.989681 109.701376 
L 224.599017 101.493645 
L 225.208354 95.860982 
L 225.81769 92.255461 
L 226.427027 90.110042 
L 227.036364 88.996014 
L 227.341032 88.733161 
L 227.6457 88.632268 
L 227.950369 88.674679 
L 228.559705 89.133097 
L 229.169042 90.01698 
L 230.083047 91.975248 
L 231.30172 95.359331 
L 235.567076 107.935116 
L 237.090418 111.741613 
L 238.309091 114.164491 
L 239.223096 115.449109 
L 239.832432 115.998093 
L 240.441769 116.269653 
L 241.051106 116.232728 
L 241.660442 115.847637 
L 242.269779 115.06399 
L 242.879115 113.824179 
L 243.488452 112.075121 
L 244.402457 108.448577 
L 245.316462 103.766187 
L 247.753808 90.612957 
L 248.667813 87.274442 
L 249.27715 85.758219 
L 249.886486 84.787327 
L 250.495823 84.334374 
L 250.800491 84.299253 
L 251.10516 84.394484 
L 251.409828 84.625098 
L 252.019165 85.521435 
L 252.628501 87.045914 
L 253.237838 89.201232 
L 255.065848 96.524639 
L 255.370516 97.096897 
L 255.675184 97.295522 
L 255.979853 97.10488 
L 256.284521 96.546865 
L 256.893857 94.57199 
L 258.721867 87.455119 
L 259.331204 86.027295 
L 259.940541 85.244581 
L 260.245209 85.088169 
L 260.549877 85.084907 
L 260.854545 85.234101 
L 261.463882 85.995891 
L 262.073219 87.396727 
L 262.682555 89.456703 
L 263.59656 93.713431 
L 266.643243 110.21063 
L 267.557248 113.138751 
L 268.471253 115.037534 
L 270.603931 118.728611 
L 271.213268 120.365074 
L 271.822604 122.531193 
L 272.431941 125.362117 
L 273.041278 128.993125 
L 273.955283 136.234829 
L 274.869287 145.985042 
L 275.783292 158.406055 
L 278.525307 200.453957 
L 279.134644 205.035066 
L 279.439312 205.798909 
L 279.74398 205.420135 
L 280.048649 203.865579 
L 280.353317 201.159648 
L 280.962654 192.683843 
L 281.876658 174.983994 
L 283.095332 151.089552 
L 283.704668 142.038754 
L 284.314005 135.800729 
L 284.618673 133.801383 
L 284.923342 132.554438 
L 285.22801 132.053492 
L 285.532678 132.284871 
L 285.837346 133.225704 
L 286.142015 134.839082 
L 286.751351 139.818188 
L 288.274693 155.123977 
L 288.579361 156.643069 
L 288.884029 156.991155 
L 289.188698 155.993613 
L 289.493366 153.594851 
L 290.102703 145.032575 
L 292.540049 101.764339 
L 293.149386 96.179072 
L 293.758722 92.996957 
L 294.063391 92.20746 
L 294.368059 91.915844 
L 294.672727 92.110426 
L 294.977396 92.79285 
L 295.282064 93.977258 
L 295.8914 97.958131 
L 296.500737 104.310098 
L 297.110074 113.225245 
L 298.024079 130.962384 
L 299.54742 162.595403 
L 300.156757 170.567489 
L 300.461425 172.722928 
L 300.766093 173.53809 
L 301.070762 173.012686 
L 301.37543 171.214668 
L 301.984767 164.347394 
L 302.898771 148.708887 
L 304.726781 115.587246 
L 305.640786 103.244884 
L 306.554791 94.296751 
L 307.468796 88.18376 
L 308.078133 85.347756 
L 308.687469 83.292543 
L 309.296806 81.868062 
L 309.906143 80.94689 
L 310.515479 80.414037 
L 311.124816 80.154447 
L 312.952826 79.671516 
L 313.562162 79.117692 
L 314.171499 78.175264 
L 314.780835 76.830915 
L 315.999509 73.341458 
L 317.218182 69.925017 
L 318.132187 68.082184 
L 318.741523 67.309795 
L 319.35086 66.916927 
L 319.960197 66.897373 
L 320.569533 67.223776 
L 321.483538 68.169376 
L 322.092875 68.814322 
L 322.702211 69.105504 
L 323.00688 69.015049 
L 323.311548 68.729234 
L 323.920885 67.560057 
L 324.834889 64.744091 
L 326.053563 60.917792 
L 326.967568 58.920486 
L 327.881572 57.646337 
L 328.795577 56.844561 
L 329.709582 56.329097 
L 330.928256 55.913666 
L 334.888943 54.869524 
L 336.412285 54.054439 
L 341.286978 51.26905 
L 344.028993 50.044057 
L 346.771007 48.80254 
L 348.294349 47.85323 
L 352.559705 44.9152 
L 353.47371 44.568554 
L 354.387715 44.460847 
L 354.997052 44.586501 
L 355.606388 44.919962 
L 356.215725 45.474593 
L 357.739066 47.174578 
L 358.348403 47.431652 
L 358.653071 47.377725 
L 359.262408 46.907468 
L 360.176413 45.592258 
L 361.395086 43.72466 
L 362.309091 42.738838 
L 362.918428 42.336045 
L 363.527764 42.133025 
L 364.137101 42.11702 
L 365.051106 42.386629 
L 367.183784 43.310659 
L 367.79312 43.299082 
L 368.402457 43.086154 
L 369.316462 42.451916 
L 371.753808 40.423956 
L 372.363145 40.154203 
L 372.972482 40.064556 
L 373.581818 40.193365 
L 373.581818 40.193365 
" style="fill:none;stroke:#ff0000;stroke-linecap:square;stroke-opacity:0.6;stroke-width:2;"/>
   </g>
   <g id="line2d_38">
    <defs>
     <path d="M 0 2.5 
C 0.663008 2.5 1.29895 2.236584 1.767767 1.767767 
C 2.236584 1.29895 2.5 0.663008 2.5 0 
C 2.5 -0.663008 2.236584 -1.29895 1.767767 -1.767767 
C 1.29895 -2.236584 0.663008 -2.5 0 -2.5 
C -0.663008 -2.5 -1.29895 -2.236584 -1.767767 -1.767767 
C -2.236584 -1.29895 -2.5 -0.663008 -2.5 0 
C -2.5 0.663008 -2.236584 1.29895 -1.767767 1.767767 
C -1.29895 2.236584 -0.663008 2.5 0 2.5 
z
" id="m3bbd320204" style="stroke:#ff0000;stroke-opacity:0.8;"/>
    </defs>
    <g clip-path="url(#p9e29769c23)">
     <use style="fill:#ff0000;fill-opacity:0.8;stroke:#ff0000;stroke-opacity:0.8;" x="358.417241" xlink:href="#m3bbd320204" y="47.430621"/>
     <use style="fill:#ff0000;fill-opacity:0.8;stroke:#ff0000;stroke-opacity:0.8;" x="347.89546" xlink:href="#m3bbd320204" y="48.125964"/>
     <use style="fill:#ff0000;fill-opacity:0.8;stroke:#ff0000;stroke-opacity:0.8;" x="187.922348" xlink:href="#m3bbd320204" y="101.150802"/>
     <use style="fill:#ff0000;fill-opacity:0.8;stroke:#ff0000;stroke-opacity:0.8;" x="253.148318" xlink:href="#m3bbd320204" y="88.848718"/>
     <use style="fill:#ff0000;fill-opacity:0.8;stroke:#ff0000;stroke-opacity:0.8;" x="351.114129" xlink:href="#m3bbd320204" y="45.764175"/>
     <use style="fill:#ff0000;fill-opacity:0.8;stroke:#ff0000;stroke-opacity:0.8;" x="189.403959" xlink:href="#m3bbd320204" y="95.979584"/>
     <use style="fill:#ff0000;fill-opacity:0.8;stroke:#ff0000;stroke-opacity:0.8;" x="122.163961" xlink:href="#m3bbd320204" y="75.794768"/>
     <use style="fill:#ff0000;fill-opacity:0.8;stroke:#ff0000;stroke-opacity:0.8;" x="110.331366" xlink:href="#m3bbd320204" y="76.335697"/>
     <use style="fill:#ff0000;fill-opacity:0.8;stroke:#ff0000;stroke-opacity:0.8;" x="75.76955" xlink:href="#m3bbd320204" y="57.975607"/>
     <use style="fill:#ff0000;fill-opacity:0.8;stroke:#ff0000;stroke-opacity:0.8;" x="320.962054" xlink:href="#m3bbd320204" y="67.584682"/>
     <use style="fill:#ff0000;fill-opacity:0.8;stroke:#ff0000;stroke-opacity:0.8;" x="122.845915" xlink:href="#m3bbd320204" y="72.962191"/>
     <use style="fill:#ff0000;fill-opacity:0.8;stroke:#ff0000;stroke-opacity:0.8;" x="109.088858" xlink:href="#m3bbd320204" y="82.402113"/>
     <use style="fill:#ff0000;fill-opacity:0.8;stroke:#ff0000;stroke-opacity:0.8;" x="174.143483" xlink:href="#m3bbd320204" y="83.203038"/>
     <use style="fill:#ff0000;fill-opacity:0.8;stroke:#ff0000;stroke-opacity:0.8;" x="246.362134" xlink:href="#m3bbd320204" y="97.777273"/>
     <use style="fill:#ff0000;fill-opacity:0.8;stroke:#ff0000;stroke-opacity:0.8;" x="326.324629" xlink:href="#m3bbd320204" y="60.237552"/>
     <use style="fill:#ff0000;fill-opacity:0.8;stroke:#ff0000;stroke-opacity:0.8;" x="209.189012" xlink:href="#m3bbd320204" y="134.392791"/>
     <use style="fill:#ff0000;fill-opacity:0.8;stroke:#ff0000;stroke-opacity:0.8;" x="312.284075" xlink:href="#m3bbd320204" y="79.946842"/>
     <use style="fill:#ff0000;fill-opacity:0.8;stroke:#ff0000;stroke-opacity:0.8;" x="218.433527" xlink:href="#m3bbd320204" y="111.296241"/>
     <use style="fill:#ff0000;fill-opacity:0.8;stroke:#ff0000;stroke-opacity:0.8;" x="73.945946" xlink:href="#m3bbd320204" y="53.519041"/>
     <use style="fill:#ff0000;fill-opacity:0.8;stroke:#ff0000;stroke-opacity:0.8;" x="201.213492" xlink:href="#m3bbd320204" y="181.259257"/>
    </g>
   </g>
   <g id="patch_3">
    <path d="M 54 214.2 
L 54 29.376 
" style="fill:none;stroke:#bcbcbc;stroke-linecap:square;stroke-linejoin:miter;stroke-width:0.8;"/>
   </g>
   <g id="patch_4">
    <path d="M 388.8 214.2 
L 388.8 29.376 
" style="fill:none;stroke:#bcbcbc;stroke-linecap:square;stroke-linejoin:miter;stroke-width:0.8;"/>
   </g>
   <g id="patch_5">
    <path d="M 54 214.2 
L 388.8 214.2 
" style="fill:none;stroke:#bcbcbc;stroke-linecap:square;stroke-linejoin:miter;stroke-width:0.8;"/>
   </g>
   <g id="patch_6">
    <path d="M 54 29.376 
L 388.8 29.376 
" style="fill:none;stroke:#bcbcbc;stroke-linecap:square;stroke-linejoin:miter;stroke-width:0.8;"/>
   </g>
   <g id="text_20">
    <!-- low and high fidelity toy model -->
    <defs>
     <path d="M 9.421875 75.984375 
L 18.40625 75.984375 
L 18.40625 0 
L 9.421875 0 
z
" id="DejaVuSans-108"/>
     <path d="M 30.609375 48.390625 
Q 23.390625 48.390625 19.1875 42.75 
Q 14.984375 37.109375 14.984375 27.296875 
Q 14.984375 17.484375 19.15625 11.84375 
Q 23.34375 6.203125 30.609375 6.203125 
Q 37.796875 6.203125 41.984375 11.859375 
Q 46.1875 17.53125 46.1875 27.296875 
Q 46.1875 37.015625 41.984375 42.703125 
Q 37.796875 48.390625 30.609375 48.390625 
z
M 30.609375 56 
Q 42.328125 56 49.015625 48.375 
Q 55.71875 40.765625 55.71875 27.296875 
Q 55.71875 13.875 49.015625 6.21875 
Q 42.328125 -1.421875 30.609375 -1.421875 
Q 18.84375 -1.421875 12.171875 6.21875 
Q 5.515625 13.875 5.515625 27.296875 
Q 5.515625 40.765625 12.171875 48.375 
Q 18.84375 56 30.609375 56 
z
" id="DejaVuSans-111"/>
     <path d="M 4.203125 54.6875 
L 13.1875 54.6875 
L 24.421875 12.015625 
L 35.59375 54.6875 
L 46.1875 54.6875 
L 57.421875 12.015625 
L 68.609375 54.6875 
L 77.59375 54.6875 
L 63.28125 0 
L 52.6875 0 
L 40.921875 44.828125 
L 29.109375 0 
L 18.5 0 
z
" id="DejaVuSans-119"/>
     <path id="DejaVuSans-32"/>
     <path d="M 34.28125 27.484375 
Q 23.390625 27.484375 19.1875 25 
Q 14.984375 22.515625 14.984375 16.5 
Q 14.984375 11.71875 18.140625 8.90625 
Q 21.296875 6.109375 26.703125 6.109375 
Q 34.1875 6.109375 38.703125 11.40625 
Q 43.21875 16.703125 43.21875 25.484375 
L 43.21875 27.484375 
z
M 52.203125 31.203125 
L 52.203125 0 
L 43.21875 0 
L 43.21875 8.296875 
Q 40.140625 3.328125 35.546875 0.953125 
Q 30.953125 -1.421875 24.3125 -1.421875 
Q 15.921875 -1.421875 10.953125 3.296875 
Q 6 8.015625 6 15.921875 
Q 6 25.140625 12.171875 29.828125 
Q 18.359375 34.515625 30.609375 34.515625 
L 43.21875 34.515625 
L 43.21875 35.40625 
Q 43.21875 41.609375 39.140625 45 
Q 35.0625 48.390625 27.6875 48.390625 
Q 23 48.390625 18.546875 47.265625 
Q 14.109375 46.140625 10.015625 43.890625 
L 10.015625 52.203125 
Q 14.9375 54.109375 19.578125 55.046875 
Q 24.21875 56 28.609375 56 
Q 40.484375 56 46.34375 49.84375 
Q 52.203125 43.703125 52.203125 31.203125 
z
" id="DejaVuSans-97"/>
     <path d="M 54.890625 33.015625 
L 54.890625 0 
L 45.90625 0 
L 45.90625 32.71875 
Q 45.90625 40.484375 42.875 44.328125 
Q 39.84375 48.1875 33.796875 48.1875 
Q 26.515625 48.1875 22.3125 43.546875 
Q 18.109375 38.921875 18.109375 30.90625 
L 18.109375 0 
L 9.078125 0 
L 9.078125 54.6875 
L 18.109375 54.6875 
L 18.109375 46.1875 
Q 21.34375 51.125 25.703125 53.5625 
Q 30.078125 56 35.796875 56 
Q 45.21875 56 50.046875 50.171875 
Q 54.890625 44.34375 54.890625 33.015625 
z
" id="DejaVuSans-110"/>
     <path d="M 45.40625 46.390625 
L 45.40625 75.984375 
L 54.390625 75.984375 
L 54.390625 0 
L 45.40625 0 
L 45.40625 8.203125 
Q 42.578125 3.328125 38.25 0.953125 
Q 33.9375 -1.421875 27.875 -1.421875 
Q 17.96875 -1.421875 11.734375 6.484375 
Q 5.515625 14.40625 5.515625 27.296875 
Q 5.515625 40.1875 11.734375 48.09375 
Q 17.96875 56 27.875 56 
Q 33.9375 56 38.25 53.625 
Q 42.578125 51.265625 45.40625 46.390625 
z
M 14.796875 27.296875 
Q 14.796875 17.390625 18.875 11.75 
Q 22.953125 6.109375 30.078125 6.109375 
Q 37.203125 6.109375 41.296875 11.75 
Q 45.40625 17.390625 45.40625 27.296875 
Q 45.40625 37.203125 41.296875 42.84375 
Q 37.203125 48.484375 30.078125 48.484375 
Q 22.953125 48.484375 18.875 42.84375 
Q 14.796875 37.203125 14.796875 27.296875 
z
" id="DejaVuSans-100"/>
     <path d="M 54.890625 33.015625 
L 54.890625 0 
L 45.90625 0 
L 45.90625 32.71875 
Q 45.90625 40.484375 42.875 44.328125 
Q 39.84375 48.1875 33.796875 48.1875 
Q 26.515625 48.1875 22.3125 43.546875 
Q 18.109375 38.921875 18.109375 30.90625 
L 18.109375 0 
L 9.078125 0 
L 9.078125 75.984375 
L 18.109375 75.984375 
L 18.109375 46.1875 
Q 21.34375 51.125 25.703125 53.5625 
Q 30.078125 56 35.796875 56 
Q 45.21875 56 50.046875 50.171875 
Q 54.890625 44.34375 54.890625 33.015625 
z
" id="DejaVuSans-104"/>
     <path d="M 9.421875 54.6875 
L 18.40625 54.6875 
L 18.40625 0 
L 9.421875 0 
z
M 9.421875 75.984375 
L 18.40625 75.984375 
L 18.40625 64.59375 
L 9.421875 64.59375 
z
" id="DejaVuSans-105"/>
     <path d="M 45.40625 27.984375 
Q 45.40625 37.75 41.375 43.109375 
Q 37.359375 48.484375 30.078125 48.484375 
Q 22.859375 48.484375 18.828125 43.109375 
Q 14.796875 37.75 14.796875 27.984375 
Q 14.796875 18.265625 18.828125 12.890625 
Q 22.859375 7.515625 30.078125 7.515625 
Q 37.359375 7.515625 41.375 12.890625 
Q 45.40625 18.265625 45.40625 27.984375 
z
M 54.390625 6.78125 
Q 54.390625 -7.171875 48.1875 -13.984375 
Q 42 -20.796875 29.203125 -20.796875 
Q 24.46875 -20.796875 20.265625 -20.09375 
Q 16.0625 -19.390625 12.109375 -17.921875 
L 12.109375 -9.1875 
Q 16.0625 -11.328125 19.921875 -12.34375 
Q 23.78125 -13.375 27.78125 -13.375 
Q 36.625 -13.375 41.015625 -8.765625 
Q 45.40625 -4.15625 45.40625 5.171875 
L 45.40625 9.625 
Q 42.625 4.78125 38.28125 2.390625 
Q 33.9375 0 27.875 0 
Q 17.828125 0 11.671875 7.65625 
Q 5.515625 15.328125 5.515625 27.984375 
Q 5.515625 40.671875 11.671875 48.328125 
Q 17.828125 56 27.875 56 
Q 33.9375 56 38.28125 53.609375 
Q 42.625 51.21875 45.40625 46.390625 
L 45.40625 54.6875 
L 54.390625 54.6875 
z
" id="DejaVuSans-103"/>
     <path d="M 37.109375 75.984375 
L 37.109375 68.5 
L 28.515625 68.5 
Q 23.6875 68.5 21.796875 66.546875 
Q 19.921875 64.59375 19.921875 59.515625 
L 19.921875 54.6875 
L 34.71875 54.6875 
L 34.71875 47.703125 
L 19.921875 47.703125 
L 19.921875 0 
L 10.890625 0 
L 10.890625 47.703125 
L 2.296875 47.703125 
L 2.296875 54.6875 
L 10.890625 54.6875 
L 10.890625 58.5 
Q 10.890625 67.625 15.140625 71.796875 
Q 19.390625 75.984375 28.609375 75.984375 
z
" id="DejaVuSans-102"/>
     <path d="M 56.203125 29.59375 
L 56.203125 25.203125 
L 14.890625 25.203125 
Q 15.484375 15.921875 20.484375 11.0625 
Q 25.484375 6.203125 34.421875 6.203125 
Q 39.59375 6.203125 44.453125 7.46875 
Q 49.3125 8.734375 54.109375 11.28125 
L 54.109375 2.78125 
Q 49.265625 0.734375 44.1875 -0.34375 
Q 39.109375 -1.421875 33.890625 -1.421875 
Q 20.796875 -1.421875 13.15625 6.1875 
Q 5.515625 13.8125 5.515625 26.8125 
Q 5.515625 40.234375 12.765625 48.109375 
Q 20.015625 56 32.328125 56 
Q 43.359375 56 49.78125 48.890625 
Q 56.203125 41.796875 56.203125 29.59375 
z
M 47.21875 32.234375 
Q 47.125 39.59375 43.09375 43.984375 
Q 39.0625 48.390625 32.421875 48.390625 
Q 24.90625 48.390625 20.390625 44.140625 
Q 15.875 39.890625 15.1875 32.171875 
z
" id="DejaVuSans-101"/>
     <path d="M 18.3125 70.21875 
L 18.3125 54.6875 
L 36.8125 54.6875 
L 36.8125 47.703125 
L 18.3125 47.703125 
L 18.3125 18.015625 
Q 18.3125 11.328125 20.140625 9.421875 
Q 21.96875 7.515625 27.59375 7.515625 
L 36.8125 7.515625 
L 36.8125 0 
L 27.59375 0 
Q 17.1875 0 13.234375 3.875 
Q 9.28125 7.765625 9.28125 18.015625 
L 9.28125 47.703125 
L 2.6875 47.703125 
L 2.6875 54.6875 
L 9.28125 54.6875 
L 9.28125 70.21875 
z
" id="DejaVuSans-116"/>
     <path d="M 32.171875 -5.078125 
Q 28.375 -14.84375 24.75 -17.8125 
Q 21.140625 -20.796875 15.09375 -20.796875 
L 7.90625 -20.796875 
L 7.90625 -13.28125 
L 13.1875 -13.28125 
Q 16.890625 -13.28125 18.9375 -11.515625 
Q 21 -9.765625 23.484375 -3.21875 
L 25.09375 0.875 
L 2.984375 54.6875 
L 12.5 54.6875 
L 29.59375 11.921875 
L 46.6875 54.6875 
L 56.203125 54.6875 
z
" id="DejaVuSans-121"/>
     <path d="M 52 44.1875 
Q 55.375 50.25 60.0625 53.125 
Q 64.75 56 71.09375 56 
Q 79.640625 56 84.28125 50.015625 
Q 88.921875 44.046875 88.921875 33.015625 
L 88.921875 0 
L 79.890625 0 
L 79.890625 32.71875 
Q 79.890625 40.578125 77.09375 44.375 
Q 74.3125 48.1875 68.609375 48.1875 
Q 61.625 48.1875 57.5625 43.546875 
Q 53.515625 38.921875 53.515625 30.90625 
L 53.515625 0 
L 44.484375 0 
L 44.484375 32.71875 
Q 44.484375 40.625 41.703125 44.40625 
Q 38.921875 48.1875 33.109375 48.1875 
Q 26.21875 48.1875 22.15625 43.53125 
Q 18.109375 38.875 18.109375 30.90625 
L 18.109375 0 
L 9.078125 0 
L 9.078125 54.6875 
L 18.109375 54.6875 
L 18.109375 46.1875 
Q 21.1875 51.21875 25.484375 53.609375 
Q 29.78125 56 35.6875 56 
Q 41.65625 56 45.828125 52.96875 
Q 50 49.953125 52 44.1875 
z
" id="DejaVuSans-109"/>
    </defs>
    <g transform="translate(109.891125 23.376)scale(0.144 -0.144)">
     <use xlink:href="#DejaVuSans-108"/>
     <use x="27.783203" xlink:href="#DejaVuSans-111"/>
     <use x="88.964844" xlink:href="#DejaVuSans-119"/>
     <use x="170.751953" xlink:href="#DejaVuSans-32"/>
     <use x="202.539062" xlink:href="#DejaVuSans-97"/>
     <use x="263.818359" xlink:href="#DejaVuSans-110"/>
     <use x="327.197266" xlink:href="#DejaVuSans-100"/>
     <use x="390.673828" xlink:href="#DejaVuSans-32"/>
     <use x="422.460938" xlink:href="#DejaVuSans-104"/>
     <use x="485.839844" xlink:href="#DejaVuSans-105"/>
     <use x="513.623047" xlink:href="#DejaVuSans-103"/>
     <use x="577.099609" xlink:href="#DejaVuSans-104"/>
     <use x="640.478516" xlink:href="#DejaVuSans-32"/>
     <use x="672.265625" xlink:href="#DejaVuSans-102"/>
     <use x="707.470703" xlink:href="#DejaVuSans-105"/>
     <use x="735.253906" xlink:href="#DejaVuSans-100"/>
     <use x="798.730469" xlink:href="#DejaVuSans-101"/>
     <use x="860.253906" xlink:href="#DejaVuSans-108"/>
     <use x="888.037109" xlink:href="#DejaVuSans-105"/>
     <use x="915.820312" xlink:href="#DejaVuSans-116"/>
     <use x="955.029297" xlink:href="#DejaVuSans-121"/>
     <use x="1014.208984" xlink:href="#DejaVuSans-32"/>
     <use x="1045.996094" xlink:href="#DejaVuSans-116"/>
     <use x="1085.205078" xlink:href="#DejaVuSans-111"/>
     <use x="1146.386719" xlink:href="#DejaVuSans-121"/>
     <use x="1205.566406" xlink:href="#DejaVuSans-32"/>
     <use x="1237.353516" xlink:href="#DejaVuSans-109"/>
     <use x="1334.765625" xlink:href="#DejaVuSans-111"/>
     <use x="1395.947266" xlink:href="#DejaVuSans-100"/>
     <use x="1459.423828" xlink:href="#DejaVuSans-101"/>
     <use x="1520.947266" xlink:href="#DejaVuSans-108"/>
    </g>
   </g>
  </g>
 </g>
 <defs>
  <clipPath id="p9e29769c23">
   <rect height="184.824" width="334.8" x="54" y="29.376"/>
  </clipPath>
 </defs>
</svg>
