<?xml version="1.0" encoding="utf-8" standalone="no"?>
<!DOCTYPE svg PUBLIC "-//W3C//DTD SVG 1.1//EN"
  "http://www.w3.org/Graphics/SVG/1.1/DTD/svg11.dtd">
<!-- Created with matplotlib (https://matplotlib.org/) -->
<svg height="216pt" version="1.1" viewBox="0 0 432 216" width="432pt" xmlns="http://www.w3.org/2000/svg" xmlns:xlink="http://www.w3.org/1999/xlink">
 <defs>
  <style type="text/css">
*{stroke-linecap:butt;stroke-linejoin:round;}
  </style>
 </defs>
 <g id="figure_1">
  <g id="patch_1">
   <path d="M 0 216 
L 432 216 
L 432 0 
L 0 0 
z
" style="fill:none;"/>
  </g>
  <g id="axes_1">
   <g id="patch_2">
    <path d="M 54 189 
L 388.8 189 
L 388.8 25.92 
L 54 25.92 
z
" style="fill:none;"/>
   </g>
   <g id="matplotlib.axis_1">
    <g id="xtick_1">
     <g id="line2d_1">
      <path clip-path="url(#p9114194af1)" d="M 69.218182 189 
L 69.218182 25.92 
" style="fill:none;stroke:#b2b2b2;stroke-dasharray:1.85,0.8;stroke-dashoffset:0;stroke-width:0.5;"/>
     </g>
     <g id="line2d_2">
      <defs>
       <path d="M 0 0 
L 0 -3.5 
" id="mf71659c489" style="stroke:#000000;stroke-width:0.8;"/>
      </defs>
      <g>
       <use style="stroke:#000000;stroke-width:0.8;" x="69.218182" xlink:href="#mf71659c489" y="189"/>
      </g>
     </g>
     <g id="text_1">
      <!-- −1.00 -->
      <defs>
       <path d="M 10.59375 35.5 
L 73.1875 35.5 
L 73.1875 27.203125 
L 10.59375 27.203125 
z
" id="DejaVuSans-8722"/>
       <path d="M 12.40625 8.296875 
L 28.515625 8.296875 
L 28.515625 63.921875 
L 10.984375 60.40625 
L 10.984375 69.390625 
L 28.421875 72.90625 
L 38.28125 72.90625 
L 38.28125 8.296875 
L 54.390625 8.296875 
L 54.390625 0 
L 12.40625 0 
z
" id="DejaVuSans-49"/>
       <path d="M 10.6875 12.40625 
L 21 12.40625 
L 21 0 
L 10.6875 0 
z
" id="DejaVuSans-46"/>
       <path d="M 31.78125 66.40625 
Q 24.171875 66.40625 20.328125 58.90625 
Q 16.5 51.421875 16.5 36.375 
Q 16.5 21.390625 20.328125 13.890625 
Q 24.171875 6.390625 31.78125 6.390625 
Q 39.453125 6.390625 43.28125 13.890625 
Q 47.125 21.390625 47.125 36.375 
Q 47.125 51.421875 43.28125 58.90625 
Q 39.453125 66.40625 31.78125 66.40625 
z
M 31.78125 74.21875 
Q 44.046875 74.21875 50.515625 64.515625 
Q 56.984375 54.828125 56.984375 36.375 
Q 56.984375 17.96875 50.515625 8.265625 
Q 44.046875 -1.421875 31.78125 -1.421875 
Q 19.53125 -1.421875 13.0625 8.265625 
Q 6.59375 17.96875 6.59375 36.375 
Q 6.59375 54.828125 13.0625 64.515625 
Q 19.53125 74.21875 31.78125 74.21875 
z
" id="DejaVuSans-48"/>
      </defs>
      <g transform="translate(53.895526 200.098437)scale(0.1 -0.1)">
       <use xlink:href="#DejaVuSans-8722"/>
       <use x="83.789062" xlink:href="#DejaVuSans-49"/>
       <use x="147.412109" xlink:href="#DejaVuSans-46"/>
       <use x="179.199219" xlink:href="#DejaVuSans-48"/>
       <use x="242.822266" xlink:href="#DejaVuSans-48"/>
      </g>
     </g>
    </g>
    <g id="xtick_2">
     <g id="line2d_3">
      <path clip-path="url(#p9114194af1)" d="M 107.263636 189 
L 107.263636 25.92 
" style="fill:none;stroke:#b2b2b2;stroke-dasharray:1.85,0.8;stroke-dashoffset:0;stroke-width:0.5;"/>
     </g>
     <g id="line2d_4">
      <g>
       <use style="stroke:#000000;stroke-width:0.8;" x="107.263636" xlink:href="#mf71659c489" y="189"/>
      </g>
     </g>
     <g id="text_2">
      <!-- −0.75 -->
      <defs>
       <path d="M 8.203125 72.90625 
L 55.078125 72.90625 
L 55.078125 68.703125 
L 28.609375 0 
L 18.3125 0 
L 43.21875 64.59375 
L 8.203125 64.59375 
z
" id="DejaVuSans-55"/>
       <path d="M 10.796875 72.90625 
L 49.515625 72.90625 
L 49.515625 64.59375 
L 19.828125 64.59375 
L 19.828125 46.734375 
Q 21.96875 47.46875 24.109375 47.828125 
Q 26.265625 48.1875 28.421875 48.1875 
Q 40.625 48.1875 47.75 41.5 
Q 54.890625 34.8125 54.890625 23.390625 
Q 54.890625 11.625 47.5625 5.09375 
Q 40.234375 -1.421875 26.90625 -1.421875 
Q 22.3125 -1.421875 17.546875 -0.640625 
Q 12.796875 0.140625 7.71875 1.703125 
L 7.71875 11.625 
Q 12.109375 9.234375 16.796875 8.0625 
Q 21.484375 6.890625 26.703125 6.890625 
Q 35.15625 6.890625 40.078125 11.328125 
Q 45.015625 15.765625 45.015625 23.390625 
Q 45.015625 31 40.078125 35.4375 
Q 35.15625 39.890625 26.703125 39.890625 
Q 22.75 39.890625 18.8125 39.015625 
Q 14.890625 38.140625 10.796875 36.28125 
z
" id="DejaVuSans-53"/>
      </defs>
      <g transform="translate(91.94098 200.098437)scale(0.1 -0.1)">
       <use xlink:href="#DejaVuSans-8722"/>
       <use x="83.789062" xlink:href="#DejaVuSans-48"/>
       <use x="147.412109" xlink:href="#DejaVuSans-46"/>
       <use x="179.199219" xlink:href="#DejaVuSans-55"/>
       <use x="242.822266" xlink:href="#DejaVuSans-53"/>
      </g>
     </g>
    </g>
    <g id="xtick_3">
     <g id="line2d_5">
      <path clip-path="url(#p9114194af1)" d="M 145.309091 189 
L 145.309091 25.92 
" style="fill:none;stroke:#b2b2b2;stroke-dasharray:1.85,0.8;stroke-dashoffset:0;stroke-width:0.5;"/>
     </g>
     <g id="line2d_6">
      <g>
       <use style="stroke:#000000;stroke-width:0.8;" x="145.309091" xlink:href="#mf71659c489" y="189"/>
      </g>
     </g>
     <g id="text_3">
      <!-- −0.50 -->
      <g transform="translate(129.986435 200.098437)scale(0.1 -0.1)">
       <use xlink:href="#DejaVuSans-8722"/>
       <use x="83.789062" xlink:href="#DejaVuSans-48"/>
       <use x="147.412109" xlink:href="#DejaVuSans-46"/>
       <use x="179.199219" xlink:href="#DejaVuSans-53"/>
       <use x="242.822266" xlink:href="#DejaVuSans-48"/>
      </g>
     </g>
    </g>
    <g id="xtick_4">
     <g id="line2d_7">
      <path clip-path="url(#p9114194af1)" d="M 183.354545 189 
L 183.354545 25.92 
" style="fill:none;stroke:#b2b2b2;stroke-dasharray:1.85,0.8;stroke-dashoffset:0;stroke-width:0.5;"/>
     </g>
     <g id="line2d_8">
      <g>
       <use style="stroke:#000000;stroke-width:0.8;" x="183.354545" xlink:href="#mf71659c489" y="189"/>
      </g>
     </g>
     <g id="text_4">
      <!-- −0.25 -->
      <defs>
       <path d="M 19.1875 8.296875 
L 53.609375 8.296875 
L 53.609375 0 
L 7.328125 0 
L 7.328125 8.296875 
Q 12.9375 14.109375 22.625 23.890625 
Q 32.328125 33.6875 34.8125 36.53125 
Q 39.546875 41.84375 41.421875 45.53125 
Q 43.3125 49.21875 43.3125 52.78125 
Q 43.3125 58.59375 39.234375 62.25 
Q 35.15625 65.921875 28.609375 65.921875 
Q 23.96875 65.921875 18.8125 64.3125 
Q 13.671875 62.703125 7.8125 59.421875 
L 7.8125 69.390625 
Q 13.765625 71.78125 18.9375 73 
Q 24.125 74.21875 28.421875 74.21875 
Q 39.75 74.21875 46.484375 68.546875 
Q 53.21875 62.890625 53.21875 53.421875 
Q 53.21875 48.921875 51.53125 44.890625 
Q 49.859375 40.875 45.40625 35.40625 
Q 44.1875 33.984375 37.640625 27.21875 
Q 31.109375 20.453125 19.1875 8.296875 
z
" id="DejaVuSans-50"/>
      </defs>
      <g transform="translate(168.031889 200.098437)scale(0.1 -0.1)">
       <use xlink:href="#DejaVuSans-8722"/>
       <use x="83.789062" xlink:href="#DejaVuSans-48"/>
       <use x="147.412109" xlink:href="#DejaVuSans-46"/>
       <use x="179.199219" xlink:href="#DejaVuSans-50"/>
       <use x="242.822266" xlink:href="#DejaVuSans-53"/>
      </g>
     </g>
    </g>
    <g id="xtick_5">
     <g id="line2d_9">
      <path clip-path="url(#p9114194af1)" d="M 221.4 189 
L 221.4 25.92 
" style="fill:none;stroke:#b2b2b2;stroke-dasharray:1.85,0.8;stroke-dashoffset:0;stroke-width:0.5;"/>
     </g>
     <g id="line2d_10">
      <g>
       <use style="stroke:#000000;stroke-width:0.8;" x="221.4" xlink:href="#mf71659c489" y="189"/>
      </g>
     </g>
     <g id="text_5">
      <!-- 0.00 -->
      <g transform="translate(210.267188 200.098437)scale(0.1 -0.1)">
       <use xlink:href="#DejaVuSans-48"/>
       <use x="63.623047" xlink:href="#DejaVuSans-46"/>
       <use x="95.410156" xlink:href="#DejaVuSans-48"/>
       <use x="159.033203" xlink:href="#DejaVuSans-48"/>
      </g>
     </g>
    </g>
    <g id="xtick_6">
     <g id="line2d_11">
      <path clip-path="url(#p9114194af1)" d="M 259.445455 189 
L 259.445455 25.92 
" style="fill:none;stroke:#b2b2b2;stroke-dasharray:1.85,0.8;stroke-dashoffset:0;stroke-width:0.5;"/>
     </g>
     <g id="line2d_12">
      <g>
       <use style="stroke:#000000;stroke-width:0.8;" x="259.445455" xlink:href="#mf71659c489" y="189"/>
      </g>
     </g>
     <g id="text_6">
      <!-- 0.25 -->
      <g transform="translate(248.312642 200.098437)scale(0.1 -0.1)">
       <use xlink:href="#DejaVuSans-48"/>
       <use x="63.623047" xlink:href="#DejaVuSans-46"/>
       <use x="95.410156" xlink:href="#DejaVuSans-50"/>
       <use x="159.033203" xlink:href="#DejaVuSans-53"/>
      </g>
     </g>
    </g>
    <g id="xtick_7">
     <g id="line2d_13">
      <path clip-path="url(#p9114194af1)" d="M 297.490909 189 
L 297.490909 25.92 
" style="fill:none;stroke:#b2b2b2;stroke-dasharray:1.85,0.8;stroke-dashoffset:0;stroke-width:0.5;"/>
     </g>
     <g id="line2d_14">
      <g>
       <use style="stroke:#000000;stroke-width:0.8;" x="297.490909" xlink:href="#mf71659c489" y="189"/>
      </g>
     </g>
     <g id="text_7">
      <!-- 0.50 -->
      <g transform="translate(286.358097 200.098437)scale(0.1 -0.1)">
       <use xlink:href="#DejaVuSans-48"/>
       <use x="63.623047" xlink:href="#DejaVuSans-46"/>
       <use x="95.410156" xlink:href="#DejaVuSans-53"/>
       <use x="159.033203" xlink:href="#DejaVuSans-48"/>
      </g>
     </g>
    </g>
    <g id="xtick_8">
     <g id="line2d_15">
      <path clip-path="url(#p9114194af1)" d="M 335.536364 189 
L 335.536364 25.92 
" style="fill:none;stroke:#b2b2b2;stroke-dasharray:1.85,0.8;stroke-dashoffset:0;stroke-width:0.5;"/>
     </g>
     <g id="line2d_16">
      <g>
       <use style="stroke:#000000;stroke-width:0.8;" x="335.536364" xlink:href="#mf71659c489" y="189"/>
      </g>
     </g>
     <g id="text_8">
      <!-- 0.75 -->
      <g transform="translate(324.403551 200.098437)scale(0.1 -0.1)">
       <use xlink:href="#DejaVuSans-48"/>
       <use x="63.623047" xlink:href="#DejaVuSans-46"/>
       <use x="95.410156" xlink:href="#DejaVuSans-55"/>
       <use x="159.033203" xlink:href="#DejaVuSans-53"/>
      </g>
     </g>
    </g>
    <g id="xtick_9">
     <g id="line2d_17">
      <path clip-path="url(#p9114194af1)" d="M 373.581818 189 
L 373.581818 25.92 
" style="fill:none;stroke:#b2b2b2;stroke-dasharray:1.85,0.8;stroke-dashoffset:0;stroke-width:0.5;"/>
     </g>
     <g id="line2d_18">
      <g>
       <use style="stroke:#000000;stroke-width:0.8;" x="373.581818" xlink:href="#mf71659c489" y="189"/>
      </g>
     </g>
     <g id="text_9">
      <!-- 1.00 -->
      <g transform="translate(362.449006 200.098437)scale(0.1 -0.1)">
       <use xlink:href="#DejaVuSans-49"/>
       <use x="63.623047" xlink:href="#DejaVuSans-46"/>
       <use x="95.410156" xlink:href="#DejaVuSans-48"/>
       <use x="159.033203" xlink:href="#DejaVuSans-48"/>
      </g>
     </g>
    </g>
    <g id="text_10">
     <!-- $x$ -->
     <defs>
      <path d="M 7.8125 2.875 
Q 9.578125 1.515625 12.796875 1.515625 
Q 15.921875 1.515625 18.3125 4.515625 
Q 20.703125 7.515625 21.578125 11.078125 
L 26.125 28.8125 
Q 27.203125 33.640625 27.203125 35.40625 
Q 27.203125 37.890625 25.8125 39.75 
Q 24.421875 41.609375 21.921875 41.609375 
Q 18.75 41.609375 15.96875 39.625 
Q 13.1875 37.640625 11.28125 34.59375 
Q 9.375 31.546875 8.59375 28.421875 
Q 8.40625 27.78125 7.8125 27.78125 
L 6.59375 27.78125 
Q 5.8125 27.78125 5.8125 28.71875 
L 5.8125 29 
Q 6.78125 32.71875 9.125 36.25 
Q 11.46875 39.796875 14.859375 41.984375 
Q 18.265625 44.1875 22.125 44.1875 
Q 25.78125 44.1875 28.734375 42.234375 
Q 31.6875 40.28125 32.90625 36.921875 
Q 34.625 39.984375 37.28125 42.078125 
Q 39.9375 44.1875 43.109375 44.1875 
Q 45.265625 44.1875 47.5 43.421875 
Q 49.75 42.671875 51.171875 41.109375 
Q 52.59375 39.546875 52.59375 37.203125 
Q 52.59375 34.671875 50.953125 32.828125 
Q 49.3125 31 46.78125 31 
Q 45.171875 31 44.09375 32.03125 
Q 43.015625 33.0625 43.015625 34.625 
Q 43.015625 36.71875 44.453125 38.296875 
Q 45.90625 39.890625 47.90625 40.1875 
Q 46.09375 41.609375 42.921875 41.609375 
Q 39.703125 41.609375 37.328125 38.625 
Q 34.96875 35.640625 33.984375 31.984375 
L 29.59375 14.3125 
Q 28.515625 10.296875 28.515625 7.71875 
Q 28.515625 5.171875 29.953125 3.34375 
Q 31.390625 1.515625 33.796875 1.515625 
Q 38.484375 1.515625 42.15625 5.640625 
Q 45.84375 9.765625 47.015625 14.703125 
Q 47.21875 15.28125 47.796875 15.28125 
L 49.03125 15.28125 
Q 49.421875 15.28125 49.65625 15.015625 
Q 49.90625 14.75 49.90625 14.40625 
Q 49.90625 14.3125 49.8125 14.109375 
Q 48.390625 8.15625 43.84375 3.515625 
Q 39.3125 -1.125 33.59375 -1.125 
Q 29.9375 -1.125 26.984375 0.84375 
Q 24.03125 2.828125 22.796875 6.203125 
Q 21.234375 3.265625 18.46875 1.0625 
Q 15.71875 -1.125 12.59375 -1.125 
Q 10.453125 -1.125 8.171875 -0.359375 
Q 5.90625 0.390625 4.484375 1.953125 
Q 3.078125 3.515625 3.078125 5.90625 
Q 3.078125 8.25 4.703125 10.171875 
Q 6.34375 12.109375 8.796875 12.109375 
Q 10.453125 12.109375 11.578125 11.109375 
Q 12.703125 10.109375 12.703125 8.5 
Q 12.703125 6.390625 11.296875 4.828125 
Q 9.90625 3.265625 7.8125 2.875 
z
" id="Cmmi10-120"/>
     </defs>
     <g transform="translate(217.92 215.29625)scale(0.12 -0.12)">
      <use transform="translate(0 0.8125)" xlink:href="#Cmmi10-120"/>
     </g>
    </g>
   </g>
   <g id="matplotlib.axis_2">
    <g id="ytick_1">
     <g id="line2d_19">
      <path clip-path="url(#p9114194af1)" d="M 54 176.480227 
L 388.8 176.480227 
" style="fill:none;stroke:#b2b2b2;stroke-dasharray:1.85,0.8;stroke-dashoffset:0;stroke-width:0.5;"/>
     </g>
     <g id="line2d_20">
      <defs>
       <path d="M 0 0 
L 3.5 0 
" id="m4be1e8aed4" style="stroke:#000000;stroke-width:0.8;"/>
      </defs>
      <g>
       <use style="stroke:#000000;stroke-width:0.8;" x="54" xlink:href="#m4be1e8aed4" y="176.480227"/>
      </g>
     </g>
     <g id="text_11">
      <!-- −0.75 -->
      <g transform="translate(19.854687 180.279445)scale(0.1 -0.1)">
       <use xlink:href="#DejaVuSans-8722"/>
       <use x="83.789062" xlink:href="#DejaVuSans-48"/>
       <use x="147.412109" xlink:href="#DejaVuSans-46"/>
       <use x="179.199219" xlink:href="#DejaVuSans-55"/>
       <use x="242.822266" xlink:href="#DejaVuSans-53"/>
      </g>
     </g>
    </g>
    <g id="ytick_2">
     <g id="line2d_21">
      <path clip-path="url(#p9114194af1)" d="M 54 155.034779 
L 388.8 155.034779 
" style="fill:none;stroke:#b2b2b2;stroke-dasharray:1.85,0.8;stroke-dashoffset:0;stroke-width:0.5;"/>
     </g>
     <g id="line2d_22">
      <g>
       <use style="stroke:#000000;stroke-width:0.8;" x="54" xlink:href="#m4be1e8aed4" y="155.034779"/>
      </g>
     </g>
     <g id="text_12">
      <!-- −0.50 -->
      <g transform="translate(19.854687 158.833998)scale(0.1 -0.1)">
       <use xlink:href="#DejaVuSans-8722"/>
       <use x="83.789062" xlink:href="#DejaVuSans-48"/>
       <use x="147.412109" xlink:href="#DejaVuSans-46"/>
       <use x="179.199219" xlink:href="#DejaVuSans-53"/>
       <use x="242.822266" xlink:href="#DejaVuSans-48"/>
      </g>
     </g>
    </g>
    <g id="ytick_3">
     <g id="line2d_23">
      <path clip-path="url(#p9114194af1)" d="M 54 133.589332 
L 388.8 133.589332 
" style="fill:none;stroke:#b2b2b2;stroke-dasharray:1.85,0.8;stroke-dashoffset:0;stroke-width:0.5;"/>
     </g>
     <g id="line2d_24">
      <g>
       <use style="stroke:#000000;stroke-width:0.8;" x="54" xlink:href="#m4be1e8aed4" y="133.589332"/>
      </g>
     </g>
     <g id="text_13">
      <!-- −0.25 -->
      <g transform="translate(19.854687 137.388551)scale(0.1 -0.1)">
       <use xlink:href="#DejaVuSans-8722"/>
       <use x="83.789062" xlink:href="#DejaVuSans-48"/>
       <use x="147.412109" xlink:href="#DejaVuSans-46"/>
       <use x="179.199219" xlink:href="#DejaVuSans-50"/>
       <use x="242.822266" xlink:href="#DejaVuSans-53"/>
      </g>
     </g>
    </g>
    <g id="ytick_4">
     <g id="line2d_25">
      <path clip-path="url(#p9114194af1)" d="M 54 112.143885 
L 388.8 112.143885 
" style="fill:none;stroke:#b2b2b2;stroke-dasharray:1.85,0.8;stroke-dashoffset:0;stroke-width:0.5;"/>
     </g>
     <g id="line2d_26">
      <g>
       <use style="stroke:#000000;stroke-width:0.8;" x="54" xlink:href="#m4be1e8aed4" y="112.143885"/>
      </g>
     </g>
     <g id="text_14">
      <!-- 0.00 -->
      <g transform="translate(28.234375 115.943104)scale(0.1 -0.1)">
       <use xlink:href="#DejaVuSans-48"/>
       <use x="63.623047" xlink:href="#DejaVuSans-46"/>
       <use x="95.410156" xlink:href="#DejaVuSans-48"/>
       <use x="159.033203" xlink:href="#DejaVuSans-48"/>
      </g>
     </g>
    </g>
    <g id="ytick_5">
     <g id="line2d_27">
      <path clip-path="url(#p9114194af1)" d="M 54 90.698438 
L 388.8 90.698438 
" style="fill:none;stroke:#b2b2b2;stroke-dasharray:1.85,0.8;stroke-dashoffset:0;stroke-width:0.5;"/>
     </g>
     <g id="line2d_28">
      <g>
       <use style="stroke:#000000;stroke-width:0.8;" x="54" xlink:href="#m4be1e8aed4" y="90.698438"/>
      </g>
     </g>
     <g id="text_15">
      <!-- 0.25 -->
      <g transform="translate(28.234375 94.497657)scale(0.1 -0.1)">
       <use xlink:href="#DejaVuSans-48"/>
       <use x="63.623047" xlink:href="#DejaVuSans-46"/>
       <use x="95.410156" xlink:href="#DejaVuSans-50"/>
       <use x="159.033203" xlink:href="#DejaVuSans-53"/>
      </g>
     </g>
    </g>
    <g id="ytick_6">
     <g id="line2d_29">
      <path clip-path="url(#p9114194af1)" d="M 54 69.252991 
L 388.8 69.252991 
" style="fill:none;stroke:#b2b2b2;stroke-dasharray:1.85,0.8;stroke-dashoffset:0;stroke-width:0.5;"/>
     </g>
     <g id="line2d_30">
      <g>
       <use style="stroke:#000000;stroke-width:0.8;" x="54" xlink:href="#m4be1e8aed4" y="69.252991"/>
      </g>
     </g>
     <g id="text_16">
      <!-- 0.50 -->
      <g transform="translate(28.234375 73.05221)scale(0.1 -0.1)">
       <use xlink:href="#DejaVuSans-48"/>
       <use x="63.623047" xlink:href="#DejaVuSans-46"/>
       <use x="95.410156" xlink:href="#DejaVuSans-53"/>
       <use x="159.033203" xlink:href="#DejaVuSans-48"/>
      </g>
     </g>
    </g>
    <g id="ytick_7">
     <g id="line2d_31">
      <path clip-path="url(#p9114194af1)" d="M 54 47.807544 
L 388.8 47.807544 
" style="fill:none;stroke:#b2b2b2;stroke-dasharray:1.85,0.8;stroke-dashoffset:0;stroke-width:0.5;"/>
     </g>
     <g id="line2d_32">
      <g>
       <use style="stroke:#000000;stroke-width:0.8;" x="54" xlink:href="#m4be1e8aed4" y="47.807544"/>
      </g>
     </g>
     <g id="text_17">
      <!-- 0.75 -->
      <g transform="translate(28.234375 51.606763)scale(0.1 -0.1)">
       <use xlink:href="#DejaVuSans-48"/>
       <use x="63.623047" xlink:href="#DejaVuSans-46"/>
       <use x="95.410156" xlink:href="#DejaVuSans-55"/>
       <use x="159.033203" xlink:href="#DejaVuSans-53"/>
      </g>
     </g>
    </g>
    <g id="ytick_8">
     <g id="line2d_33">
      <path clip-path="url(#p9114194af1)" d="M 54 26.362097 
L 388.8 26.362097 
" style="fill:none;stroke:#b2b2b2;stroke-dasharray:1.85,0.8;stroke-dashoffset:0;stroke-width:0.5;"/>
     </g>
     <g id="line2d_34">
      <g>
       <use style="stroke:#000000;stroke-width:0.8;" x="54" xlink:href="#m4be1e8aed4" y="26.362097"/>
      </g>
     </g>
     <g id="text_18">
      <!-- 1.00 -->
      <g transform="translate(28.234375 30.161315)scale(0.1 -0.1)">
       <use xlink:href="#DejaVuSans-49"/>
       <use x="63.623047" xlink:href="#DejaVuSans-46"/>
       <use x="95.410156" xlink:href="#DejaVuSans-48"/>
       <use x="159.033203" xlink:href="#DejaVuSans-48"/>
      </g>
     </g>
    </g>
    <g id="text_19">
     <!-- $f(x)$ -->
     <defs>
      <path d="M 9.71875 -16.5 
Q 11.578125 -17.921875 14.203125 -17.921875 
Q 17.78125 -17.921875 20.015625 -10.015625 
Q 20.953125 -6.203125 25.09375 15.09375 
L 29.6875 39.59375 
L 21.09375 39.59375 
Q 20.125 39.59375 20.125 40.921875 
Q 20.515625 43.109375 21.390625 43.109375 
L 30.328125 43.109375 
L 31.5 49.609375 
Q 32.078125 52.640625 32.5625 54.8125 
Q 33.0625 56.984375 33.625 58.828125 
Q 34.1875 60.6875 35.296875 62.984375 
Q 37.015625 66.265625 39.921875 68.390625 
Q 42.828125 70.515625 46.1875 70.515625 
Q 48.390625 70.515625 50.46875 69.703125 
Q 52.546875 68.890625 53.859375 67.28125 
Q 55.171875 65.671875 55.171875 63.484375 
Q 55.171875 60.9375 53.484375 59.046875 
Q 51.8125 57.171875 49.421875 57.171875 
Q 47.796875 57.171875 46.65625 58.171875 
Q 45.515625 59.1875 45.515625 60.796875 
Q 45.515625 62.984375 47 64.625 
Q 48.484375 66.265625 50.6875 66.5 
Q 48.828125 67.921875 46.09375 67.921875 
Q 44.578125 67.921875 43.234375 66.5 
Q 41.890625 65.09375 41.5 63.484375 
Q 40.875 60.9375 38.71875 49.703125 
L 37.5 43.109375 
L 47.796875 43.109375 
Q 48.78125 43.109375 48.78125 41.796875 
Q 48.734375 41.546875 48.578125 40.9375 
Q 48.4375 40.328125 48.171875 39.953125 
Q 47.90625 39.59375 47.515625 39.59375 
L 36.8125 39.59375 
L 32.171875 15.1875 
Q 31.296875 9.859375 30.140625 4.359375 
Q 29 -1.125 26.921875 -6.90625 
Q 24.859375 -12.703125 21.625 -16.609375 
Q 18.40625 -20.515625 14.015625 -20.515625 
Q 10.640625 -20.515625 7.984375 -18.578125 
Q 5.328125 -16.65625 5.328125 -13.484375 
Q 5.328125 -10.9375 6.953125 -9.046875 
Q 8.59375 -7.171875 11.078125 -7.171875 
Q 12.75 -7.171875 13.859375 -8.171875 
Q 14.984375 -9.1875 14.984375 -10.796875 
Q 14.984375 -12.9375 13.390625 -14.71875 
Q 11.8125 -16.5 9.71875 -16.5 
z
" id="Cmmi10-102"/>
      <path d="M 31 -24.8125 
Q 25.4375 -20.40625 21.40625 -14.71875 
Q 17.390625 -9.03125 14.8125 -2.578125 
Q 12.25 3.859375 10.984375 10.890625 
Q 9.71875 17.921875 9.71875 25 
Q 9.71875 32.171875 10.984375 39.203125 
Q 12.25 46.234375 14.859375 52.734375 
Q 17.484375 59.234375 21.53125 64.890625 
Q 25.59375 70.5625 31 74.8125 
Q 31 75 31.5 75 
L 32.421875 75 
Q 32.71875 75 32.953125 74.734375 
Q 33.203125 74.46875 33.203125 74.125 
Q 33.203125 73.6875 33.015625 73.484375 
Q 28.125 68.703125 24.875 63.234375 
Q 21.625 57.765625 19.640625 51.578125 
Q 17.671875 45.40625 16.796875 38.78125 
Q 15.921875 32.171875 15.921875 25 
Q 15.921875 -6.78125 32.90625 -23.296875 
Q 33.203125 -23.578125 33.203125 -24.125 
Q 33.203125 -24.359375 32.9375 -24.671875 
Q 32.671875 -25 32.421875 -25 
L 31.5 -25 
Q 31 -25 31 -24.8125 
z
" id="Cmr10-40"/>
      <path d="M 6.5 -25 
Q 5.609375 -25 5.609375 -24.125 
Q 5.609375 -23.6875 5.8125 -23.484375 
Q 22.90625 -6.78125 22.90625 25 
Q 22.90625 56.78125 6 73.296875 
Q 5.609375 73.53125 5.609375 74.125 
Q 5.609375 74.46875 5.875 74.734375 
Q 6.15625 75 6.5 75 
L 7.421875 75 
Q 7.71875 75 7.90625 74.8125 
Q 15.09375 69.140625 19.875 61.03125 
Q 24.65625 52.9375 26.875 43.75 
Q 29.109375 34.578125 29.109375 25 
Q 29.109375 17.921875 27.90625 11.0625 
Q 26.703125 4.203125 24.09375 -2.453125 
Q 21.484375 -9.125 17.484375 -14.765625 
Q 13.484375 -20.40625 7.90625 -24.8125 
Q 7.71875 -25 7.421875 -25 
z
" id="Cmr10-41"/>
     </defs>
     <g transform="translate(12.854687 118.5)rotate(-90)scale(0.12 -0.12)">
      <use xlink:href="#Cmmi10-102"/>
      <use transform="translate(48.876953 0)" xlink:href="#Cmr10-40"/>
      <use transform="translate(87.695312 0)" xlink:href="#Cmmi10-120"/>
      <use transform="translate(144.775391 0)" xlink:href="#Cmr10-41"/>
     </g>
    </g>
   </g>
   <g id="line2d_35">
    <path clip-path="url(#p9114194af1)" d="M 69.218182 38.053971 
L 70.132187 44.558063 
L 71.960197 60.148412 
L 73.17887 69.803077 
L 74.092875 75.380236 
L 74.702211 77.994914 
L 75.311548 79.597928 
L 75.616216 80.001934 
L 75.920885 80.139379 
L 76.225553 80.014793 
L 76.530221 79.637483 
L 77.139558 78.185254 
L 77.748894 75.94495 
L 78.662899 71.577791 
L 81.100246 59.061863 
L 82.318919 54.173035 
L 83.537592 50.263961 
L 85.365602 45.306904 
L 86.584275 42.517127 
L 87.193612 41.464087 
L 87.802948 40.769804 
L 88.412285 40.531897 
L 88.716953 40.61356 
L 89.021622 40.8448 
L 89.630958 41.805549 
L 90.240295 43.513135 
L 90.849631 46.041137 
L 91.763636 51.253036 
L 92.98231 58.659859 
L 93.591646 60.777268 
L 93.896314 61.108827 
L 94.200983 60.913634 
L 94.505651 60.219582 
L 95.114988 57.651131 
L 96.942998 48.071441 
L 97.552334 46.053381 
L 98.161671 44.802515 
L 98.771007 44.200451 
L 99.380344 44.100312 
L 99.989681 44.352666 
L 101.208354 45.324477 
L 102.122359 45.930644 
L 102.731695 46.098639 
L 103.341032 46.044916 
L 103.950369 45.796536 
L 105.169042 44.958575 
L 106.692383 43.887157 
L 107.911057 43.330198 
L 109.12973 43.090483 
L 110.348403 43.121679 
L 111.871744 43.443506 
L 116.441769 44.715481 
L 117.965111 44.699681 
L 119.488452 44.69291 
L 120.707125 44.943241 
L 121.62113 45.352655 
L 122.535135 45.981674 
L 123.753808 47.156753 
L 125.27715 48.711231 
L 125.886486 49.098044 
L 126.495823 49.271496 
L 127.409828 49.225048 
L 128.93317 49.027741 
L 129.847174 49.126101 
L 130.761179 49.417856 
L 132.284521 50.19503 
L 134.112531 51.139344 
L 135.331204 51.523112 
L 137.463882 51.868843 
L 139.291892 52.254817 
L 140.815233 52.78078 
L 142.338575 53.528645 
L 143.861916 54.547049 
L 145.385258 55.860141 
L 147.517936 57.743488 
L 148.431941 58.203197 
L 149.041278 58.30914 
L 149.955283 58.201007 
L 152.392629 57.613762 
L 153.306634 57.680903 
L 154.220639 57.966773 
L 155.134644 58.457747 
L 158.181327 60.37541 
L 159.4 60.596123 
L 160.618673 60.788942 
L 161.532678 61.165518 
L 162.446683 61.881484 
L 163.05602 62.603133 
L 163.970025 64.121582 
L 164.884029 66.164631 
L 167.626044 72.82737 
L 168.235381 73.749314 
L 168.844717 74.377839 
L 169.454054 74.754199 
L 170.368059 74.984591 
L 172.196069 74.999268 
L 173.414742 75.131296 
L 174.328747 75.419854 
L 175.242752 75.901796 
L 176.461425 76.827496 
L 178.594103 78.640759 
L 179.20344 78.935252 
L 179.812776 78.99949 
L 180.422113 78.784941 
L 181.03145 78.287938 
L 181.945455 77.145517 
L 183.164128 75.518227 
L 183.773464 74.971562 
L 184.382801 74.762236 
L 184.687469 74.814632 
L 184.992138 74.986658 
L 185.601474 75.732747 
L 186.210811 77.081247 
L 186.820147 79.081231 
L 187.734152 83.153988 
L 188.952826 88.774833 
L 189.562162 90.400597 
L 189.86683 90.721514 
L 190.171499 90.704953 
L 190.476167 90.381862 
L 191.085504 89.055663 
L 192.304177 85.752248 
L 192.913514 84.728019 
L 193.218182 84.495107 
L 193.52285 84.471569 
L 193.827518 84.66897 
L 194.132187 85.096265 
L 194.741523 86.668109 
L 195.35086 89.223815 
L 195.960197 92.748791 
L 196.874201 99.576484 
L 199.00688 116.823832 
L 199.616216 120.292369 
L 200.225553 122.66769 
L 200.834889 123.951178 
L 201.139558 124.215215 
L 201.444226 124.253051 
L 201.748894 124.086432 
L 202.358231 123.228172 
L 202.967568 121.80884 
L 203.881572 118.94201 
L 205.404914 113.114105 
L 207.84226 103.76313 
L 209.365602 98.980282 
L 211.193612 94.151691 
L 213.935627 87.325119 
L 214.849631 85.701266 
L 215.458968 85.126439 
L 215.763636 85.042354 
L 216.068305 85.117795 
L 216.372973 85.372039 
L 216.677641 85.825751 
L 217.286978 87.42086 
L 217.896314 90.082301 
L 218.505651 93.93363 
L 219.419656 101.650304 
L 220.333661 109.533817 
L 220.942998 112.709267 
L 221.247666 113.191613 
L 221.552334 112.836606 
L 221.857002 111.665384 
L 222.466339 107.322321 
L 224.599017 88.487335 
L 225.208354 85.28487 
L 225.81769 83.172671 
L 226.427027 81.929574 
L 227.036364 81.347168 
L 227.6457 81.253086 
L 228.255037 81.505843 
L 229.169042 82.27762 
L 235.262408 88.628185 
L 237.090418 91.262219 
L 238.918428 93.877764 
L 239.832432 94.912667 
L 240.441769 95.402844 
L 241.051106 95.664673 
L 241.660442 95.627564 
L 242.269779 95.217156 
L 242.879115 94.370132 
L 243.488452 93.056385 
L 244.402457 90.288162 
L 247.144472 80.865313 
L 247.753808 79.565224 
L 248.363145 78.728287 
L 248.972482 78.361807 
L 249.27715 78.353507 
L 249.886486 78.678184 
L 250.495823 79.427978 
L 251.409828 81.131764 
L 252.323833 82.844298 
L 252.93317 83.445698 
L 253.237838 83.480381 
L 253.542506 83.320963 
L 254.151843 82.472496 
L 255.065848 80.402584 
L 255.979853 78.35518 
L 256.589189 77.368641 
L 257.198526 76.780624 
L 257.807862 76.601345 
L 258.417199 76.818275 
L 259.026536 77.410514 
L 259.635872 78.34518 
L 260.549877 80.25665 
L 262.987224 85.822216 
L 263.901229 87.231064 
L 264.815233 88.245572 
L 266.947912 90.370872 
L 267.861916 91.710976 
L 268.775921 93.540481 
L 269.689926 95.962003 
L 270.603931 99.027938 
L 271.822604 104.027551 
L 273.650614 111.84524 
L 274.259951 113.642415 
L 274.564619 114.208442 
L 274.869287 114.497867 
L 275.173956 114.476086 
L 275.478624 114.117721 
L 275.783292 113.409773 
L 276.392629 110.968886 
L 277.001966 107.362053 
L 279.439312 90.782125 
L 280.048649 88.203744 
L 280.657985 86.632916 
L 280.962654 86.229806 
L 281.267322 86.078358 
L 281.57199 86.173645 
L 281.876658 86.508169 
L 282.485995 87.843021 
L 283.095332 89.903767 
L 284.618673 95.529412 
L 284.923342 96.177888 
L 285.22801 96.534085 
L 285.532678 96.58317 
L 285.837346 96.339615 
L 286.446683 95.162179 
L 287.665356 92.087063 
L 287.970025 91.593878 
L 288.274693 91.326838 
L 288.579361 91.328797 
L 288.884029 91.636623 
L 289.188698 92.283202 
L 289.493366 93.298838 
L 290.102703 96.546846 
L 290.712039 101.555822 
L 291.321376 108.355013 
L 292.235381 121.21954 
L 293.454054 138.678391 
L 294.063391 144.750618 
L 294.368059 146.658062 
L 294.672727 147.726554 
L 294.977396 147.947103 
L 295.282064 147.353637 
L 295.586732 146.016747 
L 296.196069 141.523646 
L 297.110074 132.039674 
L 298.633415 115.715384 
L 299.54742 108.130563 
L 300.461425 102.766516 
L 301.070762 100.398724 
L 301.680098 98.939963 
L 301.984767 98.535541 
L 302.289435 98.340145 
L 302.594103 98.348633 
L 302.898771 98.55608 
L 303.20344 98.957408 
L 303.812776 100.317339 
L 304.422113 102.361233 
L 305.336118 106.431235 
L 306.859459 113.68141 
L 307.468796 115.558297 
L 307.773464 116.055225 
L 308.078133 116.203501 
L 308.382801 115.981449 
L 308.687469 115.38664 
L 309.296806 113.172475 
L 310.210811 108.112396 
L 311.429484 101.29976 
L 312.038821 99.100497 
L 312.343489 98.463952 
L 312.648157 98.170633 
L 312.952826 98.234413 
L 313.257494 98.658917 
L 313.562162 99.4357 
L 314.171499 101.932646 
L 315.69484 109.916173 
L 315.999509 110.743107 
L 316.304177 110.95941 
L 316.608845 110.463296 
L 316.913514 109.212073 
L 317.52285 104.613229 
L 318.436855 94.504127 
L 319.35086 84.475823 
L 319.960197 79.243369 
L 320.569533 75.409294 
L 321.17887 72.833951 
L 321.788206 71.28289 
L 322.397543 70.520502 
L 323.00688 70.332437 
L 323.616216 70.516307 
L 325.139558 71.305415 
L 325.748894 71.30702 
L 326.358231 70.982359 
L 326.967568 70.33137 
L 327.881572 68.880192 
L 331.232924 62.794113 
L 332.451597 61.201607 
L 333.67027 59.998248 
L 334.888943 59.113548 
L 336.412285 58.299104 
L 338.240295 57.290541 
L 339.1543 56.531812 
L 340.068305 55.509219 
L 341.896314 52.970376 
L 343.114988 51.469124 
L 344.028993 50.68931 
L 344.942998 50.269353 
L 345.857002 50.202939 
L 347.989681 50.450586 
L 348.599017 50.119771 
L 349.208354 49.460979 
L 350.122359 48.037452 
L 351.6457 45.666652 
L 352.559705 44.642761 
L 353.778378 43.688771 
L 355.30172 42.875055 
L 358.653071 41.50223 
L 363.223096 39.73939 
L 365.965111 38.641398 
L 367.79312 37.62871 
L 369.925799 36.130796 
L 373.581818 33.332727 
L 373.581818 33.332727 
" style="fill:none;stroke:#0000ff;stroke-linecap:square;stroke-opacity:0.3;stroke-width:2;"/>
   </g>
   <g id="line2d_36">
    <defs>
     <path d="M -2.5 2.5 
L 2.5 -2.5 
M -2.5 -2.5 
L 2.5 2.5 
" id="m3ccc187cce" style="stroke:#0000ff;stroke-opacity:0.5;"/>
    </defs>
    <g clip-path="url(#p9114194af1)">
     <use style="fill:#0000ff;fill-opacity:0.5;stroke:#0000ff;stroke-opacity:0.5;" x="196.144516" xlink:href="#m3ccc187cce" y="93.992648"/>
     <use style="fill:#0000ff;fill-opacity:0.5;stroke:#0000ff;stroke-opacity:0.5;" x="288.458764" xlink:href="#m3ccc187cce" y="91.293391"/>
     <use style="fill:#0000ff;fill-opacity:0.5;stroke:#0000ff;stroke-opacity:0.5;" x="69.252993" xlink:href="#m3ccc187cce" y="38.27352"/>
     <use style="fill:#0000ff;fill-opacity:0.5;stroke:#0000ff;stroke-opacity:0.5;" x="161.237223" xlink:href="#m3ccc187cce" y="61.012167"/>
     <use style="fill:#0000ff;fill-opacity:0.5;stroke:#0000ff;stroke-opacity:0.5;" x="113.885338" xlink:href="#m3ccc187cce" y="44.121465"/>
     <use style="fill:#0000ff;fill-opacity:0.5;stroke:#0000ff;stroke-opacity:0.5;" x="97.322692" xlink:href="#m3ccc187cce" y="46.719612"/>
     <use style="fill:#0000ff;fill-opacity:0.5;stroke:#0000ff;stroke-opacity:0.5;" x="125.909017" xlink:href="#m3ccc187cce" y="49.108247"/>
     <use style="fill:#0000ff;fill-opacity:0.5;stroke:#0000ff;stroke-opacity:0.5;" x="174.394301" xlink:href="#m3ccc187cce" y="75.44786"/>
     <use style="fill:#0000ff;fill-opacity:0.5;stroke:#0000ff;stroke-opacity:0.5;" x="189.979773" xlink:href="#m3ccc187cce" y="90.753712"/>
     <use style="fill:#0000ff;fill-opacity:0.5;stroke:#0000ff;stroke-opacity:0.5;" x="233.214402" xlink:href="#m3ccc187cce" y="86.28074"/>
     <use style="fill:#0000ff;fill-opacity:0.5;stroke:#0000ff;stroke-opacity:0.5;" x="196.805749" xlink:href="#m3ccc187cce" y="99.015949"/>
     <use style="fill:#0000ff;fill-opacity:0.5;stroke:#0000ff;stroke-opacity:0.5;" x="277.774081" xlink:href="#m3ccc187cce" y="101.805874"/>
     <use style="fill:#0000ff;fill-opacity:0.5;stroke:#0000ff;stroke-opacity:0.5;" x="131.446012" xlink:href="#m3ccc187cce" y="49.736309"/>
     <use style="fill:#0000ff;fill-opacity:0.5;stroke:#0000ff;stroke-opacity:0.5;" x="336.485198" xlink:href="#m3ccc187cce" y="58.263761"/>
     <use style="fill:#0000ff;fill-opacity:0.5;stroke:#0000ff;stroke-opacity:0.5;" x="77.553969" xlink:href="#m3ccc187cce" y="76.735132"/>
     <use style="fill:#0000ff;fill-opacity:0.5;stroke:#0000ff;stroke-opacity:0.5;" x="273.284111" xlink:href="#m3ccc187cce" y="110.453653"/>
     <use style="fill:#0000ff;fill-opacity:0.5;stroke:#0000ff;stroke-opacity:0.5;" x="196.230589" xlink:href="#m3ccc187cce" y="94.599301"/>
     <use style="fill:#0000ff;fill-opacity:0.5;stroke:#0000ff;stroke-opacity:0.5;" x="239.26305" xlink:href="#m3ccc187cce" y="94.301605"/>
     <use style="fill:#0000ff;fill-opacity:0.5;stroke:#0000ff;stroke-opacity:0.5;" x="111.946861" xlink:href="#m3ccc187cce" y="43.465404"/>
     <use style="fill:#0000ff;fill-opacity:0.5;stroke:#0000ff;stroke-opacity:0.5;" x="129.513071" xlink:href="#m3ccc187cce" y="49.066383"/>
     <use style="fill:#0000ff;fill-opacity:0.5;stroke:#0000ff;stroke-opacity:0.5;" x="312.935711" xlink:href="#m3ccc187cce" y="98.221251"/>
     <use style="fill:#0000ff;fill-opacity:0.5;stroke:#0000ff;stroke-opacity:0.5;" x="363.921796" xlink:href="#m3ccc187cce" y="39.486669"/>
     <use style="fill:#0000ff;fill-opacity:0.5;stroke:#0000ff;stroke-opacity:0.5;" x="164.613104" xlink:href="#m3ccc187cce" y="65.510591"/>
     <use style="fill:#0000ff;fill-opacity:0.5;stroke:#0000ff;stroke-opacity:0.5;" x="279.936011" xlink:href="#m3ccc187cce" y="88.605647"/>
     <use style="fill:#0000ff;fill-opacity:0.5;stroke:#0000ff;stroke-opacity:0.5;" x="335.959171" xlink:href="#m3ccc187cce" y="58.521838"/>
     <use style="fill:#0000ff;fill-opacity:0.5;stroke:#0000ff;stroke-opacity:0.5;" x="341.503919" xlink:href="#m3ccc187cce" y="53.523208"/>
     <use style="fill:#0000ff;fill-opacity:0.5;stroke:#0000ff;stroke-opacity:0.5;" x="95.102547" xlink:href="#m3ccc187cce" y="57.715091"/>
     <use style="fill:#0000ff;fill-opacity:0.5;stroke:#0000ff;stroke-opacity:0.5;" x="81.105038" xlink:href="#m3ccc187cce" y="59.040338"/>
     <use style="fill:#0000ff;fill-opacity:0.5;stroke:#0000ff;stroke-opacity:0.5;" x="120.908386" xlink:href="#m3ccc187cce" y="45.015738"/>
     <use style="fill:#0000ff;fill-opacity:0.5;stroke:#0000ff;stroke-opacity:0.5;" x="336.492827" xlink:href="#m3ccc187cce" y="58.260064"/>
     <use style="fill:#0000ff;fill-opacity:0.5;stroke:#0000ff;stroke-opacity:0.5;" x="99.151382" xlink:href="#m3ccc187cce" y="44.08859"/>
     <use style="fill:#0000ff;fill-opacity:0.5;stroke:#0000ff;stroke-opacity:0.5;" x="197.38803" xlink:href="#m3ccc187cce" y="103.926906"/>
     <use style="fill:#0000ff;fill-opacity:0.5;stroke:#0000ff;stroke-opacity:0.5;" x="360.764922" xlink:href="#m3ccc187cce" y="40.648158"/>
     <use style="fill:#0000ff;fill-opacity:0.5;stroke:#0000ff;stroke-opacity:0.5;" x="231.494307" xlink:href="#m3ccc187cce" y="84.668593"/>
     <use style="fill:#0000ff;fill-opacity:0.5;stroke:#0000ff;stroke-opacity:0.5;" x="279.800416" xlink:href="#m3ccc187cce" y="89.135025"/>
     <use style="fill:#0000ff;fill-opacity:0.5;stroke:#0000ff;stroke-opacity:0.5;" x="165.249667" xlink:href="#m3ccc187cce" y="67.096075"/>
     <use style="fill:#0000ff;fill-opacity:0.5;stroke:#0000ff;stroke-opacity:0.5;" x="278.164101" xlink:href="#m3ccc187cce" y="98.903169"/>
     <use style="fill:#0000ff;fill-opacity:0.5;stroke:#0000ff;stroke-opacity:0.5;" x="323.247886" xlink:href="#m3ccc187cce" y="70.371868"/>
     <use style="fill:#0000ff;fill-opacity:0.5;stroke:#0000ff;stroke-opacity:0.5;" x="74.784468" xlink:href="#m3ccc187cce" y="78.272111"/>
     <use style="fill:#0000ff;fill-opacity:0.5;stroke:#0000ff;stroke-opacity:0.5;" x="297.534833" xlink:href="#m3ccc187cce" y="127.254011"/>
     <use style="fill:#0000ff;fill-opacity:0.5;stroke:#0000ff;stroke-opacity:0.5;" x="370.191539" xlink:href="#m3ccc187cce" y="35.92764"/>
     <use style="fill:#0000ff;fill-opacity:0.5;stroke:#0000ff;stroke-opacity:0.5;" x="296.932601" xlink:href="#m3ccc187cce" y="134.015681"/>
     <use style="fill:#0000ff;fill-opacity:0.5;stroke:#0000ff;stroke-opacity:0.5;" x="154.575135" xlink:href="#m3ccc187cce" y="58.134456"/>
     <use style="fill:#0000ff;fill-opacity:0.5;stroke:#0000ff;stroke-opacity:0.5;" x="309.446108" xlink:href="#m3ccc187cce" y="112.453872"/>
     <use style="fill:#0000ff;fill-opacity:0.5;stroke:#0000ff;stroke-opacity:0.5;" x="100.636425" xlink:href="#m3ccc187cce" y="44.840485"/>
     <use style="fill:#0000ff;fill-opacity:0.5;stroke:#0000ff;stroke-opacity:0.5;" x="205.540684" xlink:href="#m3ccc187cce" y="112.568869"/>
     <use style="fill:#0000ff;fill-opacity:0.5;stroke:#0000ff;stroke-opacity:0.5;" x="345.761613" xlink:href="#m3ccc187cce" y="50.195241"/>
     <use style="fill:#0000ff;fill-opacity:0.5;stroke:#0000ff;stroke-opacity:0.5;" x="158.583652" xlink:href="#m3ccc187cce" y="60.480197"/>
     <use style="fill:#0000ff;fill-opacity:0.5;stroke:#0000ff;stroke-opacity:0.5;" x="156.80653" xlink:href="#m3ccc187cce" y="59.656962"/>
     <use style="fill:#0000ff;fill-opacity:0.5;stroke:#0000ff;stroke-opacity:0.5;" x="108.794151" xlink:href="#m3ccc187cce" y="43.126873"/>
     <use style="fill:#0000ff;fill-opacity:0.5;stroke:#0000ff;stroke-opacity:0.5;" x="75.11278" xlink:href="#m3ccc187cce" y="79.19053"/>
     <use style="fill:#0000ff;fill-opacity:0.5;stroke:#0000ff;stroke-opacity:0.5;" x="275.831033" xlink:href="#m3ccc187cce" y="113.267059"/>
     <use style="fill:#0000ff;fill-opacity:0.5;stroke:#0000ff;stroke-opacity:0.5;" x="133.630085" xlink:href="#m3ccc187cce" y="50.924007"/>
     <use style="fill:#0000ff;fill-opacity:0.5;stroke:#0000ff;stroke-opacity:0.5;" x="150.040929" xlink:href="#m3ccc187cce" y="58.179096"/>
     <use style="fill:#0000ff;fill-opacity:0.5;stroke:#0000ff;stroke-opacity:0.5;" x="218.835176" xlink:href="#m3ccc187cce" y="96.497619"/>
     <use style="fill:#0000ff;fill-opacity:0.5;stroke:#0000ff;stroke-opacity:0.5;" x="85.4598" xlink:href="#m3ccc187cce" y="45.070596"/>
     <use style="fill:#0000ff;fill-opacity:0.5;stroke:#0000ff;stroke-opacity:0.5;" x="243.958704" xlink:href="#m3ccc187cce" y="91.737712"/>
     <use style="fill:#0000ff;fill-opacity:0.5;stroke:#0000ff;stroke-opacity:0.5;" x="113.877024" xlink:href="#m3ccc187cce" y="44.118584"/>
     <use style="fill:#0000ff;fill-opacity:0.5;stroke:#0000ff;stroke-opacity:0.5;" x="248.581358" xlink:href="#m3ccc187cce" y="78.543092"/>
     <use style="fill:#0000ff;fill-opacity:0.5;stroke:#0000ff;stroke-opacity:0.5;" x="282.199181" xlink:href="#m3ccc187cce" y="87.110148"/>
     <use style="fill:#0000ff;fill-opacity:0.5;stroke:#0000ff;stroke-opacity:0.5;" x="100.365061" xlink:href="#m3ccc187cce" y="44.619118"/>
     <use style="fill:#0000ff;fill-opacity:0.5;stroke:#0000ff;stroke-opacity:0.5;" x="195.241768" xlink:href="#m3ccc187cce" y="88.693622"/>
     <use style="fill:#0000ff;fill-opacity:0.5;stroke:#0000ff;stroke-opacity:0.5;" x="280.568339" xlink:href="#m3ccc187cce" y="86.799927"/>
     <use style="fill:#0000ff;fill-opacity:0.5;stroke:#0000ff;stroke-opacity:0.5;" x="195.27929" xlink:href="#m3ccc187cce" y="88.872432"/>
     <use style="fill:#0000ff;fill-opacity:0.5;stroke:#0000ff;stroke-opacity:0.5;" x="84.422198" xlink:href="#m3ccc187cce" y="47.779591"/>
     <use style="fill:#0000ff;fill-opacity:0.5;stroke:#0000ff;stroke-opacity:0.5;" x="232.325561" xlink:href="#m3ccc187cce" y="85.441215"/>
     <use style="fill:#0000ff;fill-opacity:0.5;stroke:#0000ff;stroke-opacity:0.5;" x="271.253134" xlink:href="#m3ccc187cce" y="101.58147"/>
     <use style="fill:#0000ff;fill-opacity:0.5;stroke:#0000ff;stroke-opacity:0.5;" x="225.931704" xlink:href="#m3ccc187cce" y="82.880694"/>
     <use style="fill:#0000ff;fill-opacity:0.5;stroke:#0000ff;stroke-opacity:0.5;" x="356.718477" xlink:href="#m3ccc187cce" y="42.279701"/>
     <use style="fill:#0000ff;fill-opacity:0.5;stroke:#0000ff;stroke-opacity:0.5;" x="247.744207" xlink:href="#m3ccc187cce" y="79.582165"/>
     <use style="fill:#0000ff;fill-opacity:0.5;stroke:#0000ff;stroke-opacity:0.5;" x="344.180874" xlink:href="#m3ccc187cce" y="50.594031"/>
     <use style="fill:#0000ff;fill-opacity:0.5;stroke:#0000ff;stroke-opacity:0.5;" x="111.060483" xlink:href="#m3ccc187cce" y="43.239804"/>
     <use style="fill:#0000ff;fill-opacity:0.5;stroke:#0000ff;stroke-opacity:0.5;" x="111.608837" xlink:href="#m3ccc187cce" y="43.370586"/>
     <use style="fill:#0000ff;fill-opacity:0.5;stroke:#0000ff;stroke-opacity:0.5;" x="314.95873" xlink:href="#m3ccc187cce" y="106.306135"/>
     <use style="fill:#0000ff;fill-opacity:0.5;stroke:#0000ff;stroke-opacity:0.5;" x="190.25655" xlink:href="#m3ccc187cce" y="90.643598"/>
     <use style="fill:#0000ff;fill-opacity:0.5;stroke:#0000ff;stroke-opacity:0.5;" x="119.545987" xlink:href="#m3ccc187cce" y="44.698206"/>
     <use style="fill:#0000ff;fill-opacity:0.5;stroke:#0000ff;stroke-opacity:0.5;" x="351.518066" xlink:href="#m3ccc187cce" y="45.835856"/>
     <use style="fill:#0000ff;fill-opacity:0.5;stroke:#0000ff;stroke-opacity:0.5;" x="175.065463" xlink:href="#m3ccc187cce" y="75.792986"/>
     <use style="fill:#0000ff;fill-opacity:0.5;stroke:#0000ff;stroke-opacity:0.5;" x="297.738084" xlink:href="#m3ccc187cce" y="124.986578"/>
     <use style="fill:#0000ff;fill-opacity:0.5;stroke:#0000ff;stroke-opacity:0.5;" x="290.185569" xlink:href="#m3ccc187cce" y="97.121847"/>
     <use style="fill:#0000ff;fill-opacity:0.5;stroke:#0000ff;stroke-opacity:0.5;" x="338.064436" xlink:href="#m3ccc187cce" y="57.409906"/>
     <use style="fill:#0000ff;fill-opacity:0.5;stroke:#0000ff;stroke-opacity:0.5;" x="259.041323" xlink:href="#m3ccc187cce" y="77.429313"/>
     <use style="fill:#0000ff;fill-opacity:0.5;stroke:#0000ff;stroke-opacity:0.5;" x="297.777752" xlink:href="#m3ccc187cce" y="124.548493"/>
     <use style="fill:#0000ff;fill-opacity:0.5;stroke:#0000ff;stroke-opacity:0.5;" x="175.41015" xlink:href="#m3ccc187cce" y="76.011112"/>
     <use style="fill:#0000ff;fill-opacity:0.5;stroke:#0000ff;stroke-opacity:0.5;" x="151.374417" xlink:href="#m3ccc187cce" y="57.77861"/>
     <use style="fill:#0000ff;fill-opacity:0.5;stroke:#0000ff;stroke-opacity:0.5;" x="341.893369" xlink:href="#m3ccc187cce" y="52.974451"/>
     <use style="fill:#0000ff;fill-opacity:0.5;stroke:#0000ff;stroke-opacity:0.5;" x="199.513573" xlink:href="#m3ccc187cce" y="119.782592"/>
     <use style="fill:#0000ff;fill-opacity:0.5;stroke:#0000ff;stroke-opacity:0.5;" x="362.880407" xlink:href="#m3ccc187cce" y="39.861869"/>
     <use style="fill:#0000ff;fill-opacity:0.5;stroke:#0000ff;stroke-opacity:0.5;" x="271.145649" xlink:href="#m3ccc187cce" y="101.139323"/>
     <use style="fill:#0000ff;fill-opacity:0.5;stroke:#0000ff;stroke-opacity:0.5;" x="258.439752" xlink:href="#m3ccc187cce" y="76.833661"/>
     <use style="fill:#0000ff;fill-opacity:0.5;stroke:#0000ff;stroke-opacity:0.5;" x="104.142683" xlink:href="#m3ccc187cce" y="45.686606"/>
     <use style="fill:#0000ff;fill-opacity:0.5;stroke:#0000ff;stroke-opacity:0.5;" x="358.208185" xlink:href="#m3ccc187cce" y="41.683135"/>
     <use style="fill:#0000ff;fill-opacity:0.5;stroke:#0000ff;stroke-opacity:0.5;" x="206.155075" xlink:href="#m3ccc187cce" y="110.10564"/>
     <use style="fill:#0000ff;fill-opacity:0.5;stroke:#0000ff;stroke-opacity:0.5;" x="245.258948" xlink:href="#m3ccc187cce" y="87.14434"/>
     <use style="fill:#0000ff;fill-opacity:0.5;stroke:#0000ff;stroke-opacity:0.5;" x="193.440183" xlink:href="#m3ccc187cce" y="84.456541"/>
     <use style="fill:#0000ff;fill-opacity:0.5;stroke:#0000ff;stroke-opacity:0.5;" x="141.360575" xlink:href="#m3ccc187cce" y="53.020973"/>
     <use style="fill:#0000ff;fill-opacity:0.5;stroke:#0000ff;stroke-opacity:0.5;" x="344.174058" xlink:href="#m3ccc187cce" y="50.59809"/>
     <use style="fill:#0000ff;fill-opacity:0.5;stroke:#0000ff;stroke-opacity:0.5;" x="243.825356" xlink:href="#m3ccc187cce" y="92.136523"/>
     <use style="fill:#0000ff;fill-opacity:0.5;stroke:#0000ff;stroke-opacity:0.5;" x="70.091805" xlink:href="#m3ccc187cce" y="44.241785"/>
     <use style="fill:#0000ff;fill-opacity:0.5;stroke:#0000ff;stroke-opacity:0.5;" x="257.054652" xlink:href="#m3ccc187cce" y="76.882416"/>
     <use style="fill:#0000ff;fill-opacity:0.5;stroke:#0000ff;stroke-opacity:0.5;" x="168.637012" xlink:href="#m3ccc187cce" y="74.194628"/>
     <use style="fill:#0000ff;fill-opacity:0.5;stroke:#0000ff;stroke-opacity:0.5;" x="229.635502" xlink:href="#m3ccc187cce" y="82.760466"/>
     <use style="fill:#0000ff;fill-opacity:0.5;stroke:#0000ff;stroke-opacity:0.5;" x="338.866741" xlink:href="#m3ccc187cce" y="56.797904"/>
     <use style="fill:#0000ff;fill-opacity:0.5;stroke:#0000ff;stroke-opacity:0.5;" x="177.958105" xlink:href="#m3ccc187cce" y="78.165704"/>
     <use style="fill:#0000ff;fill-opacity:0.5;stroke:#0000ff;stroke-opacity:0.5;" x="345.743244" xlink:href="#m3ccc187cce" y="50.194104"/>
     <use style="fill:#0000ff;fill-opacity:0.5;stroke:#0000ff;stroke-opacity:0.5;" x="258.946333" xlink:href="#m3ccc187cce" y="77.312099"/>
     <use style="fill:#0000ff;fill-opacity:0.5;stroke:#0000ff;stroke-opacity:0.5;" x="74.033593" xlink:href="#m3ccc187cce" y="75.075381"/>
     <use style="fill:#0000ff;fill-opacity:0.5;stroke:#0000ff;stroke-opacity:0.5;" x="352.105078" xlink:href="#m3ccc187cce" y="45.112232"/>
     <use style="fill:#0000ff;fill-opacity:0.5;stroke:#0000ff;stroke-opacity:0.5;" x="279.50208" xlink:href="#m3ccc187cce" y="90.471594"/>
     <use style="fill:#0000ff;fill-opacity:0.5;stroke:#0000ff;stroke-opacity:0.5;" x="372.766991" xlink:href="#m3ccc187cce" y="33.927339"/>
     <use style="fill:#0000ff;fill-opacity:0.5;stroke:#0000ff;stroke-opacity:0.5;" x="121.672366" xlink:href="#m3ccc187cce" y="45.381906"/>
     <use style="fill:#0000ff;fill-opacity:0.5;stroke:#0000ff;stroke-opacity:0.5;" x="110.957317" xlink:href="#m3ccc187cce" y="43.218818"/>
     <use style="fill:#0000ff;fill-opacity:0.5;stroke:#0000ff;stroke-opacity:0.5;" x="353.066328" xlink:href="#m3ccc187cce" y="44.199576"/>
     <use style="fill:#0000ff;fill-opacity:0.5;stroke:#0000ff;stroke-opacity:0.5;" x="281.304291" xlink:href="#m3ccc187cce" y="86.076888"/>
     <use style="fill:#0000ff;fill-opacity:0.5;stroke:#0000ff;stroke-opacity:0.5;" x="89.306234" xlink:href="#m3ccc187cce" y="41.206815"/>
     <use style="fill:#0000ff;fill-opacity:0.5;stroke:#0000ff;stroke-opacity:0.5;" x="299.153664" xlink:href="#m3ccc187cce" y="111.131617"/>
     <use style="fill:#0000ff;fill-opacity:0.5;stroke:#0000ff;stroke-opacity:0.5;" x="298.67068" xlink:href="#m3ccc187cce" y="115.364796"/>
     <use style="fill:#0000ff;fill-opacity:0.5;stroke:#0000ff;stroke-opacity:0.5;" x="350.153286" xlink:href="#m3ccc187cce" y="47.985114"/>
     <use style="fill:#0000ff;fill-opacity:0.5;stroke:#0000ff;stroke-opacity:0.5;" x="285.780445" xlink:href="#m3ccc187cce" y="96.405749"/>
     <use style="fill:#0000ff;fill-opacity:0.5;stroke:#0000ff;stroke-opacity:0.5;" x="107.041744" xlink:href="#m3ccc187cce" y="43.694534"/>
     <use style="fill:#0000ff;fill-opacity:0.5;stroke:#0000ff;stroke-opacity:0.5;" x="75.268972" xlink:href="#m3ccc187cce" y="79.520192"/>
     <use style="fill:#0000ff;fill-opacity:0.5;stroke:#0000ff;stroke-opacity:0.5;" x="77.195853" xlink:href="#m3ccc187cce" y="78.008363"/>
     <use style="fill:#0000ff;fill-opacity:0.5;stroke:#0000ff;stroke-opacity:0.5;" x="77.833647" xlink:href="#m3ccc187cce" y="75.582504"/>
     <use style="fill:#0000ff;fill-opacity:0.5;stroke:#0000ff;stroke-opacity:0.5;" x="144.155878" xlink:href="#m3ccc187cce" y="54.778725"/>
     <use style="fill:#0000ff;fill-opacity:0.5;stroke:#0000ff;stroke-opacity:0.5;" x="330.979416" xlink:href="#m3ccc187cce" y="63.178375"/>
     <use style="fill:#0000ff;fill-opacity:0.5;stroke:#0000ff;stroke-opacity:0.5;" x="233.218764" xlink:href="#m3ccc187cce" y="86.285026"/>
     <use style="fill:#0000ff;fill-opacity:0.5;stroke:#0000ff;stroke-opacity:0.5;" x="237.47709" xlink:href="#m3ccc187cce" y="91.8423"/>
     <use style="fill:#0000ff;fill-opacity:0.5;stroke:#0000ff;stroke-opacity:0.5;" x="325.501766" xlink:href="#m3ccc187cce" y="71.343236"/>
     <use style="fill:#0000ff;fill-opacity:0.5;stroke:#0000ff;stroke-opacity:0.5;" x="107.012024" xlink:href="#m3ccc187cce" y="43.709918"/>
     <use style="fill:#0000ff;fill-opacity:0.5;stroke:#0000ff;stroke-opacity:0.5;" x="154.191542" xlink:href="#m3ccc187cce" y="57.954377"/>
     <use style="fill:#0000ff;fill-opacity:0.5;stroke:#0000ff;stroke-opacity:0.5;" x="247.502004" xlink:href="#m3ccc187cce" y="80.047519"/>
     <use style="fill:#0000ff;fill-opacity:0.5;stroke:#0000ff;stroke-opacity:0.5;" x="364.32787" xlink:href="#m3ccc187cce" y="39.334905"/>
     <use style="fill:#0000ff;fill-opacity:0.5;stroke:#0000ff;stroke-opacity:0.5;" x="239.975379" xlink:href="#m3ccc187cce" y="95.044791"/>
     <use style="fill:#0000ff;fill-opacity:0.5;stroke:#0000ff;stroke-opacity:0.5;" x="74.893739" xlink:href="#m3ccc187cce" y="78.611376"/>
     <use style="fill:#0000ff;fill-opacity:0.5;stroke:#0000ff;stroke-opacity:0.5;" x="312.901653" xlink:href="#m3ccc187cce" y="98.198457"/>
     <use style="fill:#0000ff;fill-opacity:0.5;stroke:#0000ff;stroke-opacity:0.5;" x="140.127079" xlink:href="#m3ccc187cce" y="52.517707"/>
     <use style="fill:#0000ff;fill-opacity:0.5;stroke:#0000ff;stroke-opacity:0.5;" x="314.871654" xlink:href="#m3ccc187cce" y="105.805762"/>
     <use style="fill:#0000ff;fill-opacity:0.5;stroke:#0000ff;stroke-opacity:0.5;" x="187.268858" xlink:href="#m3ccc187cce" y="80.95002"/>
     <use style="fill:#0000ff;fill-opacity:0.5;stroke:#0000ff;stroke-opacity:0.5;" x="332.048921" xlink:href="#m3ccc187cce" y="61.682046"/>
     <use style="fill:#0000ff;fill-opacity:0.5;stroke:#0000ff;stroke-opacity:0.5;" x="296.614842" xlink:href="#m3ccc187cce" y="137.435445"/>
     <use style="fill:#0000ff;fill-opacity:0.5;stroke:#0000ff;stroke-opacity:0.5;" x="238.517482" xlink:href="#m3ccc187cce" y="93.345811"/>
     <use style="fill:#0000ff;fill-opacity:0.5;stroke:#0000ff;stroke-opacity:0.5;" x="110.750191" xlink:href="#m3ccc187cce" y="43.180488"/>
     <use style="fill:#0000ff;fill-opacity:0.5;stroke:#0000ff;stroke-opacity:0.5;" x="87.454948" xlink:href="#m3ccc187cce" y="41.116571"/>
     <use style="fill:#0000ff;fill-opacity:0.5;stroke:#0000ff;stroke-opacity:0.5;" x="106.150717" xlink:href="#m3ccc187cce" y="44.233018"/>
     <use style="fill:#0000ff;fill-opacity:0.5;stroke:#0000ff;stroke-opacity:0.5;" x="82.778154" xlink:href="#m3ccc187cce" y="52.608109"/>
     <use style="fill:#0000ff;fill-opacity:0.5;stroke:#0000ff;stroke-opacity:0.5;" x="101.935486" xlink:href="#m3ccc187cce" y="45.836543"/>
     <use style="fill:#0000ff;fill-opacity:0.5;stroke:#0000ff;stroke-opacity:0.5;" x="137.915897" xlink:href="#m3ccc187cce" y="51.943946"/>
     <use style="fill:#0000ff;fill-opacity:0.5;stroke:#0000ff;stroke-opacity:0.5;" x="286.226101" xlink:href="#m3ccc187cce" y="95.67233"/>
     <use style="fill:#0000ff;fill-opacity:0.5;stroke:#0000ff;stroke-opacity:0.5;" x="239.575678" xlink:href="#m3ccc187cce" y="94.652689"/>
     <use style="fill:#0000ff;fill-opacity:0.5;stroke:#0000ff;stroke-opacity:0.5;" x="73.039766" xlink:href="#m3ccc187cce" y="68.80708"/>
     <use style="fill:#0000ff;fill-opacity:0.5;stroke:#0000ff;stroke-opacity:0.5;" x="91.124535" xlink:href="#m3ccc187cce" y="47.449521"/>
     <use style="fill:#0000ff;fill-opacity:0.5;stroke:#0000ff;stroke-opacity:0.5;" x="363.621923" xlink:href="#m3ccc187cce" y="39.596024"/>
     <use style="fill:#0000ff;fill-opacity:0.5;stroke:#0000ff;stroke-opacity:0.5;" x="242.127304" xlink:href="#m3ccc187cce" y="95.350255"/>
     <use style="fill:#0000ff;fill-opacity:0.5;stroke:#0000ff;stroke-opacity:0.5;" x="131.09325" xlink:href="#m3ccc187cce" y="49.563568"/>
     <use style="fill:#0000ff;fill-opacity:0.5;stroke:#0000ff;stroke-opacity:0.5;" x="146.016963" xlink:href="#m3ccc187cce" y="56.459372"/>
     <use style="fill:#0000ff;fill-opacity:0.5;stroke:#0000ff;stroke-opacity:0.5;" x="295.611724" xlink:href="#m3ccc187cce" y="145.876969"/>
     <use style="fill:#0000ff;fill-opacity:0.5;stroke:#0000ff;stroke-opacity:0.5;" x="128.699809" xlink:href="#m3ccc187cce" y="49.034945"/>
     <use style="fill:#0000ff;fill-opacity:0.5;stroke:#0000ff;stroke-opacity:0.5;" x="246.162699" xlink:href="#m3ccc187cce" y="83.82336"/>
     <use style="fill:#0000ff;fill-opacity:0.5;stroke:#0000ff;stroke-opacity:0.5;" x="364.456993" xlink:href="#m3ccc187cce" y="39.285467"/>
     <use style="fill:#0000ff;fill-opacity:0.5;stroke:#0000ff;stroke-opacity:0.5;" x="326.962075" xlink:href="#m3ccc187cce" y="70.338554"/>
     <use style="fill:#0000ff;fill-opacity:0.5;stroke:#0000ff;stroke-opacity:0.5;" x="142.219118" xlink:href="#m3ccc187cce" y="53.460975"/>
     <use style="fill:#0000ff;fill-opacity:0.5;stroke:#0000ff;stroke-opacity:0.5;" x="219.503728" xlink:href="#m3ccc187cce" y="102.424663"/>
     <use style="fill:#0000ff;fill-opacity:0.5;stroke:#0000ff;stroke-opacity:0.5;" x="257.910159" xlink:href="#m3ccc187cce" y="76.61057"/>
     <use style="fill:#0000ff;fill-opacity:0.5;stroke:#0000ff;stroke-opacity:0.5;" x="321.529823" xlink:href="#m3ccc187cce" y="71.831112"/>
     <use style="fill:#0000ff;fill-opacity:0.5;stroke:#0000ff;stroke-opacity:0.5;" x="116.939781" xlink:href="#m3ccc187cce" y="44.733556"/>
     <use style="fill:#0000ff;fill-opacity:0.5;stroke:#0000ff;stroke-opacity:0.5;" x="74.872102" xlink:href="#m3ccc187cce" y="78.546839"/>
     <use style="fill:#0000ff;fill-opacity:0.5;stroke:#0000ff;stroke-opacity:0.5;" x="90.530376" xlink:href="#m3ccc187cce" y="44.612364"/>
     <use style="fill:#0000ff;fill-opacity:0.5;stroke:#0000ff;stroke-opacity:0.5;" x="217.243948" xlink:href="#m3ccc187cce" y="87.275246"/>
     <use style="fill:#0000ff;fill-opacity:0.5;stroke:#0000ff;stroke-opacity:0.5;" x="253.762822" xlink:href="#m3ccc187cce" y="83.08925"/>
     <use style="fill:#0000ff;fill-opacity:0.5;stroke:#0000ff;stroke-opacity:0.5;" x="242.355874" xlink:href="#m3ccc187cce" y="95.12513"/>
     <use style="fill:#0000ff;fill-opacity:0.5;stroke:#0000ff;stroke-opacity:0.5;" x="165.811759" xlink:href="#m3ccc187cce" y="68.588463"/>
     <use style="fill:#0000ff;fill-opacity:0.5;stroke:#0000ff;stroke-opacity:0.5;" x="370.11699" xlink:href="#m3ccc187cce" y="35.984875"/>
     <use style="fill:#0000ff;fill-opacity:0.5;stroke:#0000ff;stroke-opacity:0.5;" x="245.671545" xlink:href="#m3ccc187cce" y="85.591679"/>
     <use style="fill:#0000ff;fill-opacity:0.5;stroke:#0000ff;stroke-opacity:0.5;" x="184.919331" xlink:href="#m3ccc187cce" y="74.93409"/>
     <use style="fill:#0000ff;fill-opacity:0.5;stroke:#0000ff;stroke-opacity:0.5;" x="236.906785" xlink:href="#m3ccc187cce" y="90.986374"/>
     <use style="fill:#0000ff;fill-opacity:0.5;stroke:#0000ff;stroke-opacity:0.5;" x="296.07088" xlink:href="#m3ccc187cce" y="142.611656"/>
     <use style="fill:#0000ff;fill-opacity:0.5;stroke:#0000ff;stroke-opacity:0.5;" x="272.908339" xlink:href="#m3ccc187cce" y="108.875975"/>
     <use style="fill:#0000ff;fill-opacity:0.5;stroke:#0000ff;stroke-opacity:0.5;" x="149.850062" xlink:href="#m3ccc187cce" y="58.22587"/>
     <use style="fill:#0000ff;fill-opacity:0.5;stroke:#0000ff;stroke-opacity:0.5;" x="89.408093" xlink:href="#m3ccc187cce" y="41.372663"/>
     <use style="fill:#0000ff;fill-opacity:0.5;stroke:#0000ff;stroke-opacity:0.5;" x="181.858354" xlink:href="#m3ccc187cce" y="77.266871"/>
     <use style="fill:#0000ff;fill-opacity:0.5;stroke:#0000ff;stroke-opacity:0.5;" x="260.881292" xlink:href="#m3ccc187cce" y="81.048295"/>
     <use style="fill:#0000ff;fill-opacity:0.5;stroke:#0000ff;stroke-opacity:0.5;" x="133.187508" xlink:href="#m3ccc187cce" y="50.699235"/>
     <use style="fill:#0000ff;fill-opacity:0.5;stroke:#0000ff;stroke-opacity:0.5;" x="298.329599" xlink:href="#m3ccc187cce" y="118.69124"/>
     <use style="fill:#0000ff;fill-opacity:0.5;stroke:#0000ff;stroke-opacity:0.5;" x="89.469467" xlink:href="#m3ccc187cce" y="41.482165"/>
     <use style="fill:#0000ff;fill-opacity:0.5;stroke:#0000ff;stroke-opacity:0.5;" x="148.448632" xlink:href="#m3ccc187cce" y="58.208287"/>
     <use style="fill:#0000ff;fill-opacity:0.5;stroke:#0000ff;stroke-opacity:0.5;" x="314.156207" xlink:href="#m3ccc187cce" y="101.856914"/>
     <use style="fill:#0000ff;fill-opacity:0.5;stroke:#0000ff;stroke-opacity:0.5;" x="128.092543" xlink:href="#m3ccc187cce" y="49.104621"/>
     <use style="fill:#0000ff;fill-opacity:0.5;stroke:#0000ff;stroke-opacity:0.5;" x="263.846821" xlink:href="#m3ccc187cce" y="87.15999"/>
     <use style="fill:#0000ff;fill-opacity:0.5;stroke:#0000ff;stroke-opacity:0.5;" x="228.908745" xlink:href="#m3ccc187cce" y="82.026325"/>
     <use style="fill:#0000ff;fill-opacity:0.5;stroke:#0000ff;stroke-opacity:0.5;" x="350.696099" xlink:href="#m3ccc187cce" y="47.073838"/>
     <use style="fill:#0000ff;fill-opacity:0.5;stroke:#0000ff;stroke-opacity:0.5;" x="149.356144" xlink:href="#m3ccc187cce" y="58.303121"/>
     <use style="fill:#0000ff;fill-opacity:0.5;stroke:#0000ff;stroke-opacity:0.5;" x="89.294339" xlink:href="#m3ccc187cce" y="41.188722"/>
     <use style="fill:#0000ff;fill-opacity:0.5;stroke:#0000ff;stroke-opacity:0.5;" x="292.945531" xlink:href="#m3ccc187cce" y="131.877343"/>
     <use style="fill:#0000ff;fill-opacity:0.5;stroke:#0000ff;stroke-opacity:0.5;" x="304.241095" xlink:href="#m3ccc187cce" y="101.688295"/>
     <use style="fill:#0000ff;fill-opacity:0.5;stroke:#0000ff;stroke-opacity:0.5;" x="345.524316" xlink:href="#m3ccc187cce" y="50.189729"/>
     <use style="fill:#0000ff;fill-opacity:0.5;stroke:#0000ff;stroke-opacity:0.5;" x="352.87659" xlink:href="#m3ccc187cce" y="44.356667"/>
     <use style="fill:#0000ff;fill-opacity:0.5;stroke:#0000ff;stroke-opacity:0.5;" x="73.464533" xlink:href="#m3ccc187cce" y="71.736024"/>
     <use style="fill:#0000ff;fill-opacity:0.5;stroke:#0000ff;stroke-opacity:0.5;" x="140.549479" xlink:href="#m3ccc187cce" y="52.674036"/>
     <use style="fill:#0000ff;fill-opacity:0.5;stroke:#0000ff;stroke-opacity:0.5;" x="256.943085" xlink:href="#m3ccc187cce" y="76.977139"/>
     <use style="fill:#0000ff;fill-opacity:0.5;stroke:#0000ff;stroke-opacity:0.5;" x="358.06424" xlink:href="#m3ccc187cce" y="41.741345"/>
    </g>
   </g>
   <g id="line2d_37">
    <path clip-path="url(#p9114194af1)" d="M 69.218182 37.441295 
L 69.827518 37.8883 
L 70.436855 38.593901 
L 71.046192 39.565188 
L 71.960197 41.521403 
L 73.17887 44.911187 
L 74.702211 49.274859 
L 75.311548 50.530763 
L 75.920885 51.296478 
L 76.530221 51.55889 
L 77.139558 51.431665 
L 78.358231 50.91501 
L 78.662899 50.924243 
L 78.967568 51.053589 
L 79.272236 51.333637 
L 79.576904 51.794552 
L 80.186241 53.381403 
L 80.795577 56.065669 
L 81.404914 60.086379 
L 82.014251 65.565418 
L 84.146929 87.389862 
L 84.451597 88.456838 
L 84.756265 88.490194 
L 85.060934 87.481042 
L 85.365602 85.521615 
L 85.974939 79.515084 
L 87.49828 62.743523 
L 88.107617 58.241562 
L 88.716953 55.322111 
L 89.32629 53.76574 
L 89.630958 53.423328 
L 89.935627 53.338395 
L 90.240295 53.492164 
L 90.544963 53.870172 
L 91.1543 55.255877 
L 91.763636 57.417876 
L 92.677641 61.876597 
L 95.114988 75.104384 
L 95.724324 77.171123 
L 96.333661 78.455146 
L 96.942998 79.028688 
L 97.247666 79.094767 
L 97.857002 78.898091 
L 98.771007 78.113046 
L 100.294349 76.633215 
L 101.208354 76.082122 
L 101.81769 75.927079 
L 102.427027 75.948701 
L 103.341032 76.285421 
L 104.559705 77.124018 
L 105.778378 77.910401 
L 106.387715 78.014478 
L 106.997052 77.745408 
L 107.606388 76.976293 
L 108.215725 75.626548 
L 108.825061 73.698547 
L 109.739066 69.984428 
L 111.262408 63.518927 
L 112.176413 60.707822 
L 112.785749 59.539414 
L 113.395086 58.980305 
L 113.699754 58.936326 
L 114.004423 59.055412 
L 114.309091 59.345017 
L 114.918428 60.480153 
L 115.527764 62.45375 
L 116.137101 65.376064 
L 117.051106 71.448829 
L 118.269779 79.937719 
L 118.574447 81.299412 
L 118.879115 82.102652 
L 119.183784 82.283585 
L 119.488452 81.838137 
L 119.79312 80.822395 
L 120.402457 77.531773 
L 121.925799 68.014904 
L 122.535135 65.380909 
L 123.144472 63.61511 
L 123.753808 62.58706 
L 124.363145 62.134729 
L 124.972482 62.105066 
L 125.581818 62.355898 
L 127.409828 63.400992 
L 128.019165 63.448383 
L 128.628501 63.249703 
L 129.542506 62.572944 
L 131.675184 60.640356 
L 132.589189 60.148275 
L 133.503194 59.948971 
L 134.417199 60.029827 
L 135.331204 60.372311 
L 136.245209 60.964974 
L 137.159214 61.796739 
L 138.377887 63.210218 
L 139.901229 65.042565 
L 140.510565 65.568649 
L 141.119902 65.845076 
L 141.729238 65.807209 
L 142.338575 65.43947 
L 142.947912 64.789813 
L 145.385258 61.639021 
L 146.299263 61.007561 
L 147.213268 60.743235 
L 148.127273 60.752248 
L 149.041278 60.968137 
L 149.955283 61.376971 
L 150.869287 61.999469 
L 152.392629 63.406116 
L 153.306634 64.127818 
L 153.915971 64.394634 
L 154.525307 64.47727 
L 157.57199 64.471874 
L 158.485995 64.919828 
L 159.4 65.692087 
L 160.314005 66.799796 
L 163.360688 70.942819 
L 163.970025 71.323699 
L 164.579361 71.491929 
L 165.493366 71.441359 
L 169.149386 70.710801 
L 170.063391 70.837424 
L 170.977396 71.139994 
L 172.196069 71.817039 
L 173.414742 72.768276 
L 175.54742 74.545268 
L 176.156757 74.850507 
L 176.766093 74.961362 
L 177.37543 74.844921 
L 177.984767 74.50632 
L 178.898771 73.698738 
L 180.422113 72.308737 
L 181.03145 71.993313 
L 181.640786 71.912892 
L 182.250123 72.123122 
L 182.859459 72.692455 
L 183.468796 73.714015 
L 184.078133 75.301197 
L 184.687469 77.547769 
L 185.601474 82.045932 
L 186.515479 86.744621 
L 187.124816 88.83362 
L 187.429484 89.324024 
L 187.734152 89.402316 
L 188.038821 89.085784 
L 188.648157 87.508103 
L 190.476167 81.203128 
L 191.085504 80.085767 
L 191.390172 79.806518 
L 191.69484 79.719511 
L 191.999509 79.829223 
L 192.304177 80.142261 
L 192.608845 80.668333 
L 193.218182 82.415627 
L 193.827518 85.211671 
L 194.436855 89.215682 
L 195.046192 94.54473 
L 195.960197 104.9654 
L 197.788206 130.508269 
L 199.00688 145.507769 
L 199.920885 153.58717 
L 200.530221 157.295279 
L 201.139558 159.722675 
L 201.748894 160.966607 
L 202.053563 161.176615 
L 202.358231 161.128039 
L 202.662899 160.832162 
L 202.967568 160.29984 
L 203.576904 158.568808 
L 204.186241 156.024087 
L 205.100246 150.902869 
L 206.318919 142.260217 
L 208.451597 124.777119 
L 211.193612 102.429541 
L 212.412285 94.024356 
L 213.32629 89.079579 
L 213.935627 86.60706 
L 214.544963 84.861035 
L 215.1543 83.885153 
L 215.458968 83.704166 
L 215.763636 83.7434 
L 216.068305 84.020527 
L 216.372973 84.559526 
L 216.677641 85.391725 
L 217.286978 88.100321 
L 217.896314 92.538314 
L 218.505651 99.097636 
L 219.419656 112.874931 
L 220.333661 127.66787 
L 220.942998 133.707544 
L 221.247666 134.556437 
L 221.552334 133.750176 
L 221.857002 131.350004 
L 222.466339 122.807945 
L 223.989681 96.795331 
L 224.599017 89.553216 
L 225.208354 84.583219 
L 225.81769 81.401878 
L 226.427027 79.508861 
L 227.036364 78.525895 
L 227.341032 78.293965 
L 227.6457 78.204942 
L 227.950369 78.242364 
L 228.559705 78.64685 
L 229.169042 79.426747 
L 230.083047 81.15463 
L 231.30172 84.140586 
L 235.567076 95.236867 
L 237.090418 98.59554 
L 238.309091 100.733374 
L 239.223096 101.866861 
L 239.832432 102.351259 
L 240.441769 102.59087 
L 241.051106 102.558289 
L 241.660442 102.218503 
L 242.269779 101.52705 
L 242.879115 100.433099 
L 243.488452 98.889813 
L 244.402457 95.689921 
L 245.316462 91.558401 
L 247.753808 79.952609 
L 248.667813 77.006861 
L 249.27715 75.669016 
L 249.886486 74.812347 
L 250.495823 74.412683 
L 250.800491 74.381694 
L 251.10516 74.465721 
L 251.714496 74.998306 
L 252.323833 76.0611 
L 252.93317 77.690758 
L 253.847174 81.021961 
L 254.761179 84.378802 
L 255.370516 85.673733 
L 255.675184 85.84899 
L 255.979853 85.680776 
L 256.284521 85.18841 
L 256.893857 83.445874 
L 258.721867 77.166281 
L 259.331204 75.906437 
L 259.940541 75.215807 
L 260.245209 75.077796 
L 260.549877 75.074918 
L 260.854545 75.20656 
L 261.463882 75.878727 
L 262.073219 77.114759 
L 262.682555 78.932385 
L 263.59656 82.688321 
L 266.643243 97.244673 
L 267.557248 99.828309 
L 268.471253 101.503706 
L 270.603931 104.760539 
L 271.213268 106.204477 
L 271.822604 108.115759 
L 272.431941 110.613633 
L 273.041278 113.817463 
L 273.955283 120.207202 
L 274.869287 128.810331 
L 275.783292 139.770048 
L 278.525307 176.871138 
L 279.134644 180.913294 
L 279.439312 181.587273 
L 279.74398 181.25306 
L 280.048649 179.881393 
L 280.353317 177.493807 
L 280.962654 170.015156 
L 281.876658 154.397641 
L 283.095332 133.31431 
L 283.704668 125.328313 
L 284.314005 119.824173 
L 284.618673 118.060043 
L 284.923342 116.959799 
L 285.22801 116.517787 
L 285.532678 116.721945 
L 285.837346 117.552092 
L 286.142015 118.97566 
L 286.751351 123.368989 
L 288.274693 136.874098 
L 288.579361 138.214473 
L 288.884029 138.521607 
L 289.188698 137.641423 
L 289.493366 135.524868 
L 290.102703 127.96992 
L 292.540049 89.792064 
L 293.149386 84.863887 
L 293.758722 82.056138 
L 294.063391 81.359524 
L 294.368059 81.102215 
L 294.672727 81.273905 
L 294.977396 81.876044 
L 295.282064 82.92111 
L 295.8914 86.433645 
L 296.500737 92.038322 
L 297.110074 99.904628 
L 298.024079 115.555045 
L 299.54742 143.466532 
L 300.156757 150.500726 
L 300.461425 152.402583 
L 300.766093 153.121844 
L 301.070762 152.658252 
L 301.37543 151.071766 
L 301.984767 145.012407 
L 302.898771 131.213724 
L 304.726781 101.988746 
L 305.640786 91.098427 
L 306.554791 83.203015 
L 307.468796 77.8092 
L 308.078133 75.306843 
L 308.687469 73.493421 
L 309.296806 72.236525 
L 309.906143 71.423727 
L 310.515479 70.953562 
L 311.124816 70.724512 
L 312.952826 70.298396 
L 313.562162 69.809729 
L 314.171499 68.978174 
L 314.780835 67.791984 
L 315.999509 64.713051 
L 317.218182 61.698545 
L 318.132187 60.072515 
L 318.741523 59.390996 
L 319.35086 59.044347 
L 319.960197 59.027093 
L 320.569533 59.315097 
L 321.483538 60.14945 
L 322.397543 60.9053 
L 322.702211 60.975445 
L 323.00688 60.895632 
L 323.311548 60.643442 
L 323.920885 59.611815 
L 324.834889 57.127139 
L 326.053563 53.750993 
L 326.967568 51.988664 
L 327.881572 50.864415 
L 328.795577 50.156966 
L 329.709582 49.702145 
L 330.928256 49.335588 
L 334.888943 48.414286 
L 336.716953 47.534478 
L 340.98231 45.371095 
L 343.724324 44.268764 
L 346.771007 43.061065 
L 348.294349 42.223439 
L 352.559705 39.631059 
L 353.778378 39.26513 
L 354.692383 39.264808 
L 355.30172 39.463458 
L 355.911057 39.85689 
L 356.825061 40.755383 
L 357.739066 41.624628 
L 358.348403 41.851457 
L 358.95774 41.646084 
L 359.567076 41.051237 
L 362.004423 37.956284 
L 362.918428 37.355334 
L 363.527764 37.176199 
L 364.137101 37.162077 
L 365.051106 37.399967 
L 367.183784 38.215287 
L 367.79312 38.205073 
L 368.402457 38.017195 
L 369.316462 37.457573 
L 371.753808 35.668196 
L 372.667813 35.368711 
L 373.27715 35.381566 
L 373.581818 35.464733 
L 373.581818 35.464733 
" style="fill:none;stroke:#ff0000;stroke-linecap:square;stroke-opacity:0.6;stroke-width:2;"/>
   </g>
   <g id="line2d_38">
    <defs>
     <path d="M 0 2.5 
C 0.663008 2.5 1.29895 2.236584 1.767767 1.767767 
C 2.236584 1.29895 2.5 0.663008 2.5 0 
C 2.5 -0.663008 2.236584 -1.29895 1.767767 -1.767767 
C 1.29895 -2.236584 0.663008 -2.5 0 -2.5 
C -0.663008 -2.5 -1.29895 -2.236584 -1.767767 -1.767767 
C -2.236584 -1.29895 -2.5 -0.663008 -2.5 0 
C -2.5 0.663008 -2.236584 1.29895 -1.767767 1.767767 
C -1.29895 2.236584 -0.663008 2.5 0 2.5 
z
" id="m7f19d38ca2" style="stroke:#ff0000;stroke-opacity:0.8;"/>
    </defs>
    <g clip-path="url(#p9114194af1)">
     <use style="fill:#ff0000;fill-opacity:0.8;stroke:#ff0000;stroke-opacity:0.8;" x="358.417241" xlink:href="#m7f19d38ca2" y="41.850548"/>
     <use style="fill:#ff0000;fill-opacity:0.8;stroke:#ff0000;stroke-opacity:0.8;" x="347.89546" xlink:href="#m7f19d38ca2" y="42.464086"/>
     <use style="fill:#ff0000;fill-opacity:0.8;stroke:#ff0000;stroke-opacity:0.8;" x="187.922348" xlink:href="#m7f19d38ca2" y="89.250708"/>
     <use style="fill:#ff0000;fill-opacity:0.8;stroke:#ff0000;stroke-opacity:0.8;" x="253.148318" xlink:href="#m7f19d38ca2" y="78.395928"/>
     <use style="fill:#ff0000;fill-opacity:0.8;stroke:#ff0000;stroke-opacity:0.8;" x="351.114129" xlink:href="#m7f19d38ca2" y="40.380155"/>
     <use style="fill:#ff0000;fill-opacity:0.8;stroke:#ff0000;stroke-opacity:0.8;" x="189.403959" xlink:href="#m7f19d38ca2" y="84.687868"/>
     <use style="fill:#ff0000;fill-opacity:0.8;stroke:#ff0000;stroke-opacity:0.8;" x="122.163961" xlink:href="#m7f19d38ca2" y="66.877736"/>
     <use style="fill:#ff0000;fill-opacity:0.8;stroke:#ff0000;stroke-opacity:0.8;" x="110.331366" xlink:href="#m7f19d38ca2" y="67.355027"/>
     <use style="fill:#ff0000;fill-opacity:0.8;stroke:#ff0000;stroke-opacity:0.8;" x="75.76955" xlink:href="#m7f19d38ca2" y="51.154948"/>
     <use style="fill:#ff0000;fill-opacity:0.8;stroke:#ff0000;stroke-opacity:0.8;" x="320.962054" xlink:href="#m7f19d38ca2" y="59.633543"/>
     <use style="fill:#ff0000;fill-opacity:0.8;stroke:#ff0000;stroke-opacity:0.8;" x="122.845915" xlink:href="#m7f19d38ca2" y="64.378403"/>
     <use style="fill:#ff0000;fill-opacity:0.8;stroke:#ff0000;stroke-opacity:0.8;" x="109.088858" xlink:href="#m7f19d38ca2" y="72.707747"/>
     <use style="fill:#ff0000;fill-opacity:0.8;stroke:#ff0000;stroke-opacity:0.8;" x="174.143483" xlink:href="#m7f19d38ca2" y="73.414445"/>
     <use style="fill:#ff0000;fill-opacity:0.8;stroke:#ff0000;stroke-opacity:0.8;" x="246.362134" xlink:href="#m7f19d38ca2" y="86.274065"/>
     <use style="fill:#ff0000;fill-opacity:0.8;stroke:#ff0000;stroke-opacity:0.8;" x="326.324629" xlink:href="#m7f19d38ca2" y="53.150781"/>
     <use style="fill:#ff0000;fill-opacity:0.8;stroke:#ff0000;stroke-opacity:0.8;" x="209.189012" xlink:href="#m7f19d38ca2" y="118.581874"/>
     <use style="fill:#ff0000;fill-opacity:0.8;stroke:#ff0000;stroke-opacity:0.8;" x="312.284075" xlink:href="#m7f19d38ca2" y="70.541331"/>
     <use style="fill:#ff0000;fill-opacity:0.8;stroke:#ff0000;stroke-opacity:0.8;" x="218.433527" xlink:href="#m7f19d38ca2" y="98.202566"/>
     <use style="fill:#ff0000;fill-opacity:0.8;stroke:#ff0000;stroke-opacity:0.8;" x="73.945946" xlink:href="#m7f19d38ca2" y="47.222683"/>
     <use style="fill:#ff0000;fill-opacity:0.8;stroke:#ff0000;stroke-opacity:0.8;" x="201.213492" xlink:href="#m7f19d38ca2" y="159.934638"/>
    </g>
   </g>
   <g id="patch_3">
    <path d="M 54 189 
L 54 25.92 
" style="fill:none;stroke:#bcbcbc;stroke-linecap:square;stroke-linejoin:miter;stroke-width:0.8;"/>
   </g>
   <g id="patch_4">
    <path d="M 388.8 189 
L 388.8 25.92 
" style="fill:none;stroke:#bcbcbc;stroke-linecap:square;stroke-linejoin:miter;stroke-width:0.8;"/>
   </g>
   <g id="patch_5">
    <path d="M 54 189 
L 388.8 189 
" style="fill:none;stroke:#bcbcbc;stroke-linecap:square;stroke-linejoin:miter;stroke-width:0.8;"/>
   </g>
   <g id="patch_6">
    <path d="M 54 25.92 
L 388.8 25.92 
" style="fill:none;stroke:#bcbcbc;stroke-linecap:square;stroke-linejoin:miter;stroke-width:0.8;"/>
   </g>
   <g id="text_20">
    <!-- low and high fidelity toy model -->
    <defs>
     <path d="M 9.421875 75.984375 
L 18.40625 75.984375 
L 18.40625 0 
L 9.421875 0 
z
" id="DejaVuSans-108"/>
     <path d="M 30.609375 48.390625 
Q 23.390625 48.390625 19.1875 42.75 
Q 14.984375 37.109375 14.984375 27.296875 
Q 14.984375 17.484375 19.15625 11.84375 
Q 23.34375 6.203125 30.609375 6.203125 
Q 37.796875 6.203125 41.984375 11.859375 
Q 46.1875 17.53125 46.1875 27.296875 
Q 46.1875 37.015625 41.984375 42.703125 
Q 37.796875 48.390625 30.609375 48.390625 
z
M 30.609375 56 
Q 42.328125 56 49.015625 48.375 
Q 55.71875 40.765625 55.71875 27.296875 
Q 55.71875 13.875 49.015625 6.21875 
Q 42.328125 -1.421875 30.609375 -1.421875 
Q 18.84375 -1.421875 12.171875 6.21875 
Q 5.515625 13.875 5.515625 27.296875 
Q 5.515625 40.765625 12.171875 48.375 
Q 18.84375 56 30.609375 56 
z
" id="DejaVuSans-111"/>
     <path d="M 4.203125 54.6875 
L 13.1875 54.6875 
L 24.421875 12.015625 
L 35.59375 54.6875 
L 46.1875 54.6875 
L 57.421875 12.015625 
L 68.609375 54.6875 
L 77.59375 54.6875 
L 63.28125 0 
L 52.6875 0 
L 40.921875 44.828125 
L 29.109375 0 
L 18.5 0 
z
" id="DejaVuSans-119"/>
     <path id="DejaVuSans-32"/>
     <path d="M 34.28125 27.484375 
Q 23.390625 27.484375 19.1875 25 
Q 14.984375 22.515625 14.984375 16.5 
Q 14.984375 11.71875 18.140625 8.90625 
Q 21.296875 6.109375 26.703125 6.109375 
Q 34.1875 6.109375 38.703125 11.40625 
Q 43.21875 16.703125 43.21875 25.484375 
L 43.21875 27.484375 
z
M 52.203125 31.203125 
L 52.203125 0 
L 43.21875 0 
L 43.21875 8.296875 
Q 40.140625 3.328125 35.546875 0.953125 
Q 30.953125 -1.421875 24.3125 -1.421875 
Q 15.921875 -1.421875 10.953125 3.296875 
Q 6 8.015625 6 15.921875 
Q 6 25.140625 12.171875 29.828125 
Q 18.359375 34.515625 30.609375 34.515625 
L 43.21875 34.515625 
L 43.21875 35.40625 
Q 43.21875 41.609375 39.140625 45 
Q 35.0625 48.390625 27.6875 48.390625 
Q 23 48.390625 18.546875 47.265625 
Q 14.109375 46.140625 10.015625 43.890625 
L 10.015625 52.203125 
Q 14.9375 54.109375 19.578125 55.046875 
Q 24.21875 56 28.609375 56 
Q 40.484375 56 46.34375 49.84375 
Q 52.203125 43.703125 52.203125 31.203125 
z
" id="DejaVuSans-97"/>
     <path d="M 54.890625 33.015625 
L 54.890625 0 
L 45.90625 0 
L 45.90625 32.71875 
Q 45.90625 40.484375 42.875 44.328125 
Q 39.84375 48.1875 33.796875 48.1875 
Q 26.515625 48.1875 22.3125 43.546875 
Q 18.109375 38.921875 18.109375 30.90625 
L 18.109375 0 
L 9.078125 0 
L 9.078125 54.6875 
L 18.109375 54.6875 
L 18.109375 46.1875 
Q 21.34375 51.125 25.703125 53.5625 
Q 30.078125 56 35.796875 56 
Q 45.21875 56 50.046875 50.171875 
Q 54.890625 44.34375 54.890625 33.015625 
z
" id="DejaVuSans-110"/>
     <path d="M 45.40625 46.390625 
L 45.40625 75.984375 
L 54.390625 75.984375 
L 54.390625 0 
L 45.40625 0 
L 45.40625 8.203125 
Q 42.578125 3.328125 38.25 0.953125 
Q 33.9375 -1.421875 27.875 -1.421875 
Q 17.96875 -1.421875 11.734375 6.484375 
Q 5.515625 14.40625 5.515625 27.296875 
Q 5.515625 40.1875 11.734375 48.09375 
Q 17.96875 56 27.875 56 
Q 33.9375 56 38.25 53.625 
Q 42.578125 51.265625 45.40625 46.390625 
z
M 14.796875 27.296875 
Q 14.796875 17.390625 18.875 11.75 
Q 22.953125 6.109375 30.078125 6.109375 
Q 37.203125 6.109375 41.296875 11.75 
Q 45.40625 17.390625 45.40625 27.296875 
Q 45.40625 37.203125 41.296875 42.84375 
Q 37.203125 48.484375 30.078125 48.484375 
Q 22.953125 48.484375 18.875 42.84375 
Q 14.796875 37.203125 14.796875 27.296875 
z
" id="DejaVuSans-100"/>
     <path d="M 54.890625 33.015625 
L 54.890625 0 
L 45.90625 0 
L 45.90625 32.71875 
Q 45.90625 40.484375 42.875 44.328125 
Q 39.84375 48.1875 33.796875 48.1875 
Q 26.515625 48.1875 22.3125 43.546875 
Q 18.109375 38.921875 18.109375 30.90625 
L 18.109375 0 
L 9.078125 0 
L 9.078125 75.984375 
L 18.109375 75.984375 
L 18.109375 46.1875 
Q 21.34375 51.125 25.703125 53.5625 
Q 30.078125 56 35.796875 56 
Q 45.21875 56 50.046875 50.171875 
Q 54.890625 44.34375 54.890625 33.015625 
z
" id="DejaVuSans-104"/>
     <path d="M 9.421875 54.6875 
L 18.40625 54.6875 
L 18.40625 0 
L 9.421875 0 
z
M 9.421875 75.984375 
L 18.40625 75.984375 
L 18.40625 64.59375 
L 9.421875 64.59375 
z
" id="DejaVuSans-105"/>
     <path d="M 45.40625 27.984375 
Q 45.40625 37.75 41.375 43.109375 
Q 37.359375 48.484375 30.078125 48.484375 
Q 22.859375 48.484375 18.828125 43.109375 
Q 14.796875 37.75 14.796875 27.984375 
Q 14.796875 18.265625 18.828125 12.890625 
Q 22.859375 7.515625 30.078125 7.515625 
Q 37.359375 7.515625 41.375 12.890625 
Q 45.40625 18.265625 45.40625 27.984375 
z
M 54.390625 6.78125 
Q 54.390625 -7.171875 48.1875 -13.984375 
Q 42 -20.796875 29.203125 -20.796875 
Q 24.46875 -20.796875 20.265625 -20.09375 
Q 16.0625 -19.390625 12.109375 -17.921875 
L 12.109375 -9.1875 
Q 16.0625 -11.328125 19.921875 -12.34375 
Q 23.78125 -13.375 27.78125 -13.375 
Q 36.625 -13.375 41.015625 -8.765625 
Q 45.40625 -4.15625 45.40625 5.171875 
L 45.40625 9.625 
Q 42.625 4.78125 38.28125 2.390625 
Q 33.9375 0 27.875 0 
Q 17.828125 0 11.671875 7.65625 
Q 5.515625 15.328125 5.515625 27.984375 
Q 5.515625 40.671875 11.671875 48.328125 
Q 17.828125 56 27.875 56 
Q 33.9375 56 38.28125 53.609375 
Q 42.625 51.21875 45.40625 46.390625 
L 45.40625 54.6875 
L 54.390625 54.6875 
z
" id="DejaVuSans-103"/>
     <path d="M 37.109375 75.984375 
L 37.109375 68.5 
L 28.515625 68.5 
Q 23.6875 68.5 21.796875 66.546875 
Q 19.921875 64.59375 19.921875 59.515625 
L 19.921875 54.6875 
L 34.71875 54.6875 
L 34.71875 47.703125 
L 19.921875 47.703125 
L 19.921875 0 
L 10.890625 0 
L 10.890625 47.703125 
L 2.296875 47.703125 
L 2.296875 54.6875 
L 10.890625 54.6875 
L 10.890625 58.5 
Q 10.890625 67.625 15.140625 71.796875 
Q 19.390625 75.984375 28.609375 75.984375 
z
" id="DejaVuSans-102"/>
     <path d="M 56.203125 29.59375 
L 56.203125 25.203125 
L 14.890625 25.203125 
Q 15.484375 15.921875 20.484375 11.0625 
Q 25.484375 6.203125 34.421875 6.203125 
Q 39.59375 6.203125 44.453125 7.46875 
Q 49.3125 8.734375 54.109375 11.28125 
L 54.109375 2.78125 
Q 49.265625 0.734375 44.1875 -0.34375 
Q 39.109375 -1.421875 33.890625 -1.421875 
Q 20.796875 -1.421875 13.15625 6.1875 
Q 5.515625 13.8125 5.515625 26.8125 
Q 5.515625 40.234375 12.765625 48.109375 
Q 20.015625 56 32.328125 56 
Q 43.359375 56 49.78125 48.890625 
Q 56.203125 41.796875 56.203125 29.59375 
z
M 47.21875 32.234375 
Q 47.125 39.59375 43.09375 43.984375 
Q 39.0625 48.390625 32.421875 48.390625 
Q 24.90625 48.390625 20.390625 44.140625 
Q 15.875 39.890625 15.1875 32.171875 
z
" id="DejaVuSans-101"/>
     <path d="M 18.3125 70.21875 
L 18.3125 54.6875 
L 36.8125 54.6875 
L 36.8125 47.703125 
L 18.3125 47.703125 
L 18.3125 18.015625 
Q 18.3125 11.328125 20.140625 9.421875 
Q 21.96875 7.515625 27.59375 7.515625 
L 36.8125 7.515625 
L 36.8125 0 
L 27.59375 0 
Q 17.1875 0 13.234375 3.875 
Q 9.28125 7.765625 9.28125 18.015625 
L 9.28125 47.703125 
L 2.6875 47.703125 
L 2.6875 54.6875 
L 9.28125 54.6875 
L 9.28125 70.21875 
z
" id="DejaVuSans-116"/>
     <path d="M 32.171875 -5.078125 
Q 28.375 -14.84375 24.75 -17.8125 
Q 21.140625 -20.796875 15.09375 -20.796875 
L 7.90625 -20.796875 
L 7.90625 -13.28125 
L 13.1875 -13.28125 
Q 16.890625 -13.28125 18.9375 -11.515625 
Q 21 -9.765625 23.484375 -3.21875 
L 25.09375 0.875 
L 2.984375 54.6875 
L 12.5 54.6875 
L 29.59375 11.921875 
L 46.6875 54.6875 
L 56.203125 54.6875 
z
" id="DejaVuSans-121"/>
     <path d="M 52 44.1875 
Q 55.375 50.25 60.0625 53.125 
Q 64.75 56 71.09375 56 
Q 79.640625 56 84.28125 50.015625 
Q 88.921875 44.046875 88.921875 33.015625 
L 88.921875 0 
L 79.890625 0 
L 79.890625 32.71875 
Q 79.890625 40.578125 77.09375 44.375 
Q 74.3125 48.1875 68.609375 48.1875 
Q 61.625 48.1875 57.5625 43.546875 
Q 53.515625 38.921875 53.515625 30.90625 
L 53.515625 0 
L 44.484375 0 
L 44.484375 32.71875 
Q 44.484375 40.625 41.703125 44.40625 
Q 38.921875 48.1875 33.109375 48.1875 
Q 26.21875 48.1875 22.15625 43.53125 
Q 18.109375 38.875 18.109375 30.90625 
L 18.109375 0 
L 9.078125 0 
L 9.078125 54.6875 
L 18.109375 54.6875 
L 18.109375 46.1875 
Q 21.1875 51.21875 25.484375 53.609375 
Q 29.78125 56 35.6875 56 
Q 41.65625 56 45.828125 52.96875 
Q 50 49.953125 52 44.1875 
z
" id="DejaVuSans-109"/>
    </defs>
    <g transform="translate(109.891125 19.92)scale(0.144 -0.144)">
     <use xlink:href="#DejaVuSans-108"/>
     <use x="27.783203" xlink:href="#DejaVuSans-111"/>
     <use x="88.964844" xlink:href="#DejaVuSans-119"/>
     <use x="170.751953" xlink:href="#DejaVuSans-32"/>
     <use x="202.539062" xlink:href="#DejaVuSans-97"/>
     <use x="263.818359" xlink:href="#DejaVuSans-110"/>
     <use x="327.197266" xlink:href="#DejaVuSans-100"/>
     <use x="390.673828" xlink:href="#DejaVuSans-32"/>
     <use x="422.460938" xlink:href="#DejaVuSans-104"/>
     <use x="485.839844" xlink:href="#DejaVuSans-105"/>
     <use x="513.623047" xlink:href="#DejaVuSans-103"/>
     <use x="577.099609" xlink:href="#DejaVuSans-104"/>
     <use x="640.478516" xlink:href="#DejaVuSans-32"/>
     <use x="672.265625" xlink:href="#DejaVuSans-102"/>
     <use x="707.470703" xlink:href="#DejaVuSans-105"/>
     <use x="735.253906" xlink:href="#DejaVuSans-100"/>
     <use x="798.730469" xlink:href="#DejaVuSans-101"/>
     <use x="860.253906" xlink:href="#DejaVuSans-108"/>
     <use x="888.037109" xlink:href="#DejaVuSans-105"/>
     <use x="915.820312" xlink:href="#DejaVuSans-116"/>
     <use x="955.029297" xlink:href="#DejaVuSans-121"/>
     <use x="1014.208984" xlink:href="#DejaVuSans-32"/>
     <use x="1045.996094" xlink:href="#DejaVuSans-116"/>
     <use x="1085.205078" xlink:href="#DejaVuSans-111"/>
     <use x="1146.386719" xlink:href="#DejaVuSans-121"/>
     <use x="1205.566406" xlink:href="#DejaVuSans-32"/>
     <use x="1237.353516" xlink:href="#DejaVuSans-109"/>
     <use x="1334.765625" xlink:href="#DejaVuSans-111"/>
     <use x="1395.947266" xlink:href="#DejaVuSans-100"/>
     <use x="1459.423828" xlink:href="#DejaVuSans-101"/>
     <use x="1520.947266" xlink:href="#DejaVuSans-108"/>
    </g>
   </g>
  </g>
 </g>
 <defs>
  <clipPath id="p9114194af1">
   <rect height="163.08" width="334.8" x="54" y="25.92"/>
  </clipPath>
 </defs>
</svg>
